<?xml version="1.0" encoding="UTF-8" standalone="no"?>
<!-- Created with Inkscape (http://www.inkscape.org/) -->

<svg
   xmlns:dc="http://purl.org/dc/elements/1.1/"
   xmlns:cc="http://creativecommons.org/ns#"
   xmlns:rdf="http://www.w3.org/1999/02/22-rdf-syntax-ns#"
   xmlns:svg="http://www.w3.org/2000/svg"
   xmlns="http://www.w3.org/2000/svg"
   xmlns:sodipodi="http://sodipodi.sourceforge.net/DTD/sodipodi-0.dtd"
   xmlns:inkscape="http://www.inkscape.org/namespaces/inkscape"
   width="100"
   height="100"
   viewBox="0 0 26.458333 26.458334"
   version="1.1"
   id="svg8"
   inkscape:version="0.92.4 (5da689c313, 2019-01-14)"
   sodipodi:docname="drawing6.svg">
  <defs
     id="defs2" />
  <sodipodi:namedview
     id="base"
     pagecolor="#ffffff"
     bordercolor="#666666"
     borderopacity="1.0"
     inkscape:pageopacity="0.0"
     inkscape:pageshadow="2"
     inkscape:zoom="3.959798"
     inkscape:cx="50.749988"
     inkscape:cy="24.5692"
     inkscape:document-units="mm"
     inkscape:current-layer="layer1"
     showgrid="false"
     units="px"
     inkscape:window-width="1920"
     inkscape:window-height="986"
     inkscape:window-x="-11"
     inkscape:window-y="-11"
     inkscape:window-maximized="1" />
  <metadata
     id="metadata5">
    <rdf:RDF>
      <cc:Work
         rdf:about="">
        <dc:format>image/svg+xml</dc:format>
        <dc:type
           rdf:resource="http://purl.org/dc/dcmitype/StillImage" />
        <dc:title></dc:title>
      </cc:Work>
    </rdf:RDF>
  </metadata>
  <g
     inkscape:label="Vrstva 1"
     inkscape:groupmode="layer"
     id="layer1"
     transform="translate(0,-270.54165)">
    <path
       style="fill:#000000;stroke-width:0.07706723"
       d="m 6.066493,296.28273 c -1.0895501,-1.04878 -2.7818088,-3.13606 -3.6708277,-4.5277 -0.5688116,-0.8904 -1.48716126,-2.81464 -1.69995903,-3.56198 -0.25954071,-0.9115 -0.38124784,-1.90001 -0.32175901,-2.61333 0.23444191,-2.81115 2.09638824,-5.06041 4.78661904,-5.78233 0.8744321,-0.23464 2.4394587,-0.23464 3.3138906,0 2.2638031,0.60748 3.9917641,2.33559 4.5973071,4.59772 0.252428,0.94299 0.238862,2.44042 -0.03122,3.44496 -0.271426,1.00959 -0.80154,2.24045 -1.393352,3.2352 -0.611656,1.02811 -1.79807,2.68515 -2.4916824,3.48008 -0.2898108,0.33214 -0.6421001,0.73717 -0.7828637,0.90007 l -0.2559347,0.29618 0.1596002,0.1596 c 0.3046319,0.30462 0.1638973,0.7249 -0.2844429,0.8494 -0.1584529,0.044 -0.5258824,0.0802 -0.8165125,0.0804 l -0.5284179,5.8e-4 -0.5804561,-0.55874 z m 1.5327005,-1.57987 c 2.6696065,-3.01171 4.1624685,-5.56181 4.5412175,-7.75728 0.108699,-0.63009 0.057,-1.66638 -0.115684,-2.31927 -0.486446,-1.83906 -1.949202,-3.29202 -3.8200053,-3.79443 -0.6811973,-0.18294 -2.0932235,-0.18294 -2.7744202,0 -1.8708026,0.50241 -3.3335596,1.95537 -3.8200063,3.79443 -0.1726933,0.65289 -0.2243829,1.68918 -0.1156835,2.31927 0.3095295,1.79423 1.6390668,4.30446 3.4248895,6.4664 0.6127235,0.74177 1.8464362,2.11934 1.8980104,2.11934 0.026022,0 0.3777797,-0.37281 0.7816819,-0.82846 z m -1.6294217,-5.53753 c -2.3726007,-0.63479 -3.1722933,-3.64921 -1.4302432,-5.39125 1.8545151,-1.85453 5.0137361,-0.83003 5.4591589,1.77034 0.3911075,2.28327 -1.7697951,4.22533 -4.0289157,3.62091 z m 1.7881743,-1.18185 c 0.438443,-0.22086 0.7578777,-0.5428 0.9987865,-1.00662 0.1419544,-0.27331 0.1801277,-0.46929 0.1801277,-0.9248 0,-0.45552 -0.03817,-0.65151 -0.1801277,-0.92482 -0.4205773,-0.80974 -1.0452604,-1.19454 -1.939221,-1.19454 -0.4555095,0 -0.651501,0.0382 -0.9248067,0.18014 -0.8097437,0.42057 -1.1945421,1.04525 -1.1945421,1.93922 0,0.62976 0.1639289,1.06169 0.5656423,1.49042 0.6141325,0.65542 1.6905991,0.84576 2.494141,0.441 z m 2.2482379,8.32135 c -0.090064,-0.0373 -0.1994611,-0.17024 -0.2431048,-0.29543 -0.1307222,-0.37499 0.020995,-0.55568 0.7081018,-0.84332 0.333981,-0.13982 0.844529,-0.41197 1.134553,-0.60478 0.603212,-0.40102 0.849149,-0.42118 1.095464,-0.0897 0.241467,0.32485 0.114136,0.56597 -0.528186,1.00022 -0.518594,0.3506 -1.40901,0.77334 -1.810407,0.85953 -0.105968,0.0227 -0.266358,0.0108 -0.356421,-0.0265 z m 3.43911,-2.93139 c -0.225094,-0.22509 -0.19079,-0.49126 0.142796,-1.10798 0.163311,-0.30193 0.394233,-0.79173 0.513158,-1.08844 0.312613,-0.77993 0.608289,-0.97927 1.022377,-0.68923 0.247932,0.17366 0.219699,0.5237 -0.103217,1.27967 -0.694443,1.62578 -1.120702,2.0604 -1.575114,1.60598 z m 2.080815,-4.13924 c -0.220297,-0.081 -0.385335,-0.27834 -0.385335,-0.46076 0,-0.45365 0.783111,-1.59989 1.398542,-2.04704 0.482629,-0.35067 0.759045,-0.37315 0.989305,-0.0804 0.205246,0.26092 0.154808,0.54092 -0.135957,0.75473 -0.425075,0.31258 -0.832904,0.78617 -1.083558,1.25828 -0.16305,0.30709 -0.327332,0.51141 -0.448153,0.55735 -0.104905,0.0399 -0.197155,0.0698 -0.204992,0.0665 -0.0079,-0.003 -0.06628,-0.0252 -0.129852,-0.0485 z m 3.719174,-2.16481 c -0.207491,-0.0312 -0.405282,-0.29163 -0.405282,-0.53355 0,-0.26556 0.25515,-0.46655 0.668783,-0.52682 0.570452,-0.0832 1.154887,-0.32775 1.357098,-0.56807 0.342257,-0.40675 0.658505,-0.46979 0.940751,-0.18754 0.478459,0.47845 -0.448383,1.45689 -1.617954,1.70802 -0.531766,0.11418 -0.74215,0.13825 -0.943396,0.10796 z m 2.305507,-3.35358 c -0.139556,-0.14856 -0.16757,-0.26983 -0.16757,-0.72538 v -0.54699 l -0.605869,-0.84638 c -1.39771,-1.95256 -2.544535,-3.96421 -2.886261,-5.06281 -0.382382,-1.2293 -0.344172,-2.03167 0.148101,-3.11 0.200071,-0.43826 0.396584,-0.70462 0.866632,-1.17466 0.67068,-0.67069 1.283161,-1.01613 2.120157,-1.1958 0.938825,-0.20153 1.863097,-0.0872 2.785978,0.3447 0.749571,0.35077 1.644651,1.25999 1.994234,2.02576 0.727931,1.59455 0.502815,2.89142 -0.941178,5.42201 -0.339306,0.59464 -1.552769,2.4427 -2.125188,3.23658 -0.253851,0.35207 -0.277664,0.43003 -0.277664,0.90905 0,0.45353 -0.02543,0.54937 -0.189167,0.71312 -0.237433,0.23743 -0.505528,0.24144 -0.722205,0.0108 z m 1.269729,-3.65574 c 0.997175,-1.498 1.594125,-2.55093 1.998937,-3.52582 0.253476,-0.61043 0.288476,-0.77216 0.291898,-1.34868 0.003,-0.5026 -0.03568,-0.75372 -0.166095,-1.07893 -0.664142,-1.65611 -2.539953,-2.49101 -4.178578,-1.85985 -1.287593,0.49596 -2.180111,1.86907 -2.048686,3.15186 0.06132,0.59853 0.419424,1.50973 1.021757,2.59987 0.41981,0.75981 2.107998,3.35241 2.182938,3.35241 0.0212,0 0.425215,-0.58089 0.897829,-1.29086 z m -1.418735,-3.87221 c -0.727062,-0.44329 -0.727062,-1.40715 0,-1.85044 0.900866,-0.54927 1.995395,0.54526 1.446129,1.44613 -0.197862,0.32453 -0.584472,0.55746 -0.925223,0.55746 -0.148354,0 -0.382763,-0.0689 -0.520906,-0.15315 z"
       id="path4529"
       inkscape:connector-curvature="0" />
  </g>
</svg>
