<?xml version="1.0" encoding="UTF-8" standalone="no"?>
<!-- Created with Inkscape (http://www.inkscape.org/) -->

<svg
   xmlns:dc="http://purl.org/dc/elements/1.1/"
   xmlns:cc="http://creativecommons.org/ns#"
   xmlns:rdf="http://www.w3.org/1999/02/22-rdf-syntax-ns#"
   xmlns:svg="http://www.w3.org/2000/svg"
   xmlns="http://www.w3.org/2000/svg"
   xmlns:sodipodi="http://sodipodi.sourceforge.net/DTD/sodipodi-0.dtd"
   xmlns:inkscape="http://www.inkscape.org/namespaces/inkscape"
   width="100"
   height="100"
   viewBox="0 0 26.458332 26.458334"
   version="1.1"
   id="svg8"
   inkscape:version="0.92.4 (5da689c313, 2019-01-14)"
   sodipodi:docname="drawing1.svg">
  <defs
     id="defs2" />
  <sodipodi:namedview
     id="base"
     pagecolor="#ffffff"
     bordercolor="#666666"
     borderopacity="1.0"
     inkscape:pageopacity="0.0"
     inkscape:pageshadow="2"
     inkscape:zoom="5.6"
     inkscape:cx="67.602037"
     inkscape:cy="52.052707"
     inkscape:document-units="mm"
     inkscape:current-layer="layer1"
     showgrid="false"
     units="px"
     inkscape:window-width="1920"
     inkscape:window-height="986"
     inkscape:window-x="-11"
     inkscape:window-y="-11"
     inkscape:window-maximized="1" />
  <metadata
     id="metadata5">
    <rdf:RDF>
      <cc:Work
         rdf:about="">
        <dc:format>image/svg+xml</dc:format>
        <dc:type
           rdf:resource="http://purl.org/dc/dcmitype/StillImage" />
        <dc:title></dc:title>
      </cc:Work>
    </rdf:RDF>
  </metadata>
  <g
     inkscape:label="Vrstva 1"
     inkscape:groupmode="layer"
     id="layer1"
     transform="translate(0,-270.54165)">
    <path
       style="fill:#000000;stroke-width:0.07488938"
       d="m 5.2756722,294.23149 c -0.1853513,-0.0517 -0.685285,-0.27615 -1.1109637,-0.49881 l -0.7739614,-0.40482 -0.7238262,0.001 c -0.6678499,10e-4 -0.7601961,0.0199 -1.194125,0.24339 -0.55087798,0.28371 -0.62230098,0.29191 -0.80309598,0.0921 -0.113304,-0.1252 -0.121397,-0.18175 -0.04881,-0.34105 0.123791,-0.27169 0.93396098,-0.63221 1.65351118,-0.7358 0.5773752,-0.0831 0.5843902,-0.0869 1.1431534,-0.60786 0.6254803,-0.58321 1.4300877,-0.90993 2.4032737,-1.46775 0.3792624,-0.21739 1.2862013,-0.49836 2.0784953,-0.65812 0.8409911,-0.16958 1.5595895,-0.20769 1.6225415,-0.0695 0.06928,0.15205 -0.5892198,0.54339 -1.4045985,0.69838 -0.7153389,0.13596 -1.4363746,0.46972 -1.7619552,0.59982 -0.9122763,0.36453 -1.7764486,0.83457 -2.2339456,1.23491 l -0.4158511,0.3639 0.3919116,0.19101 c 0.2155514,0.10506 0.5941128,0.30104 0.8412477,0.43553 0.4223852,0.22985 0.4942646,0.24452 1.1983979,0.24452 0.8075643,0 0.6592241,0.0473 1.9485959,-0.6218 0.6347012,-0.32939 1.3776605,-0.44643 2.0749003,-0.32687 0.30147,0.0517 0.741123,0.19652 0.992284,0.32687 0.248037,0.12872 0.613982,0.3186 0.813212,0.42196 0.267375,0.13871 0.516741,0.19686 0.952237,0.22208 0.699357,0.0405 1.078277,-0.0638 1.832128,-0.50436 1.214253,-0.70956 2.460444,-0.68478 3.760259,0.0748 0.267227,0.15616 0.654262,0.32432 0.860076,0.3737 0.564545,0.13543 1.374267,0.0592 1.820948,-0.17148 0.972899,-0.50238 1.198931,-0.62063 1.23363,-0.64536 0.02061,-0.0147 -0.140085,-0.1864 -0.357066,-0.3816 -0.78559,-0.70673 -2.616029,-1.48904 -4.360962,-1.86383 -1.619014,-0.34775 -2.40714,-0.41861 -4.643142,-0.41748 -1.861968,8.5e-4 -2.268148,0.0229 -3.1827992,0.17186 -1.6070317,0.26175 -1.7122519,0.26892 -1.8318572,0.12481 -0.075615,-0.0911 -0.084463,-0.17923 -0.032766,-0.32629 0.06276,-0.17854 0.1388119,-0.21597 0.6681654,-0.32889 0.8617152,-0.1838 2.303929,-0.34799 3.565085,-0.40585 l 1.095506,-0.0503 1.460058,-3.67737 1.460059,-3.67737 -0.196551,-0.0462 c -0.108101,-0.0254 -0.483001,-0.0295 -0.833107,-0.009 l -0.63656,0.0371 -0.636561,-0.63578 c -1.067283,-1.06598 -2.209769,-1.5103 -3.780323,-1.4702 -0.4545961,0.0116 -0.8684027,-0.005 -0.9195687,-0.0364 -0.3168284,-0.19581 0.072155,-0.80319 1.2403597,-1.93676 1.51108,-1.46629 3.071646,-2.38056 4.844985,-2.83848 0.572734,-0.1479 0.854045,-0.17352 1.872234,-0.17055 1.044023,0.003 1.290502,0.0283 1.915206,0.19597 1.473217,0.39551 2.683074,1.04516 3.649244,1.95952 0.391173,0.37019 0.965785,1.16984 1.433369,1.96507 0.528125,0.89819 0.928007,1.78799 0.928007,1.99528 0,0.40989 -0.557143,0.45873 -0.687135,0.0343 -0.226533,-0.73965 -1.48606,-2.78428 -1.967341,-3.26271 -0.536917,-0.53373 -1.527024,-1.27279 -1.603155,-1.19666 -0.02185,0.0219 0.01053,0.23263 0.07196,0.46841 0.387317,1.48702 0.308197,3.41298 -0.222733,5.42194 -0.101661,0.38467 -0.18484,0.7301 -0.18484,0.76762 0,0.0375 0.227476,0.0688 0.505504,0.0695 1.206638,0.003 2.602761,0.53062 3.557714,1.34427 l 0.304771,0.25967 -0.04813,-1.04601 c -0.0274,-0.59519 -0.115007,-1.35264 -0.203306,-1.75746 -0.282786,-1.29647 -0.271235,-1.44162 0.114696,-1.44162 0.233213,0 0.303513,0.0846 0.419843,0.5055 0.310479,1.12327 0.475192,2.62253 0.417306,3.79846 -0.07023,1.42674 -0.216805,1.49678 -1.17522,0.5616 -0.687548,-0.67089 -1.296521,-1.03795 -2.208166,-1.33099 -0.423998,-0.13628 -0.708086,-0.16992 -1.485852,-0.17589 l -0.961625,-0.007 -0.552079,-0.56074 c -0.34658,-0.35201 -0.576909,-0.5332 -0.618785,-0.48678 -0.06574,0.0729 -2.635205,6.47059 -2.635019,6.56093 5.4e-5,0.0256 0.210723,0.07 0.468154,0.0987 0.753673,0.084 2.134767,0.39528 3.004991,0.67734 1.513828,0.49066 2.58148,1.0756 3.402909,1.86438 0.469069,0.45042 0.48747,0.45981 1.063141,0.54206 0.669102,0.0956 1.514477,0.45564 1.645737,0.7009 0.06897,0.12887 0.0623,0.19868 -0.03285,0.3439 -0.154209,0.23535 -0.22201,0.2304 -0.837696,-0.0612 -0.463525,-0.21953 -0.581224,-0.24339 -1.20053,-0.24339 -0.680935,0 -0.692735,0.003 -1.425027,0.38534 -0.406124,0.21193 -0.92049,0.43941 -1.143038,0.5055 -0.850258,0.2525 -1.834204,0.10481 -2.725596,-0.40912 -0.751839,-0.43347 -1.150012,-0.54506 -1.796725,-0.50356 -0.548765,0.0352 -0.796264,0.12632 -1.762706,0.64885 -1.055817,0.57086 -2.353902,0.49545 -3.501687,-0.20341 -1.053742,-0.6416 -2.0050432,-0.62107 -3.1721491,0.0685 -0.8232104,0.48636 -1.8601748,0.64466 -2.6960175,0.41156 z m 11.3274168,-8.37384 1.3787,-3.46364 -0.343186,-0.1628 c -0.654562,-0.31051 -0.47376,-0.60579 -2.071461,3.38304 -0.791905,1.97708 -1.424296,3.61997 -1.405312,3.65086 0.01899,0.0309 0.265829,0.0562 0.548542,0.0562 h 0.51402 z m 3.42103,-3.65 c 0.33648,-1.24701 0.401824,-1.73135 0.409322,-3.03388 0.0058,-0.99867 -0.02281,-1.40228 -0.13244,-1.87224 -0.164184,-0.70375 -0.334963,-1.16078 -0.433752,-1.16078 -0.246517,0 -1.303978,0.71856 -1.951031,1.32576 -0.296655,0.27838 -1.110266,1.00416 -1.340445,1.42831 -0.197958,0.36477 -0.279247,-0.0318 -0.35796,-0.11048 -0.06536,-0.0653 -0.482111,0.2036 -0.357325,-0.0231 0.239037,-0.43432 1.197916,-1.4916 1.529612,-1.81182 0.278617,-0.26898 0.767925,-0.65967 1.087354,-0.8682 0.319429,-0.20852 0.554372,-0.39545 0.522099,-0.4154 -0.314006,-0.19407 -2.198071,-0.27224 -3.010536,-0.12491 -1.702281,0.30868 -3.363832,1.21616 -4.854717,2.65148 l -0.786043,0.75674 0.577509,0.0581 c 1.180855,0.11872 2.478406,0.68233 3.326639,1.44496 0.214651,0.19299 0.397389,0.33816 0.406078,0.3226 0.0087,-0.0156 0.11327,-0.21363 0.232393,-0.44017 0.352328,-0.67004 0.921458,-1.59749 1.091455,-1.77863 0.205597,-0.21907 0.418637,-0.21393 0.567789,0.0137 0.07913,0.23004 -0.071,0.4997 -0.16729,0.64483 -0.127446,0.22458 -0.997093,1.67211 -0.997093,1.77418 0,0.0651 0.13014,0.0948 0.415051,0.0948 0.575287,0 1.468009,0.19513 2.108062,0.46079 0.540183,0.2242 1.434075,0.80332 1.701022,1.10203 0.07847,0.0878 0.16745,0.15964 0.197742,0.15964 0.03029,0 0.127722,-0.26922 0.216505,-0.59826 z M 4.4186907,280.39278 c -0.1292555,-0.18454 -0.1555873,-0.76967 -0.047437,-1.05412 0.086138,-0.22656 0.3216416,-0.29489 0.5251265,-0.15237 0.1307307,0.0916 0.1546235,0.18783 0.1546235,0.62294 0,0.36799 -0.033533,0.54816 -0.1176833,0.63231 -0.166137,0.16613 -0.3781832,0.14604 -0.51463,-0.0488 z M 1.723776,279.3182 c -0.064726,-0.0647 -0.1176831,-0.17779 -0.1176831,-0.25125 0,-0.13958 0.7561593,-0.90419 0.8941892,-0.90419 0.1185687,0 0.3789298,0.28318 0.3789298,0.41214 0,0.17568 -0.7000894,0.86098 -0.8795556,0.86098 -0.087008,0 -0.2111546,-0.053 -0.2758803,-0.11768 z m 5.177925,-0.24062 c -0.3697626,-0.3754 -0.4352,-0.59716 -0.2352261,-0.79714 0.1889774,-0.18897 0.3302533,-0.14048 0.7167985,0.24607 0.3698659,0.36987 0.4584518,0.63493 0.2738809,0.8195 -0.1716974,0.1717 -0.4028397,0.0896 -0.7554533,-0.26843 z m -2.6500364,-0.39312 c -0.9598604,-0.19225 -1.7404694,-0.99863 -1.8914809,-1.95392 -0.1192393,-0.7543 0.1587624,-1.58043 0.6947998,-2.06471 1.2240002,-1.10581 3.0925247,-0.74747 3.7858099,0.72603 0.2774914,0.58977 0.274647,1.36946 -0.00711,1.94712 -0.2275476,0.46652 -0.3585411,0.62913 -0.7393768,0.91781 -0.4839582,0.36686 -1.2539881,0.54558 -1.8426478,0.42767 z m 1.182678,-0.88067 c 0.249977,-0.13059 0.4853415,-0.32999 0.6263889,-0.53068 0.2041666,-0.29049 0.2259473,-0.37734 0.2259473,-0.90089 0,-0.50556 -0.026035,-0.61875 -0.204269,-0.88808 -0.3910313,-0.59089 -1.2499576,-0.9035 -1.8963245,-0.69018 -0.4638271,0.15307 -0.9148996,0.62688 -1.0547353,1.10791 -0.4064292,1.39806 1.0170961,2.57368 2.3029926,1.90192 z m -4.78514868,-1.18051 c -0.202118,-0.14157 -0.213723,-0.34164 -0.02949,-0.50837 0.20904,-0.18918 1.01319598,-0.17202 1.21105588,0.0258 0.082378,0.0824 0.1497786,0.18348 0.1497786,0.22467 0,0.0412 -0.0674,0.14229 -0.1497786,0.22467 -0.1905459,0.19054 -0.92736588,0.21125 -1.18156688,0.0332 z m 6.91595358,-0.001 c -0.1626844,-0.16268 -0.1480998,-0.45988 0.027172,-0.55369 0.07967,-0.0426 0.3346371,-0.0775 0.5665934,-0.0775 0.5098867,0 0.7114492,0.0947 0.7114492,0.33429 0,0.3064 -0.1856703,0.4146 -0.7114492,0.4146 -0.3329498,0 -0.5114635,-0.0354 -0.5937658,-0.11768 z M 2.0065879,274.1677 c -0.2202725,-0.22027 -0.400495,-0.45376 -0.400495,-0.51887 0,-0.1666 0.2065931,-0.35375 0.3904944,-0.35375 0.1839689,0 0.8826246,0.67325 0.8826246,0.85053 0,0.14094 -0.2571627,0.42259 -0.385843,0.42259 -0.047457,0 -0.2665086,-0.18022 -0.486781,-0.4005 z m 4.7668718,0.33964 c -0.3404119,-0.11057 -0.2886529,-0.44342 0.1336288,-0.85935 0.358696,-0.3533 0.5816254,-0.43148 0.7500658,-0.26304 0.1674115,0.16741 0.093789,0.43345 -0.2116494,0.76481 -0.3081414,0.33429 -0.4732515,0.42215 -0.6720452,0.35758 z m -2.3983135,-1.1048 c -0.1927742,-0.50703 -0.016179,-1.2308 0.3003086,-1.2308 0.2716822,0 0.3755492,0.20446 0.3755492,0.73927 0,0.55839 -0.071681,0.68363 -0.3912783,0.68363 -0.1581701,0 -0.229971,-0.0485 -0.2845795,-0.1921 z"
       id="path826"
       inkscape:connector-curvature="0"
       sodipodi:nodetypes="csccccssssssssscccssssccscscccscccsscccccccsccsscsssssccccscscccsccccccccccsccsccsccccssscccccscscccccssscscscsccsccscccssccsccsccssscsssscsscsscssscsccscscssscccscccccsssccsssssscsssccsssc" />
  </g>
</svg>
