  0
SECTION
  2
HEADER
  9
$ACADVER
  1
AC1014
  9
$HANDSEED
  5
FFFF
  9
$MEASUREMENT
 70
     1
  0
ENDSEC
  0
SECTION
  2
TABLES
  0
TABLE
  2
VPORT
  5
8
330
0
100
AcDbSymbolTable
 70
     4
  0
VPORT
  5
2E
330
8
100
AcDbSymbolTableRecord
100
AcDbViewportTableRecord
  2
*ACTIVE
 70
     0
 10
0.0
 20
0.0
 11
1.0
 21
1.0
 12
210.0
 22
148.5
 13
0.0
 23
0.0
 14
10.0
 24
10.0
 15
10.0
 25
10.0
 16
0.0
 26
0.0
 36
1.0
 17
0.0
 27
0.0
 37
0.0
 40
341.0
 41
1.24
 42
50.0
 43
0.0
 44
0.0
 50
0.0
 51
0.0
 71
     0
 72
   100
 73
     1
 74
     3
 75
     0
 76
     0
 77
     0
 78
     0
  0
ENDTAB
  0
TABLE
  2
LTYPE
  5
5
330
0
100
AcDbSymbolTable
 70
     1
  0
LTYPE
  5
14
330
5
100
AcDbSymbolTableRecord
100
AcDbLinetypeTableRecord
  2
BYBLOCK
 70
     0
  3

 72
    65
 73
     0
 40
0.0
  0
LTYPE
  5
15
330
5
100
AcDbSymbolTableRecord
100
AcDbLinetypeTableRecord
  2
BYLAYER
 70
     0
  3

 72
    65
 73
     0
 40
0.0
  0
LTYPE
  5
16
330
5
100
AcDbSymbolTableRecord
100
AcDbLinetypeTableRecord
  2
CONTINUOUS
 70
     0
  3
Solid line
 72
    65
 73
     0
 40
0.0
  0
ENDTAB
  0
TABLE
  2
LAYER
  5
2
100
AcDbSymbolTable
 70
2
  0
LAYER
  5
50
100
AcDbSymbolTableRecord
100
AcDbLayerTableRecord
  2
0
 70
0
  6
CONTINUOUS
  0
LAYER
  5
51
100
AcDbSymbolTableRecord
100
AcDbLayerTableRecord
  2
Vrstva_1
 70
0
  6
CONTINUOUS
  0
ENDTAB
  0
TABLE
  2
STYLE
  5
3
330
0
100
AcDbSymbolTable
 70
     1
  0
STYLE
  5
11
330
3
100
AcDbSymbolTableRecord
100
AcDbTextStyleTableRecord
  2
STANDARD
 70
     0
 40
0.0
 41
1.0
 50
0.0
 71
     0
 42
2.5
  3
txt
  4

  0
ENDTAB
  0
TABLE
  2
VIEW
  5
6
330
0
100
AcDbSymbolTable
 70
     0
  0
ENDTAB
  0
TABLE
  2
UCS
  5
7
330
0
100
AcDbSymbolTable
 70
     0
  0
ENDTAB
  0
TABLE
  2
APPID
  5
9
330
0
100
AcDbSymbolTable
 70
     2
  0
APPID
  5
12
330
9
100
AcDbSymbolTableRecord
100
AcDbRegAppTableRecord
  2
ACAD
 70
     0
  0
ENDTAB
  0
TABLE
  2
DIMSTYLE
  5
A
330
0
100
AcDbSymbolTable
 70
     1
  0
DIMSTYLE
105
27
330
A
100
AcDbSymbolTableRecord
100
AcDbDimStyleTableRecord
  2
ISO-25
 70
     0
  3

  4

  5

  6

  7

 40
1.0
 41
2.5
 42
0.625
 43
3.75
 44
1.25
 45
0.0
 46
0.0
 47
0.0
 48
0.0
140
2.5
141
2.5
142
0.0
143
0.03937007874016
144
1.0
145
0.0
146
1.0
147
0.625
 71
     0
 72
     0
 73
     0
 74
     0
 75
     0
 76
     0
 77
     1
 78
     8
170
     0
171
     3
172
     1
173
     0
174
     0
175
     0
176
     0
177
     0
178
     0
270
     2
271
     2
272
     2
273
     2
274
     3
340
11
275
     0
280
     0
281
     0
282
     0
283
     0
284
     8
285
     0
286
     0
287
     3
288
     0
  0
ENDTAB
  0
TABLE
  2
BLOCK_RECORD
  5
1
330
0
100
AcDbSymbolTable
 70
     1
  0
BLOCK_RECORD
  5
1F
330
1
100
AcDbSymbolTableRecord
100
AcDbBlockTableRecord
  2
*MODEL_SPACE
  0
BLOCK_RECORD
  5
1B
330
1
100
AcDbSymbolTableRecord
100
AcDbBlockTableRecord
  2
*PAPER_SPACE
  0
ENDTAB
  0
ENDSEC
  0
SECTION
  2
BLOCKS
  0
BLOCK
  5
20
330
1F
100
AcDbEntity
  8
0
100
AcDbBlockBegin
  2
*MODEL_SPACE
 70
     0
 10
0.0
 20
0.0
 30
0.0
  3
*MODEL_SPACE
  1

  0
ENDBLK
  5
21
330
1F
100
AcDbEntity
  8
0
100
AcDbBlockEnd
  0
BLOCK
  5
1C
330
1B
100
AcDbEntity
 67
     1
  8
0
100
AcDbBlockBegin
  2
*PAPER_SPACE
  1

  0
ENDBLK
  5
1D
330
1B
100
AcDbEntity
 67
     1
  8
0
100
AcDbBlockEnd
  0
ENDSEC
  0
SECTION
  2
ENTITIES
  0
SPLINE
  5
100
100
AcDbEntity
  8
Vrstva_1
 62
7
100
AcDbSpline
 70
8
 71
3
 72
8
 73
4
 74
0
 40
0
 40
0
 40
0
 40
0
 40
1
 40
1
 40
1
 40
1
 10
29.035589
 20
8.502808
 30
0.0
 10
29.035589
 20
8.502808
 30
0.0
 10
30.555915
 20
10.345803
 30
0.0
 10
30.914912
 20
11.456034
 30
0.0
  0
SPLINE
  5
101
100
AcDbEntity
  8
Vrstva_1
 62
7
100
AcDbSpline
 70
8
 71
3
 72
8
 73
4
 74
0
 40
0
 40
0
 40
0
 40
0
 40
1
 40
1
 40
1
 40
1
 10
30.914912
 20
11.456034
 30
0.0
 10
31.266575
 20
12.543582
 30
0.0
 10
31.116269
 20
14.879088
 30
0.0
 10
31.116269
 20
14.879088
 30
0.0
  0
SPLINE
  5
102
100
AcDbEntity
  8
Vrstva_1
 62
7
100
AcDbSpline
 70
8
 71
3
 72
8
 73
4
 74
0
 40
0
 40
0
 40
0
 40
0
 40
1
 40
1
 40
1
 40
1
 10
31.250506
 20
39.041831
 30
0.0
 10
31.250506
 20
39.041831
 30
0.0
 10
17.802780
 20
38.956902
 30
0.0
 10
17.692523
 20
39.377425
 30
0.0
  0
SPLINE
  5
103
100
AcDbEntity
  8
Vrstva_1
 62
7
100
AcDbSpline
 70
8
 71
3
 72
8
 73
4
 74
0
 40
0
 40
0
 40
0
 40
0
 40
1
 40
1
 40
1
 40
1
 10
17.692523
 20
39.377425
 30
0.0
 10
17.625152
 20
39.634378
 30
0.0
 10
22.214522
 20
45.260297
 30
0.0
 10
24.807108
 20
47.901502
 30
0.0
  0
SPLINE
  5
104
100
AcDbEntity
  8
Vrstva_1
 62
7
100
AcDbSpline
 70
8
 71
3
 72
8
 73
4
 74
0
 40
0
 40
0
 40
0
 40
0
 40
1
 40
1
 40
1
 40
1
 10
24.807108
 20
47.901502
 30
0.0
 10
26.673638
 20
49.803035
 30
0.0
 10
28.582419
 20
51.733967
 30
0.0
 10
30.847794
 20
53.136762
 30
0.0
  0
SPLINE
  5
105
100
AcDbEntity
  8
Vrstva_1
 62
7
100
AcDbSpline
 70
8
 71
3
 72
8
 73
4
 74
0
 40
0
 40
0
 40
0
 40
0
 40
1
 40
1
 40
1
 40
1
 10
30.847794
 20
53.136762
 30
0.0
 10
31.836903
 20
53.749251
 30
0.0
 10
32.907013
 20
54.433094
 30
0.0
 10
34.069491
 20
54.479138
 30
0.0
  0
SPLINE
  5
106
100
AcDbEntity
  8
Vrstva_1
 62
7
100
AcDbSpline
 70
8
 71
3
 72
8
 73
4
 74
0
 40
0
 40
0
 40
0
 40
0
 40
1
 40
1
 40
1
 40
1
 10
34.069491
 20
54.479138
 30
0.0
 10
35.221825
 20
54.524779
 30
0.0
 10
36.344323
 20
53.954585
 30
0.0
 10
37.358311
 20
53.405239
 30
0.0
  0
SPLINE
  5
107
100
AcDbEntity
  8
Vrstva_1
 62
7
100
AcDbSpline
 70
8
 71
3
 72
8
 73
4
 74
0
 40
0
 40
0
 40
0
 40
0
 40
1
 40
1
 40
1
 40
1
 10
37.358311
 20
53.405239
 30
0.0
 10
39.680879
 20
52.146947
 30
0.0
 10
41.621255
 20
50.261079
 30
0.0
 10
43.533234
 20
48.438454
 30
0.0
  0
SPLINE
  5
108
100
AcDbEntity
  8
Vrstva_1
 62
7
100
AcDbSpline
 70
8
 71
3
 72
8
 73
4
 74
0
 40
0
 40
0
 40
0
 40
0
 40
1
 40
1
 40
1
 40
1
 10
43.533234
 20
48.438454
 30
0.0
 10
46.389660
 20
45.715521
 30
0.0
 10
52.054722
 20
39.990342
 30
0.0
 10
51.386126
 20
39.578779
 30
0.0
  0
SPLINE
  5
109
100
AcDbEntity
  8
Vrstva_1
 62
7
100
AcDbSpline
 70
8
 71
3
 72
8
 73
4
 74
0
 40
0
 40
0
 40
0
 40
0
 40
1
 40
1
 40
1
 40
1
 10
51.386126
 20
39.578779
 30
0.0
 10
50.407320
 20
38.976263
 30
0.0
 10
37.828141
 20
39.192846
 30
0.0
 10
37.828141
 20
39.192846
 30
0.0
  0
LWPOLYLINE
  5
10a
100
AcDbEntity
  8
Vrstva_1
 62
7
100
AcDbPolyline
 90
2
 70
0
 10
31.116269
 20
14.879088
 30
0.0
 10
31.250506
 20
39.041831
 30
0.0
  0
SPLINE
  5
10b
100
AcDbEntity
  8
Vrstva_1
 62
7
100
AcDbSpline
 70
8
 71
3
 72
8
 73
4
 74
0
 40
0
 40
0
 40
0
 40
0
 40
1
 40
1
 40
1
 40
1
 10
38.029498
 20
15.684514
 30
0.0
 10
38.029498
 20
15.684514
 30
0.0
 10
37.976026
 20
13.118927
 30
0.0
 10
37.761023
 20
11.858745
 30
0.0
  0
SPLINE
  5
10c
100
AcDbEntity
  8
Vrstva_1
 62
7
100
AcDbSpline
 70
8
 71
3
 72
8
 73
4
 74
0
 40
0
 40
0
 40
0
 40
0
 40
1
 40
1
 40
1
 40
1
 10
37.761023
 20
11.858745
 30
0.0
 10
37.562025
 20
10.692370
 30
0.0
 10
36.821360
 20
8.435691
 30
0.0
 10
36.821360
 20
8.435691
 30
0.0
  0
SPLINE
  5
10d
100
AcDbEntity
  8
Vrstva_1
 62
7
100
AcDbSpline
 70
8
 71
3
 72
8
 73
4
 74
0
 40
0
 40
0
 40
0
 40
0
 40
1
 40
1
 40
1
 40
1
 10
31.250506
 20
39.041831
 30
0.0
 10
31.250506
 20
39.041831
 30
0.0
 10
33.336096
 20
39.159818
 30
0.0
 10
34.380076
 20
39.184872
 30
0.0
  0
SPLINE
  5
10e
100
AcDbEntity
  8
Vrstva_1
 62
7
100
AcDbSpline
 70
8
 71
3
 72
8
 73
4
 74
0
 40
0
 40
0
 40
0
 40
0
 40
1
 40
1
 40
1
 40
1
 10
34.380076
 20
39.184872
 30
0.0
 10
35.529101
 20
39.212446
 30
0.0
 10
37.828141
 20
39.192850
 30
0.0
 10
37.828141
 20
39.192850
 30
0.0
  0
SPLINE
  5
10f
100
AcDbEntity
  8
Vrstva_1
 62
7
100
AcDbSpline
 70
8
 71
3
 72
8
 73
4
 74
0
 40
0
 40
0
 40
0
 40
0
 40
1
 40
1
 40
1
 40
1
 10
22.847213
 20
45.523133
 30
0.0
 10
22.847213
 20
45.523133
 30
0.0
 10
23.944692
 20
44.193300
 30
0.0
 10
24.650698
 20
43.719648
 30
0.0
  0
SPLINE
  5
110
100
AcDbEntity
  8
Vrstva_1
 62
7
100
AcDbSpline
 70
8
 71
3
 72
8
 73
4
 74
0
 40
0
 40
0
 40
0
 40
0
 40
1
 40
1
 40
1
 40
1
 10
24.650698
 20
43.719648
 30
0.0
 10
25.263106
 20
43.308790
 30
0.0
 10
25.960614
 20
42.963717
 30
0.0
 10
26.691484
 20
42.865365
 30
0.0
  0
SPLINE
  5
111
100
AcDbEntity
  8
Vrstva_1
 62
7
100
AcDbSpline
 70
8
 71
3
 72
8
 73
4
 74
0
 40
0
 40
0
 40
0
 40
0
 40
1
 40
1
 40
1
 40
1
 10
26.691484
 20
42.865365
 30
0.0
 10
27.545219
 20
42.750478
 30
0.0
 10
28.463031
 20
42.857142
 30
0.0
 10
29.254329
 20
43.197586
 30
0.0
  0
SPLINE
  5
112
100
AcDbEntity
  8
Vrstva_1
 62
7
100
AcDbSpline
 70
8
 71
3
 72
8
 73
4
 74
0
 40
0
 40
0
 40
0
 40
0
 40
1
 40
1
 40
1
 40
1
 10
29.254329
 20
43.197586
 30
0.0
 10
30.266577
 20
43.633108
 30
0.0
 10
31.262602
 20
44.333583
 30
0.0
 10
31.817174
 20
45.285832
 30
0.0
  0
SPLINE
  5
113
100
AcDbEntity
  8
Vrstva_1
 62
7
100
AcDbSpline
 70
8
 71
3
 72
8
 73
4
 74
0
 40
0
 40
0
 40
0
 40
0
 40
1
 40
1
 40
1
 40
1
 10
31.817174
 20
45.285832
 30
0.0
 10
32.342034
 20
46.187058
 30
0.0
 10
32.493028
 20
47.339218
 30
0.0
 10
32.339236
 20
48.370739
 30
0.0
  0
SPLINE
  5
114
100
AcDbEntity
  8
Vrstva_1
 62
7
100
AcDbSpline
 70
8
 71
3
 72
8
 73
4
 74
0
 40
0
 40
0
 40
0
 40
0
 40
1
 40
1
 40
1
 40
1
 10
32.339236
 20
48.370739
 30
0.0
 10
32.203609
 20
49.280425
 30
0.0
 10
31.629654
 20
50.083051
 30
0.0
 10
31.105274
 20
50.838664
 30
0.0
  0
SPLINE
  5
115
100
AcDbEntity
  8
Vrstva_1
 62
7
100
AcDbSpline
 70
8
 71
3
 72
8
 73
4
 74
0
 40
0
 40
0
 40
0
 40
0
 40
1
 40
1
 40
1
 40
1
 10
31.105274
 20
50.838664
 30
0.0
 10
30.747888
 20
51.353644
 30
0.0
 10
29.823851
 20
52.215007
 30
0.0
 10
29.823851
 20
52.215007
 30
0.0
  0
SPLINE
  5
116
100
AcDbEntity
  8
Vrstva_1
 62
7
100
AcDbSpline
 70
8
 71
3
 72
8
 73
4
 74
0
 40
0
 40
0
 40
0
 40
0
 40
1
 40
1
 40
1
 40
1
 10
38.936190
 20
51.977706
 30
0.0
 10
38.936190
 20
51.977706
 30
0.0
 10
38.066494
 20
50.983389
 30
0.0
 10
37.939528
 20
50.364062
 30
0.0
  0
SPLINE
  5
117
100
AcDbEntity
  8
Vrstva_1
 62
7
100
AcDbSpline
 70
8
 71
3
 72
8
 73
4
 74
0
 40
0
 40
0
 40
0
 40
0
 40
1
 40
1
 40
1
 40
1
 10
37.939528
 20
50.364062
 30
0.0
 10
37.811024
 20
49.737218
 30
0.0
 10
37.936151
 20
49.036981
 30
0.0
 10
38.224289
 20
48.465659
 30
0.0
  0
SPLINE
  5
118
100
AcDbEntity
  8
Vrstva_1
 62
7
100
AcDbSpline
 70
8
 71
3
 72
8
 73
4
 74
0
 40
0
 40
0
 40
0
 40
0
 40
1
 40
1
 40
1
 40
1
 10
38.224289
 20
48.465659
 30
0.0
 10
38.536626
 20
47.846408
 30
0.0
 10
39.092018
 20
47.336112
 30
0.0
 10
39.695553
 20
46.994396
 30
0.0
  0
SPLINE
  5
119
100
AcDbEntity
  8
Vrstva_1
 62
7
100
AcDbSpline
 70
8
 71
3
 72
8
 73
4
 74
0
 40
0
 40
0
 40
0
 40
0
 40
1
 40
1
 40
1
 40
1
 10
39.695553
 20
46.994396
 30
0.0
 10
40.206402
 20
46.705158
 30
0.0
 10
40.820095
 20
46.507722
 30
0.0
 10
41.404117
 20
46.567254
 30
0.0
  0
SPLINE
  5
11a
100
AcDbEntity
  8
Vrstva_1
 62
7
100
AcDbSpline
 70
8
 71
3
 72
8
 73
4
 74
0
 40
0
 40
0
 40
0
 40
0
 40
1
 40
1
 40
1
 40
1
 10
41.404117
 20
46.567254
 30
0.0
 10
42.312188
 20
46.659818
 30
0.0
 10
43.872042
 20
47.753756
 30
0.0
 10
43.872042
 20
47.753756
 30
0.0
  0
SPLINE
  5
11b
100
AcDbEntity
  8
Vrstva_1
 62
7
100
AcDbSpline
 70
8
 71
3
 72
8
 73
4
 74
0
 40
0
 40
0
 40
0
 40
0
 40
1
 40
1
 40
1
 40
1
 10
44.014423
 20
8.741548
 30
0.0
 10
44.061883
 20
8.931389
 30
0.0
 10
44.631405
 20
21.603237
 30
0.0
 10
44.631405
 20
21.603237
 30
0.0
  0
LWPOLYLINE
  5
11c
100
AcDbEntity
  8
Vrstva_1
 62
7
100
AcDbPolyline
 90
3
 70
0
 10
37.828141
 20
39.192846
 30
0.0
 10
38.029498
 20
24.342828
 30
0.0
 10
38.029498
 20
15.684514
 30
0.0
  0
SPLINE
  5
11d
100
AcDbEntity
  8
Vrstva_1
 62
7
100
AcDbSpline
 70
8
 71
3
 72
8
 73
4
 74
0
 40
0
 40
0
 40
0
 40
0
 40
1
 40
1
 40
1
 40
1
 10
44.631405
 20
21.603237
 30
0.0
 10
44.631405
 20
21.603237
 30
0.0
 10
38.365248
 20
21.299365
 30
0.0
 10
38.224289
 20
21.603237
 30
0.0
  0
SPLINE
  5
11e
100
AcDbEntity
  8
Vrstva_1
 62
7
100
AcDbSpline
 70
8
 71
3
 72
8
 73
4
 74
0
 40
0
 40
0
 40
0
 40
0
 40
1
 40
1
 40
1
 40
1
 10
38.224289
 20
21.603237
 30
0.0
 10
38.069556
 20
21.936805
 30
0.0
 10
40.543986
 20
24.681091
 30
0.0
 10
41.878717
 20
26.064488
 30
0.0
  0
SPLINE
  5
11f
100
AcDbEntity
  8
Vrstva_1
 62
7
100
AcDbSpline
 70
8
 71
3
 72
8
 73
4
 74
0
 40
0
 40
0
 40
0
 40
0
 40
1
 40
1
 40
1
 40
1
 10
41.878717
 20
26.064488
 30
0.0
 10
42.759501
 20
26.977385
 30
0.0
 10
43.670524
 20
27.828621
 30
0.0
 10
44.734467
 20
28.579873
 30
0.0
  0
SPLINE
  5
120
100
AcDbEntity
  8
Vrstva_1
 62
7
100
AcDbSpline
 70
8
 71
3
 72
8
 73
4
 74
0
 40
0
 40
0
 40
0
 40
0
 40
1
 40
1
 40
1
 40
1
 10
44.734467
 20
28.579873
 30
0.0
 10
45.168883
 20
28.886616
 30
0.0
 10
45.725880
 20
29.271487
 30
0.0
 10
46.245049
 20
29.386696
 30
0.0
  0
SPLINE
  5
121
100
AcDbEntity
  8
Vrstva_1
 62
7
100
AcDbSpline
 70
8
 71
3
 72
8
 73
4
 74
0
 40
0
 40
0
 40
0
 40
0
 40
1
 40
1
 40
1
 40
1
 10
46.245049
 20
29.386696
 30
0.0
 10
46.741435
 20
29.496848
 30
0.0
 10
47.293723
 20
29.438189
 30
0.0
 10
47.763770
 20
29.244315
 30
0.0
  0
SPLINE
  5
122
100
AcDbEntity
  8
Vrstva_1
 62
7
100
AcDbSpline
 70
8
 71
3
 72
8
 73
4
 74
0
 40
0
 40
0
 40
0
 40
0
 40
1
 40
1
 40
1
 40
1
 10
47.763770
 20
29.244315
 30
0.0
 10
49.052088
 20
28.712938
 30
0.0
 10
49.984459
 20
27.550334
 30
0.0
 10
50.991058
 20
26.586547
 30
0.0
  0
SPLINE
  5
123
100
AcDbEntity
  8
Vrstva_1
 62
7
100
AcDbSpline
 70
8
 71
3
 72
8
 73
4
 74
0
 40
0
 40
0
 40
0
 40
0
 40
1
 40
1
 40
1
 40
1
 10
50.991058
 20
26.586547
 30
0.0
 10
52.543293
 20
25.100331
 30
0.0
 10
55.568509
 20
22.052371
 30
0.0
 10
55.301784
 20
21.792583
 30
0.0
  0
SPLINE
  5
124
100
AcDbEntity
  8
Vrstva_1
 62
7
100
AcDbSpline
 70
8
 71
3
 72
8
 73
4
 74
0
 40
0
 40
0
 40
0
 40
0
 40
1
 40
1
 40
1
 40
1
 10
55.301784
 20
21.792583
 30
0.0
 10
54.992938
 20
21.491771
 30
0.0
 10
49.045195
 20
21.603237
 30
0.0
 10
49.045195
 20
21.603237
 30
0.0
  0
SPLINE
  5
125
100
AcDbEntity
  8
Vrstva_1
 62
7
100
AcDbSpline
 70
8
 71
3
 72
8
 73
4
 74
0
 40
0
 40
0
 40
0
 40
0
 40
1
 40
1
 40
1
 40
1
 10
5.657327
 20
66.256915
 30
0.0
 10
8.995303
 20
69.594890
 30
0.0
 10
66.804374
 20
70.460145
 30
0.0
 10
70.061818
 20
65.612863
 30
0.0
  0
SPLINE
  5
126
100
AcDbEntity
  8
Vrstva_1
 62
7
100
AcDbSpline
 70
8
 71
3
 72
8
 73
4
 74
0
 40
0
 40
0
 40
0
 40
0
 40
1
 40
1
 40
1
 40
1
 10
70.061818
 20
65.612863
 30
0.0
 10
73.205748
 20
60.934540
 30
0.0
 10
75.227475
 20
16.095760
 30
0.0
 10
70.061818
 20
11.860873
 30
0.0
  0
SPLINE
  5
127
100
AcDbEntity
  8
Vrstva_1
 62
7
100
AcDbSpline
 70
8
 71
3
 72
8
 73
4
 74
0
 40
0
 40
0
 40
0
 40
0
 40
1
 40
1
 40
1
 40
1
 10
70.061818
 20
11.860873
 30
0.0
 10
64.279784
 20
7.120671
 30
0.0
 10
10.864559
 20
6.678204
 30
0.0
 10
5.657327
 20
11.860873
 30
0.0
  0
SPLINE
  5
128
100
AcDbEntity
  8
Vrstva_1
 62
7
100
AcDbSpline
 70
8
 71
3
 72
8
 73
4
 74
0
 40
0
 40
0
 40
0
 40
0
 40
1
 40
1
 40
1
 40
1
 10
5.657327
 20
11.860873
 30
0.0
 10
0.395491
 20
17.097862
 30
0.0
 10
2.079533
 20
62.192263
 30
0.0
 10
5.657327
 20
66.256915
 30
0.0
  0
LWPOLYLINE
  5
129
100
AcDbEntity
  8
Vrstva_1
 62
7
100
AcDbPolyline
 90
3
 70
0
 10
44.631405
 20
21.603237
 30
0.0
 10
49.045195
 20
21.603237
 30
0.0
 10
49.424875
 20
8.599168
 30
0.0
  0
SPLINE
  5
12a
100
AcDbEntity
  8
Vrstva_1
 62
7
100
AcDbSpline
 70
8
 71
3
 72
8
 73
4
 74
0
 40
0
 40
0
 40
0
 40
0
 40
1
 40
1
 40
1
 40
1
 10
-1127.936849
 20
1023.625837
 30
0.0
 10
-1130.640052
 20
1023.825963
 30
0.0
 10
-1131.193800
 20
1024.152372
 30
0.0
 10
-1131.604115
 20
1025.787254
 30
0.0
  0
SPLINE
  5
12b
100
AcDbEntity
  8
Vrstva_1
 62
7
100
AcDbSpline
 70
8
 71
3
 72
8
 73
4
 74
0
 40
0
 40
0
 40
0
 40
0
 40
1
 40
1
 40
1
 40
1
 10
-1131.604115
 20
1025.787254
 30
0.0
 10
-1132.475230
 20
1029.257994
 30
0.0
 10
-1131.290717
 20
1040.065903
 30
0.0
 10
-1129.626213
 20
1043.834394
 30
0.0
  0
SPLINE
  5
12c
100
AcDbEntity
  8
Vrstva_1
 62
7
100
AcDbSpline
 70
8
 71
3
 72
8
 73
4
 74
0
 40
0
 40
0
 40
0
 40
0
 40
1
 40
1
 40
1
 40
1
 10
-1129.626213
 20
1043.834394
 30
0.0
 10
-1126.409145
 20
1051.117988
 30
0.0
 10
-1123.664953
 20
1052.881591
 30
0.0
 10
-1102.440345
 20
1061.305846
 30
0.0
  0
LWPOLYLINE
  5
12d
100
AcDbEntity
  8
Vrstva_1
 62
7
100
AcDbPolyline
 90
1
 70
1
 10
5.657327
 20
66.256915
 30
0.0
  0
SPLINE
  5
12e
100
AcDbEntity
  8
Vrstva_1
 62
7
100
AcDbSpline
 70
8
 71
3
 72
8
 73
4
 74
0
 40
0
 40
0
 40
0
 40
0
 40
1
 40
1
 40
1
 40
1
 10
-1092.133516
 20
1068.399831
 30
0.0
 10
-1092.136351
 20
1070.930858
 30
0.0
 10
-1092.482093
 20
1071.596319
 30
0.0
 10
-1094.334222
 20
1072.650042
 30
0.0
  0
SPLINE
  5
12f
100
AcDbEntity
  8
Vrstva_1
 62
7
100
AcDbSpline
 70
8
 71
3
 72
8
 73
4
 74
0
 40
0
 40
0
 40
0
 40
0
 40
1
 40
1
 40
1
 40
1
 10
-1094.334222
 20
1072.650042
 30
0.0
 10
-1095.542008
 20
1073.337160
 30
0.0
 10
-1097.363041
 20
1075.218656
 30
0.0
 10
-1098.380934
 20
1076.831116
 30
0.0
  0
SPLINE
  5
130
100
AcDbEntity
  8
Vrstva_1
 62
7
100
AcDbSpline
 70
8
 71
3
 72
8
 73
4
 74
0
 40
0
 40
0
 40
0
 40
0
 40
1
 40
1
 40
1
 40
1
 10
-1098.380934
 20
1076.831116
 30
0.0
 10
-1099.398826
 20
1078.443576
 30
0.0
 10
-1101.940937
 20
1081.193962
 30
0.0
 10
-1104.030042
 20
1082.943051
 30
0.0
  0
SPLINE
  5
131
100
AcDbEntity
  8
Vrstva_1
 62
7
100
AcDbSpline
 70
8
 71
3
 72
8
 73
4
 74
0
 40
0
 40
0
 40
0
 40
0
 40
1
 40
1
 40
1
 40
1
 10
-1104.030042
 20
1082.943051
 30
0.0
 10
-1108.655957
 20
1086.816085
 30
0.0
 10
-1113.997705
 20
1094.670491
 30
0.0
 10
-1116.466427
 20
1101.229237
 30
0.0
  0
SPLINE
  5
132
100
AcDbEntity
  8
Vrstva_1
 62
7
100
AcDbSpline
 70
8
 71
3
 72
8
 73
4
 74
0
 40
0
 40
0
 40
0
 40
0
 40
1
 40
1
 40
1
 40
1
 10
-1116.466427
 20
1101.229237
 30
0.0
 10
-1119.487195
 20
1109.254681
 30
0.0
 10
-1119.976455
 20
1116.249963
 30
0.0
 10
-1119.730805
 20
1147.900727
 30
0.0
  0
LWPOLYLINE
  5
133
100
AcDbEntity
  8
Vrstva_1
 62
7
100
AcDbPolyline
 90
3
 70
0
 10
-1102.440345
 20
1061.305846
 30
0.0
 10
-1092.127847
 20
1065.398961
 30
0.0
 10
-1092.133516
 20
1068.399831
 30
0.0
  0
SPLINE
  5
134
100
AcDbEntity
  8
Vrstva_1
 62
7
100
AcDbSpline
 70
8
 71
3
 72
8
 73
4
 74
0
 40
0
 40
0
 40
0
 40
0
 40
1
 40
1
 40
1
 40
1
 10
-1117.438370
 20
1180.664214
 30
0.0
 10
-1114.897961
 20
1184.985744
 30
0.0
 10
-1112.211227
 20
1186.965467
 30
0.0
 10
-1107.117708
 20
1188.268990
 30
0.0
  0
SPLINE
  5
135
100
AcDbEntity
  8
Vrstva_1
 62
7
100
AcDbSpline
 70
8
 71
3
 72
8
 73
4
 74
0
 40
0
 40
0
 40
0
 40
0
 40
1
 40
1
 40
1
 40
1
 10
-1107.117708
 20
1188.268990
 30
0.0
 10
-1103.949935
 20
1189.079687
 30
0.0
 10
-1103.023658
 20
1189.690630
 30
0.0
 10
-1102.278061
 20
1191.461147
 30
0.0
  0
SPLINE
  5
136
100
AcDbEntity
  8
Vrstva_1
 62
7
100
AcDbSpline
 70
8
 71
3
 72
8
 73
4
 74
0
 40
0
 40
0
 40
0
 40
0
 40
1
 40
1
 40
1
 40
1
 10
-1102.278061
 20
1191.461147
 30
0.0
 10
-1101.108033
 20
1194.239553
 30
0.0
 10
-1095.807699
 20
1199.058527
 30
0.0
 10
-1093.085163
 20
1199.819193
 30
0.0
  0
SPLINE
  5
137
100
AcDbEntity
  8
Vrstva_1
 62
7
100
AcDbSpline
 70
8
 71
3
 72
8
 73
4
 74
0
 40
0
 40
0
 40
0
 40
0
 40
1
 40
1
 40
1
 40
1
 10
-1093.085163
 20
1199.819193
 30
0.0
 10
-1091.940392
 20
1200.139037
 30
0.0
 10
-1077.983730
 20
1200.400726
 30
0.0
 10
-1062.070369
 20
1200.400726
 30
0.0
  0
LWPOLYLINE
  5
138
100
AcDbEntity
  8
Vrstva_1
 62
7
100
AcDbPolyline
 90
3
 70
0
 10
-1119.730805
 20
1147.900727
 30
0.0
 10
-1119.503750
 20
1177.150727
 30
0.0
 10
-1117.438370
 20
1180.664214
 30
0.0
  0
SPLINE
  5
139
100
AcDbEntity
  8
Vrstva_1
 62
7
100
AcDbSpline
 70
8
 71
3
 72
8
 73
4
 74
0
 40
0
 40
0
 40
0
 40
0
 40
1
 40
1
 40
1
 40
1
 10
-1030.382092
 20
1198.299460
 30
0.0
 10
-1025.176690
 20
1194.329102
 30
0.0
 10
-1025.378744
 20
1196.206128
 30
0.0
 10
-1025.378744
 20
1151.824749
 30
0.0
  0
SPLINE
  5
13a
100
AcDbEntity
  8
Vrstva_1
 62
7
100
AcDbSpline
 70
8
 71
3
 72
8
 73
4
 74
0
 40
0
 40
0
 40
0
 40
0
 40
1
 40
1
 40
1
 40
1
 10
-1025.378744
 20
1151.824749
 30
0.0
 10
-1025.378744
 20
1115.468734
 30
0.0
 10
-1025.504318
 20
1111.322611
 30
0.0
 10
-1026.748274
 20
1106.600007
 30
0.0
  0
SPLINE
  5
13b
100
AcDbEntity
  8
Vrstva_1
 62
7
100
AcDbSpline
 70
8
 71
3
 72
8
 73
4
 74
0
 40
0
 40
0
 40
0
 40
0
 40
1
 40
1
 40
1
 40
1
 10
-1026.748274
 20
1106.600007
 30
0.0
 10
-1029.136718
 20
1097.532321
 30
0.0
 10
-1032.598189
 20
1091.555952
 30
0.0
 10
-1039.397909
 20
1084.759804
 30
0.0
  0
SPLINE
  5
13c
100
AcDbEntity
  8
Vrstva_1
 62
7
100
AcDbSpline
 70
8
 71
3
 72
8
 73
4
 74
0
 40
0
 40
0
 40
0
 40
0
 40
1
 40
1
 40
1
 40
1
 10
-1039.397909
 20
1084.759804
 30
0.0
 10
-1042.777204
 20
1081.382296
 30
0.0
 10
-1046.066101
 20
1077.605513
 30
0.0
 10
-1046.706561
 20
1076.366971
 30
0.0
  0
SPLINE
  5
13d
100
AcDbEntity
  8
Vrstva_1
 62
7
100
AcDbSpline
 70
8
 71
3
 72
8
 73
4
 74
0
 40
0
 40
0
 40
0
 40
0
 40
1
 40
1
 40
1
 40
1
 10
-1046.706561
 20
1076.366971
 30
0.0
 10
-1047.347049
 20
1075.128401
 30
0.0
 10
-1048.899188
 20
1073.507721
 30
0.0
 10
-1050.155786
 20
1072.765440
 30
0.0
  0
SPLINE
  5
13e
100
AcDbEntity
  8
Vrstva_1
 62
7
100
AcDbSpline
 70
8
 71
3
 72
8
 73
4
 74
0
 40
0
 40
0
 40
0
 40
0
 40
1
 40
1
 40
1
 40
1
 10
-1050.155786
 20
1072.765440
 30
0.0
 10
-1051.412385
 20
1072.023160
 30
0.0
 10
-1052.625840
 20
1070.677412
 30
0.0
 10
-1052.852357
 20
1069.774889
 30
0.0
  0
SPLINE
  5
13f
100
AcDbEntity
  8
Vrstva_1
 62
7
100
AcDbSpline
 70
8
 71
3
 72
8
 73
4
 74
0
 40
0
 40
0
 40
0
 40
0
 40
1
 40
1
 40
1
 40
1
 10
-1052.852357
 20
1069.774889
 30
0.0
 10
-1053.793771
 20
1066.024029
 30
0.0
 10
-1052.838183
 20
1065.346067
 30
0.0
 10
-1038.771934
 20
1059.795094
 30
0.0
  0
SPLINE
  5
140
100
AcDbEntity
  8
Vrstva_1
 62
7
100
AcDbSpline
 70
8
 71
3
 72
8
 73
4
 74
0
 40
0
 40
0
 40
0
 40
0
 40
1
 40
1
 40
1
 40
1
 10
-1038.771934
 20
1059.795094
 30
0.0
 10
-1022.833317
 20
1053.504760
 30
0.0
 10
-1020.051906
 20
1051.889267
 30
0.0
 10
-1017.072778
 20
1047.191664
 30
0.0
  0
SPLINE
  5
141
100
AcDbEntity
  8
Vrstva_1
 62
7
100
AcDbSpline
 70
8
 71
3
 72
8
 73
4
 74
0
 40
0
 40
0
 40
0
 40
0
 40
1
 40
1
 40
1
 40
1
 10
-1017.072778
 20
1047.191664
 30
0.0
 10
-1013.969890
 20
1042.298923
 30
0.0
 10
-1013.291304
 20
1039.150766
 30
0.0
 10
-1013.539024
 20
1030.798256
 30
0.0
  0
LWPOLYLINE
  5
142
100
AcDbEntity
  8
Vrstva_1
 62
7
100
AcDbPolyline
 90
3
 70
0
 10
-1062.070369
 20
1200.400726
 30
0.0
 10
-1033.136999
 20
1200.400726
 30
0.0
 10
-1030.382092
 20
1198.299460
 30
0.0
  0
SPLINE
  5
143
100
AcDbEntity
  8
Vrstva_1
 62
7
100
AcDbSpline
 70
8
 71
3
 72
8
 73
4
 74
0
 40
0
 40
0
 40
0
 40
0
 40
1
 40
1
 40
1
 40
1
 10
-1020.960353
 20
1028.174026
 30
0.0
 10
-1020.856888
 20
1030.710977
 30
0.0
 10
-1021.010526
 20
1034.695326
 30
0.0
 10
-1021.302013
 20
1037.028098
 30
0.0
  0
SPLINE
  5
144
100
AcDbEntity
  8
Vrstva_1
 62
7
100
AcDbSpline
 70
8
 71
3
 72
8
 73
4
 74
0
 40
0
 40
0
 40
0
 40
0
 40
1
 40
1
 40
1
 40
1
 10
-1021.302013
 20
1037.028098
 30
0.0
 10
-1022.129644
 20
1043.652155
 30
0.0
 10
-1024.214413
 20
1045.386618
 30
0.0
 10
-1038.277856
 20
1051.151409
 30
0.0
  0
SPLINE
  5
145
100
AcDbEntity
  8
Vrstva_1
 62
7
100
AcDbSpline
 70
8
 71
3
 72
8
 73
4
 74
0
 40
0
 40
0
 40
0
 40
0
 40
1
 40
1
 40
1
 40
1
 10
-1038.277856
 20
1051.151409
 30
0.0
 10
-1054.043475
 20
1057.613976
 30
0.0
 10
-1053.547298
 20
1057.520489
 30
0.0
 10
-1054.899991
 20
1054.283012
 30
0.0
  0
SPLINE
  5
146
100
AcDbEntity
  8
Vrstva_1
 62
7
100
AcDbSpline
 70
8
 71
3
 72
8
 73
4
 74
0
 40
0
 40
0
 40
0
 40
0
 40
1
 40
1
 40
1
 40
1
 10
-1054.899991
 20
1054.283012
 30
0.0
 10
-1057.545453
 20
1047.951547
 30
0.0
 10
-1065.230432
 20
1043.268089
 30
0.0
 10
-1072.949740
 20
1043.282971
 30
0.0
  0
SPLINE
  5
147
100
AcDbEntity
  8
Vrstva_1
 62
7
100
AcDbSpline
 70
8
 71
3
 72
8
 73
4
 74
0
 40
0
 40
0
 40
0
 40
0
 40
1
 40
1
 40
1
 40
1
 10
-1072.949740
 20
1043.282971
 30
0.0
 10
-1079.897003
 20
1043.297144
 30
0.0
 10
-1087.865787
 20
1048.605471
 30
0.0
 10
-1090.506061
 20
1054.979683
 30
0.0
  0
LWPOLYLINE
  5
148
100
AcDbEntity
  8
Vrstva_1
 62
7
100
AcDbPolyline
 90
5
 70
0
 10
-1013.539024
 20
1030.798256
 30
0.0
 10
-1013.753606
 20
1023.558344
 30
0.0
 10
-1017.451090
 20
1023.559846
 30
0.0
 10
-1021.148573
 20
1023.561348
 30
0.0
 10
-1020.960353
 20
1028.174026
 30
0.0
  0
SPLINE
  5
149
100
AcDbEntity
  8
Vrstva_1
 62
7
100
AcDbSpline
 70
8
 71
3
 72
8
 73
4
 74
0
 40
0
 40
0
 40
0
 40
0
 40
1
 40
1
 40
1
 40
1
 10
-1105.063044
 20
1051.785320
 30
0.0
 10
-1112.541293
 20
1048.753497
 30
0.0
 10
-1119.440849
 20
1045.539207
 30
0.0
 10
-1120.395387
 20
1044.642467
 30
0.0
  0
SPLINE
  5
14a
100
AcDbEntity
  8
Vrstva_1
 62
7
100
AcDbSpline
 70
8
 71
3
 72
8
 73
4
 74
0
 40
0
 40
0
 40
0
 40
0
 40
1
 40
1
 40
1
 40
1
 10
-1120.395387
 20
1044.642467
 30
0.0
 10
-1122.790068
 20
1042.392807
 30
0.0
 10
-1123.619570
 20
1038.825915
 30
0.0
 10
-1123.624474
 20
1030.757408
 30
0.0
  0
SPLINE
  5
14b
100
AcDbEntity
  8
Vrstva_1
 62
7
100
AcDbSpline
 70
8
 71
3
 72
8
 73
4
 74
0
 40
0
 40
0
 40
0
 40
0
 40
1
 40
1
 40
1
 40
1
 10
-1123.624474
 20
1030.757408
 30
0.0
 10
-1123.626798
 20
1026.966126
 30
0.0
 10
-1123.881860
 20
1023.757477
 30
0.0
 10
-1124.191148
 20
1023.627084
 30
0.0
  0
SPLINE
  5
14c
100
AcDbEntity
  8
Vrstva_1
 62
7
100
AcDbSpline
 70
8
 71
3
 72
8
 73
4
 74
0
 40
0
 40
0
 40
0
 40
0
 40
1
 40
1
 40
1
 40
1
 10
-1124.191148
 20
1023.627084
 30
0.0
 10
-1124.500521
 20
1023.496690
 30
0.0
 10
-1126.186455
 20
1023.496123
 30
0.0
 10
-1127.937643
 20
1023.625581
 30
0.0
  0
LWPOLYLINE
  5
14d
100
AcDbEntity
  8
Vrstva_1
 62
7
100
AcDbPolyline
 90
3
 70
0
 10
-1090.506061
 20
1054.979683
 30
0.0
 10
-1091.466241
 20
1057.297742
 30
0.0
 10
-1105.063044
 20
1051.785320
 30
0.0
  0
SPLINE
  5
14e
100
AcDbEntity
  8
Vrstva_1
 62
7
100
AcDbSpline
 70
8
 71
3
 72
8
 73
4
 74
0
 40
0
 40
0
 40
0
 40
0
 40
1
 40
1
 40
1
 40
1
 10
-1065.613195
 20
1053.265714
 30
0.0
 10
-1061.866360
 20
1056.123547
 30
0.0
 10
-1060.517239
 20
1059.563418
 30
0.0
 10
-1060.781031
 20
1065.586360
 30
0.0
  0
LWPOLYLINE
  5
14f
100
AcDbEntity
  8
Vrstva_1
 62
7
100
AcDbPolyline
 90
2
 70
0
 10
-1127.937643
 20
1023.625581
 30
0.0
 10
-1127.936849
 20
1023.625837
 30
0.0
  0
SPLINE
  5
150
100
AcDbEntity
  8
Vrstva_1
 62
7
100
AcDbSpline
 70
8
 71
3
 72
8
 73
4
 74
0
 40
0
 40
0
 40
0
 40
0
 40
1
 40
1
 40
1
 40
1
 10
-1083.719551
 20
1064.522772
 30
0.0
 10
-1083.931299
 20
1058.538410
 30
0.0
 10
-1083.878858
 20
1058.329327
 30
0.0
 10
-1081.483497
 20
1055.601065
 30
0.0
  0
SPLINE
  5
151
100
AcDbEntity
  8
Vrstva_1
 62
7
100
AcDbSpline
 70
8
 71
3
 72
8
 73
4
 74
0
 40
0
 40
0
 40
0
 40
0
 40
1
 40
1
 40
1
 40
1
 10
-1081.483497
 20
1055.601065
 30
0.0
 10
-1080.134404
 20
1054.064517
 30
0.0
 10
-1078.011793
 20
1052.345049
 30
0.0
 10
-1076.766618
 20
1051.780020
 30
0.0
  0
SPLINE
  5
152
100
AcDbEntity
  8
Vrstva_1
 62
7
100
AcDbSpline
 70
8
 71
3
 72
8
 73
4
 74
0
 40
0
 40
0
 40
0
 40
0
 40
1
 40
1
 40
1
 40
1
 10
-1076.766618
 20
1051.780020
 30
0.0
 10
-1073.541528
 20
1050.316549
 30
0.0
 10
-1068.620102
 20
1050.972089
 30
0.0
 10
-1065.613024
 20
1053.265714
 30
0.0
  0
LWPOLYLINE
  5
153
100
AcDbEntity
  8
Vrstva_1
 62
7
100
AcDbPolyline
 90
5
 70
0
 10
-1060.781031
 20
1065.586360
 30
0.0
 10
-1061.002700
 20
1070.650710
 30
0.0
 10
-1072.252700
 20
1070.650710
 30
0.0
 10
-1083.502700
 20
1070.650710
 30
0.0
 10
-1083.719551
 20
1064.522772
 30
0.0
  0
SPLINE
  5
154
100
AcDbEntity
  8
Vrstva_1
 62
7
100
AcDbSpline
 70
8
 71
3
 72
8
 73
4
 74
0
 40
0
 40
0
 40
0
 40
0
 40
1
 40
1
 40
1
 40
1
 10
-1053.995711
 20
1079.508694
 30
0.0
 10
-1052.800936
 20
1080.948311
 30
0.0
 10
-1052.723238
 20
1107.509503
 30
0.0
 10
-1053.909538
 20
1108.938986
 30
0.0
  0
SPLINE
  5
155
100
AcDbEntity
  8
Vrstva_1
 62
7
100
AcDbSpline
 70
8
 71
3
 72
8
 73
4
 74
0
 40
0
 40
0
 40
0
 40
0
 40
1
 40
1
 40
1
 40
1
 10
-1053.909538
 20
1108.938986
 30
0.0
 10
-1055.306111
 20
1110.621745
 30
0.0
 10
-1089.258789
 20
1110.537556
 30
0.0
 10
-1090.949201
 20
1108.847144
 30
0.0
  0
SPLINE
  5
156
100
AcDbEntity
  8
Vrstva_1
 62
7
100
AcDbSpline
 70
8
 71
3
 72
8
 73
4
 74
0
 40
0
 40
0
 40
0
 40
0
 40
1
 40
1
 40
1
 40
1
 10
-1090.949201
 20
1108.847144
 30
0.0
 10
-1092.699226
 20
1107.097147
 30
0.0
 10
-1092.699226
 20
1081.454296
 30
0.0
 10
-1090.949201
 20
1079.704284
 30
0.0
  0
SPLINE
  5
157
100
AcDbEntity
  8
Vrstva_1
 62
7
100
AcDbSpline
 70
8
 71
3
 72
8
 73
4
 74
0
 40
0
 40
0
 40
0
 40
0
 40
1
 40
1
 40
1
 40
1
 10
-1090.949201
 20
1079.704284
 30
0.0
 10
-1089.945198
 20
1078.700281
 30
0.0
 10
-1087.181588
 20
1078.525695
 30
0.0
 10
-1072.291053
 20
1078.525695
 30
0.0
  0
SPLINE
  5
158
100
AcDbEntity
  8
Vrstva_1
 62
7
100
AcDbSpline
 70
8
 71
3
 72
8
 73
4
 74
0
 40
0
 40
0
 40
0
 40
0
 40
1
 40
1
 40
1
 40
1
 10
-1072.291053
 20
1078.525695
 30
0.0
 10
-1058.790911
 20
1078.525695
 30
0.0
 10
-1054.625711
 20
1078.749632
 30
0.0
 10
-1053.995626
 20
1079.508694
 30
0.0
  0
LWPOLYLINE
  5
159
100
AcDbEntity
  8
Vrstva_1
 62
7
100
AcDbPolyline
 90
2
 70
0
 10
-1065.613024
 20
1053.265714
 30
0.0
 10
-1065.613195
 20
1053.265714
 30
0.0
  0
LWPOLYLINE
  5
15a
100
AcDbEntity
  8
Vrstva_1
 62
7
100
AcDbPolyline
 90
1
 70
1
 10
-1053.995626
 20
1079.508694
 30
0.0
  0
SPLINE
  5
15b
100
AcDbEntity
  8
Vrstva_1
 62
7
100
AcDbSpline
 70
8
 71
3
 72
8
 73
4
 74
0
 40
0
 40
0
 40
0
 40
0
 40
1
 40
1
 40
1
 40
1
 10
-1103.940354
 20
1113.976378
 30
0.0
 10
-1109.209790
 20
1117.994347
 30
0.0
 10
-1110.781233
 20
1118.650171
 30
0.0
 10
-1111.382886
 20
1117.082328
 30
0.0
  0
SPLINE
  5
15c
100
AcDbEntity
  8
Vrstva_1
 62
7
100
AcDbSpline
 70
8
 71
3
 72
8
 73
4
 74
0
 40
0
 40
0
 40
0
 40
0
 40
1
 40
1
 40
1
 40
1
 10
-1111.382886
 20
1117.082328
 30
0.0
 10
-1112.182682
 20
1114.998070
 30
0.0
 10
-1110.272868
 20
1106.283462
 30
0.0
 10
-1107.909482
 20
1101.233036
 30
0.0
  0
SPLINE
  5
15d
100
AcDbEntity
  8
Vrstva_1
 62
7
100
AcDbSpline
 70
8
 71
3
 72
8
 73
4
 74
0
 40
0
 40
0
 40
0
 40
0
 40
1
 40
1
 40
1
 40
1
 10
-1107.909482
 20
1101.233036
 30
0.0
 10
-1105.580112
 20
1096.255285
 30
0.0
 10
-1101.226096
 20
1090.521420
 30
0.0
 10
-1100.190345
 20
1091.067628
 30
0.0
  0
SPLINE
  5
15e
100
AcDbEntity
  8
Vrstva_1
 62
7
100
AcDbSpline
 70
8
 71
3
 72
8
 73
4
 74
0
 40
0
 40
0
 40
0
 40
0
 40
1
 40
1
 40
1
 40
1
 10
-1100.190345
 20
1091.067628
 30
0.0
 10
-1099.880971
 20
1091.230620
 30
0.0
 10
-1099.627866
 20
1095.712110
 30
0.0
 10
-1099.627866
 20
1101.026163
 30
0.0
  0
LWPOLYLINE
  5
15f
100
AcDbEntity
  8
Vrstva_1
 62
7
100
AcDbPolyline
 90
3
 70
0
 10
-1099.627866
 20
1101.026163
 30
0.0
 10
-1099.627866
 20
1110.688048
 30
0.0
 10
-1103.940354
 20
1113.976378
 30
0.0
  0
SPLINE
  5
160
100
AcDbEntity
  8
Vrstva_1
 62
7
100
AcDbSpline
 70
8
 71
3
 72
8
 73
4
 74
0
 40
0
 40
0
 40
0
 40
0
 40
1
 40
1
 40
1
 40
1
 10
-1041.185578
 20
1094.202859
 30
0.0
 10
-1037.542265
 20
1098.802894
 30
0.0
 10
-1034.417919
 20
1106.225692
 30
0.0
 10
-1033.707868
 20
1111.968372
 30
0.0
  0
SPLINE
  5
161
100
AcDbEntity
  8
Vrstva_1
 62
7
100
AcDbSpline
 70
8
 71
3
 72
8
 73
4
 74
0
 40
0
 40
0
 40
0
 40
0
 40
1
 40
1
 40
1
 40
1
 10
-1033.707868
 20
1111.968372
 30
0.0
 10
-1033.355437
 20
1114.818665
 30
0.0
 10
-1033.205200
 20
1117.390964
 30
0.0
 10
-1033.374032
 20
1117.684577
 30
0.0
  0
SPLINE
  5
162
100
AcDbEntity
  8
Vrstva_1
 62
7
100
AcDbSpline
 70
8
 71
3
 72
8
 73
4
 74
0
 40
0
 40
0
 40
0
 40
0
 40
1
 40
1
 40
1
 40
1
 10
-1033.374032
 20
1117.684577
 30
0.0
 10
-1033.891071
 20
1118.583868
 30
0.0
 10
-1037.200152
 20
1116.958482
 30
0.0
 10
-1041.571515
 20
1113.658076
 30
0.0
  0
SPLINE
  5
163
100
AcDbEntity
  8
Vrstva_1
 62
7
100
AcDbSpline
 70
8
 71
3
 72
8
 73
4
 74
0
 40
0
 40
0
 40
0
 40
0
 40
1
 40
1
 40
1
 40
1
 10
-1041.571515
 20
1113.658076
 30
0.0
 10
-1044.867585
 20
1111.169512
 30
0.0
 10
-1045.647509
 20
1110.190624
 30
0.0
 10
-1045.316451
 20
1108.957808
 30
0.0
  0
SPLINE
  5
164
100
AcDbEntity
  8
Vrstva_1
 62
7
100
AcDbSpline
 70
8
 71
3
 72
8
 73
4
 74
0
 40
0
 40
0
 40
0
 40
0
 40
1
 40
1
 40
1
 40
1
 10
-1045.316451
 20
1108.957808
 30
0.0
 10
-1045.086561
 20
1108.101405
 30
0.0
 10
-1044.893720
 20
1103.772595
 30
0.0
 10
-1044.888079
 20
1099.338217
 30
0.0
  0
SPLINE
  5
165
100
AcDbEntity
  8
Vrstva_1
 62
7
100
AcDbSpline
 70
8
 71
3
 72
8
 73
4
 74
0
 40
0
 40
0
 40
0
 40
0
 40
1
 40
1
 40
1
 40
1
 10
-1044.888079
 20
1099.338217
 30
0.0
 10
-1044.882410
 20
1094.903839
 30
0.0
 10
-1044.568700
 20
1091.275719
 30
0.0
 10
-1044.190870
 20
1091.275719
 30
0.0
  0
SPLINE
  5
166
100
AcDbEntity
  8
Vrstva_1
 62
7
100
AcDbSpline
 70
8
 71
3
 72
8
 73
4
 74
0
 40
0
 40
0
 40
0
 40
0
 40
1
 40
1
 40
1
 40
1
 10
-1044.190870
 20
1091.275719
 30
0.0
 10
-1043.813040
 20
1091.275719
 30
0.0
 10
-1042.460659
 20
1092.592922
 30
0.0
 10
-1041.185578
 20
1094.202859
 30
0.0
  0
LWPOLYLINE
  5
167
100
AcDbEntity
  8
Vrstva_1
 62
7
100
AcDbPolyline
 90
1
 70
1
 10
-1099.627866
 20
1101.026163
 30
0.0
  0
SPLINE
  5
168
100
AcDbEntity
  8
Vrstva_1
 62
7
100
AcDbSpline
 70
8
 71
3
 72
8
 73
4
 74
0
 40
0
 40
0
 40
0
 40
0
 40
1
 40
1
 40
1
 40
1
 10
-1045.230391
 20
1120.608486
 30
0.0
 10
-1042.907597
 20
1122.362224
 30
0.0
 10
-1039.262413
 20
1124.387465
 30
0.0
 10
-1037.129994
 20
1125.109024
 30
0.0
  0
LWPOLYLINE
  5
169
100
AcDbEntity
  8
Vrstva_1
 62
7
100
AcDbPolyline
 90
1
 70
1
 10
-1041.185578
 20
1094.202859
 30
0.0
  0
SPLINE
  5
16a
100
AcDbEntity
  8
Vrstva_1
 62
7
100
AcDbSpline
 70
8
 71
3
 72
8
 73
4
 74
0
 40
0
 40
0
 40
0
 40
0
 40
1
 40
1
 40
1
 40
1
 10
-1036.789355
 20
1157.619970
 30
0.0
 10
-1038.958341
 20
1159.080632
 30
0.0
 10
-1041.412464
 20
1160.281878
 30
0.0
 10
-1042.242958
 20
1160.289384
 30
0.0
  0
SPLINE
  5
16b
100
AcDbEntity
  8
Vrstva_1
 62
7
100
AcDbSpline
 70
8
 71
3
 72
8
 73
4
 74
0
 40
0
 40
0
 40
0
 40
0
 40
1
 40
1
 40
1
 40
1
 10
-1042.242958
 20
1160.289384
 30
0.0
 10
-1043.073453
 20
1160.296754
 30
0.0
 10
-1050.206612
 20
1158.725365
 30
0.0
 10
-1058.094382
 20
1156.797084
 30
0.0
  0
LWPOLYLINE
  5
16c
100
AcDbEntity
  8
Vrstva_1
 62
7
100
AcDbPolyline
 90
5
 70
0
 10
-1037.129994
 20
1125.109024
 30
0.0
 10
-1033.252851
 20
1126.420983
 30
0.0
 10
-1033.049323
 20
1140.692597
 30
0.0
 10
-1032.845796
 20
1154.964213
 30
0.0
 10
-1036.789355
 20
1157.619970
 30
0.0
  0
SPLINE
  5
16d
100
AcDbEntity
  8
Vrstva_1
 62
7
100
AcDbSpline
 70
8
 71
3
 72
8
 73
4
 74
0
 40
0
 40
0
 40
0
 40
0
 40
1
 40
1
 40
1
 40
1
 10
-1086.392962
 20
1156.783426
 30
0.0
 10
-1094.069409
 20
1158.704191
 30
0.0
 10
-1101.177737
 20
1160.275727
 30
0.0
 10
-1102.189223
 20
1160.275727
 30
0.0
  0
SPLINE
  5
16e
100
AcDbEntity
  8
Vrstva_1
 62
7
100
AcDbSpline
 70
8
 71
3
 72
8
 73
4
 74
0
 40
0
 40
0
 40
0
 40
0
 40
1
 40
1
 40
1
 40
1
 10
-1102.189223
 20
1160.275727
 30
0.0
 10
-1103.200710
 20
1160.275727
 30
0.0
 10
-1105.738228
 20
1159.212783
 30
0.0
 10
-1107.828127
 20
1157.913616
 30
0.0
  0
LWPOLYLINE
  5
16f
100
AcDbEntity
  8
Vrstva_1
 62
7
100
AcDbPolyline
 90
3
 70
0
 10
-1058.094382
 20
1156.797084
 30
0.0
 10
-1072.435762
 20
1153.291126
 30
0.0
 10
-1086.392962
 20
1156.783426
 30
0.0
  0
SPLINE
  5
170
100
AcDbEntity
  8
Vrstva_1
 62
7
100
AcDbSpline
 70
8
 71
3
 72
8
 73
4
 74
0
 40
0
 40
0
 40
0
 40
0
 40
1
 40
1
 40
1
 40
1
 10
-1108.625797
 20
1125.400369
 30
0.0
 10
-1106.749148
 20
1125.083314
 30
0.0
 10
-1103.642433
 20
1123.441856
 30
0.0
 10
-1100.338908
 20
1121.021947
 30
0.0
  0
LWPOLYLINE
  5
171
100
AcDbEntity
  8
Vrstva_1
 62
7
100
AcDbPolyline
 90
5
 70
0
 10
-1107.828127
 20
1157.913616
 30
0.0
 10
-1111.627970
 20
1155.551515
 30
0.0
 10
-1111.627970
 20
1140.729541
 30
0.0
 10
-1111.627970
 20
1125.907572
 30
0.0
 10
-1108.625797
 20
1125.400369
 30
0.0
  0
SPLINE
  5
172
100
AcDbEntity
  8
Vrstva_1
 62
7
100
AcDbSpline
 70
8
 71
3
 72
8
 73
4
 74
0
 40
0
 40
0
 40
0
 40
0
 40
1
 40
1
 40
1
 40
1
 10
-1094.699267
 20
1126.954294
 30
0.0
 10
-1096.098052
 20
1128.353078
 30
0.0
 10
-1096.239926
 20
1131.113663
 30
0.0
 10
-1094.977913
 20
1132.375726
 30
0.0
  0
SPLINE
  5
173
100
AcDbEntity
  8
Vrstva_1
 62
7
100
AcDbSpline
 70
8
 71
3
 72
8
 73
4
 74
0
 40
0
 40
0
 40
0
 40
0
 40
1
 40
1
 40
1
 40
1
 10
-1094.977913
 20
1132.375726
 30
0.0
 10
-1094.482927
 20
1132.870726
 30
0.0
 10
-1093.200420
 20
1133.275726
 30
0.0
 10
-1092.127932
 20
1133.275726
 30
0.0
  0
SPLINE
  5
174
100
AcDbEntity
  8
Vrstva_1
 62
7
100
AcDbSpline
 70
8
 71
3
 72
8
 73
4
 74
0
 40
0
 40
0
 40
0
 40
0
 40
1
 40
1
 40
1
 40
1
 10
-1092.127932
 20
1133.275726
 30
0.0
 10
-1091.055415
 20
1133.275726
 30
0.0
 10
-1089.772937
 20
1132.870726
 30
0.0
 10
-1089.277922
 20
1132.375726
 30
0.0
  0
SPLINE
  5
175
100
AcDbEntity
  8
Vrstva_1
 62
7
100
AcDbSpline
 70
8
 71
3
 72
8
 73
4
 74
0
 40
0
 40
0
 40
0
 40
0
 40
1
 40
1
 40
1
 40
1
 10
-1089.277922
 20
1132.375726
 30
0.0
 10
-1087.156870
 20
1130.254672
 30
0.0
 10
-1089.090836
 20
1125.775733
 30
0.0
 10
-1092.127932
 20
1125.775733
 30
0.0
  0
SPLINE
  5
176
100
AcDbEntity
  8
Vrstva_1
 62
7
100
AcDbSpline
 70
8
 71
3
 72
8
 73
4
 74
0
 40
0
 40
0
 40
0
 40
0
 40
1
 40
1
 40
1
 40
1
 10
-1092.127932
 20
1125.775733
 30
0.0
 10
-1092.893995
 20
1125.775733
 30
0.0
 10
-1094.051154
 20
1126.306067
 30
0.0
 10
-1094.699352
 20
1126.954294
 30
0.0
  0
LWPOLYLINE
  5
177
100
AcDbEntity
  8
Vrstva_1
 62
7
100
AcDbPolyline
 90
5
 70
0
 10
-1100.338908
 20
1121.021947
 30
0.0
 10
-1095.054193
 20
1117.150728
 30
0.0
 10
-1072.253976
 20
1117.285374
 30
0.0
 10
-1049.453758
 20
1117.420019
 30
0.0
 10
-1045.230391
 20
1120.608486
 30
0.0
  0
SPLINE
  5
178
100
AcDbEntity
  8
Vrstva_1
 62
7
100
AcDbSpline
 70
8
 71
3
 72
8
 73
4
 74
0
 40
0
 40
0
 40
0
 40
0
 40
1
 40
1
 40
1
 40
1
 10
-1055.841944
 20
1127.681437
 30
0.0
 10
-1057.756492
 20
1130.603438
 30
0.0
 10
-1056.280889
 20
1133.275726
 30
0.0
 10
-1052.752861
 20
1133.275726
 30
0.0
  0
SPLINE
  5
179
100
AcDbEntity
  8
Vrstva_1
 62
7
100
AcDbSpline
 70
8
 71
3
 72
8
 73
4
 74
0
 40
0
 40
0
 40
0
 40
0
 40
1
 40
1
 40
1
 40
1
 10
-1052.752861
 20
1133.275726
 30
0.0
 10
-1050.658171
 20
1133.275726
 30
0.0
 10
-1049.917818
 20
1132.885322
 30
0.0
 10
-1049.255390
 20
1131.431446
 30
0.0
  0
SPLINE
  5
17a
100
AcDbEntity
  8
Vrstva_1
 62
7
100
AcDbSpline
 70
8
 71
3
 72
8
 73
4
 74
0
 40
0
 40
0
 40
0
 40
0
 40
1
 40
1
 40
1
 40
1
 10
-1049.255390
 20
1131.431446
 30
0.0
 10
-1048.131849
 20
1128.965560
 30
0.0
 10
-1050.104423
 20
1125.775733
 30
0.0
 10
-1052.752861
 20
1125.775733
 30
0.0
  0
SPLINE
  5
17b
100
AcDbEntity
  8
Vrstva_1
 62
7
100
AcDbSpline
 70
8
 71
3
 72
8
 73
4
 74
0
 40
0
 40
0
 40
0
 40
0
 40
1
 40
1
 40
1
 40
1
 10
-1052.752861
 20
1125.775733
 30
0.0
 10
-1053.896272
 20
1125.775733
 30
0.0
 10
-1055.066187
 20
1126.497462
 30
0.0
 10
-1055.841944
 20
1127.681437
 30
0.0
  0
LWPOLYLINE
  5
17c
100
AcDbEntity
  8
Vrstva_1
 62
7
100
AcDbPolyline
 90
1
 70
1
 10
-1094.699352
 20
1126.954294
 30
0.0
  0
LWPOLYLINE
  5
17d
100
AcDbEntity
  8
Vrstva_1
 62
7
100
AcDbPolyline
 90
1
 70
1
 10
-1055.841944
 20
1127.681437
 30
0.0
  0
LWPOLYLINE
  5
17e
100
AcDbEntity
  8
Vrstva_1
 62
7
100
AcDbPolyline
 90
8
 70
1
 10
-1099.627866
 20
1145.275726
 30
0.0
 10
-1099.627866
 20
1149.025727
 30
0.0
 10
-1092.127847
 20
1149.025727
 30
0.0
 10
-1084.627856
 20
1149.025727
 30
0.0
 10
-1084.627856
 20
1145.275726
 30
0.0
 10
-1084.627856
 20
1141.525727
 30
0.0
 10
-1092.127847
 20
1141.525727
 30
0.0
 10
-1099.627866
 20
1141.525727
 30
0.0
  0
SPLINE
  5
17f
100
AcDbEntity
  8
Vrstva_1
 62
7
100
AcDbSpline
 70
8
 71
3
 72
8
 73
4
 74
0
 40
0
 40
0
 40
0
 40
0
 40
1
 40
1
 40
1
 40
1
 10
-1056.904284
 20
1165.205207
 30
0.0
 10
-1042.726208
 20
1168.719623
 30
0.0
 10
-1040.611591
 20
1168.867952
 30
0.0
 10
-1036.354605
 20
1166.646669
 30
0.0
  0
SPLINE
  5
180
100
AcDbEntity
  8
Vrstva_1
 62
7
100
AcDbSpline
 70
8
 71
3
 72
8
 73
4
 74
0
 40
0
 40
0
 40
0
 40
0
 40
1
 40
1
 40
1
 40
1
 10
-1036.354605
 20
1166.646669
 30
0.0
 10
-1035.173097
 20
1166.030154
 30
0.0
 10
-1033.907456
 20
1165.525726
 30
0.0
 10
-1033.542126
 20
1165.525726
 30
0.0
  0
SPLINE
  5
181
100
AcDbEntity
  8
Vrstva_1
 62
7
100
AcDbSpline
 70
8
 71
3
 72
8
 73
4
 74
0
 40
0
 40
0
 40
0
 40
0
 40
1
 40
1
 40
1
 40
1
 10
-1033.542126
 20
1165.525726
 30
0.0
 10
-1032.635352
 20
1165.525726
 30
0.0
 10
-1032.696098
 20
1188.200026
 30
0.0
 10
-1033.609308
 20
1190.601900
 30
0.0
  0
LWPOLYLINE
  5
182
100
AcDbEntity
  8
Vrstva_1
 62
7
100
AcDbPolyline
 90
8
 70
1
 10
-1060.627846
 20
1145.275726
 30
0.0
 10
-1060.627846
 20
1149.025727
 30
0.0
 10
-1052.752861
 20
1149.025727
 30
0.0
 10
-1044.877846
 20
1149.025727
 30
0.0
 10
-1044.877846
 20
1145.275726
 30
0.0
 10
-1044.877846
 20
1141.525727
 30
0.0
 10
-1052.752861
 20
1141.525727
 30
0.0
 10
-1060.627846
 20
1141.525727
 30
0.0
  0
SPLINE
  5
183
100
AcDbEntity
  8
Vrstva_1
 62
7
100
AcDbSpline
 70
8
 71
3
 72
8
 73
4
 74
0
 40
0
 40
0
 40
0
 40
0
 40
1
 40
1
 40
1
 40
1
 10
-1062.158583
 20
1192.525726
 30
0.0
 10
-1081.169220
 20
1192.525726
 30
0.0
 10
-1090.495091
 20
1192.260488
 30
0.0
 10
-1091.614634
 20
1191.687947
 30
0.0
  0
SPLINE
  5
184
100
AcDbEntity
  8
Vrstva_1
 62
7
100
AcDbSpline
 70
8
 71
3
 72
8
 73
4
 74
0
 40
0
 40
0
 40
0
 40
0
 40
1
 40
1
 40
1
 40
1
 10
-1091.614634
 20
1191.687947
 30
0.0
 10
-1094.709529
 20
1190.105208
 30
0.0
 10
-1095.843529
 20
1187.891851
 30
0.0
 10
-1095.861160
 20
1183.399570
 30
0.0
  0
SPLINE
  5
185
100
AcDbEntity
  8
Vrstva_1
 62
7
100
AcDbSpline
 70
8
 71
3
 72
8
 73
4
 74
0
 40
0
 40
0
 40
0
 40
0
 40
1
 40
1
 40
1
 40
1
 10
-1095.861160
 20
1183.399570
 30
0.0
 10
-1095.883837
 20
1177.306593
 30
0.0
 10
-1096.222266
 20
1176.775726
 30
0.0
 10
-1100.068795
 20
1176.775726
 30
0.0
  0
SPLINE
  5
186
100
AcDbEntity
  8
Vrstva_1
 62
7
100
AcDbSpline
 70
8
 71
3
 72
8
 73
4
 74
0
 40
0
 40
0
 40
0
 40
0
 40
1
 40
1
 40
1
 40
1
 10
-1100.068795
 20
1176.775726
 30
0.0
 10
-1102.942474
 20
1176.775726
 30
0.0
 10
-1103.407611
 20
1177.008224
 30
0.0
 10
-1103.819853
 20
1178.650728
 30
0.0
  0
SPLINE
  5
187
100
AcDbEntity
  8
Vrstva_1
 62
7
100
AcDbSpline
 70
8
 71
3
 72
8
 73
4
 74
0
 40
0
 40
0
 40
0
 40
0
 40
1
 40
1
 40
1
 40
1
 10
-1103.819853
 20
1178.650728
 30
0.0
 10
-1104.420827
 20
1181.045230
 30
0.0
 10
-1106.405050
 20
1181.075492
 30
0.0
 10
-1109.129853
 20
1178.731714
 30
0.0
  0
SPLINE
  5
188
100
AcDbEntity
  8
Vrstva_1
 62
7
100
AcDbSpline
 70
8
 71
3
 72
8
 73
4
 74
0
 40
0
 40
0
 40
0
 40
0
 40
1
 40
1
 40
1
 40
1
 10
-1109.129853
 20
1178.731714
 30
0.0
 10
-1111.013164
 20
1177.111736
 30
0.0
 10
-1111.244017
 20
1176.373130
 30
0.0
 10
-1111.509397
 20
1171.117810
 30
0.0
  0
SPLINE
  5
189
100
AcDbEntity
  8
Vrstva_1
 62
7
100
AcDbSpline
 70
8
 71
3
 72
8
 73
4
 74
0
 40
0
 40
0
 40
0
 40
0
 40
1
 40
1
 40
1
 40
1
 10
-1111.509397
 20
1171.117810
 30
0.0
 10
-1111.784641
 20
1165.667920
 30
0.0
 10
-1111.714342
 20
1165.335827
 30
0.0
 10
-1110.403063
 20
1165.894292
 30
0.0
  0
SPLINE
  5
18a
100
AcDbEntity
  8
Vrstva_1
 62
7
100
AcDbSpline
 70
8
 71
3
 72
8
 73
4
 74
0
 40
0
 40
0
 40
0
 40
0
 40
1
 40
1
 40
1
 40
1
 10
-1110.403063
 20
1165.894292
 30
0.0
 10
-1103.100987
 20
1169.004363
 30
0.0
 10
-1103.488937
 20
1169.014602
 30
0.0
 10
-1088.859529
 20
1165.325988
 30
0.0
  0
SPLINE
  5
18b
100
AcDbEntity
  8
Vrstva_1
 62
7
100
AcDbSpline
 70
8
 71
3
 72
8
 73
4
 74
0
 40
0
 40
0
 40
0
 40
0
 40
1
 40
1
 40
1
 40
1
 10
-1088.859529
 20
1165.325988
 30
0.0
 10
-1081.375837
 20
1163.439078
 30
0.0
 10
-1074.237377
 20
1161.868353
 30
0.0
 10
-1072.996284
 20
1161.835482
 30
0.0
  0
SPLINE
  5
18c
100
AcDbEntity
  8
Vrstva_1
 62
7
100
AcDbSpline
 70
8
 71
3
 72
8
 73
4
 74
0
 40
0
 40
0
 40
0
 40
0
 40
1
 40
1
 40
1
 40
1
 10
-1072.996284
 20
1161.835482
 30
0.0
 10
-1071.755163
 20
1161.802628
 30
0.0
 10
-1064.513749
 20
1163.318988
 30
0.0
 10
-1056.904256
 20
1165.205201
 30
0.0
  0
LWPOLYLINE
  5
18d
100
AcDbEntity
  8
Vrstva_1
 62
7
100
AcDbPolyline
 90
3
 70
0
 10
-1033.609308
 20
1190.601900
 30
0.0
 10
-1034.340703
 20
1192.525726
 30
0.0
 10
-1062.158583
 20
1192.525726
 30
0.0
  0
SPLINE
  5
18e
100
AcDbEntity
  8
Vrstva_1
 62
7
100
AcDbSpline
 70
8
 71
3
 72
8
 73
4
 74
0
 40
0
 40
0
 40
0
 40
0
 40
1
 40
1
 40
1
 40
1
 10
-966.127845
 20
1031.139575
 30
0.0
 10
-966.127845
 20
1035.657235
 30
0.0
 10
-965.667442
 20
1040.077978
 30
0.0
 10
-964.936642
 20
1042.577087
 30
0.0
  0
SPLINE
  5
18f
100
AcDbEntity
  8
Vrstva_1
 62
7
100
AcDbSpline
 70
8
 71
3
 72
8
 73
4
 74
0
 40
0
 40
0
 40
0
 40
0
 40
1
 40
1
 40
1
 40
1
 10
-964.936642
 20
1042.577087
 30
0.0
 10
-962.655461
 20
1050.378287
 30
0.0
 10
-957.154406
 20
1057.021279
 30
0.0
 10
-950.559716
 20
1059.938413
 30
0.0
  0
LWPOLYLINE
  5
190
100
AcDbEntity
  8
Vrstva_1
 62
7
100
AcDbPolyline
 90
1
 70
1
 10
-1056.904256
 20
1165.205201
 30
0.0
  0
SPLINE
  5
191
100
AcDbEntity
  8
Vrstva_1
 62
7
100
AcDbSpline
 70
8
 71
3
 72
8
 73
4
 74
0
 40
0
 40
0
 40
0
 40
0
 40
1
 40
1
 40
1
 40
1
 10
-950.623439
 20
1064.318480
 30
0.0
 10
-956.581609
 20
1069.563084
 30
0.0
 10
-960.781817
 20
1077.929059
 30
0.0
 10
-961.992381
 20
1086.963231
 30
0.0
  0
LWPOLYLINE
  5
192
100
AcDbEntity
  8
Vrstva_1
 62
7
100
AcDbPolyline
 90
3
 70
0
 10
-950.559716
 20
1059.938413
 30
0.0
 10
-947.290377
 20
1061.384593
 30
0.0
 10
-950.623439
 20
1064.318480
 30
0.0
  0
SPLINE
  5
193
100
AcDbEntity
  8
Vrstva_1
 62
7
100
AcDbSpline
 70
8
 71
3
 72
8
 73
4
 74
0
 40
0
 40
0
 40
0
 40
0
 40
1
 40
1
 40
1
 40
1
 10
-967.231968
 20
1090.525729
 30
0.0
 10
-982.265171
 20
1090.525729
 30
0.0
 10
-996.238756
 20
1101.757360
 30
0.0
 10
-1000.356844
 20
1117.150728
 30
0.0
  0
SPLINE
  5
194
100
AcDbEntity
  8
Vrstva_1
 62
7
100
AcDbSpline
 70
8
 71
3
 72
8
 73
4
 74
0
 40
0
 40
0
 40
0
 40
0
 40
1
 40
1
 40
1
 40
1
 10
-1000.356844
 20
1117.150728
 30
0.0
 10
-1000.908608
 20
1119.213216
 30
0.0
 10
-1001.364050
 20
1121.997604
 30
0.0
 10
-1001.368954
 20
1123.338221
 30
0.0
  0
LWPOLYLINE
  5
195
100
AcDbEntity
  8
Vrstva_1
 62
7
100
AcDbPolyline
 90
3
 70
0
 10
-961.992381
 20
1086.963231
 30
0.0
 10
-962.469763
 20
1090.525729
 30
0.0
 10
-967.231968
 20
1090.525729
 30
0.0
  0
SPLINE
  5
196
100
AcDbEntity
  8
Vrstva_1
 62
7
100
AcDbSpline
 70
8
 71
3
 72
8
 73
4
 74
0
 40
0
 40
0
 40
0
 40
0
 40
1
 40
1
 40
1
 40
1
 10
-993.406860
 20
1122.588231
 30
0.0
 10
-992.502693
 20
1116.686215
 30
0.0
 10
-990.112548
 20
1111.630312
 30
0.0
 10
-986.205839
 20
1107.355723
 30
0.0
  0
SPLINE
  5
197
100
AcDbEntity
  8
Vrstva_1
 62
7
100
AcDbSpline
 70
8
 71
3
 72
8
 73
4
 74
0
 40
0
 40
0
 40
0
 40
0
 40
1
 40
1
 40
1
 40
1
 10
-986.205839
 20
1107.355723
 30
0.0
 10
-979.038523
 20
1099.513568
 30
0.0
 10
-973.661852
 20
1098.025719
 30
0.0
 10
-952.489713
 20
1098.025719
 30
0.0
  0
LWPOLYLINE
  5
198
100
AcDbEntity
  8
Vrstva_1
 62
7
100
AcDbPolyline
 90
13
 70
0
 10
-1001.368954
 20
1123.338221
 30
0.0
 10
-1001.377458
 20
1125.775733
 30
0.0
 10
-1009.252444
 20
1125.775733
 30
0.0
 10
-1017.127458
 20
1125.775733
 30
0.0
 10
-1017.127458
 20
1129.525714
 30
0.0
 10
-1017.127458
 20
1133.275726
 30
0.0
 10
-997.627449
 20
1133.275726
 30
0.0
 10
-978.127439
 20
1133.275726
 30
0.0
 10
-978.127439
 20
1129.525714
 30
0.0
 10
-978.127439
 20
1125.775733
 30
0.0
 10
-986.011326
 20
1125.775733
 30
0.0
 10
-993.895184
 20
1125.775733
 30
0.0
 10
-993.406860
 20
1122.588231
 30
0.0
  0
SPLINE
  5
199
100
AcDbEntity
  8
Vrstva_1
 62
7
100
AcDbSpline
 70
8
 71
3
 72
8
 73
4
 74
0
 40
0
 40
0
 40
0
 40
0
 40
1
 40
1
 40
1
 40
1
 10
-953.870837
 20
1086.594840
 30
0.0
 10
-952.828084
 20
1077.790360
 30
0.0
 10
-946.292979
 20
1069.106763
 30
0.0
 10
-937.758796
 20
1065.185739
 30
0.0
  0
SPLINE
  5
19a
100
AcDbEntity
  8
Vrstva_1
 62
7
100
AcDbSpline
 70
8
 71
3
 72
8
 73
4
 74
0
 40
0
 40
0
 40
0
 40
0
 40
1
 40
1
 40
1
 40
1
 10
-937.758796
 20
1065.185739
 30
0.0
 10
-933.930805
 20
1063.426955
 30
0.0
 10
-932.389155
 20
1063.197944
 30
0.0
 10
-922.439945
 20
1062.910114
 30
0.0
  0
LWPOLYLINE
  5
19b
100
AcDbEntity
  8
Vrstva_1
 62
7
100
AcDbPolyline
 90
7
 70
0
 10
-952.489713
 20
1098.025719
 30
0.0
 10
-938.377457
 20
1098.025719
 30
0.0
 10
-938.377457
 20
1094.275710
 30
0.0
 10
-938.377457
 20
1090.525729
 30
0.0
 10
-946.356900
 20
1090.525729
 30
0.0
 10
-954.336371
 20
1090.525729
 30
0.0
 10
-953.870837
 20
1086.594840
 30
0.0
  0
SPLINE
  5
19c
100
AcDbEntity
  8
Vrstva_1
 62
7
100
AcDbSpline
 70
8
 71
3
 72
8
 73
4
 74
0
 40
0
 40
0
 40
0
 40
0
 40
1
 40
1
 40
1
 40
1
 10
-926.939946
 20
1055.133717
 30
0.0
 10
-941.143675
 20
1054.865843
 30
0.0
 10
-942.837602
 20
1054.691087
 30
0.0
 10
-946.341139
 20
1053.133081
 30
0.0
  0
SPLINE
  5
19d
100
AcDbEntity
  8
Vrstva_1
 62
7
100
AcDbSpline
 70
8
 71
3
 72
8
 73
4
 74
0
 40
0
 40
0
 40
0
 40
0
 40
1
 40
1
 40
1
 40
1
 10
-946.341139
 20
1053.133081
 30
0.0
 10
-954.466481
 20
1049.519730
 30
0.0
 10
-957.835770
 20
1043.508240
 30
0.0
 10
-958.446919
 20
1031.533931
 30
0.0
  0
LWPOLYLINE
  5
19e
100
AcDbEntity
  8
Vrstva_1
 62
7
100
AcDbPolyline
 90
5
 70
0
 10
-922.439945
 20
1062.910114
 30
0.0
 10
-911.377457
 20
1062.590083
 30
0.0
 10
-911.377457
 20
1059.008678
 30
0.0
 10
-911.377457
 20
1055.427273
 30
0.0
 10
-926.939946
 20
1055.133717
 30
0.0
  0
SPLINE
  5
19f
100
AcDbEntity
  8
Vrstva_1
 62
7
100
AcDbSpline
 70
8
 71
3
 72
8
 73
4
 74
0
 40
0
 40
0
 40
0
 40
0
 40
1
 40
1
 40
1
 40
1
 10
-926.719325
 20
1125.859582
 30
0.0
 10
-927.841760
 20
1127.555720
 30
0.0
 10
-928.477231
 20
1129.199191
 30
0.0
 10
-928.131489
 20
1129.511739
 30
0.0
  0
SPLINE
  5
1a0
100
AcDbEntity
  8
Vrstva_1
 62
7
100
AcDbSpline
 70
8
 71
3
 72
8
 73
4
 74
0
 40
0
 40
0
 40
0
 40
0
 40
1
 40
1
 40
1
 40
1
 10
-928.131489
 20
1129.511739
 30
0.0
 10
-927.785719
 20
1129.824316
 30
0.0
 10
-925.163105
 20
1131.629971
 30
0.0
 10
-922.303457
 20
1133.524313
 30
0.0
  0
SPLINE
  5
1a1
100
AcDbEntity
  8
Vrstva_1
 62
7
100
AcDbSpline
 70
8
 71
3
 72
8
 73
4
 74
0
 40
0
 40
0
 40
0
 40
0
 40
1
 40
1
 40
1
 40
1
 10
-922.303457
 20
1133.524313
 30
0.0
 10
-916.601114
 20
1137.301734
 30
0.0
 10
-917.282421
 20
1137.395215
 30
0.0
 10
-914.068443
 20
1132.394438
 30
0.0
  0
LWPOLYLINE
  5
1a2
100
AcDbEntity
  8
Vrstva_1
 62
7
100
AcDbPolyline
 90
5
 70
0
 10
-958.446919
 20
1031.533931
 30
0.0
 10
-958.842862
 20
1023.775704
 30
0.0
 10
-962.485269
 20
1023.775704
 30
0.0
 10
-966.127562
 20
1023.775704
 30
0.0
 10
-966.127845
 20
1031.139575
 30
0.0
  0
SPLINE
  5
1a3
100
AcDbEntity
  8
Vrstva_1
 62
7
100
AcDbSpline
 70
8
 71
3
 72
8
 73
4
 74
0
 40
0
 40
0
 40
0
 40
0
 40
1
 40
1
 40
1
 40
1
 10
-918.419539
 20
1126.581935
 30
0.0
 10
-921.521860
 20
1124.488520
 30
0.0
 10
-924.199240
 20
1122.775714
 30
0.0
 10
-924.369319
 20
1122.775714
 30
0.0
  0
SPLINE
  5
1a4
100
AcDbEntity
  8
Vrstva_1
 62
7
100
AcDbSpline
 70
8
 71
3
 72
8
 73
4
 74
0
 40
0
 40
0
 40
0
 40
0
 40
1
 40
1
 40
1
 40
1
 10
-924.369319
 20
1122.775714
 30
0.0
 10
-924.539397
 20
1122.775714
 30
0.0
 10
-925.596862
 20
1124.163471
 30
0.0
 10
-926.719325
 20
1125.859582
 30
0.0
  0
LWPOLYLINE
  5
1a5
100
AcDbEntity
  8
Vrstva_1
 62
7
100
AcDbPolyline
 90
3
 70
0
 10
-914.068443
 20
1132.394438
 30
0.0
 10
-912.778991
 20
1130.388144
 30
0.0
 10
-918.419539
 20
1126.581935
 30
0.0
  0
SPLINE
  5
1a6
100
AcDbEntity
  8
Vrstva_1
 62
7
100
AcDbSpline
 70
8
 71
3
 72
8
 73
4
 74
0
 40
0
 40
0
 40
0
 40
0
 40
1
 40
1
 40
1
 40
1
 10
-926.643357
 20
1145.245029
 30
0.0
 10
-927.734752
 20
1146.894226
 30
0.0
 10
-928.627694
 20
1148.409265
 30
0.0
 10
-928.627694
 20
1148.611795
 30
0.0
  0
SPLINE
  5
1a7
100
AcDbEntity
  8
Vrstva_1
 62
7
100
AcDbSpline
 70
8
 71
3
 72
8
 73
4
 74
0
 40
0
 40
0
 40
0
 40
0
 40
1
 40
1
 40
1
 40
1
 10
-928.627694
 20
1148.611795
 30
0.0
 10
-928.627694
 20
1148.814330
 30
0.0
 10
-926.069908
 20
1150.705997
 30
0.0
 10
-922.943719
 20
1152.815537
 30
0.0
  0
SPLINE
  5
1a8
100
AcDbEntity
  8
Vrstva_1
 62
7
100
AcDbSpline
 70
8
 71
3
 72
8
 73
4
 74
0
 40
0
 40
0
 40
0
 40
0
 40
1
 40
1
 40
1
 40
1
 10
-922.943719
 20
1152.815537
 30
0.0
 10
-916.683914
 20
1157.039596
 30
0.0
 10
-917.125778
 20
1157.083471
 30
0.0
 10
-914.072695
 20
1151.934722
 30
0.0
  0
SPLINE
  5
1a9
100
AcDbEntity
  8
Vrstva_1
 62
7
100
AcDbSpline
 70
8
 71
3
 72
8
 73
4
 74
0
 40
0
 40
0
 40
0
 40
0
 40
1
 40
1
 40
1
 40
1
 10
-914.072695
 20
1151.934722
 30
0.0
 10
-912.915536
 20
1149.983290
 30
0.0
 10
-912.935974
 20
1149.949487
 30
0.0
 10
-916.829785
 20
1147.375756
 30
0.0
  0
SPLINE
  5
1aa
100
AcDbEntity
  8
Vrstva_1
 62
7
100
AcDbSpline
 70
8
 71
3
 72
8
 73
4
 74
0
 40
0
 40
0
 40
0
 40
0
 40
1
 40
1
 40
1
 40
1
 10
-916.829785
 20
1147.375756
 30
0.0
 10
-925.583653
 20
1141.589635
 30
0.0
 10
-924.395114
 20
1141.847695
 30
0.0
 10
-926.643357
 20
1145.245029
 30
0.0
  0
LWPOLYLINE
  5
1ab
100
AcDbEntity
  8
Vrstva_1
 62
7
100
AcDbPolyline
 90
1
 70
1
 10
-926.719325
 20
1125.859582
 30
0.0
  0
LWPOLYLINE
  5
1ac
100
AcDbEntity
  8
Vrstva_1
 62
7
100
AcDbPolyline
 90
1
 70
1
 10
-926.643357
 20
1145.245029
 30
0.0
  0
SPLINE
  5
1ad
100
AcDbEntity
  8
Vrstva_1
 62
7
100
AcDbSpline
 70
8
 71
3
 72
8
 73
4
 74
0
 40
0
 40
0
 40
0
 40
0
 40
1
 40
1
 40
1
 40
1
 10
-983.838060
 20
1180.647489
 30
0.0
 10
-986.971760
 20
1175.822041
 30
0.0
 10
-990.346690
 20
1170.778449
 30
0.0
 10
-990.421383
 20
1170.809168
 30
0.0
  0
SPLINE
  5
1ae
100
AcDbEntity
  8
Vrstva_1
 62
7
100
AcDbSpline
 70
8
 71
3
 72
8
 73
4
 74
0
 40
0
 40
0
 40
0
 40
0
 40
1
 40
1
 40
1
 40
1
 10
-990.421383
 20
1170.809168
 30
0.0
 10
-990.466170
 20
1170.827593
 30
0.0
 10
-991.929924
 20
1171.853605
 30
0.0
 10
-993.674337
 20
1173.089258
 30
0.0
  0
LWPOLYLINE
  5
1af
100
AcDbEntity
  8
Vrstva_1
 62
7
100
AcDbPolyline
 90
7
 70
0
 10
-993.674337
 20
1173.089258
 30
0.0
 10
-996.845937
 20
1175.335907
 30
0.0
 10
-992.933899
 20
1181.219433
 30
0.0
 10
-989.021861
 20
1187.102955
 30
0.0
 10
-985.781606
 20
1184.873597
 30
0.0
 10
-982.541351
 20
1182.644245
 30
0.0
 10
-983.838060
 20
1180.647489
 30
0.0
  0
SPLINE
  5
1b0
100
AcDbEntity
  8
Vrstva_1
 62
7
100
AcDbSpline
 70
8
 71
3
 72
8
 73
4
 74
0
 40
0
 40
0
 40
0
 40
0
 40
1
 40
1
 40
1
 40
1
 10
-973.815206
 20
1172.797284
 30
0.0
 10
-975.362072
 20
1173.859547
 30
0.0
 10
-976.627713
 20
1175.024553
 30
0.0
 10
-976.627713
 20
1175.386186
 30
0.0
  0
SPLINE
  5
1b1
100
AcDbEntity
  8
Vrstva_1
 62
7
100
AcDbSpline
 70
8
 71
3
 72
8
 73
4
 74
0
 40
0
 40
0
 40
0
 40
0
 40
1
 40
1
 40
1
 40
1
 10
-976.627713
 20
1175.386186
 30
0.0
 10
-976.627713
 20
1176.270436
 30
0.0
 10
-969.782015
 20
1186.525728
 30
0.0
 10
-969.191757
 20
1186.525728
 30
0.0
  0
SPLINE
  5
1b2
100
AcDbEntity
  8
Vrstva_1
 62
7
100
AcDbSpline
 70
8
 71
3
 72
8
 73
4
 74
0
 40
0
 40
0
 40
0
 40
0
 40
1
 40
1
 40
1
 40
1
 10
-969.191757
 20
1186.525728
 30
0.0
 10
-968.527430
 20
1186.525728
 30
0.0
 10
-963.127713
 20
1182.798393
 30
0.0
 10
-963.127713
 20
1182.339818
 30
0.0
  0
SPLINE
  5
1b3
100
AcDbEntity
  8
Vrstva_1
 62
7
100
AcDbSpline
 70
8
 71
3
 72
8
 73
4
 74
0
 40
0
 40
0
 40
0
 40
0
 40
1
 40
1
 40
1
 40
1
 10
-963.127713
 20
1182.339818
 30
0.0
 10
-963.127713
 20
1181.900170
 30
0.0
 10
-970.589351
 20
1170.752710
 30
0.0
 10
-970.838063
 20
1170.820810
 30
0.0
  0
SPLINE
  5
1b4
100
AcDbEntity
  8
Vrstva_1
 62
7
100
AcDbSpline
 70
8
 71
3
 72
8
 73
4
 74
0
 40
0
 40
0
 40
0
 40
0
 40
1
 40
1
 40
1
 40
1
 10
-970.838063
 20
1170.820810
 30
0.0
 10
-970.928488
 20
1170.845755
 30
0.0
 10
-972.268340
 20
1171.735023
 30
0.0
 10
-973.815206
 20
1172.797284
 30
0.0
  0
LWPOLYLINE
  5
1b5
100
AcDbEntity
  8
Vrstva_1
 62
7
100
AcDbPolyline
 90
1
 70
1
 10
-993.674337
 20
1173.089258
 30
0.0
  0
LWPOLYLINE
  5
1b6
100
AcDbEntity
  8
Vrstva_1
 62
7
100
AcDbPolyline
 90
1
 70
1
 10
-973.815206
 20
1172.797284
 30
0.0
  0
SPLINE
  5
1b7
100
AcDbEntity
  8
Vrstva_1
 62
7
100
AcDbSpline
 70
8
 71
3
 72
8
 73
4
 74
0
 40
0
 40
0
 40
0
 40
0
 40
1
 40
1
 40
1
 40
1
 10
-934.863376
 20
1212.101727
 30
0.0
 10
-933.799136
 20
1213.709926
 30
0.0
 10
-932.631687
 20
1215.025726
 30
0.0
 10
-932.269051
 20
1215.025726
 30
0.0
  0
SPLINE
  5
1b8
100
AcDbEntity
  8
Vrstva_1
 62
7
100
AcDbSpline
 70
8
 71
3
 72
8
 73
4
 74
0
 40
0
 40
0
 40
0
 40
0
 40
1
 40
1
 40
1
 40
1
 10
-932.269051
 20
1215.025726
 30
0.0
 10
-931.383564
 20
1215.025726
 30
0.0
 10
-921.127703
 20
1208.180786
 30
0.0
 10
-921.127703
 20
1207.589790
 30
0.0
  0
SPLINE
  5
1b9
100
AcDbEntity
  8
Vrstva_1
 62
7
100
AcDbSpline
 70
8
 71
3
 72
8
 73
4
 74
0
 40
0
 40
0
 40
0
 40
0
 40
1
 40
1
 40
1
 40
1
 10
-921.127703
 20
1207.589790
 30
0.0
 10
-921.127703
 20
1207.121323
 30
0.0
 10
-924.792446
 20
1201.520927
 30
0.0
 10
-925.092238
 20
1201.531254
 30
0.0
  0
SPLINE
  5
1ba
100
AcDbEntity
  8
Vrstva_1
 62
7
100
AcDbSpline
 70
8
 71
3
 72
8
 73
4
 74
0
 40
0
 40
0
 40
0
 40
0
 40
1
 40
1
 40
1
 40
1
 10
-925.092238
 20
1201.531254
 30
0.0
 10
-925.180396
 20
1201.534372
 30
0.0
 10
-927.850490
 20
1203.255997
 30
0.0
 10
-931.025549
 20
1205.357255
 30
0.0
  0
LWPOLYLINE
  5
1bb
100
AcDbEntity
  8
Vrstva_1
 62
7
100
AcDbPolyline
 90
3
 70
0
 10
-931.025549
 20
1205.357255
 30
0.0
 10
-936.798390
 20
1209.177725
 30
0.0
 10
-934.863376
 20
1212.101727
 30
0.0
  0
LWPOLYLINE
  5
1bc
100
AcDbEntity
  8
Vrstva_1
 62
7
100
AcDbPolyline
 90
1
 70
1
 10
-931.025549
 20
1205.357255
 30
0.0
  0
SPLINE
  5
1bd
100
AcDbEntity
  8
Vrstva_1
 62
7
100
AcDbSpline
 70
8
 71
3
 72
8
 73
4
 74
0
 40
0
 40
0
 40
0
 40
0
 40
1
 40
1
 40
1
 40
1
 10
-1075.065207
 20
1216.536783
 30
0.0
 10
-1086.676483
 20
1216.589592
 30
0.0
 10
-1101.203334
 20
1225.085995
 30
0.0
 10
-1108.586735
 20
1236.142737
 30
0.0
  0
SPLINE
  5
1be
100
AcDbEntity
  8
Vrstva_1
 62
7
100
AcDbSpline
 70
8
 71
3
 72
8
 73
4
 74
0
 40
0
 40
0
 40
0
 40
0
 40
1
 40
1
 40
1
 40
1
 10
-1108.586735
 20
1236.142737
 30
0.0
 10
-1112.043359
 20
1241.319058
 30
0.0
 10
-1115.377724
 20
1251.039194
 30
0.0
 10
-1115.377724
 20
1255.939412
 30
0.0
  0
LWPOLYLINE
  5
1bf
100
AcDbEntity
  8
Vrstva_1
 62
7
100
AcDbPolyline
 90
3
 70
0
 10
-1072.627695
 20
1212.400726
 30
0.0
 10
-1072.627695
 20
1216.525727
 30
0.0
 10
-1075.065207
 20
1216.536783
 30
0.0
  0
SPLINE
  5
1c0
100
AcDbEntity
  8
Vrstva_1
 62
7
100
AcDbSpline
 70
8
 71
3
 72
8
 73
4
 74
0
 40
0
 40
0
 40
0
 40
0
 40
1
 40
1
 40
1
 40
1
 10
-1107.310975
 20
1254.190204
 30
0.0
 10
-1105.347501
 20
1242.740089
 30
0.0
 10
-1098.421639
 20
1233.125056
 30
0.0
 10
-1088.574959
 20
1228.179356
 30
0.0
  0
SPLINE
  5
1c1
100
AcDbEntity
  8
Vrstva_1
 62
7
100
AcDbSpline
 70
8
 71
3
 72
8
 73
4
 74
0
 40
0
 40
0
 40
0
 40
0
 40
1
 40
1
 40
1
 40
1
 10
-1088.574959
 20
1228.179356
 30
0.0
 10
-1081.757494
 20
1224.755135
 30
0.0
 10
-1077.151195
 20
1224.025695
 30
0.0
 10
-1062.345131
 20
1224.025695
 30
0.0
  0
LWPOLYLINE
  5
1c2
100
AcDbEntity
  8
Vrstva_1
 62
7
100
AcDbPolyline
 90
5
 70
0
 10
-1115.377724
 20
1255.939412
 30
0.0
 10
-1115.377724
 20
1259.275697
 30
0.0
 10
-1111.780360
 20
1259.275697
 30
0.0
 10
-1108.183025
 20
1259.275697
 30
0.0
 10
-1107.310975
 20
1254.190204
 30
0.0
  0
LWPOLYLINE
  5
1c3
100
AcDbEntity
  8
Vrstva_1
 62
7
100
AcDbPolyline
 90
11
 70
0
 10
-1062.345131
 20
1224.025695
 30
0.0
 10
-1048.627714
 20
1224.025695
 30
0.0
 10
-1048.627714
 20
1220.275694
 30
0.0
 10
-1048.627714
 20
1216.525696
 30
0.0
 10
-1056.502700
 20
1216.525696
 30
0.0
 10
-1064.377714
 20
1216.525696
 30
0.0
 10
-1064.377714
 20
1212.400694
 30
0.0
 10
-1064.377714
 20
1208.275695
 30
0.0
 10
-1068.502719
 20
1208.275695
 30
0.0
 10
-1072.627695
 20
1208.275695
 30
0.0
 10
-1072.627695
 20
1212.400726
 30
0.0
  0
SPLINE
  5
1c4
100
AcDbEntity
  8
Vrstva_1
 62
7
100
AcDbSpline
 70
8
 71
3
 72
8
 73
4
 74
0
 40
0
 40
0
 40
0
 40
0
 40
1
 40
1
 40
1
 40
1
 10
-922.750112
 20
1224.222800
 30
0.0
 10
-923.959911
 20
1222.464409
 30
0.0
 10
-925.017914
 20
1221.046026
 30
0.0
 10
-925.101224
 20
1221.070835
 30
0.0
  0
SPLINE
  5
1c5
100
AcDbEntity
  8
Vrstva_1
 62
7
100
AcDbSpline
 70
8
 71
3
 72
8
 73
4
 74
0
 40
0
 40
0
 40
0
 40
0
 40
1
 40
1
 40
1
 40
1
 10
-925.101224
 20
1221.070835
 30
0.0
 10
-925.184563
 20
1221.095780
 30
0.0
 10
-927.828494
 20
1222.871153
 30
0.0
 10
-930.976679
 20
1225.016407
 30
0.0
  0
LWPOLYLINE
  5
1c6
100
AcDbEntity
  8
Vrstva_1
 62
7
100
AcDbPolyline
 90
7
 70
0
 10
-930.976679
 20
1225.016407
 30
0.0
 10
-936.700651
 20
1228.916868
 30
0.0
 10
-934.509102
 20
1232.080418
 30
0.0
 10
-932.317524
 20
1235.243967
 30
0.0
 10
-926.433990
 20
1231.331921
 30
0.0
 10
-920.550484
 20
1227.419872
 30
0.0
 10
-922.750112
 20
1224.222800
 30
0.0
  0
SPLINE
  5
1c7
100
AcDbEntity
  8
Vrstva_1
 62
7
100
AcDbSpline
 70
8
 71
3
 72
8
 73
4
 74
0
 40
0
 40
0
 40
0
 40
0
 40
1
 40
1
 40
1
 40
1
 10
-1001.578746
 20
1228.177765
 30
0.0
 10
-1003.118243
 20
1229.223886
 30
0.0
 10
-1004.377846
 20
1230.251629
 30
0.0
 10
-1004.377846
 20
1230.461637
 30
0.0
  0
SPLINE
  5
1c8
100
AcDbEntity
  8
Vrstva_1
 62
7
100
AcDbSpline
 70
8
 71
3
 72
8
 73
4
 74
0
 40
0
 40
0
 40
0
 40
0
 40
1
 40
1
 40
1
 40
1
 10
-1004.377846
 20
1230.461637
 30
0.0
 10
-1004.377846
 20
1230.671627
 30
0.0
 10
-1002.680998
 20
1233.358080
 30
0.0
 10
-1000.607087
 20
1236.431497
 30
0.0
  0
LWPOLYLINE
  5
1c9
100
AcDbEntity
  8
Vrstva_1
 62
7
100
AcDbPolyline
 90
1
 70
1
 10
-930.976679
 20
1225.016407
 30
0.0
  0
SPLINE
  5
1ca
100
AcDbEntity
  8
Vrstva_1
 62
7
100
AcDbSpline
 70
8
 71
3
 72
8
 73
4
 74
0
 40
0
 40
0
 40
0
 40
0
 40
1
 40
1
 40
1
 40
1
 10
-993.857087
 20
1240.047963
 30
0.0
 10
-992.218491
 20
1238.963604
 30
0.0
 10
-990.877846
 20
1237.889984
 30
0.0
 10
-990.877846
 20
1237.662147
 30
0.0
  0
SPLINE
  5
1cb
100
AcDbEntity
  8
Vrstva_1
 62
7
100
AcDbSpline
 70
8
 71
3
 72
8
 73
4
 74
0
 40
0
 40
0
 40
0
 40
0
 40
1
 40
1
 40
1
 40
1
 10
-990.877846
 20
1237.662147
 30
0.0
 10
-990.877846
 20
1237.013852
 30
0.0
 10
-997.955928
 20
1226.296272
 30
0.0
 10
-998.391244
 20
1226.285413
 30
0.0
  0
SPLINE
  5
1cc
100
AcDbEntity
  8
Vrstva_1
 62
7
100
AcDbSpline
 70
8
 71
3
 72
8
 73
4
 74
0
 40
0
 40
0
 40
0
 40
0
 40
1
 40
1
 40
1
 40
1
 10
-998.391244
 20
1226.285413
 30
0.0
 10
-998.604976
 20
1226.280027
 30
0.0
 10
-1000.039250
 20
1227.131645
 30
0.0
 10
-1001.578746
 20
1228.177765
 30
0.0
  0
LWPOLYLINE
  5
1cd
100
AcDbEntity
  8
Vrstva_1
 62
7
100
AcDbPolyline
 90
3
 70
0
 10
-1000.607087
 20
1236.431497
 30
0.0
 10
-996.836328
 20
1242.019527
 30
0.0
 10
-993.857087
 20
1240.047963
 30
0.0
  0
SPLINE
  5
1ce
100
AcDbEntity
  8
Vrstva_1
 62
7
100
AcDbSpline
 70
8
 71
3
 72
8
 73
4
 74
0
 40
0
 40
0
 40
0
 40
0
 40
1
 40
1
 40
1
 40
1
 10
-1013.225370
 20
1243.847528
 30
0.0
 10
-1014.585263
 20
1244.809065
 30
0.0
 10
-1015.879704
 20
1245.777570
 30
0.0
 10
-1016.101884
 20
1245.999761
 30
0.0
  0
SPLINE
  5
1cf
100
AcDbEntity
  8
Vrstva_1
 62
7
100
AcDbSpline
 70
8
 71
3
 72
8
 73
4
 74
0
 40
0
 40
0
 40
0
 40
0
 40
1
 40
1
 40
1
 40
1
 10
-1016.101884
 20
1245.999761
 30
0.0
 10
-1016.324120
 20
1246.221941
 30
0.0
 10
-1014.764271
 20
1248.984686
 30
0.0
 10
-1012.635651
 20
1252.139167
 30
0.0
  0
LWPOLYLINE
  5
1d0
100
AcDbEntity
  8
Vrstva_1
 62
7
100
AcDbPolyline
 90
1
 70
1
 10
-1001.578746
 20
1228.177765
 30
0.0
  0
SPLINE
  5
1d1
100
AcDbEntity
  8
Vrstva_1
 62
7
100
AcDbSpline
 70
8
 71
3
 72
8
 73
4
 74
0
 40
0
 40
0
 40
0
 40
0
 40
1
 40
1
 40
1
 40
1
 10
-1006.759147
 20
1256.585142
 30
0.0
 10
-1001.787036
 20
1253.389589
 30
0.0
 10
-1001.847981
 20
1254.115275
 30
0.0
 10
-1006.021118
 20
1247.796397
 30
0.0
  0
SPLINE
  5
1d2
100
AcDbEntity
  8
Vrstva_1
 62
7
100
AcDbSpline
 70
8
 71
3
 72
8
 73
4
 74
0
 40
0
 40
0
 40
0
 40
0
 40
1
 40
1
 40
1
 40
1
 10
-1006.021118
 20
1247.796397
 30
0.0
 10
-1008.117225
 20
1244.622529
 30
0.0
 10
-1010.039370
 20
1242.042278
 30
0.0
 10
-1010.292532
 20
1242.062504
 30
0.0
  0
SPLINE
  5
1d3
100
AcDbEntity
  8
Vrstva_1
 62
7
100
AcDbSpline
 70
8
 71
3
 72
8
 73
4
 74
0
 40
0
 40
0
 40
0
 40
0
 40
1
 40
1
 40
1
 40
1
 10
-1010.292532
 20
1242.062504
 30
0.0
 10
-1010.545666
 20
1242.082630
 30
0.0
 10
-1011.865477
 20
1242.885994
 30
0.0
 10
-1013.225370
 20
1243.847528
 30
0.0
  0
LWPOLYLINE
  5
1d4
100
AcDbEntity
  8
Vrstva_1
 62
7
100
AcDbPolyline
 90
3
 70
0
 10
-1012.635651
 20
1252.139167
 30
0.0
 10
-1008.765424
 20
1257.874582
 30
0.0
 10
-1006.759147
 20
1256.585142
 30
0.0
  0
LWPOLYLINE
  5
1d5
100
AcDbEntity
  8
Vrstva_1
 62
7
100
AcDbPolyline
 90
1
 70
1
 10
-1013.225370
 20
1243.847528
 30
0.0
  0
SPLINE
  5
1d6
100
AcDbEntity
  8
Vrstva_1
 62
7
100
AcDbSpline
 70
8
 71
3
 72
8
 73
4
 74
0
 40
0
 40
0
 40
0
 40
0
 40
1
 40
1
 40
1
 40
1
 10
-1900.276182
 20
586.953343
 30
0.0
 10
-1896.922911
 20
590.306615
 30
0.0
 10
-1838.848924
 20
591.175831
 30
0.0
 10
-1835.576555
 20
586.306335
 30
0.0
  0
SPLINE
  5
1d7
100
AcDbEntity
  8
Vrstva_1
 62
7
100
AcDbSpline
 70
8
 71
3
 72
8
 73
4
 74
0
 40
0
 40
0
 40
0
 40
0
 40
1
 40
1
 40
1
 40
1
 10
-1835.576555
 20
586.306335
 30
0.0
 10
-1832.418244
 20
581.606577
 30
0.0
 10
-1830.387226
 20
536.562328
 30
0.0
 10
-1835.576555
 20
532.308035
 30
0.0
  0
SPLINE
  5
1d8
100
AcDbEntity
  8
Vrstva_1
 62
7
100
AcDbSpline
 70
8
 71
3
 72
8
 73
4
 74
0
 40
0
 40
0
 40
0
 40
0
 40
1
 40
1
 40
1
 40
1
 10
-1835.576555
 20
532.308035
 30
0.0
 10
-1841.385093
 20
527.546114
 30
0.0
 10
-1895.045088
 20
527.101613
 30
0.0
 10
-1900.276182
 20
532.308035
 30
0.0
  0
SPLINE
  5
1d9
100
AcDbEntity
  8
Vrstva_1
 62
7
100
AcDbSpline
 70
8
 71
3
 72
8
 73
4
 74
0
 40
0
 40
0
 40
0
 40
0
 40
1
 40
1
 40
1
 40
1
 10
-1900.276182
 20
532.308035
 30
0.0
 10
-1905.562131
 20
537.569024
 30
0.0
 10
-1903.870371
 20
582.870064
 30
0.0
 10
-1900.276182
 20
586.953343
 30
0.0
  0
LWPOLYLINE
  5
1da
100
AcDbEntity
  8
Vrstva_1
 62
1
100
AcDbPolyline
 90
4
 70
1
 10
-1548.835616
 20
937.723968
 30
0.0
 10
-1320.621335
 20
937.723968
 30
0.0
 10
-1320.621335
 20
749.152533
 30
0.0
 10
-1548.835616
 20
749.152533
 30
0.0
  0
LWPOLYLINE
  5
1db
100
AcDbEntity
  8
Vrstva_1
 62
7
100
AcDbPolyline
 90
1
 70
1
 10
-1900.276182
 20
586.953343
 30
0.0
  0
SPLINE
  5
1dc
100
AcDbEntity
  8
Vrstva_1
 62
1
100
AcDbSpline
 70
8
 71
3
 72
8
 73
4
 74
0
 40
0
 40
0
 40
0
 40
0
 40
1
 40
1
 40
1
 40
1
 10
-1883.271021
 20
556.164417
 30
0.0
 10
-1883.271021
 20
555.903704
 30
0.0
 10
-1883.411726
 20
555.662796
 30
0.0
 10
-1883.640135
 20
555.532440
 30
0.0
  0
SPLINE
  5
1dd
100
AcDbEntity
  8
Vrstva_1
 62
1
100
AcDbSpline
 70
8
 71
3
 72
8
 73
4
 74
0
 40
0
 40
0
 40
0
 40
0
 40
1
 40
1
 40
1
 40
1
 10
-1883.640135
 20
555.532440
 30
0.0
 10
-1883.868544
 20
555.402083
 30
0.0
 10
-1884.149956
 20
555.402083
 30
0.0
 10
-1884.378365
 20
555.532440
 30
0.0
  0
SPLINE
  5
1de
100
AcDbEntity
  8
Vrstva_1
 62
1
100
AcDbSpline
 70
8
 71
3
 72
8
 73
4
 74
0
 40
0
 40
0
 40
0
 40
0
 40
1
 40
1
 40
1
 40
1
 10
-1884.378365
 20
555.532440
 30
0.0
 10
-1884.606774
 20
555.662796
 30
0.0
 10
-1884.747479
 20
555.903704
 30
0.0
 10
-1884.747479
 20
556.164417
 30
0.0
  0
SPLINE
  5
1df
100
AcDbEntity
  8
Vrstva_1
 62
1
100
AcDbSpline
 70
8
 71
3
 72
8
 73
4
 74
0
 40
0
 40
0
 40
0
 40
0
 40
1
 40
1
 40
1
 40
1
 10
-1884.747479
 20
556.164417
 30
0.0
 10
-1884.747479
 20
556.425129
 30
0.0
 10
-1884.606774
 20
556.666037
 30
0.0
 10
-1884.378365
 20
556.796393
 30
0.0
  0
SPLINE
  5
1e0
100
AcDbEntity
  8
Vrstva_1
 62
1
100
AcDbSpline
 70
8
 71
3
 72
8
 73
4
 74
0
 40
0
 40
0
 40
0
 40
0
 40
1
 40
1
 40
1
 40
1
 10
-1884.378365
 20
556.796393
 30
0.0
 10
-1884.149956
 20
556.926750
 30
0.0
 10
-1883.868544
 20
556.926750
 30
0.0
 10
-1883.640135
 20
556.796393
 30
0.0
  0
SPLINE
  5
1e1
100
AcDbEntity
  8
Vrstva_1
 62
1
100
AcDbSpline
 70
8
 71
3
 72
8
 73
4
 74
0
 40
0
 40
0
 40
0
 40
0
 40
1
 40
1
 40
1
 40
1
 10
-1883.640135
 20
556.796393
 30
0.0
 10
-1883.411726
 20
556.666037
 30
0.0
 10
-1883.271021
 20
556.425129
 30
0.0
 10
-1883.271021
 20
556.164417
 30
0.0
  0
LWPOLYLINE
  5
1e2
100
AcDbEntity
  8
Vrstva_1
 62
7
100
AcDbPolyline
 90
2
 70
0
 10
-1885.007301
 20
560.091584
 30
0.0
 10
-1882.999374
 20
560.219744
 30
0.0
  0
SPLINE
  5
1e3
100
AcDbEntity
  8
Vrstva_1
 62
1
100
AcDbSpline
 70
8
 71
3
 72
8
 73
4
 74
0
 40
0
 40
0
 40
0
 40
0
 40
1
 40
1
 40
1
 40
1
 10
-1873.258253
 20
556.164417
 30
0.0
 10
-1873.258253
 20
555.761390
 30
0.0
 10
-1873.588769
 20
555.434673
 30
0.0
 10
-1873.996482
 20
555.434673
 30
0.0
  0
SPLINE
  5
1e4
100
AcDbEntity
  8
Vrstva_1
 62
1
100
AcDbSpline
 70
8
 71
3
 72
8
 73
4
 74
0
 40
0
 40
0
 40
0
 40
0
 40
1
 40
1
 40
1
 40
1
 10
-1873.996482
 20
555.434673
 30
0.0
 10
-1874.404195
 20
555.434673
 30
0.0
 10
-1874.734711
 20
555.761390
 30
0.0
 10
-1874.734711
 20
556.164417
 30
0.0
  0
SPLINE
  5
1e5
100
AcDbEntity
  8
Vrstva_1
 62
1
100
AcDbSpline
 70
8
 71
3
 72
8
 73
4
 74
0
 40
0
 40
0
 40
0
 40
0
 40
1
 40
1
 40
1
 40
1
 10
-1874.734711
 20
556.164417
 30
0.0
 10
-1874.734711
 20
556.425129
 30
0.0
 10
-1874.594006
 20
556.666037
 30
0.0
 10
-1874.365597
 20
556.796393
 30
0.0
  0
SPLINE
  5
1e6
100
AcDbEntity
  8
Vrstva_1
 62
1
100
AcDbSpline
 70
8
 71
3
 72
8
 73
4
 74
0
 40
0
 40
0
 40
0
 40
0
 40
1
 40
1
 40
1
 40
1
 10
-1874.365597
 20
556.796393
 30
0.0
 10
-1874.137188
 20
556.926750
 30
0.0
 10
-1873.855776
 20
556.926750
 30
0.0
 10
-1873.627367
 20
556.796393
 30
0.0
  0
SPLINE
  5
1e7
100
AcDbEntity
  8
Vrstva_1
 62
1
100
AcDbSpline
 70
8
 71
3
 72
8
 73
4
 74
0
 40
0
 40
0
 40
0
 40
0
 40
1
 40
1
 40
1
 40
1
 10
-1873.627367
 20
556.796393
 30
0.0
 10
-1873.398958
 20
556.666037
 30
0.0
 10
-1873.258253
 20
556.425129
 30
0.0
 10
-1873.258253
 20
556.164417
 30
0.0
  0
LWPOLYLINE
  5
1e8
100
AcDbEntity
  8
Vrstva_1
 62
1
100
AcDbPolyline
 90
1
 70
1
 10
-1883.271021
 20
556.164417
 30
0.0
  0
LWPOLYLINE
  5
1e9
100
AcDbEntity
  8
Vrstva_1
 62
1
100
AcDbPolyline
 90
1
 70
1
 10
-1873.258253
 20
556.164417
 30
0.0
  0
SPLINE
  5
1ea
100
AcDbEntity
  8
Vrstva_1
 62
7
100
AcDbSpline
 70
8
 71
3
 72
8
 73
4
 74
0
 40
0
 40
0
 40
0
 40
0
 40
1
 40
1
 40
1
 40
1
 10
-1889.926182
 20
563.551179
 30
0.0
 10
-1889.775171
 20
563.415783
 30
0.0
 10
-1888.077552
 20
564.617689
 30
0.0
 10
-1887.046143
 20
564.751195
 30
0.0
  0
SPLINE
  5
1eb
100
AcDbEntity
  8
Vrstva_1
 62
7
100
AcDbSpline
 70
8
 71
3
 72
8
 73
4
 74
0
 40
0
 40
0
 40
0
 40
0
 40
1
 40
1
 40
1
 40
1
 10
-1887.046143
 20
564.751195
 30
0.0
 10
-1886.060995
 20
564.878713
 30
0.0
 10
-1885.069161
 20
564.533040
 30
0.0
 10
-1884.094105
 20
564.343190
 30
0.0
  0
SPLINE
  5
1ec
100
AcDbEntity
  8
Vrstva_1
 62
7
100
AcDbSpline
 70
8
 71
3
 72
8
 73
4
 74
0
 40
0
 40
0
 40
0
 40
0
 40
1
 40
1
 40
1
 40
1
 10
-1884.094105
 20
564.343190
 30
0.0
 10
-1882.425719
 20
564.018342
 30
0.0
 10
-1880.170499
 20
563.123857
 30
0.0
 10
-1879.150038
 20
563.095172
 30
0.0
  0
SPLINE
  5
1ed
100
AcDbEntity
  8
Vrstva_1
 62
7
100
AcDbSpline
 70
8
 71
3
 72
8
 73
4
 74
0
 40
0
 40
0
 40
0
 40
0
 40
1
 40
1
 40
1
 40
1
 10
-1879.150038
 20
563.095172
 30
0.0
 10
-1877.868269
 20
563.059145
 30
0.0
 10
-1873.161477
 20
564.940665
 30
0.0
 10
-1871.397933
 20
564.943197
 30
0.0
  0
SPLINE
  5
1ee
100
AcDbEntity
  8
Vrstva_1
 62
7
100
AcDbSpline
 70
8
 71
3
 72
8
 73
4
 74
0
 40
0
 40
0
 40
0
 40
0
 40
1
 40
1
 40
1
 40
1
 10
-1871.397933
 20
564.943197
 30
0.0
 10
-1870.237147
 20
564.944849
 30
0.0
 10
-1868.205890
 20
563.551179
 30
0.0
 10
-1868.205890
 20
563.551179
 30
0.0
  0
SPLINE
  5
1ef
100
AcDbEntity
  8
Vrstva_1
 62
7
100
AcDbSpline
 70
8
 71
3
 72
8
 73
4
 74
0
 40
0
 40
0
 40
0
 40
0
 40
1
 40
1
 40
1
 40
1
 10
-1868.205890
 20
563.551179
 30
0.0
 10
-1868.205890
 20
563.551179
 30
0.0
 10
-1867.674952
 20
570.739853
 30
0.0
 10
-1868.205890
 20
572.335297
 30
0.0
  0
SPLINE
  5
1f0
100
AcDbEntity
  8
Vrstva_1
 62
7
100
AcDbSpline
 70
8
 71
3
 72
8
 73
4
 74
0
 40
0
 40
0
 40
0
 40
0
 40
1
 40
1
 40
1
 40
1
 10
-1868.205890
 20
572.335297
 30
0.0
 10
-1868.336394
 20
572.727457
 30
0.0
 10
-1868.706165
 20
573.139364
 30
0.0
 10
-1869.117903
 20
573.175307
 30
0.0
  0
SPLINE
  5
1f1
100
AcDbEntity
  8
Vrstva_1
 62
7
100
AcDbSpline
 70
8
 71
3
 72
8
 73
4
 74
0
 40
0
 40
0
 40
0
 40
0
 40
1
 40
1
 40
1
 40
1
 10
-1869.117903
 20
573.175307
 30
0.0
 10
-1872.095455
 20
573.435227
 30
0.0
 10
-1883.854102
 20
572.911304
 30
0.0
 10
-1883.950102
 20
572.887303
 30
0.0
  0
SPLINE
  5
1f2
100
AcDbEntity
  8
Vrstva_1
 62
7
100
AcDbSpline
 70
8
 71
3
 72
8
 73
4
 74
0
 40
0
 40
0
 40
0
 40
0
 40
1
 40
1
 40
1
 40
1
 10
-1883.950102
 20
572.887303
 30
0.0
 10
-1884.046104
 20
572.863302
 30
0.0
 10
-1885.173280
 20
572.065667
 30
0.0
 10
-1885.562242
 20
571.486549
 30
0.0
  0
SPLINE
  5
1f3
100
AcDbEntity
  8
Vrstva_1
 62
7
100
AcDbSpline
 70
8
 71
3
 72
8
 73
4
 74
0
 40
0
 40
0
 40
0
 40
0
 40
1
 40
1
 40
1
 40
1
 10
-1885.562242
 20
571.486549
 30
0.0
 10
-1885.921419
 20
570.951779
 30
0.0
 10
-1885.772481
 20
569.781093
 30
0.0
 10
-1886.063461
 20
569.563613
 30
0.0
  0
SPLINE
  5
1f4
100
AcDbEntity
  8
Vrstva_1
 62
7
100
AcDbSpline
 70
8
 71
3
 72
8
 73
4
 74
0
 40
0
 40
0
 40
0
 40
0
 40
1
 40
1
 40
1
 40
1
 10
-1886.063461
 20
569.563613
 30
0.0
 10
-1886.063461
 20
569.563613
 30
0.0
 10
-1886.918860
 20
570.227951
 30
0.0
 10
-1887.358148
 20
570.199268
 30
0.0
  0
SPLINE
  5
1f5
100
AcDbEntity
  8
Vrstva_1
 62
7
100
AcDbSpline
 70
8
 71
3
 72
8
 73
4
 74
0
 40
0
 40
0
 40
0
 40
0
 40
1
 40
1
 40
1
 40
1
 10
-1887.358148
 20
570.199268
 30
0.0
 10
-1888.036477
 20
570.154980
 30
0.0
 10
-1889.182172
 20
569.287255
 30
0.0
 10
-1889.182172
 20
569.287255
 30
0.0
  0
SPLINE
  5
1f6
100
AcDbEntity
  8
Vrstva_1
 62
7
100
AcDbSpline
 70
8
 71
3
 72
8
 73
4
 74
0
 40
0
 40
0
 40
0
 40
0
 40
1
 40
1
 40
1
 40
1
 10
-1889.182172
 20
569.287255
 30
0.0
 10
-1889.182172
 20
569.287255
 30
0.0
 10
-1889.925861
 20
568.617645
 30
0.0
 10
-1889.998183
 20
568.159240
 30
0.0
  0
SPLINE
  5
1f7
100
AcDbEntity
  8
Vrstva_1
 62
7
100
AcDbSpline
 70
8
 71
3
 72
8
 73
4
 74
0
 40
0
 40
0
 40
0
 40
0
 40
1
 40
1
 40
1
 40
1
 10
-1889.998183
 20
568.159240
 30
0.0
 10
-1890.111959
 20
567.438090
 30
0.0
 10
-1890.065884
 20
563.676436
 30
0.0
 10
-1889.926182
 20
563.551179
 30
0.0
  0
LWPOLYLINE
  5
1f8
100
AcDbEntity
  8
Vrstva_1
 62
7
100
AcDbPolyline
 90
2
 70
0
 10
-1875.074834
 20
560.200512
 30
0.0
 10
-1872.958906
 20
560.064668
 30
0.0
  0
SPLINE
  5
1f9
100
AcDbEntity
  8
Vrstva_1
 62
7
100
AcDbSpline
 70
8
 71
3
 72
8
 73
4
 74
0
 40
0
 40
0
 40
0
 40
0
 40
1
 40
1
 40
1
 40
1
 10
-1893.012252
 20
530.046372
 30
0.0
 10
-1893.012252
 20
530.046372
 30
0.0
 10
-1893.147868
 20
534.074087
 30
0.0
 10
-1892.061889
 20
535.120638
 30
0.0
  0
SPLINE
  5
1fa
100
AcDbEntity
  8
Vrstva_1
 62
7
100
AcDbSpline
 70
8
 71
3
 72
8
 73
4
 74
0
 40
0
 40
0
 40
0
 40
0
 40
1
 40
1
 40
1
 40
1
 10
-1892.061889
 20
535.120638
 30
0.0
 10
-1890.286682
 20
536.831387
 30
0.0
 10
-1885.900710
 20
538.290859
 30
0.0
 10
-1883.814084
 20
538.786330
 30
0.0
  0
SPLINE
  5
1fb
100
AcDbEntity
  8
Vrstva_1
 62
7
100
AcDbSpline
 70
8
 71
3
 72
8
 73
4
 74
0
 40
0
 40
0
 40
0
 40
0
 40
1
 40
1
 40
1
 40
1
 10
-1883.814084
 20
538.786330
 30
0.0
 10
-1883.016037
 20
538.975826
 30
0.0
 10
-1883.145916
 20
537.798428
 30
0.0
 10
-1882.252772
 20
536.732861
 30
0.0
  0
SPLINE
  5
1fc
100
AcDbEntity
  8
Vrstva_1
 62
7
100
AcDbSpline
 70
8
 71
3
 72
8
 73
4
 74
0
 40
0
 40
0
 40
0
 40
0
 40
1
 40
1
 40
1
 40
1
 10
-1882.252772
 20
536.732861
 30
0.0
 10
-1881.553782
 20
535.898930
 30
0.0
 10
-1880.455156
 20
535.244869
 30
0.0
 10
-1879.367738
 20
535.205494
 30
0.0
  0
SPLINE
  5
1fd
100
AcDbEntity
  8
Vrstva_1
 62
7
100
AcDbSpline
 70
8
 71
3
 72
8
 73
4
 74
0
 40
0
 40
0
 40
0
 40
0
 40
1
 40
1
 40
1
 40
1
 10
-1879.367738
 20
535.205494
 30
0.0
 10
-1878.132486
 20
535.160738
 30
0.0
 10
-1876.792631
 20
535.773169
 30
0.0
 10
-1875.973580
 20
536.698917
 30
0.0
  0
SPLINE
  5
1fe
100
AcDbEntity
  8
Vrstva_1
 62
7
100
AcDbSpline
 70
8
 71
3
 72
8
 73
4
 74
0
 40
0
 40
0
 40
0
 40
0
 40
1
 40
1
 40
1
 40
1
 10
-1875.973580
 20
536.698917
 30
0.0
 10
-1875.066294
 20
537.724391
 30
0.0
 10
-1875.124641
 20
538.697645
 30
0.0
 10
-1874.446208
 20
538.752386
 30
0.0
  0
SPLINE
  5
1ff
100
AcDbEntity
  8
Vrstva_1
 62
7
100
AcDbSpline
 70
8
 71
3
 72
8
 73
4
 74
0
 40
0
 40
0
 40
0
 40
0
 40
1
 40
1
 40
1
 40
1
 10
-1874.446208
 20
538.752386
 30
0.0
 10
-1873.325828
 20
538.842781
 30
0.0
 10
-1867.952524
 20
537.022277
 30
0.0
 10
-1865.706252
 20
534.713342
 30
0.0
  0
SPLINE
  5
200
100
AcDbEntity
  8
Vrstva_1
 62
7
100
AcDbSpline
 70
8
 71
3
 72
8
 73
4
 74
0
 40
0
 40
0
 40
0
 40
0
 40
1
 40
1
 40
1
 40
1
 10
-1865.706252
 20
534.713342
 30
0.0
 10
-1864.563198
 20
533.538401
 30
0.0
 10
-1865.010450
 20
529.639069
 30
0.0
 10
-1865.010450
 20
529.639069
 30
0.0
  0
SPLINE
  5
201
100
AcDbEntity
  8
Vrstva_1
 62
7
100
AcDbSpline
 70
8
 71
3
 72
8
 73
4
 74
0
 40
0
 40
0
 40
0
 40
0
 40
1
 40
1
 40
1
 40
1
 10
-1889.926182
 20
563.551179
 30
0.0
 10
-1889.926182
 20
563.551179
 30
0.0
 10
-1890.256251
 20
556.871021
 30
0.0
 10
-1890.022184
 20
553.543043
 30
0.0
  0
SPLINE
  5
202
100
AcDbEntity
  8
Vrstva_1
 62
7
100
AcDbSpline
 70
8
 71
3
 72
8
 73
4
 74
0
 40
0
 40
0
 40
0
 40
0
 40
1
 40
1
 40
1
 40
1
 10
-1890.022184
 20
553.543043
 30
0.0
 10
-1889.924546
 20
552.154822
 30
0.0
 10
-1889.940213
 20
550.696740
 30
0.0
 10
-1889.398175
 20
549.414988
 30
0.0
  0
SPLINE
  5
203
100
AcDbEntity
  8
Vrstva_1
 62
7
100
AcDbSpline
 70
8
 71
3
 72
8
 73
4
 74
0
 40
0
 40
0
 40
0
 40
0
 40
1
 40
1
 40
1
 40
1
 10
-1889.398175
 20
549.414988
 30
0.0
 10
-1888.646583
 20
547.637710
 30
0.0
 10
-1888.065057
 20
546.802816
 30
0.0
 10
-1886.902142
 20
545.262935
 30
0.0
  0
SPLINE
  5
204
100
AcDbEntity
  8
Vrstva_1
 62
7
100
AcDbSpline
 70
8
 71
3
 72
8
 73
4
 74
0
 40
0
 40
0
 40
0
 40
0
 40
1
 40
1
 40
1
 40
1
 10
-1886.902142
 20
545.262935
 30
0.0
 10
-1886.468228
 20
544.688363
 30
0.0
 10
-1885.265114
 20
543.548896
 30
0.0
 10
-1884.750849
 20
543.044963
 30
0.0
  0
SPLINE
  5
205
100
AcDbEntity
  8
Vrstva_1
 62
7
100
AcDbSpline
 70
8
 71
3
 72
8
 73
4
 74
0
 40
0
 40
0
 40
0
 40
0
 40
1
 40
1
 40
1
 40
1
 10
-1884.750849
 20
543.044963
 30
0.0
 10
-1884.300488
 20
542.603659
 30
0.0
 10
-1883.502601
 20
542.426332
 30
0.0
 10
-1883.265740
 20
541.957923
 30
0.0
  0
SPLINE
  5
206
100
AcDbEntity
  8
Vrstva_1
 62
7
100
AcDbSpline
 70
8
 71
3
 72
8
 73
4
 74
0
 40
0
 40
0
 40
0
 40
0
 40
1
 40
1
 40
1
 40
1
 10
-1883.265740
 20
541.957923
 30
0.0
 10
-1883.009516
 20
541.451217
 30
0.0
 10
-1883.304964
 20
538.684506
 30
0.0
 10
-1883.304964
 20
538.684506
 30
0.0
  0
SPLINE
  5
207
100
AcDbEntity
  8
Vrstva_1
 62
7
100
AcDbSpline
 70
8
 71
3
 72
8
 73
4
 74
0
 40
0
 40
0
 40
0
 40
0
 40
1
 40
1
 40
1
 40
1
 10
-1868.205890
 20
563.551179
 30
0.0
 10
-1868.205890
 20
563.551179
 30
0.0
 10
-1867.875821
 20
556.871019
 30
0.0
 10
-1868.109888
 20
553.543048
 30
0.0
  0
SPLINE
  5
208
100
AcDbEntity
  8
Vrstva_1
 62
7
100
AcDbSpline
 70
8
 71
3
 72
8
 73
4
 74
0
 40
0
 40
0
 40
0
 40
0
 40
1
 40
1
 40
1
 40
1
 10
-1868.109888
 20
553.543048
 30
0.0
 10
-1868.207526
 20
552.154825
 30
0.0
 10
-1868.191860
 20
550.696736
 30
0.0
 10
-1868.733897
 20
549.414988
 30
0.0
  0
SPLINE
  5
209
100
AcDbEntity
  8
Vrstva_1
 62
7
100
AcDbSpline
 70
8
 71
3
 72
8
 73
4
 74
0
 40
0
 40
0
 40
0
 40
0
 40
1
 40
1
 40
1
 40
1
 10
-1868.733897
 20
549.414988
 30
0.0
 10
-1869.485489
 20
547.637710
 30
0.0
 10
-1870.067015
 20
546.802816
 30
0.0
 10
-1871.229930
 20
545.262935
 30
0.0
  0
SPLINE
  5
20a
100
AcDbEntity
  8
Vrstva_1
 62
7
100
AcDbSpline
 70
8
 71
3
 72
8
 73
4
 74
0
 40
0
 40
0
 40
0
 40
0
 40
1
 40
1
 40
1
 40
1
 10
-1871.229930
 20
545.262935
 30
0.0
 10
-1871.663844
 20
544.688363
 30
0.0
 10
-1872.866959
 20
543.548896
 30
0.0
 10
-1873.381224
 20
543.044963
 30
0.0
  0
SPLINE
  5
20b
100
AcDbEntity
  8
Vrstva_1
 62
7
100
AcDbSpline
 70
8
 71
3
 72
8
 73
4
 74
0
 40
0
 40
0
 40
0
 40
0
 40
1
 40
1
 40
1
 40
1
 10
-1873.381224
 20
543.044963
 30
0.0
 10
-1873.831585
 20
542.603659
 30
0.0
 10
-1874.629472
 20
542.426332
 30
0.0
 10
-1874.866332
 20
541.957923
 30
0.0
  0
SPLINE
  5
20c
100
AcDbEntity
  8
Vrstva_1
 62
7
100
AcDbSpline
 70
8
 71
3
 72
8
 73
4
 74
0
 40
0
 40
0
 40
0
 40
0
 40
1
 40
1
 40
1
 40
1
 10
-1874.866332
 20
541.957923
 30
0.0
 10
-1875.122556
 20
541.451217
 30
0.0
 10
-1874.827108
 20
538.684506
 30
0.0
 10
-1874.827108
 20
538.684506
 30
0.0
  0
LWPOLYLINE
  5
20d
100
AcDbEntity
  8
Vrstva_1
 62
7
100
AcDbPolyline
 90
1
 70
1
 10
-1889.926182
 20
563.551179
 30
0.0
  0
LWPOLYLINE
  5
20e
100
AcDbEntity
  8
Vrstva_1
 62
7
100
AcDbPolyline
 90
2
 70
0
 10
-1858.425782
 20
567.993058
 30
0.0
 10
-1857.034178
 20
569.893786
 30
0.0
  0
LWPOLYLINE
  5
20f
100
AcDbEntity
  8
Vrstva_1
 62
7
100
AcDbPolyline
 90
2
 70
0
 10
-1853.669770
 20
567.782381
 30
0.0
 10
-1852.346659
 20
569.328774
 30
0.0
  0
LWPOLYLINE
  5
210
100
AcDbEntity
  8
Vrstva_1
 62
7
100
AcDbPolyline
 90
2
 70
0
 10
-1861.055947
 20
581.128473
 30
0.0
 10
-1859.664344
 20
583.029202
 30
0.0
  0
LWPOLYLINE
  5
211
100
AcDbEntity
  8
Vrstva_1
 62
7
100
AcDbPolyline
 90
2
 70
0
 10
-1864.007557
 20
585.099669
 30
0.0
 10
-1862.615953
 20
587.000397
 30
0.0
  0
LWPOLYLINE
  5
212
100
AcDbEntity
  8
Vrstva_1
 62
7
100
AcDbPolyline
 90
2
 70
0
 10
-1843.607695
 20
581.762540
 30
0.0
 10
-1841.758342
 20
580.303354
 30
0.0
  0
LWPOLYLINE
  5
213
100
AcDbEntity
  8
Vrstva_1
 62
7
100
AcDbPolyline
 90
2
 70
0
 10
-1843.631695
 20
576.722472
 30
0.0
 10
-1841.782342
 20
575.263287
 30
0.0
  0
LWPOLYLINE
  5
214
100
AcDbEntity
  8
Vrstva_1
 62
7
100
AcDbPolyline
 90
2
 70
0
 10
-1841.576625
 20
560.574379
 30
0.0
 10
-1839.531240
 20
561.743025
 30
0.0
  0
SPLINE
  5
215
100
AcDbEntity
  8
Vrstva_1
 62
7
100
AcDbSpline
 70
8
 71
3
 72
8
 73
4
 74
0
 40
0
 40
0
 40
0
 40
0
 40
1
 40
1
 40
1
 40
1
 10
-1851.093662
 20
530.070732
 30
0.0
 10
-1851.093662
 20
530.070732
 30
0.0
 10
-1851.266139
 20
533.025768
 30
0.0
 10
-1850.709655
 20
534.342785
 30
0.0
  0
SPLINE
  5
216
100
AcDbEntity
  8
Vrstva_1
 62
7
100
AcDbSpline
 70
8
 71
3
 72
8
 73
4
 74
0
 40
0
 40
0
 40
0
 40
0
 40
1
 40
1
 40
1
 40
1
 10
-1850.709655
 20
534.342785
 30
0.0
 10
-1850.184140
 20
535.586511
 30
0.0
 10
-1849.229444
 20
536.723572
 30
0.0
 10
-1848.069621
 20
537.414824
 30
0.0
  0
SPLINE
  5
217
100
AcDbEntity
  8
Vrstva_1
 62
7
100
AcDbSpline
 70
8
 71
3
 72
8
 73
4
 74
0
 40
0
 40
0
 40
0
 40
0
 40
1
 40
1
 40
1
 40
1
 10
-1848.069621
 20
537.414824
 30
0.0
 10
-1847.099116
 20
537.993247
 30
0.0
 10
-1845.880352
 20
538.009044
 30
0.0
 10
-1844.757576
 20
538.134840
 30
0.0
  0
SPLINE
  5
218
100
AcDbEntity
  8
Vrstva_1
 62
7
100
AcDbSpline
 70
8
 71
3
 72
8
 73
4
 74
0
 40
0
 40
0
 40
0
 40
0
 40
1
 40
1
 40
1
 40
1
 10
-1844.757576
 20
538.134840
 30
0.0
 10
-1843.008424
 20
538.330816
 30
0.0
 10
-1839.477505
 20
538.182829
 30
0.0
 10
-1839.477505
 20
538.182829
 30
0.0
  0
SPLINE
  5
219
100
AcDbEntity
  8
Vrstva_1
 62
7
100
AcDbSpline
 70
8
 71
3
 72
8
 73
4
 74
0
 40
0
 40
0
 40
0
 40
0
 40
1
 40
1
 40
1
 40
1
 10
-1844.757577
 20
538.134840
 30
0.0
 10
-1844.757577
 20
538.134840
 30
0.0
 10
-1846.891155
 20
539.474421
 30
0.0
 10
-1847.733616
 20
540.390866
 30
0.0
  0
SPLINE
  5
21a
100
AcDbEntity
  8
Vrstva_1
 62
7
100
AcDbSpline
 70
8
 71
3
 72
8
 73
4
 74
0
 40
0
 40
0
 40
0
 40
0
 40
1
 40
1
 40
1
 40
1
 10
-1847.733616
 20
540.390866
 30
0.0
 10
-1848.502663
 20
541.227447
 30
0.0
 10
-1849.160814
 20
542.206090
 30
0.0
 10
-1849.557641
 20
543.270902
 30
0.0
  0
SPLINE
  5
21b
100
AcDbEntity
  8
Vrstva_1
 62
7
100
AcDbSpline
 70
8
 71
3
 72
8
 73
4
 74
0
 40
0
 40
0
 40
0
 40
0
 40
1
 40
1
 40
1
 40
1
 10
-1849.557641
 20
543.270902
 30
0.0
 10
-1850.009640
 20
544.483753
 30
0.0
 10
-1850.133649
 20
547.110953
 30
0.0
 10
-1850.133649
 20
547.110953
 30
0.0
  0
LWPOLYLINE
  5
21c
100
AcDbEntity
  8
Vrstva_1
 62
7
100
AcDbPolyline
 90
2
 70
0
 10
-1841.504624
 20
555.678314
 30
0.0
 10
-1839.459236
 20
556.846960
 30
0.0
  0
SPLINE
  5
21d
100
AcDbEntity
  8
Vrstva_1
 62
7
100
AcDbSpline
 70
8
 71
3
 72
8
 73
4
 74
0
 40
0
 40
0
 40
0
 40
0
 40
1
 40
1
 40
1
 40
1
 10
-1850.133649
 20
547.110953
 30
0.0
 10
-1850.133649
 20
547.110953
 30
0.0
 10
-1853.266510
 20
547.044000
 30
0.0
 10
-1854.693710
 20
547.590964
 30
0.0
  0
SPLINE
  5
21e
100
AcDbEntity
  8
Vrstva_1
 62
7
100
AcDbSpline
 70
8
 71
3
 72
8
 73
4
 74
0
 40
0
 40
0
 40
0
 40
0
 40
1
 40
1
 40
1
 40
1
 10
-1854.693710
 20
547.590964
 30
0.0
 10
-1855.966821
 20
548.078870
 30
0.0
 10
-1857.064104
 20
549.005013
 30
0.0
 10
-1858.005754
 20
549.990997
 30
0.0
  0
SPLINE
  5
21f
100
AcDbEntity
  8
Vrstva_1
 62
7
100
AcDbSpline
 70
8
 71
3
 72
8
 73
4
 74
0
 40
0
 40
0
 40
0
 40
0
 40
1
 40
1
 40
1
 40
1
 10
-1858.005754
 20
549.990997
 30
0.0
 10
-1858.891538
 20
550.918483
 30
0.0
 10
-1859.571260
 20
551.712772
 30
0.0
 10
-1859.931103
 20
553.173098
 30
0.0
  0
SPLINE
  5
220
100
AcDbEntity
  8
Vrstva_1
 62
7
100
AcDbSpline
 70
8
 71
3
 72
8
 73
4
 74
0
 40
0
 40
0
 40
0
 40
0
 40
1
 40
1
 40
1
 40
1
 10
-1859.931103
 20
553.173098
 30
0.0
 10
-1860.168727
 20
554.137426
 30
0.0
 10
-1860.261784
 20
556.183079
 30
0.0
 10
-1860.261784
 20
556.183079
 30
0.0
  0
LWPOLYLINE
  5
221
100
AcDbEntity
  8
Vrstva_1
 62
7
100
AcDbPolyline
 90
2
 70
0
 10
-1850.133649
 20
547.110953
 30
0.0
 10
-1846.341597
 20
547.110953
 30
0.0
  0
SPLINE
  5
222
100
AcDbEntity
  8
Vrstva_1
 62
7
100
AcDbSpline
 70
8
 71
3
 72
8
 73
4
 74
0
 40
0
 40
0
 40
0
 40
0
 40
1
 40
1
 40
1
 40
1
 10
-1860.261784
 20
556.183081
 30
0.0
 10
-1860.261784
 20
556.183081
 30
0.0
 10
-1863.295363
 20
556.229891
 30
0.0
 10
-1864.806825
 20
556.347111
 30
0.0
  0
SPLINE
  5
223
100
AcDbEntity
  8
Vrstva_1
 62
7
100
AcDbSpline
 70
8
 71
3
 72
8
 73
4
 74
0
 40
0
 40
0
 40
0
 40
0
 40
1
 40
1
 40
1
 40
1
 10
-1864.806825
 20
556.347111
 30
0.0
 10
-1865.814561
 20
556.425263
 30
0.0
 10
-1867.817768
 20
556.706262
 30
0.0
 10
-1867.817768
 20
556.706262
 30
0.0
  0
SPLINE
  5
224
100
AcDbEntity
  8
Vrstva_1
 62
7
100
AcDbSpline
 70
8
 71
3
 72
8
 73
4
 74
0
 40
0
 40
0
 40
0
 40
0
 40
1
 40
1
 40
1
 40
1
 10
-1878.166025
 20
573.271309
 30
0.0
 10
-1878.166025
 20
573.271309
 30
0.0
 10
-1878.309189
 20
575.045011
 30
0.0
 10
-1878.346730
 20
575.933736
 30
0.0
  0
SPLINE
  5
225
100
AcDbEntity
  8
Vrstva_1
 62
7
100
AcDbSpline
 70
8
 71
3
 72
8
 73
4
 74
0
 40
0
 40
0
 40
0
 40
0
 40
1
 40
1
 40
1
 40
1
 10
-1878.346730
 20
575.933736
 30
0.0
 10
-1878.389840
 20
576.954204
 30
0.0
 10
-1878.397793
 20
578.997446
 30
0.0
 10
-1878.397793
 20
578.997446
 30
0.0
  0
LWPOLYLINE
  5
226
100
AcDbEntity
  8
Vrstva_1
 62
7
100
AcDbPolyline
 90
2
 70
0
 10
-1860.261784
 20
556.183079
 30
0.0
 10
-1856.133729
 20
556.183079
 30
0.0
  0
SPLINE
  5
227
100
AcDbEntity
  8
Vrstva_1
 62
7
100
AcDbSpline
 70
8
 71
3
 72
8
 73
4
 74
0
 40
0
 40
0
 40
0
 40
0
 40
1
 40
1
 40
1
 40
1
 10
-1878.262025
 20
579.031387
 30
0.0
 10
-1878.262025
 20
579.031387
 30
0.0
 10
-1881.933547
 20
579.291060
 30
0.0
 10
-1883.542097
 20
580.087400
 30
0.0
  0
SPLINE
  5
228
100
AcDbEntity
  8
Vrstva_1
 62
7
100
AcDbSpline
 70
8
 71
3
 72
8
 73
4
 74
0
 40
0
 40
0
 40
0
 40
0
 40
1
 40
1
 40
1
 40
1
 10
-1883.542097
 20
580.087400
 30
0.0
 10
-1884.822227
 20
580.721150
 30
0.0
 10
-1885.879774
 20
581.793005
 30
0.0
 10
-1886.758139
 20
582.919437
 30
0.0
  0
SPLINE
  5
229
100
AcDbEntity
  8
Vrstva_1
 62
7
100
AcDbSpline
 70
8
 71
3
 72
8
 73
4
 74
0
 40
0
 40
0
 40
0
 40
0
 40
1
 40
1
 40
1
 40
1
 10
-1886.758139
 20
582.919437
 30
0.0
 10
-1888.162430
 20
584.720329
 30
0.0
 10
-1889.217245
 20
588.330807
 30
0.0
 10
-1889.217245
 20
588.330807
 30
0.0
  0
SPLINE
  5
22a
100
AcDbEntity
  8
Vrstva_1
 62
7
100
AcDbSpline
 70
8
 71
3
 72
8
 73
4
 74
0
 40
0
 40
0
 40
0
 40
0
 40
1
 40
1
 40
1
 40
1
 10
-1889.889628
 20
554.348542
 30
0.0
 10
-1889.889628
 20
554.348542
 30
0.0
 10
-1887.937820
 20
553.961520
 30
0.0
 10
-1887.072476
 20
553.500003
 30
0.0
  0
SPLINE
  5
22b
100
AcDbEntity
  8
Vrstva_1
 62
7
100
AcDbSpline
 70
8
 71
3
 72
8
 73
4
 74
0
 40
0
 40
0
 40
0
 40
0
 40
1
 40
1
 40
1
 40
1
 10
-1887.072476
 20
553.500003
 30
0.0
 10
-1886.207132
 20
553.038487
 30
0.0
 10
-1884.798391
 20
551.633216
 30
0.0
 10
-1884.798391
 20
551.633216
 30
0.0
  0
SPLINE
  5
22c
100
AcDbEntity
  8
Vrstva_1
 62
7
100
AcDbSpline
 70
8
 71
3
 72
8
 73
4
 74
0
 40
0
 40
0
 40
0
 40
0
 40
1
 40
1
 40
1
 40
1
 10
-1884.798391
 20
551.633216
 30
0.0
 10
-1884.798391
 20
551.633216
 30
0.0
 10
-1881.185688
 20
552.115087
 30
0.0
 10
-1879.367738
 20
552.142339
 30
0.0
  0
SPLINE
  5
22d
100
AcDbEntity
  8
Vrstva_1
 62
7
100
AcDbSpline
 70
8
 71
3
 72
8
 73
4
 74
0
 40
0
 40
0
 40
0
 40
0
 40
1
 40
1
 40
1
 40
1
 10
-1879.367738
 20
552.142339
 30
0.0
 10
-1877.406707
 20
552.171736
 30
0.0
 10
-1873.495843
 20
551.768983
 30
0.0
 10
-1873.495843
 20
551.768983
 30
0.0
  0
SPLINE
  5
22e
100
AcDbEntity
  8
Vrstva_1
 62
7
100
AcDbSpline
 70
8
 71
3
 72
8
 73
4
 74
0
 40
0
 40
0
 40
0
 40
0
 40
1
 40
1
 40
1
 40
1
 10
-1873.495843
 20
551.768983
 30
0.0
 10
-1873.495843
 20
551.768983
 30
0.0
 10
-1872.030387
 20
552.892594
 30
0.0
 10
-1871.221759
 20
553.330295
 30
0.0
  0
SPLINE
  5
22f
100
AcDbEntity
  8
Vrstva_1
 62
7
100
AcDbSpline
 70
8
 71
3
 72
8
 73
4
 74
0
 40
0
 40
0
 40
0
 40
0
 40
1
 40
1
 40
1
 40
1
 10
-1871.221759
 20
553.330295
 30
0.0
 10
-1870.307138
 20
553.825369
 30
0.0
 10
-1868.336725
 20
554.518250
 30
0.0
 10
-1868.336725
 20
554.518250
 30
0.0
  0
SPLINE
  5
230
100
AcDbEntity
  8
Vrstva_1
 62
7
100
AcDbSpline
 70
8
 71
3
 72
8
 73
4
 74
0
 40
0
 40
0
 40
0
 40
0
 40
1
 40
1
 40
1
 40
1
 10
-1884.798391
 20
551.633216
 30
0.0
 10
-1884.798391
 20
551.633216
 30
0.0
 10
-1885.032704
 20
549.267008
 30
0.0
 10
-1885.094930
 20
548.028138
 30
0.0
  0
SPLINE
  5
231
100
AcDbEntity
  8
Vrstva_1
 62
7
100
AcDbSpline
 70
8
 71
3
 72
8
 73
4
 74
0
 40
0
 40
0
 40
0
 40
0
 40
1
 40
1
 40
1
 40
1
 10
-1885.094930
 20
548.028138
 30
0.0
 10
-1885.157157
 20
546.789275
 30
0.0
 10
-1884.934156
 20
543.555124
 30
0.0
 10
-1884.934156
 20
543.555124
 30
0.0
  0
SPLINE
  5
232
100
AcDbEntity
  8
Vrstva_1
 62
7
100
AcDbSpline
 70
8
 71
3
 72
8
 73
4
 74
0
 40
0
 40
0
 40
0
 40
0
 40
1
 40
1
 40
1
 40
1
 10
-1882.863721
 20
542.129574
 30
0.0
 10
-1882.759097
 20
542.129574
 30
0.0
 10
-1880.262965
 20
542.109747
 30
0.0
 10
-1878.962882
 20
542.132448
 30
0.0
  0
SPLINE
  5
233
100
AcDbEntity
  8
Vrstva_1
 62
7
100
AcDbSpline
 70
8
 71
3
 72
8
 73
4
 74
0
 40
0
 40
0
 40
0
 40
0
 40
1
 40
1
 40
1
 40
1
 10
-1878.962882
 20
542.132448
 30
0.0
 10
-1877.660416
 20
542.155077
 30
0.0
 10
-1875.057158
 20
542.265414
 30
0.0
 10
-1875.057158
 20
542.265414
 30
0.0
  0
SPLINE
  5
234
100
AcDbEntity
  8
Vrstva_1
 62
7
100
AcDbSpline
 70
8
 71
3
 72
8
 73
4
 74
0
 40
0
 40
0
 40
0
 40
0
 40
1
 40
1
 40
1
 40
1
 10
-1873.495843
 20
551.768983
 30
0.0
 10
-1873.495843
 20
551.768983
 30
0.0
 10
-1873.231006
 20
549.325011
 30
0.0
 10
-1873.184794
 20
548.097757
 30
0.0
  0
SPLINE
  5
235
100
AcDbEntity
  8
Vrstva_1
 62
7
100
AcDbSpline
 70
8
 71
3
 72
8
 73
4
 74
0
 40
0
 40
0
 40
0
 40
0
 40
1
 40
1
 40
1
 40
1
 10
-1873.184794
 20
548.097757
 30
0.0
 10
-1873.131224
 20
546.675001
 30
0.0
 10
-1873.224312
 20
543.826653
 30
0.0
 10
-1873.224312
 20
543.826653
 30
0.0
  0
SPLINE
  5
236
100
AcDbEntity
  8
Vrstva_1
 62
7
100
AcDbSpline
 70
8
 71
3
 72
8
 73
4
 74
0
 40
0
 40
0
 40
0
 40
0
 40
1
 40
1
 40
1
 40
1
 10
-1088.686248
 20
1039.240936
 30
0.0
 10
-1085.332976
 20
1042.594208
 30
0.0
 10
-1027.258995
 20
1043.463424
 30
0.0
 10
-1023.986624
 20
1038.593928
 30
0.0
  0
SPLINE
  5
237
100
AcDbEntity
  8
Vrstva_1
 62
7
100
AcDbSpline
 70
8
 71
3
 72
8
 73
4
 74
0
 40
0
 40
0
 40
0
 40
0
 40
1
 40
1
 40
1
 40
1
 10
-1023.986624
 20
1038.593928
 30
0.0
 10
-1020.828318
 20
1033.894171
 30
0.0
 10
-1018.797294
 20
988.849921
 30
0.0
 10
-1023.986624
 20
984.595628
 30
0.0
  0
SPLINE
  5
238
100
AcDbEntity
  8
Vrstva_1
 62
7
100
AcDbSpline
 70
8
 71
3
 72
8
 73
4
 74
0
 40
0
 40
0
 40
0
 40
0
 40
1
 40
1
 40
1
 40
1
 10
-1023.986624
 20
984.595628
 30
0.0
 10
-1029.795181
 20
979.833707
 30
0.0
 10
-1083.455165
 20
979.389206
 30
0.0
 10
-1088.686248
 20
984.595628
 30
0.0
  0
SPLINE
  5
239
100
AcDbEntity
  8
Vrstva_1
 62
7
100
AcDbSpline
 70
8
 71
3
 72
8
 73
4
 74
0
 40
0
 40
0
 40
0
 40
0
 40
1
 40
1
 40
1
 40
1
 10
-1088.686248
 20
984.595628
 30
0.0
 10
-1093.972211
 20
989.856617
 30
0.0
 10
-1092.280438
 20
1035.157657
 30
0.0
 10
-1088.686248
 20
1039.240936
 30
0.0
  0
LWPOLYLINE
  5
23a
100
AcDbEntity
  8
Vrstva_1
 62
7
100
AcDbPolyline
 90
2
 70
0
 10
-1878.397793
 20
578.997446
 30
0.0
 10
-1873.653965
 20
579.127387
 30
0.0
  0
SPLINE
  5
23b
100
AcDbEntity
  8
Vrstva_1
 62
7
100
AcDbSpline
 70
8
 71
3
 72
8
 73
4
 74
0
 40
0
 40
0
 40
0
 40
0
 40
1
 40
1
 40
1
 40
1
 10
-1057.942117
 20
1003.619062
 30
0.0
 10
-1057.942117
 20
1003.619062
 30
0.0
 10
-1082.772147
 20
1003.686912
 30
0.0
 10
-1083.114835
 20
1003.384279
 30
0.0
  0
SPLINE
  5
23c
100
AcDbEntity
  8
Vrstva_1
 62
7
100
AcDbSpline
 70
8
 71
3
 72
8
 73
4
 74
0
 40
0
 40
0
 40
0
 40
0
 40
1
 40
1
 40
1
 40
1
 10
-1083.114835
 20
1003.384279
 30
0.0
 10
-1083.344313
 20
1003.181623
 30
0.0
 10
-1083.522402
 20
999.539331
 30
0.0
 10
-1083.533309
 20
997.609333
 30
0.0
  0
SPLINE
  5
23d
100
AcDbEntity
  8
Vrstva_1
 62
7
100
AcDbSpline
 70
8
 71
3
 72
8
 73
4
 74
0
 40
0
 40
0
 40
0
 40
0
 40
1
 40
1
 40
1
 40
1
 10
-1083.533309
 20
997.609333
 30
0.0
 10
-1083.547526
 20
995.093844
 30
0.0
 10
-1083.485617
 20
990.529064
 30
0.0
 10
-1083.072988
 20
990.076797
 30
0.0
  0
SPLINE
  5
23e
100
AcDbEntity
  8
Vrstva_1
 62
7
100
AcDbSpline
 70
8
 71
3
 72
8
 73
4
 74
0
 40
0
 40
0
 40
0
 40
0
 40
1
 40
1
 40
1
 40
1
 10
-1083.072988
 20
990.076797
 30
0.0
 10
-1082.660126
 20
989.624274
 30
0.0
 10
-1071.004533
 20
989.912075
 30
0.0
 10
-1064.969885
 20
989.889021
 30
0.0
  0
SPLINE
  5
23f
100
AcDbEntity
  8
Vrstva_1
 62
7
100
AcDbSpline
 70
8
 71
3
 72
8
 73
4
 74
0
 40
0
 40
0
 40
0
 40
0
 40
1
 40
1
 40
1
 40
1
 10
-1064.969885
 20
989.889021
 30
0.0
 10
-1057.749804
 20
989.861464
 30
0.0
 10
-1050.529413
 20
989.884011
 30
0.0
 10
-1043.309565
 20
989.948206
 30
0.0
  0
SPLINE
  5
240
100
AcDbEntity
  8
Vrstva_1
 62
7
100
AcDbSpline
 70
8
 71
3
 72
8
 73
4
 74
0
 40
0
 40
0
 40
0
 40
0
 40
1
 40
1
 40
1
 40
1
 10
-1043.309565
 20
989.948206
 30
0.0
 10
-1038.722682
 20
989.988978
 30
0.0
 10
-1029.887757
 20
989.848769
 30
0.0
 10
-1029.549933
 20
990.155335
 30
0.0
  0
SPLINE
  5
241
100
AcDbEntity
  8
Vrstva_1
 62
7
100
AcDbSpline
 70
8
 71
3
 72
8
 73
4
 74
0
 40
0
 40
0
 40
0
 40
0
 40
1
 40
1
 40
1
 40
1
 10
-1029.549933
 20
990.155335
 30
0.0
 10
-1029.220758
 20
990.454046
 30
0.0
 10
-1029.338571
 20
994.533660
 30
0.0
 10
-1029.342804
 20
996.724451
 30
0.0
  0
SPLINE
  5
242
100
AcDbEntity
  8
Vrstva_1
 62
7
100
AcDbSpline
 70
8
 71
3
 72
8
 73
4
 74
0
 40
0
 40
0
 40
0
 40
0
 40
1
 40
1
 40
1
 40
1
 10
-1029.342804
 20
996.724451
 30
0.0
 10
-1029.347188
 20
998.955002
 30
0.0
 10
-1029.381760
 20
1003.181164
 30
0.0
 10
-1029.579525
 20
1003.411927
 30
0.0
  0
SPLINE
  5
243
100
AcDbEntity
  8
Vrstva_1
 62
7
100
AcDbSpline
 70
8
 71
3
 72
8
 73
4
 74
0
 40
0
 40
0
 40
0
 40
0
 40
1
 40
1
 40
1
 40
1
 10
-1029.579525
 20
1003.411927
 30
0.0
 10
-1029.934059
 20
1003.825649
 30
0.0
 10
-1038.930155
 20
1003.648652
 30
0.0
 10
-1038.930155
 20
1003.648652
 30
0.0
  0
LWPOLYLINE
  5
244
100
AcDbEntity
  8
Vrstva_1
 62
7
100
AcDbPolyline
 90
1
 70
1
 10
-1088.686248
 20
1039.240936
 30
0.0
  0
LWPOLYLINE
  5
245
100
AcDbEntity
  8
Vrstva_1
 62
7
100
AcDbPolyline
 90
2
 70
0
 10
-1041.602189
 20
990.139571
 30
0.0
 10
-1049.176570
 20
998.153350
 30
0.0
  0
SPLINE
  5
246
100
AcDbEntity
  8
Vrstva_1
 62
7
100
AcDbSpline
 70
8
 71
3
 72
8
 73
4
 74
0
 40
0
 40
0
 40
0
 40
0
 40
1
 40
1
 40
1
 40
1
 10
-1066.922865
 20
990.096156
 30
0.0
 10
-1066.922865
 20
990.096156
 30
0.0
 10
-1067.091296
 20
999.223658
 30
0.0
 10
-1066.952457
 20
999.772285
 30
0.0
  0
SPLINE
  5
247
100
AcDbEntity
  8
Vrstva_1
 62
7
100
AcDbSpline
 70
8
 71
3
 72
8
 73
4
 74
0
 40
0
 40
0
 40
0
 40
0
 40
1
 40
1
 40
1
 40
1
 10
-1066.952457
 20
999.772285
 30
0.0
 10
-1066.808486
 20
1000.341191
 30
0.0
 10
-1063.549537
 20
1003.382337
 30
0.0
 10
-1063.549537
 20
1003.382337
 30
0.0
  0
LWPOLYLINE
  5
248
100
AcDbEntity
  8
Vrstva_1
 62
7
100
AcDbPolyline
 90
2
 70
0
 10
-1045.640463
 20
994.533548
 30
0.0
 10
-1041.999736
 20
997.985961
 30
0.0
  0
LWPOLYLINE
  5
249
100
AcDbEntity
  8
Vrstva_1
 62
7
100
AcDbPolyline
 90
3
 70
0
 10
-1074.882737
 20
1003.530291
 30
0.0
 10
-1075.001098
 20
1000.038599
 30
0.0
 10
-1071.095140
 20
996.043869
 30
0.0
  0
LWPOLYLINE
  5
24a
100
AcDbEntity
  8
Vrstva_1
 62
7
100
AcDbPolyline
 90
2
 70
0
 10
-1075.001098
 20
1000.038599
 30
0.0
 10
-1079.380509
 20
999.861056
 30
0.0
  0
SPLINE
  5
24b
100
AcDbEntity
  8
Vrstva_1
 62
7
100
AcDbSpline
 70
8
 71
3
 72
8
 73
4
 74
0
 40
0
 40
0
 40
0
 40
0
 40
1
 40
1
 40
1
 40
1
 10
-1069.704382
 20
1006.400579
 30
0.0
 10
-1069.372046
 20
1006.448779
 30
0.0
 10
-1067.681952
 20
1008.446976
 30
0.0
 10
-1066.922865
 20
1009.655544
 30
0.0
  0
SPLINE
  5
24c
100
AcDbEntity
  8
Vrstva_1
 62
7
100
AcDbSpline
 70
8
 71
3
 72
8
 73
4
 74
0
 40
0
 40
0
 40
0
 40
0
 40
1
 40
1
 40
1
 40
1
 10
-1066.922865
 20
1009.655544
 30
0.0
 10
-1066.206418
 20
1010.796223
 30
0.0
 10
-1065.577630
 20
1012.037258
 30
0.0
 10
-1065.295383
 20
1013.354369
 30
0.0
  0
SPLINE
  5
24d
100
AcDbEntity
  8
Vrstva_1
 62
7
100
AcDbSpline
 70
8
 71
3
 72
8
 73
4
 74
0
 40
0
 40
0
 40
0
 40
0
 40
1
 40
1
 40
1
 40
1
 10
-1065.295383
 20
1013.354369
 30
0.0
 10
-1065.026697
 20
1014.608201
 30
0.0
 10
-1065.050634
 20
1015.937030
 30
0.0
 10
-1065.265791
 20
1017.201148
 30
0.0
  0
SPLINE
  5
24e
100
AcDbEntity
  8
Vrstva_1
 62
7
100
AcDbSpline
 70
8
 71
3
 72
8
 73
4
 74
0
 40
0
 40
0
 40
0
 40
0
 40
1
 40
1
 40
1
 40
1
 10
-1065.265791
 20
1017.201148
 30
0.0
 10
-1065.446921
 20
1018.265348
 30
0.0
 10
-1065.774987
 20
1019.274389
 30
0.0
 10
-1066.197896
 20
1020.248979
 30
0.0
  0
SPLINE
  5
24f
100
AcDbEntity
  8
Vrstva_1
 62
7
100
AcDbSpline
 70
8
 71
3
 72
8
 73
4
 74
0
 40
0
 40
0
 40
0
 40
0
 40
1
 40
1
 40
1
 40
1
 10
-1066.197896
 20
1020.248979
 30
0.0
 10
-1066.619161
 20
1021.219781
 30
0.0
 10
-1067.185145
 20
1022.157949
 30
0.0
 10
-1067.780994
 20
1023.000906
 30
0.0
  0
SPLINE
  5
250
100
AcDbEntity
  8
Vrstva_1
 62
7
100
AcDbSpline
 70
8
 71
3
 72
8
 73
4
 74
0
 40
0
 40
0
 40
0
 40
0
 40
1
 40
1
 40
1
 40
1
 10
-1067.780994
 20
1023.000906
 30
0.0
 10
-1068.296550
 20
1023.730271
 30
0.0
 10
-1069.448288
 20
1024.972604
 30
0.0
 10
-1069.615609
 20
1024.953884
 30
0.0
  0
SPLINE
  5
251
100
AcDbEntity
  8
Vrstva_1
 62
7
100
AcDbSpline
 70
8
 71
3
 72
8
 73
4
 74
0
 40
0
 40
0
 40
0
 40
0
 40
1
 40
1
 40
1
 40
1
 10
-1069.615609
 20
1024.953884
 30
0.0
 10
-1069.898749
 20
1024.922206
 30
0.0
 10
-1071.183241
 20
1023.546262
 30
0.0
 10
-1071.805314
 20
1022.704999
 30
0.0
  0
SPLINE
  5
252
100
AcDbEntity
  8
Vrstva_1
 62
7
100
AcDbSpline
 70
8
 71
3
 72
8
 73
4
 74
0
 40
0
 40
0
 40
0
 40
0
 40
1
 40
1
 40
1
 40
1
 10
-1071.805314
 20
1022.704999
 30
0.0
 10
-1072.500814
 20
1021.764437
 30
0.0
 10
-1073.071638
 20
1020.719220
 30
0.0
 10
-1073.491978
 20
1019.627576
 30
0.0
  0
SPLINE
  5
253
100
AcDbEntity
  8
Vrstva_1
 62
7
100
AcDbSpline
 70
8
 71
3
 72
8
 73
4
 74
0
 40
0
 40
0
 40
0
 40
0
 40
1
 40
1
 40
1
 40
1
 10
-1073.491978
 20
1019.627576
 30
0.0
 10
-1073.874534
 20
1018.634061
 30
0.0
 10
-1074.166265
 20
1017.583170
 30
0.0
 10
-1074.231744
 20
1016.520563
 30
0.0
  0
SPLINE
  5
254
100
AcDbEntity
  8
Vrstva_1
 62
7
100
AcDbSpline
 70
8
 71
3
 72
8
 73
4
 74
0
 40
0
 40
0
 40
0
 40
0
 40
1
 40
1
 40
1
 40
1
 10
-1074.231744
 20
1016.520563
 30
0.0
 10
-1074.297665
 20
1015.450775
 30
0.0
 10
-1074.108348
 20
1014.371254
 30
0.0
 10
-1073.876656
 20
1013.324779
 30
0.0
  0
SPLINE
  5
255
100
AcDbEntity
  8
Vrstva_1
 62
7
100
AcDbSpline
 70
8
 71
3
 72
8
 73
4
 74
0
 40
0
 40
0
 40
0
 40
0
 40
1
 40
1
 40
1
 40
1
 10
-1073.876656
 20
1013.324779
 30
0.0
 10
-1073.676402
 20
1012.420297
 30
0.0
 10
-1073.391839
 20
1011.525398
 30
0.0
 10
-1072.988939
 20
1010.691215
 30
0.0
  0
SPLINE
  5
256
100
AcDbEntity
  8
Vrstva_1
 62
7
100
AcDbSpline
 70
8
 71
3
 72
8
 73
4
 74
0
 40
0
 40
0
 40
0
 40
0
 40
1
 40
1
 40
1
 40
1
 10
-1072.988939
 20
1010.691215
 30
0.0
 10
-1072.539161
 20
1009.759979
 30
0.0
 10
-1072.045266
 20
1008.870448
 30
0.0
 10
-1071.405842
 20
1008.057652
 30
0.0
  0
SPLINE
  5
257
100
AcDbEntity
  8
Vrstva_1
 62
7
100
AcDbSpline
 70
8
 71
3
 72
8
 73
4
 74
0
 40
0
 40
0
 40
0
 40
0
 40
1
 40
1
 40
1
 40
1
 10
-1071.405842
 20
1008.057652
 30
0.0
 10
-1070.926993
 20
1007.448971
 30
0.0
 10
-1070.011075
 20
1006.356100
 30
0.0
 10
-1069.704382
 20
1006.400579
 30
0.0
  0
LWPOLYLINE
  5
258
100
AcDbEntity
  8
Vrstva_1
 62
7
100
AcDbPolyline
 90
2
 70
0
 10
-1066.922865
 20
995.747962
 30
0.0
 10
-1061.803692
 20
992.374632
 30
0.0
  0
SPLINE
  5
259
100
AcDbEntity
  8
Vrstva_1
 62
7
100
AcDbSpline
 70
8
 71
3
 72
8
 73
4
 74
0
 40
0
 40
0
 40
0
 40
0
 40
1
 40
1
 40
1
 40
1
 10
-1071.376251
 20
1023.429966
 30
0.0
 10
-1071.376251
 20
1023.429966
 30
0.0
 10
-1071.392171
 20
1024.331372
 30
0.0
 10
-1071.331865
 20
1024.776339
 30
0.0
  0
SPLINE
  5
25a
100
AcDbEntity
  8
Vrstva_1
 62
7
100
AcDbSpline
 70
8
 71
3
 72
8
 73
4
 74
0
 40
0
 40
0
 40
0
 40
0
 40
1
 40
1
 40
1
 40
1
 10
-1071.331865
 20
1024.776339
 30
0.0
 10
-1071.218772
 20
1025.610816
 30
0.0
 10
-1071.042242
 20
1026.446342
 30
0.0
 10
-1070.740053
 20
1027.232359
 30
0.0
  0
SPLINE
  5
25b
100
AcDbEntity
  8
Vrstva_1
 62
7
100
AcDbSpline
 70
8
 71
3
 72
8
 73
4
 74
0
 40
0
 40
0
 40
0
 40
0
 40
1
 40
1
 40
1
 40
1
 10
-1070.740053
 20
1027.232359
 30
0.0
 10
-1070.413782
 20
1028.081014
 30
0.0
 10
-1070.015010
 20
1028.926486
 30
0.0
 10
-1069.438067
 20
1029.629198
 30
0.0
  0
SPLINE
  5
25c
100
AcDbEntity
  8
Vrstva_1
 62
7
100
AcDbSpline
 70
8
 71
3
 72
8
 73
4
 74
0
 40
0
 40
0
 40
0
 40
0
 40
1
 40
1
 40
1
 40
1
 10
-1069.438067
 20
1029.629198
 30
0.0
 10
-1068.762508
 20
1030.452023
 30
0.0
 10
-1067.914758
 20
1031.157656
 30
0.0
 10
-1066.982047
 20
1031.670950
 30
0.0
  0
SPLINE
  5
25d
100
AcDbEntity
  8
Vrstva_1
 62
7
100
AcDbSpline
 70
8
 71
3
 72
8
 73
4
 74
0
 40
0
 40
0
 40
0
 40
0
 40
1
 40
1
 40
1
 40
1
 10
-1066.982047
 20
1031.670950
 30
0.0
 10
-1066.082968
 20
1032.165735
 30
0.0
 10
-1065.068990
 20
1032.476203
 30
0.0
 10
-1064.052578
 20
1032.617848
 30
0.0
  0
SPLINE
  5
25e
100
AcDbEntity
  8
Vrstva_1
 62
7
100
AcDbSpline
 70
8
 71
3
 72
8
 73
4
 74
0
 40
0
 40
0
 40
0
 40
0
 40
1
 40
1
 40
1
 40
1
 10
-1064.052578
 20
1032.617848
 30
0.0
 10
-1062.957738
 20
1032.770423
 30
0.0
 10
-1061.855510
 20
1032.757962
 30
0.0
 10
-1060.738430
 20
1032.499487
 30
0.0
  0
SPLINE
  5
25f
100
AcDbEntity
  8
Vrstva_1
 62
7
100
AcDbSpline
 70
8
 71
3
 72
8
 73
4
 74
0
 40
0
 40
0
 40
0
 40
0
 40
1
 40
1
 40
1
 40
1
 10
-1060.738430
 20
1032.499487
 30
0.0
 10
-1059.621350
 20
1032.241012
 30
0.0
 10
-1058.455715
 20
1031.731838
 30
0.0
 10
-1057.483464
 20
1031.049548
 30
0.0
  0
SPLINE
  5
260
100
AcDbEntity
  8
Vrstva_1
 62
7
100
AcDbSpline
 70
8
 71
3
 72
8
 73
4
 74
0
 40
0
 40
0
 40
0
 40
0
 40
1
 40
1
 40
1
 40
1
 10
-1057.483464
 20
1031.049548
 30
0.0
 10
-1056.598394
 20
1030.428437
 30
0.0
 10
-1055.810150
 20
1029.627227
 30
0.0
 10
-1055.234578
 20
1028.711889
 30
0.0
  0
SPLINE
  5
261
100
AcDbEntity
  8
Vrstva_1
 62
7
100
AcDbSpline
 70
8
 71
3
 72
8
 73
4
 74
0
 40
0
 40
0
 40
0
 40
0
 40
1
 40
1
 40
1
 40
1
 10
-1055.234578
 20
1028.711889
 30
0.0
 10
-1054.663068
 20
1027.803011
 30
0.0
 10
-1054.329805
 20
1026.744566
 30
0.0
 10
-1054.110136
 20
1025.693648
 30
0.0
  0
SPLINE
  5
262
100
AcDbEntity
  8
Vrstva_1
 62
7
100
AcDbSpline
 70
8
 71
3
 72
8
 73
4
 74
0
 40
0
 40
0
 40
0
 40
0
 40
1
 40
1
 40
1
 40
1
 10
-1054.110136
 20
1025.693648
 30
0.0
 10
-1053.855461
 20
1024.475259
 30
0.0
 10
-1054.144325
 20
1022.154997
 30
0.0
 10
-1053.903002
 20
1021.965233
 30
0.0
  0
SPLINE
  5
263
100
AcDbEntity
  8
Vrstva_1
 62
7
100
AcDbSpline
 70
8
 71
3
 72
8
 73
4
 74
0
 40
0
 40
0
 40
0
 40
0
 40
1
 40
1
 40
1
 40
1
 10
-1053.903002
 20
1021.965233
 30
0.0
 10
-1053.675206
 20
1021.786105
 30
0.0
 10
-1052.757574
 20
1022.700577
 30
0.0
 10
-1052.127565
 20
1022.956518
 30
0.0
  0
SPLINE
  5
264
100
AcDbEntity
  8
Vrstva_1
 62
7
100
AcDbSpline
 70
8
 71
3
 72
8
 73
4
 74
0
 40
0
 40
0
 40
0
 40
0
 40
1
 40
1
 40
1
 40
1
 10
-1052.127565
 20
1022.956518
 30
0.0
 10
-1051.309349
 20
1023.288919
 30
0.0
 10
-1050.430548
 20
1023.610095
 30
0.0
 10
-1049.553182
 20
1023.711077
 30
0.0
  0
SPLINE
  5
265
100
AcDbEntity
  8
Vrstva_1
 62
7
100
AcDbSpline
 70
8
 71
3
 72
8
 73
4
 74
0
 40
0
 40
0
 40
0
 40
0
 40
1
 40
1
 40
1
 40
1
 10
-1049.553182
 20
1023.711077
 30
0.0
 10
-1048.526172
 20
1023.829284
 30
0.0
 10
-1047.431284
 20
1023.736849
 30
0.0
 10
-1046.431375
 20
1023.474353
 30
0.0
  0
SPLINE
  5
266
100
AcDbEntity
  8
Vrstva_1
 62
7
100
AcDbSpline
 70
8
 71
3
 72
8
 73
4
 74
0
 40
0
 40
0
 40
0
 40
0
 40
1
 40
1
 40
1
 40
1
 10
-1046.431375
 20
1023.474353
 30
0.0
 10
-1045.400275
 20
1023.203670
 30
0.0
 10
-1044.382083
 20
1022.735716
 30
0.0
 10
-1043.516699
 20
1022.113184
 30
0.0
  0
SPLINE
  5
267
100
AcDbEntity
  8
Vrstva_1
 62
7
100
AcDbSpline
 70
8
 71
3
 72
8
 73
4
 74
0
 40
0
 40
0
 40
0
 40
0
 40
1
 40
1
 40
1
 40
1
 10
-1043.516699
 20
1022.113184
 30
0.0
 10
-1042.659501
 20
1021.496544
 30
0.0
 10
-1041.998290
 20
1020.615956
 30
0.0
 10
-1041.445358
 20
1019.716347
 30
0.0
  0
SPLINE
  5
268
100
AcDbEntity
  8
Vrstva_1
 62
7
100
AcDbSpline
 70
8
 71
3
 72
8
 73
4
 74
0
 40
0
 40
0
 40
0
 40
0
 40
1
 40
1
 40
1
 40
1
 10
-1041.445358
 20
1019.716347
 30
0.0
 10
-1040.914955
 20
1018.853395
 30
0.0
 10
-1040.517057
 20
1017.892690
 30
0.0
 10
-1040.291327
 20
1016.905239
 30
0.0
  0
SPLINE
  5
269
100
AcDbEntity
  8
Vrstva_1
 62
7
100
AcDbSpline
 70
8
 71
3
 72
8
 73
4
 74
0
 40
0
 40
0
 40
0
 40
0
 40
1
 40
1
 40
1
 40
1
 10
-1040.291327
 20
1016.905239
 30
0.0
 10
-1040.071122
 20
1015.941961
 30
0.0
 10
-1039.871885
 20
1014.207223
 30
0.0
 10
-1040.098986
 20
1014.071940
 30
0.0
  0
SPLINE
  5
26a
100
AcDbEntity
  8
Vrstva_1
 62
7
100
AcDbSpline
 70
8
 71
3
 72
8
 73
4
 74
0
 40
0
 40
0
 40
0
 40
0
 40
1
 40
1
 40
1
 40
1
 10
-1040.098986
 20
1014.071940
 30
0.0
 10
-1040.332995
 20
1013.932539
 30
0.0
 10
-1042.914679
 20
1013.962331
 30
0.0
 10
-1043.087637
 20
1013.968375
 30
0.0
  0
SPLINE
  5
26b
100
AcDbEntity
  8
Vrstva_1
 62
7
100
AcDbSpline
 70
8
 71
3
 72
8
 73
4
 74
0
 40
0
 40
0
 40
0
 40
0
 40
1
 40
1
 40
1
 40
1
 10
-1043.087637
 20
1013.968375
 30
0.0
 10
-1043.329725
 20
1013.976836
 30
0.0
 10
-1043.318646
 20
1014.443225
 30
0.0
 10
-1043.368750
 20
1014.715537
 30
0.0
  0
SPLINE
  5
26c
100
AcDbEntity
  8
Vrstva_1
 62
7
100
AcDbSpline
 70
8
 71
3
 72
8
 73
4
 74
0
 40
0
 40
0
 40
0
 40
0
 40
1
 40
1
 40
1
 40
1
 10
-1043.368750
 20
1014.715537
 30
0.0
 10
-1043.523451
 20
1015.556429
 30
0.0
 10
-1043.742579
 20
1016.398819
 30
0.0
 10
-1044.108511
 20
1017.171558
 30
0.0
  0
SPLINE
  5
26d
100
AcDbEntity
  8
Vrstva_1
 62
7
100
AcDbSpline
 70
8
 71
3
 72
8
 73
4
 74
0
 40
0
 40
0
 40
0
 40
0
 40
1
 40
1
 40
1
 40
1
 10
-1044.108511
 20
1017.171558
 30
0.0
 10
-1044.403559
 20
1017.794617
 30
0.0
 10
-1044.744821
 20
1018.432598
 30
0.0
 10
-1045.262546
 20
1018.887812
 30
0.0
  0
SPLINE
  5
26e
100
AcDbEntity
  8
Vrstva_1
 62
7
100
AcDbSpline
 70
8
 71
3
 72
8
 73
4
 74
0
 40
0
 40
0
 40
0
 40
0
 40
1
 40
1
 40
1
 40
1
 10
-1045.262546
 20
1018.887812
 30
0.0
 10
-1045.925085
 20
1019.470354
 30
0.0
 10
-1046.768230
 20
1019.881641
 30
0.0
 10
-1047.629793
 20
1020.071436
 30
0.0
  0
SPLINE
  5
26f
100
AcDbEntity
  8
Vrstva_1
 62
7
100
AcDbSpline
 70
8
 71
3
 72
8
 73
4
 74
0
 40
0
 40
0
 40
0
 40
0
 40
1
 40
1
 40
1
 40
1
 10
-1047.629793
 20
1020.071436
 30
0.0
 10
-1048.593484
 20
1020.283729
 30
0.0
 10
-1049.654103
 20
1020.298908
 30
0.0
 10
-1050.588853
 20
1019.982663
 30
0.0
  0
SPLINE
  5
270
100
AcDbEntity
  8
Vrstva_1
 62
7
100
AcDbSpline
 70
8
 71
3
 72
8
 73
4
 74
0
 40
0
 40
0
 40
0
 40
0
 40
1
 40
1
 40
1
 40
1
 10
-1050.588853
 20
1019.982663
 30
0.0
 10
-1051.566379
 20
1019.651947
 30
0.0
 10
-1052.469601
 20
1018.991514
 30
0.0
 10
-1053.104055
 20
1018.177636
 30
0.0
  0
SPLINE
  5
271
100
AcDbEntity
  8
Vrstva_1
 62
7
100
AcDbSpline
 70
8
 71
3
 72
8
 73
4
 74
0
 40
0
 40
0
 40
0
 40
0
 40
1
 40
1
 40
1
 40
1
 10
-1053.104055
 20
1018.177636
 30
0.0
 10
-1053.551291
 20
1017.603923
 30
0.0
 10
-1053.897438
 20
1016.913118
 30
0.0
 10
-1053.994102
 20
1016.192131
 30
0.0
  0
SPLINE
  5
272
100
AcDbEntity
  8
Vrstva_1
 62
7
100
AcDbSpline
 70
8
 71
3
 72
8
 73
4
 74
0
 40
0
 40
0
 40
0
 40
0
 40
1
 40
1
 40
1
 40
1
 10
-1053.994102
 20
1016.192131
 30
0.0
 10
-1054.085003
 20
1015.514124
 30
0.0
 10
-1053.957639
 20
1013.860228
 30
0.0
 10
-1053.968104
 20
1012.716255
 30
0.0
  0
SPLINE
  5
273
100
AcDbEntity
  8
Vrstva_1
 62
7
100
AcDbSpline
 70
8
 71
3
 72
8
 73
4
 74
0
 40
0
 40
0
 40
0
 40
0
 40
1
 40
1
 40
1
 40
1
 10
-1053.968104
 20
1012.716255
 30
0.0
 10
-1053.992085
 20
1010.093926
 30
0.0
 10
-1053.968104
 20
1004.848939
 30
0.0
 10
-1053.968104
 20
1004.848939
 30
0.0
  0
SPLINE
  5
274
100
AcDbEntity
  8
Vrstva_1
 62
7
100
AcDbSpline
 70
8
 71
3
 72
8
 73
4
 74
0
 40
0
 40
0
 40
0
 40
0
 40
1
 40
1
 40
1
 40
1
 10
-1053.968104
 20
1004.848939
 30
0.0
 10
-1053.968104
 20
1004.848939
 30
0.0
 10
-1053.867789
 20
996.718033
 30
0.0
 10
-1053.903002
 20
996.014277
 30
0.0
  0
SPLINE
  5
275
100
AcDbEntity
  8
Vrstva_1
 62
7
100
AcDbSpline
 70
8
 71
3
 72
8
 73
4
 74
0
 40
0
 40
0
 40
0
 40
0
 40
1
 40
1
 40
1
 40
1
 10
-1053.903002
 20
996.014277
 30
0.0
 10
-1053.918898
 20
995.696585
 30
0.0
 10
-1054.132653
 20
995.288143
 30
0.0
 10
-1054.361658
 20
995.067378
 30
0.0
  0
SPLINE
  5
276
100
AcDbEntity
  8
Vrstva_1
 62
7
100
AcDbSpline
 70
8
 71
3
 72
8
 73
4
 74
0
 40
0
 40
0
 40
0
 40
0
 40
1
 40
1
 40
1
 40
1
 10
-1054.361658
 20
995.067378
 30
0.0
 10
-1054.698345
 20
994.742806
 30
0.0
 10
-1055.153677
 20
994.578798
 30
0.0
 10
-1055.619258
 20
994.534750
 30
0.0
  0
SPLINE
  5
277
100
AcDbEntity
  8
Vrstva_1
 62
7
100
AcDbSpline
 70
8
 71
3
 72
8
 73
4
 74
0
 40
0
 40
0
 40
0
 40
0
 40
1
 40
1
 40
1
 40
1
 10
-1055.619258
 20
994.534750
 30
0.0
 10
-1056.009120
 20
994.497861
 30
0.0
 10
-1056.429589
 20
994.641189
 30
0.0
 10
-1056.743701
 20
994.875042
 30
0.0
  0
SPLINE
  5
278
100
AcDbEntity
  8
Vrstva_1
 62
7
100
AcDbSpline
 70
8
 71
3
 72
8
 73
4
 74
0
 40
0
 40
0
 40
0
 40
0
 40
1
 40
1
 40
1
 40
1
 10
-1056.743701
 20
994.875042
 30
0.0
 10
-1057.080530
 20
995.125805
 30
0.0
 10
-1057.406198
 20
995.506871
 30
0.0
 10
-1057.439080
 20
995.925506
 30
0.0
  0
SPLINE
  5
279
100
AcDbEntity
  8
Vrstva_1
 62
7
100
AcDbSpline
 70
8
 71
3
 72
8
 73
4
 74
0
 40
0
 40
0
 40
0
 40
0
 40
1
 40
1
 40
1
 40
1
 10
-1057.439080
 20
995.925506
 30
0.0
 10
-1057.493637
 20
996.620079
 30
0.0
 10
-1057.646214
 20
1003.693038
 30
0.0
 10
-1057.646214
 20
1003.693038
 30
0.0
  0
LWPOLYLINE
  5
27a
100
AcDbEntity
  8
Vrstva_1
 62
7
100
AcDbPolyline
 90
1
 70
1
 10
-1069.704382
 20
1006.400579
 30
0.0
  0
SPLINE
  5
27b
100
AcDbEntity
  8
Vrstva_1
 62
7
100
AcDbSpline
 70
8
 71
3
 72
8
 73
4
 74
0
 40
0
 40
0
 40
0
 40
0
 40
1
 40
1
 40
1
 40
1
 10
-1057.483463
 20
1021.343831
 30
0.0
 10
-1057.483463
 20
1021.343831
 30
0.0
 10
-1057.498588
 20
1024.480156
 30
0.0
 10
-1057.631416
 20
1025.427334
 30
0.0
  0
SPLINE
  5
27c
100
AcDbEntity
  8
Vrstva_1
 62
7
100
AcDbSpline
 70
8
 71
3
 72
8
 73
4
 74
0
 40
0
 40
0
 40
0
 40
0
 40
1
 40
1
 40
1
 40
1
 10
-1057.631416
 20
1025.427334
 30
0.0
 10
-1057.760643
 20
1026.348841
 30
0.0
 10
-1058.458154
 20
1027.131455
 30
0.0
 10
-1059.110947
 20
1027.794582
 30
0.0
  0
SPLINE
  5
27d
100
AcDbEntity
  8
Vrstva_1
 62
7
100
AcDbSpline
 70
8
 71
3
 72
8
 73
4
 74
0
 40
0
 40
0
 40
0
 40
0
 40
1
 40
1
 40
1
 40
1
 10
-1059.110947
 20
1027.794582
 30
0.0
 10
-1059.671391
 20
1028.363898
 30
0.0
 10
-1060.368983
 20
1028.832912
 30
0.0
 10
-1061.123107
 20
1029.096568
 30
0.0
  0
SPLINE
  5
27e
100
AcDbEntity
  8
Vrstva_1
 62
7
100
AcDbSpline
 70
8
 71
3
 72
8
 73
4
 74
0
 40
0
 40
0
 40
0
 40
0
 40
1
 40
1
 40
1
 40
1
 10
-1061.123107
 20
1029.096568
 30
0.0
 10
-1061.834172
 20
1029.345170
 30
0.0
 10
-1062.626689
 20
1029.404177
 30
0.0
 10
-1063.371993
 20
1029.318498
 30
0.0
  0
SPLINE
  5
27f
100
AcDbEntity
  8
Vrstva_1
 62
7
100
AcDbSpline
 70
8
 71
3
 72
8
 73
4
 74
0
 40
0
 40
0
 40
0
 40
0
 40
1
 40
1
 40
1
 40
1
 10
-1063.371993
 20
1029.318498
 30
0.0
 10
-1064.185015
 20
1029.225033
 30
0.0
 10
-1065.061758
 20
1028.993429
 30
0.0
 10
-1065.739241
 20
1028.534347
 30
0.0
  0
SPLINE
  5
280
100
AcDbEntity
  8
Vrstva_1
 62
7
100
AcDbSpline
 70
8
 71
3
 72
8
 73
4
 74
0
 40
0
 40
0
 40
0
 40
0
 40
1
 40
1
 40
1
 40
1
 10
-1065.739241
 20
1028.534347
 30
0.0
 10
-1066.456172
 20
1028.048535
 30
0.0
 10
-1066.940684
 20
1027.247491
 30
0.0
 10
-1067.307543
 20
1026.463005
 30
0.0
  0
SPLINE
  5
281
100
AcDbEntity
  8
Vrstva_1
 62
7
100
AcDbSpline
 70
8
 71
3
 72
8
 73
4
 74
0
 40
0
 40
0
 40
0
 40
0
 40
1
 40
1
 40
1
 40
1
 10
-1067.307543
 20
1026.463005
 30
0.0
 10
-1067.586270
 20
1025.866978
 30
0.0
 10
-1067.670665
 20
1025.192624
 30
0.0
 10
-1067.751402
 20
1024.539616
 30
0.0
  0
SPLINE
  5
282
100
AcDbEntity
  8
Vrstva_1
 62
7
100
AcDbSpline
 70
8
 71
3
 72
8
 73
4
 74
0
 40
0
 40
0
 40
0
 40
0
 40
1
 40
1
 40
1
 40
1
 10
-1067.751402
 20
1024.539616
 30
0.0
 10
-1067.814349
 20
1024.030494
 30
0.0
 10
-1067.780995
 20
1023.000906
 30
0.0
 10
-1067.780995
 20
1023.000906
 30
0.0
  0
SPLINE
  5
283
100
AcDbEntity
  8
Vrstva_1
 62
7
100
AcDbSpline
 70
8
 71
3
 72
8
 73
4
 74
0
 40
0
 40
0
 40
0
 40
0
 40
1
 40
1
 40
1
 40
1
 10
-1041.578039
 20
1001.585644
 30
0.0
 10
-1041.788362
 20
1001.551849
 30
0.0
 10
-1043.067201
 20
1003.204664
 30
0.0
 10
-1043.590201
 20
1004.160026
 30
0.0
  0
SPLINE
  5
284
100
AcDbEntity
  8
Vrstva_1
 62
7
100
AcDbSpline
 70
8
 71
3
 72
8
 73
4
 74
0
 40
0
 40
0
 40
0
 40
0
 40
1
 40
1
 40
1
 40
1
 10
-1043.590201
 20
1004.160026
 30
0.0
 10
-1044.132473
 20
1005.150586
 30
0.0
 10
-1044.568513
 20
1006.236029
 30
0.0
 10
-1044.714646
 20
1007.355812
 30
0.0
  0
SPLINE
  5
285
100
AcDbEntity
  8
Vrstva_1
 62
7
100
AcDbSpline
 70
8
 71
3
 72
8
 73
4
 74
0
 40
0
 40
0
 40
0
 40
0
 40
1
 40
1
 40
1
 40
1
 10
-1044.714646
 20
1007.355812
 30
0.0
 10
-1044.860611
 20
1008.474269
 30
0.0
 10
-1044.723540
 20
1009.635294
 30
0.0
 10
-1044.448333
 20
1010.729140
 30
0.0
  0
SPLINE
  5
286
100
AcDbEntity
  8
Vrstva_1
 62
7
100
AcDbSpline
 70
8
 71
3
 72
8
 73
4
 74
0
 40
0
 40
0
 40
0
 40
0
 40
1
 40
1
 40
1
 40
1
 10
-1044.448333
 20
1010.729140
 30
0.0
 10
-1044.143352
 20
1011.941229
 30
0.0
 10
-1043.711521
 20
1013.178943
 30
0.0
 10
-1042.939211
 20
1014.161650
 30
0.0
  0
SPLINE
  5
287
100
AcDbEntity
  8
Vrstva_1
 62
7
100
AcDbSpline
 70
8
 71
3
 72
8
 73
4
 74
0
 40
0
 40
0
 40
0
 40
0
 40
1
 40
1
 40
1
 40
1
 10
-1042.939211
 20
1014.161650
 30
0.0
 10
-1042.547908
 20
1014.659554
 30
0.0
 10
-1041.780771
 20
1015.275380
 30
0.0
 10
-1041.430089
 20
1015.315682
 30
0.0
  0
SPLINE
  5
288
100
AcDbEntity
  8
Vrstva_1
 62
7
100
AcDbSpline
 70
8
 71
3
 72
8
 73
4
 74
0
 40
0
 40
0
 40
0
 40
0
 40
1
 40
1
 40
1
 40
1
 10
-1041.430089
 20
1015.315682
 30
0.0
 10
-1041.179558
 20
1015.344473
 30
0.0
 10
-1039.903851
 20
1013.926910
 30
0.0
 10
-1039.395211
 20
1013.040797
 30
0.0
  0
SPLINE
  5
289
100
AcDbEntity
  8
Vrstva_1
 62
7
100
AcDbSpline
 70
8
 71
3
 72
8
 73
4
 74
0
 40
0
 40
0
 40
0
 40
0
 40
1
 40
1
 40
1
 40
1
 10
-1039.395211
 20
1013.040797
 30
0.0
 10
-1038.848549
 20
1012.088449
 30
0.0
 10
-1038.553683
 20
1010.950547
 30
0.0
 10
-1038.352667
 20
1009.871012
 30
0.0
  0
SPLINE
  5
28a
100
AcDbEntity
  8
Vrstva_1
 62
7
100
AcDbSpline
 70
8
 71
3
 72
8
 73
4
 74
0
 40
0
 40
0
 40
0
 40
0
 40
1
 40
1
 40
1
 40
1
 10
-1038.352667
 20
1009.871012
 30
0.0
 10
-1038.168411
 20
1008.881505
 30
0.0
 10
-1038.308764
 20
1007.675100
 30
0.0
 10
-1038.515416
 20
1006.690022
 30
0.0
  0
SPLINE
  5
28b
100
AcDbEntity
  8
Vrstva_1
 62
7
100
AcDbSpline
 70
8
 71
3
 72
8
 73
4
 74
0
 40
0
 40
0
 40
0
 40
0
 40
1
 40
1
 40
1
 40
1
 10
-1038.515416
 20
1006.690022
 30
0.0
 10
-1038.690228
 20
1005.856632
 30
0.0
 10
-1039.021870
 20
1005.235293
 30
0.0
 10
-1039.358748
 20
1004.544704
 30
0.0
  0
SPLINE
  5
28c
100
AcDbEntity
  8
Vrstva_1
 62
7
100
AcDbSpline
 70
8
 71
3
 72
8
 73
4
 74
0
 40
0
 40
0
 40
0
 40
0
 40
1
 40
1
 40
1
 40
1
 10
-1039.358748
 20
1004.544704
 30
0.0
 10
-1039.665051
 20
1003.916788
 30
0.0
 10
-1039.996060
 20
1003.291908
 30
0.0
 10
-1040.424008
 20
1002.739677
 30
0.0
  0
SPLINE
  5
28d
100
AcDbEntity
  8
Vrstva_1
 62
7
100
AcDbSpline
 70
8
 71
3
 72
8
 73
4
 74
0
 40
0
 40
0
 40
0
 40
0
 40
1
 40
1
 40
1
 40
1
 10
-1040.424008
 20
1002.739677
 30
0.0
 10
-1040.757241
 20
1002.309667
 30
0.0
 10
-1041.341456
 20
1001.623661
 30
0.0
 10
-1041.578039
 20
1001.585644
 30
0.0
  0
LWPOLYLINE
  5
28e
100
AcDbEntity
  8
Vrstva_1
 62
7
100
AcDbPolyline
 90
3
 70
0
 10
-1057.646214
 20
1003.693038
 30
0.0
 10
-1057.513056
 20
1013.561503
 30
0.0
 10
-1057.483463
 20
1021.343831
 30
0.0
  0
LWPOLYLINE
  5
28f
100
AcDbEntity
  8
Vrstva_1
 62
7
100
AcDbPolyline
 90
1
 70
1
 10
-1041.578039
 20
1001.585644
 30
0.0
  0
LWPOLYLINE
  5
290
100
AcDbEntity
  8
Vrstva_1
 62
7
100
AcDbPolyline
 90
2
 70
0
 10
-1053.878002
 20
1003.467399
 30
0.0
 10
-1043.750571
 20
1003.681952
 30
0.0
  0
SPLINE
  5
291
100
AcDbEntity
  8
Vrstva_1
 62
7
100
AcDbSpline
 70
8
 71
3
 72
8
 73
4
 74
0
 40
0
 40
0
 40
0
 40
0
 40
1
 40
1
 40
1
 40
1
 10
639.041309
 20
1111.143656
 30
0.0
 10
638.803085
 20
1110.829487
 30
0.0
 10
637.085199
 20
1109.457119
 30
0.0
 10
636.499815
 20
1108.339723
 30
0.0
  0
SPLINE
  5
292
100
AcDbEntity
  8
Vrstva_1
 62
7
100
AcDbSpline
 70
8
 71
3
 72
8
 73
4
 74
0
 40
0
 40
0
 40
0
 40
0
 40
1
 40
1
 40
1
 40
1
 10
636.499815
 20
1108.339723
 30
0.0
 10
635.859236
 20
1107.116969
 30
0.0
 10
635.598235
 20
1105.686358
 30
0.0
 10
635.560567
 20
1104.306485
 30
0.0
  0
SPLINE
  5
293
100
AcDbEntity
  8
Vrstva_1
 62
7
100
AcDbSpline
 70
8
 71
3
 72
8
 73
4
 74
0
 40
0
 40
0
 40
0
 40
0
 40
1
 40
1
 40
1
 40
1
 10
635.560567
 20
1104.306485
 30
0.0
 10
635.528672
 20
1103.138190
 30
0.0
 10
635.738598
 20
1101.940233
 30
0.0
 10
636.168315
 20
1100.853367
 30
0.0
  0
SPLINE
  5
294
100
AcDbEntity
  8
Vrstva_1
 62
7
100
AcDbSpline
 70
8
 71
3
 72
8
 73
4
 74
0
 40
0
 40
0
 40
0
 40
0
 40
1
 40
1
 40
1
 40
1
 10
636.168315
 20
1100.853367
 30
0.0
 10
636.576808
 20
1099.820182
 30
0.0
 10
637.216738
 20
1098.859481
 30
0.0
 10
637.991560
 20
1098.063248
 30
0.0
  0
SPLINE
  5
295
100
AcDbEntity
  8
Vrstva_1
 62
7
100
AcDbSpline
 70
8
 71
3
 72
8
 73
4
 74
0
 40
0
 40
0
 40
0
 40
0
 40
1
 40
1
 40
1
 40
1
 10
637.991560
 20
1098.063248
 30
0.0
 10
638.780727
 20
1097.252275
 30
0.0
 10
639.737947
 20
1096.566630
 30
0.0
 10
640.781680
 20
1096.129503
 30
0.0
  0
SPLINE
  5
296
100
AcDbEntity
  8
Vrstva_1
 62
7
100
AcDbSpline
 70
8
 71
3
 72
8
 73
4
 74
0
 40
0
 40
0
 40
0
 40
0
 40
1
 40
1
 40
1
 40
1
 10
640.781680
 20
1096.129503
 30
0.0
 10
641.922752
 20
1095.651606
 30
0.0
 10
643.191732
 20
1095.398323
 30
0.0
 10
644.428172
 20
1095.438877
 30
0.0
  0
SPLINE
  5
297
100
AcDbEntity
  8
Vrstva_1
 62
7
100
AcDbSpline
 70
8
 71
3
 72
8
 73
4
 74
0
 40
0
 40
0
 40
0
 40
0
 40
1
 40
1
 40
1
 40
1
 10
644.428172
 20
1095.438877
 30
0.0
 10
645.863483
 20
1095.485945
 30
0.0
 10
647.347724
 20
1095.812472
 30
0.0
 10
648.599537
 20
1096.516247
 30
0.0
  0
SPLINE
  5
298
100
AcDbEntity
  8
Vrstva_1
 62
7
100
AcDbSpline
 70
8
 71
3
 72
8
 73
4
 74
0
 40
0
 40
0
 40
0
 40
0
 40
1
 40
1
 40
1
 40
1
 10
648.599537
 20
1096.516247
 30
0.0
 10
649.831299
 20
1097.208750
 30
0.0
 10
650.874694
 20
1098.283115
 30
0.0
 10
651.638280
 20
1099.472121
 30
0.0
  0
SPLINE
  5
299
100
AcDbEntity
  8
Vrstva_1
 62
7
100
AcDbSpline
 70
8
 71
3
 72
8
 73
4
 74
0
 40
0
 40
0
 40
0
 40
0
 40
1
 40
1
 40
1
 40
1
 10
651.638280
 20
1099.472121
 30
0.0
 10
652.319760
 20
1100.533272
 30
0.0
 10
652.694092
 20
1101.793048
 30
0.0
 10
652.909028
 20
1103.035734
 30
0.0
  0
SPLINE
  5
29a
100
AcDbEntity
  8
Vrstva_1
 62
7
100
AcDbSpline
 70
8
 71
3
 72
8
 73
4
 74
0
 40
0
 40
0
 40
0
 40
0
 40
1
 40
1
 40
1
 40
1
 10
652.909028
 20
1103.035734
 30
0.0
 10
653.089507
 20
1104.079198
 30
0.0
 10
653.156127
 20
1105.182880
 30
0.0
 10
652.909028
 20
1106.212603
 30
0.0
  0
SPLINE
  5
29b
100
AcDbEntity
  8
Vrstva_1
 62
7
100
AcDbSpline
 70
8
 71
3
 72
8
 73
4
 74
0
 40
0
 40
0
 40
0
 40
0
 40
1
 40
1
 40
1
 40
1
 10
652.909028
 20
1106.212603
 30
0.0
 10
652.648610
 20
1107.297826
 30
0.0
 10
652.022288
 20
1108.276693
 30
0.0
 10
651.389657
 20
1109.196097
 30
0.0
  0
SPLINE
  5
29c
100
AcDbEntity
  8
Vrstva_1
 62
7
100
AcDbSpline
 70
8
 71
3
 72
8
 73
4
 74
0
 40
0
 40
0
 40
0
 40
0
 40
1
 40
1
 40
1
 40
1
 10
651.389657
 20
1109.196097
 30
0.0
 10
650.883335
 20
1109.931934
 30
0.0
 10
649.622054
 20
1110.895978
 30
0.0
 10
649.594034
 20
1111.185092
 30
0.0
  0
SPLINE
  5
29d
100
AcDbEntity
  8
Vrstva_1
 62
7
100
AcDbSpline
 70
8
 71
3
 72
8
 73
4
 74
0
 40
0
 40
0
 40
0
 40
0
 40
1
 40
1
 40
1
 40
1
 10
649.594034
 20
1111.185092
 30
0.0
 10
649.510787
 20
1112.044063
 30
0.0
 10
649.480816
 20
1139.250541
 30
0.0
 10
649.370458
 20
1142.082634
 30
0.0
  0
SPLINE
  5
29e
100
AcDbEntity
  8
Vrstva_1
 62
7
100
AcDbSpline
 70
8
 71
3
 72
8
 73
4
 74
0
 40
0
 40
0
 40
0
 40
0
 40
1
 40
1
 40
1
 40
1
 10
649.370458
 20
1142.082634
 30
0.0
 10
649.331605
 20
1143.079706
 30
0.0
 10
648.505669
 20
1143.953608
 30
0.0
 10
647.739387
 20
1144.592726
 30
0.0
  0
SPLINE
  5
29f
100
AcDbEntity
  8
Vrstva_1
 62
7
100
AcDbSpline
 70
8
 71
3
 72
8
 73
4
 74
0
 40
0
 40
0
 40
0
 40
0
 40
1
 40
1
 40
1
 40
1
 10
647.739387
 20
1144.592726
 30
0.0
 10
646.948181
 20
1145.252630
 30
0.0
 10
645.912407
 20
1145.679618
 30
0.0
 10
644.887455
 20
1145.784286
 30
0.0
  0
SPLINE
  5
2a0
100
AcDbEntity
  8
Vrstva_1
 62
7
100
AcDbSpline
 70
8
 71
3
 72
8
 73
4
 74
0
 40
0
 40
0
 40
0
 40
0
 40
1
 40
1
 40
1
 40
1
 10
644.887455
 20
1145.784286
 30
0.0
 10
643.904186
 20
1145.884698
 30
0.0
 10
642.871926
 20
1145.637173
 30
0.0
 10
641.976922
 20
1145.217807
 30
0.0
  0
SPLINE
  5
2a1
100
AcDbEntity
  8
Vrstva_1
 62
7
100
AcDbSpline
 70
8
 71
3
 72
8
 73
4
 74
0
 40
0
 40
0
 40
0
 40
0
 40
1
 40
1
 40
1
 40
1
 10
641.976922
 20
1145.217807
 30
0.0
 10
641.193273
 20
1144.850617
 30
0.0
 10
640.460792
 20
1144.286242
 30
0.0
 10
639.964942
 20
1143.576970
 30
0.0
  0
SPLINE
  5
2a2
100
AcDbEntity
  8
Vrstva_1
 62
7
100
AcDbSpline
 70
8
 71
3
 72
8
 73
4
 74
0
 40
0
 40
0
 40
0
 40
0
 40
1
 40
1
 40
1
 40
1
 10
639.964942
 20
1143.576970
 30
0.0
 10
639.566155
 20
1143.006538
 30
0.0
 10
639.281261
 20
1141.604057
 30
0.0
 10
639.281261
 20
1141.604057
 30
0.0
  0
SPLINE
  5
2a3
100
AcDbEntity
  8
Vrstva_1
 62
7
100
AcDbSpline
 70
8
 71
3
 72
8
 73
4
 74
0
 40
0
 40
0
 40
0
 40
0
 40
1
 40
1
 40
1
 40
1
 10
639.281261
 20
1141.604057
 30
0.0
 10
639.281261
 20
1141.604057
 30
0.0
 10
639.444967
 20
1111.675997
 30
0.0
 10
639.041309
 20
1111.143656
 30
0.0
  0
LWPOLYLINE
  5
2a4
100
AcDbEntity
  8
Vrstva_1
 62
7
100
AcDbPolyline
 90
2
 70
0
 10
-1039.760899
 20
1003.698134
 30
0.0
 10
-1038.930155
 20
1003.648650
 30
0.0
  0
SPLINE
  5
2a5
100
AcDbEntity
  8
Vrstva_1
 62
1
100
AcDbSpline
 70
8
 71
3
 72
8
 73
4
 74
0
 40
0
 40
0
 40
0
 40
0
 40
1
 40
1
 40
1
 40
1
 10
647.686617
 20
1104.255477
 30
0.0
 10
647.686617
 20
1103.032114
 30
0.0
 10
647.033960
 20
1101.901680
 30
0.0
 10
645.974497
 20
1101.289998
 30
0.0
  0
SPLINE
  5
2a6
100
AcDbEntity
  8
Vrstva_1
 62
1
100
AcDbSpline
 70
8
 71
3
 72
8
 73
4
 74
0
 40
0
 40
0
 40
0
 40
0
 40
1
 40
1
 40
1
 40
1
 10
645.974497
 20
1101.289998
 30
0.0
 10
644.915033
 20
1100.678316
 30
0.0
 10
643.609720
 20
1100.678316
 30
0.0
 10
642.550257
 20
1101.289998
 30
0.0
  0
SPLINE
  5
2a7
100
AcDbEntity
  8
Vrstva_1
 62
1
100
AcDbSpline
 70
8
 71
3
 72
8
 73
4
 74
0
 40
0
 40
0
 40
0
 40
0
 40
1
 40
1
 40
1
 40
1
 10
642.550257
 20
1101.289998
 30
0.0
 10
641.490793
 20
1101.901680
 30
0.0
 10
640.838137
 20
1103.032114
 30
0.0
 10
640.838137
 20
1104.255477
 30
0.0
  0
SPLINE
  5
2a8
100
AcDbEntity
  8
Vrstva_1
 62
1
100
AcDbSpline
 70
8
 71
3
 72
8
 73
4
 74
0
 40
0
 40
0
 40
0
 40
0
 40
1
 40
1
 40
1
 40
1
 10
640.838137
 20
1104.255477
 30
0.0
 10
640.838137
 20
1105.478840
 30
0.0
 10
641.490793
 20
1106.609274
 30
0.0
 10
642.550257
 20
1107.220956
 30
0.0
  0
SPLINE
  5
2a9
100
AcDbEntity
  8
Vrstva_1
 62
1
100
AcDbSpline
 70
8
 71
3
 72
8
 73
4
 74
0
 40
0
 40
0
 40
0
 40
0
 40
1
 40
1
 40
1
 40
1
 10
642.550257
 20
1107.220956
 30
0.0
 10
643.609720
 20
1107.832637
 30
0.0
 10
644.915033
 20
1107.832637
 30
0.0
 10
645.974497
 20
1107.220956
 30
0.0
  0
SPLINE
  5
2aa
100
AcDbEntity
  8
Vrstva_1
 62
1
100
AcDbSpline
 70
8
 71
3
 72
8
 73
4
 74
0
 40
0
 40
0
 40
0
 40
0
 40
1
 40
1
 40
1
 40
1
 10
645.974497
 20
1107.220956
 30
0.0
 10
647.033960
 20
1106.609274
 30
0.0
 10
647.686617
 20
1105.478840
 30
0.0
 10
647.686617
 20
1104.255477
 30
0.0
  0
LWPOLYLINE
  5
2ab
100
AcDbEntity
  8
Vrstva_1
 62
7
100
AcDbPolyline
 90
1
 70
1
 10
639.041309
 20
1111.143656
 30
0.0
  0
LWPOLYLINE
  5
2ac
100
AcDbEntity
  8
Vrstva_1
 62
1
100
AcDbPolyline
 90
1
 70
1
 10
647.686617
 20
1104.255477
 30
0.0
  0
LWPOLYLINE
  5
2ad
100
AcDbEntity
  8
Vrstva_1
 62
7
100
AcDbPolyline
 90
2
 70
0
 10
644.340510
 20
1107.693417
 30
0.0
 10
644.301442
 20
1138.283315
 30
0.0
  0
LWPOLYLINE
  5
2ae
100
AcDbEntity
  8
Vrstva_1
 62
7
100
AcDbPolyline
 90
2
 70
0
 10
639.496131
 20
1114.569305
 30
0.0
 10
641.156502
 20
1114.549770
 30
0.0
  0
LWPOLYLINE
  5
2af
100
AcDbEntity
  8
Vrstva_1
 62
7
100
AcDbPolyline
 90
2
 70
0
 10
639.417996
 20
1118.886270
 30
0.0
 10
641.078367
 20
1118.866736
 30
0.0
  0
LWPOLYLINE
  5
2b0
100
AcDbEntity
  8
Vrstva_1
 62
7
100
AcDbPolyline
 90
2
 70
0
 10
639.437530
 20
1123.242303
 30
0.0
 10
641.097901
 20
1123.222769
 30
0.0
  0
LWPOLYLINE
  5
2b1
100
AcDbEntity
  8
Vrstva_1
 62
7
100
AcDbPolyline
 90
2
 70
0
 10
639.457064
 20
1127.617870
 30
0.0
 10
641.117435
 20
1127.598336
 30
0.0
  0
LWPOLYLINE
  5
2b2
100
AcDbEntity
  8
Vrstva_1
 62
7
100
AcDbPolyline
 90
2
 70
0
 10
639.496131
 20
1131.915302
 30
0.0
 10
641.156502
 20
1131.895768
 30
0.0
  0
SPLINE
  5
2b3
100
AcDbEntity
  8
Vrstva_1
 62
7
100
AcDbSpline
 70
8
 71
3
 72
8
 73
4
 74
0
 40
0
 40
0
 40
0
 40
0
 40
1
 40
1
 40
1
 40
1
 10
602.028060
 20
1148.526648
 30
0.0
 10
605.381333
 20
1151.879920
 30
0.0
 10
663.455307
 20
1152.749136
 30
0.0
 10
666.727679
 20
1147.879640
 30
0.0
  0
SPLINE
  5
2b4
100
AcDbEntity
  8
Vrstva_1
 62
7
100
AcDbSpline
 70
8
 71
3
 72
8
 73
4
 74
0
 40
0
 40
0
 40
0
 40
0
 40
1
 40
1
 40
1
 40
1
 10
666.727679
 20
1147.879640
 30
0.0
 10
669.886013
 20
1143.179882
 30
0.0
 10
671.917008
 20
1098.135633
 30
0.0
 10
666.727679
 20
1093.881340
 30
0.0
  0
SPLINE
  5
2b5
100
AcDbEntity
  8
Vrstva_1
 62
7
100
AcDbSpline
 70
8
 71
3
 72
8
 73
4
 74
0
 40
0
 40
0
 40
0
 40
0
 40
1
 40
1
 40
1
 40
1
 10
666.727679
 20
1093.881340
 30
0.0
 10
660.919150
 20
1089.119418
 30
0.0
 10
607.259155
 20
1088.674918
 30
0.0
 10
602.028060
 20
1093.881340
 30
0.0
  0
SPLINE
  5
2b6
100
AcDbEntity
  8
Vrstva_1
 62
7
100
AcDbSpline
 70
8
 71
3
 72
8
 73
4
 74
0
 40
0
 40
0
 40
0
 40
0
 40
1
 40
1
 40
1
 40
1
 10
602.028060
 20
1093.881340
 30
0.0
 10
596.742112
 20
1099.142329
 30
0.0
 10
598.433871
 20
1144.443369
 30
0.0
 10
602.028060
 20
1148.526648
 30
0.0
  0
LWPOLYLINE
  5
2b7
100
AcDbEntity
  8
Vrstva_1
 62
7
100
AcDbPolyline
 90
2
 70
0
 10
639.457064
 20
1136.329937
 30
0.0
 10
641.117435
 20
1136.310402
 30
0.0
  0
SPLINE
  5
2b8
100
AcDbEntity
  8
Vrstva_1
 62
7
100
AcDbSpline
 70
8
 71
3
 72
8
 73
4
 74
0
 40
0
 40
0
 40
0
 40
0
 40
1
 40
1
 40
1
 40
1
 10
617.759118
 20
1129.206071
 30
0.0
 10
617.698046
 20
1129.238386
 30
0.0
 10
617.604491
 20
1129.322291
 30
0.0
 10
617.551219
 20
1129.392874
 30
0.0
  0
SPLINE
  5
2b9
100
AcDbEntity
  8
Vrstva_1
 62
7
100
AcDbSpline
 70
8
 71
3
 72
8
 73
4
 74
0
 40
0
 40
0
 40
0
 40
0
 40
1
 40
1
 40
1
 40
1
 10
617.551219
 20
1129.392874
 30
0.0
 10
617.463785
 20
1129.508528
 30
0.0
 10
617.452843
 20
1129.594134
 30
0.0
 10
617.438709
 20
1130.274732
 30
0.0
  0
SPLINE
  5
2ba
100
AcDbEntity
  8
Vrstva_1
 62
7
100
AcDbSpline
 70
8
 71
3
 72
8
 73
4
 74
0
 40
0
 40
0
 40
0
 40
0
 40
1
 40
1
 40
1
 40
1
 10
617.438709
 20
1130.274732
 30
0.0
 10
617.430092
 20
1130.689328
 30
0.0
 10
617.437163
 20
1131.121016
 30
0.0
 10
617.454385
 20
1131.234061
 30
0.0
  0
SPLINE
  5
2bb
100
AcDbEntity
  8
Vrstva_1
 62
7
100
AcDbSpline
 70
8
 71
3
 72
8
 73
4
 74
0
 40
0
 40
0
 40
0
 40
0
 40
1
 40
1
 40
1
 40
1
 10
617.454385
 20
1131.234061
 30
0.0
 10
617.522470
 20
1131.680433
 30
0.0
 10
617.981316
 20
1131.890906
 30
0.0
 10
618.304143
 20
1131.623825
 30
0.0
  0
SPLINE
  5
2bc
100
AcDbEntity
  8
Vrstva_1
 62
7
100
AcDbSpline
 70
8
 71
3
 72
8
 73
4
 74
0
 40
0
 40
0
 40
0
 40
0
 40
1
 40
1
 40
1
 40
1
 10
618.304143
 20
1131.623825
 30
0.0
 10
618.502284
 20
1131.459983
 30
0.0
 10
618.539523
 20
1131.273520
 30
0.0
 10
618.539523
 20
1130.445775
 30
0.0
  0
SPLINE
  5
2bd
100
AcDbEntity
  8
Vrstva_1
 62
7
100
AcDbSpline
 70
8
 71
3
 72
8
 73
4
 74
0
 40
0
 40
0
 40
0
 40
0
 40
1
 40
1
 40
1
 40
1
 10
618.539523
 20
1130.445775
 30
0.0
 10
618.539523
 20
1129.649098
 30
0.0
 10
618.503852
 20
1129.446080
 30
0.0
 10
618.336752
 20
1129.291734
 30
0.0
  0
SPLINE
  5
2be
100
AcDbEntity
  8
Vrstva_1
 62
7
100
AcDbSpline
 70
8
 71
3
 72
8
 73
4
 74
0
 40
0
 40
0
 40
0
 40
0
 40
1
 40
1
 40
1
 40
1
 10
618.336752
 20
1129.291734
 30
0.0
 10
618.203204
 20
1129.168143
 30
0.0
 10
617.912459
 20
1129.125340
 30
0.0
 10
617.759097
 20
1129.206128
 30
0.0
  0
LWPOLYLINE
  5
2bf
100
AcDbEntity
  8
Vrstva_1
 62
7
100
AcDbPolyline
 90
1
 70
1
 10
602.028060
 20
1148.526648
 30
0.0
  0
SPLINE
  5
2c0
100
AcDbEntity
  8
Vrstva_1
 62
7
100
AcDbSpline
 70
8
 71
3
 72
8
 73
4
 74
0
 40
0
 40
0
 40
0
 40
0
 40
1
 40
1
 40
1
 40
1
 10
612.644421
 20
1131.285028
 30
0.0
 10
612.468568
 20
1131.354761
 30
0.0
 10
612.349291
 20
1131.553469
 30
0.0
 10
612.349291
 20
1131.776698
 30
0.0
  0
SPLINE
  5
2c1
100
AcDbEntity
  8
Vrstva_1
 62
7
100
AcDbSpline
 70
8
 71
3
 72
8
 73
4
 74
0
 40
0
 40
0
 40
0
 40
0
 40
1
 40
1
 40
1
 40
1
 10
612.349291
 20
1131.776698
 30
0.0
 10
612.349291
 20
1131.980509
 30
0.0
 10
612.356236
 20
1131.989580
 30
0.0
 10
612.984538
 20
1132.614591
 30
0.0
  0
SPLINE
  5
2c2
100
AcDbEntity
  8
Vrstva_1
 62
7
100
AcDbSpline
 70
8
 71
3
 72
8
 73
4
 74
0
 40
0
 40
0
 40
0
 40
0
 40
1
 40
1
 40
1
 40
1
 10
612.984538
 20
1132.614591
 30
0.0
 10
613.333924
 20
1132.962118
 30
0.0
 10
613.675925
 20
1133.275488
 30
0.0
 10
613.744540
 20
1133.310921
 30
0.0
  0
SPLINE
  5
2c3
100
AcDbEntity
  8
Vrstva_1
 62
7
100
AcDbSpline
 70
8
 71
3
 72
8
 73
4
 74
0
 40
0
 40
0
 40
0
 40
0
 40
1
 40
1
 40
1
 40
1
 10
613.744540
 20
1133.310921
 30
0.0
 10
614.060550
 20
1133.473913
 30
0.0
 10
614.454358
 20
1133.278039
 30
0.0
 10
614.481691
 20
1132.943806
 30
0.0
  0
SPLINE
  5
2c4
100
AcDbEntity
  8
Vrstva_1
 62
7
100
AcDbSpline
 70
8
 71
3
 72
8
 73
4
 74
0
 40
0
 40
0
 40
0
 40
0
 40
1
 40
1
 40
1
 40
1
 10
614.481691
 20
1132.943806
 30
0.0
 10
614.503291
 20
1132.679901
 30
0.0
 10
614.464938
 20
1132.623662
 30
0.0
 10
613.839234
 20
1132.001258
 30
0.0
  0
SPLINE
  5
2c5
100
AcDbEntity
  8
Vrstva_1
 62
7
100
AcDbSpline
 70
8
 71
3
 72
8
 73
4
 74
0
 40
0
 40
0
 40
0
 40
0
 40
1
 40
1
 40
1
 40
1
 10
613.839234
 20
1132.001258
 30
0.0
 10
613.489848
 20
1131.653702
 30
0.0
 10
613.147847
 20
1131.340361
 30
0.0
 10
613.079232
 20
1131.304899
 30
0.0
  0
SPLINE
  5
2c6
100
AcDbEntity
  8
Vrstva_1
 62
7
100
AcDbSpline
 70
8
 71
3
 72
8
 73
4
 74
0
 40
0
 40
0
 40
0
 40
0
 40
1
 40
1
 40
1
 40
1
 10
613.079232
 20
1131.304899
 30
0.0
 10
612.940595
 20
1131.233466
 30
0.0
 10
612.791691
 20
1131.226096
 30
0.0
 10
612.644421
 20
1131.285057
 30
0.0
  0
LWPOLYLINE
  5
2c7
100
AcDbEntity
  8
Vrstva_1
 62
7
100
AcDbPolyline
 90
1
 70
1
 10
617.759097
 20
1129.206128
 30
0.0
  0
SPLINE
  5
2c8
100
AcDbEntity
  8
Vrstva_1
 62
7
100
AcDbSpline
 70
8
 71
3
 72
8
 73
4
 74
0
 40
0
 40
0
 40
0
 40
0
 40
1
 40
1
 40
1
 40
1
 10
622.905938
 20
1131.284376
 30
0.0
 10
622.855141
 20
1131.304219
 30
0.0
 10
622.506885
 20
1131.627567
 30
0.0
 10
622.132094
 20
1132.000323
 30
0.0
  0
SPLINE
  5
2c9
100
AcDbEntity
  8
Vrstva_1
 62
7
100
AcDbSpline
 70
8
 71
3
 72
8
 73
4
 74
0
 40
0
 40
0
 40
0
 40
0
 40
1
 40
1
 40
1
 40
1
 10
622.132094
 20
1132.000323
 30
0.0
 10
621.537694
 20
1132.591488
 30
0.0
 10
621.450648
 20
1132.696767
 30
0.0
 10
621.450648
 20
1132.824525
 30
0.0
  0
SPLINE
  5
2ca
100
AcDbEntity
  8
Vrstva_1
 62
7
100
AcDbSpline
 70
8
 71
3
 72
8
 73
4
 74
0
 40
0
 40
0
 40
0
 40
0
 40
1
 40
1
 40
1
 40
1
 10
621.450648
 20
1132.824525
 30
0.0
 10
621.450648
 20
1133.131488
 30
0.0
 10
621.691961
 20
1133.375325
 30
0.0
 10
621.995815
 20
1133.375325
 30
0.0
  0
SPLINE
  5
2cb
100
AcDbEntity
  8
Vrstva_1
 62
7
100
AcDbSpline
 70
8
 71
3
 72
8
 73
4
 74
0
 40
0
 40
0
 40
0
 40
0
 40
1
 40
1
 40
1
 40
1
 10
621.995815
 20
1133.375325
 30
0.0
 10
622.181655
 20
1133.375325
 30
0.0
 10
622.403038
 20
1133.203262
 30
0.0
 10
623.029500
 20
1132.571221
 30
0.0
  0
SPLINE
  5
2cc
100
AcDbEntity
  8
Vrstva_1
 62
7
100
AcDbSpline
 70
8
 71
3
 72
8
 73
4
 74
0
 40
0
 40
0
 40
0
 40
0
 40
1
 40
1
 40
1
 40
1
 10
623.029500
 20
1132.571221
 30
0.0
 10
623.458087
 20
1132.138965
 30
0.0
 10
623.575402
 20
1131.992953
 30
0.0
 10
623.600729
 20
1131.860206
 30
0.0
  0
SPLINE
  5
2cd
100
AcDbEntity
  8
Vrstva_1
 62
7
100
AcDbSpline
 70
8
 71
3
 72
8
 73
4
 74
0
 40
0
 40
0
 40
0
 40
0
 40
1
 40
1
 40
1
 40
1
 10
623.600729
 20
1131.860206
 30
0.0
 10
623.677945
 20
1131.455561
 30
0.0
 10
623.283173
 20
1131.128414
 30
0.0
 10
622.905938
 20
1131.284376
 30
0.0
  0
LWPOLYLINE
  5
2ce
100
AcDbEntity
  8
Vrstva_1
 62
7
100
AcDbPolyline
 90
1
 70
1
 10
612.644421
 20
1131.285057
 30
0.0
  0
SPLINE
  5
2cf
100
AcDbEntity
  8
Vrstva_1
 62
7
100
AcDbSpline
 70
8
 71
3
 72
8
 73
4
 74
0
 40
0
 40
0
 40
0
 40
0
 40
1
 40
1
 40
1
 40
1
 10
617.338867
 20
1132.998543
 30
0.0
 10
615.926183
 20
1133.238638
 30
0.0
 10
614.679039
 20
1134.339699
 30
0.0
 10
614.236566
 20
1135.737321
 30
0.0
  0
SPLINE
  5
2d0
100
AcDbEntity
  8
Vrstva_1
 62
7
100
AcDbSpline
 70
8
 71
3
 72
8
 73
4
 74
0
 40
0
 40
0
 40
0
 40
0
 40
1
 40
1
 40
1
 40
1
 10
614.236566
 20
1135.737321
 30
0.0
 10
614.143107
 20
1136.032550
 30
0.0
 10
614.128716
 20
1136.171958
 30
0.0
 10
614.128716
 20
1136.782058
 30
0.0
  0
SPLINE
  5
2d1
100
AcDbEntity
  8
Vrstva_1
 62
7
100
AcDbSpline
 70
8
 71
3
 72
8
 73
4
 74
0
 40
0
 40
0
 40
0
 40
0
 40
1
 40
1
 40
1
 40
1
 10
614.128716
 20
1136.782058
 30
0.0
 10
614.128716
 20
1137.394937
 30
0.0
 10
614.142804
 20
1137.530206
 30
0.0
 10
614.237589
 20
1137.826767
 30
0.0
  0
SPLINE
  5
2d2
100
AcDbEntity
  8
Vrstva_1
 62
7
100
AcDbSpline
 70
8
 71
3
 72
8
 73
4
 74
0
 40
0
 40
0
 40
0
 40
0
 40
1
 40
1
 40
1
 40
1
 10
614.237589
 20
1137.826767
 30
0.0
 10
614.457688
 20
1138.515473
 30
0.0
 10
614.809963
 20
1139.066244
 30
0.0
 10
615.351783
 20
1139.568799
 30
0.0
  0
SPLINE
  5
2d3
100
AcDbEntity
  8
Vrstva_1
 62
7
100
AcDbSpline
 70
8
 71
3
 72
8
 73
4
 74
0
 40
0
 40
0
 40
0
 40
0
 40
1
 40
1
 40
1
 40
1
 10
615.351783
 20
1139.568799
 30
0.0
 10
616.165931
 20
1140.323892
 30
0.0
 10
617.023298
 20
1140.633095
 30
0.0
 10
618.167073
 20
1140.584169
 30
0.0
  0
SPLINE
  5
2d4
100
AcDbEntity
  8
Vrstva_1
 62
7
100
AcDbSpline
 70
8
 71
3
 72
8
 73
4
 74
0
 40
0
 40
0
 40
0
 40
0
 40
1
 40
1
 40
1
 40
1
 10
618.167073
 20
1140.584169
 30
0.0
 10
618.850270
 20
1140.554972
 30
0.0
 10
619.194350
 20
1140.464263
 30
0.0
 10
619.809116
 20
1140.150326
 30
0.0
  0
SPLINE
  5
2d5
100
AcDbEntity
  8
Vrstva_1
 62
7
100
AcDbSpline
 70
8
 71
3
 72
8
 73
4
 74
0
 40
0
 40
0
 40
0
 40
0
 40
1
 40
1
 40
1
 40
1
 10
619.809116
 20
1140.150326
 30
0.0
 10
620.136194
 20
1139.983366
 30
0.0
 10
620.317581
 20
1139.848011
 30
0.0
 10
620.670247
 20
1139.507400
 30
0.0
  0
SPLINE
  5
2d6
100
AcDbEntity
  8
Vrstva_1
 62
7
100
AcDbSpline
 70
8
 71
3
 72
8
 73
4
 74
0
 40
0
 40
0
 40
0
 40
0
 40
1
 40
1
 40
1
 40
1
 10
620.670247
 20
1139.507400
 30
0.0
 10
621.310855
 20
1138.888654
 30
0.0
 10
621.643591
 20
1138.312767
 30
0.0
 10
621.800565
 20
1137.551126
 30
0.0
  0
SPLINE
  5
2d7
100
AcDbEntity
  8
Vrstva_1
 62
7
100
AcDbSpline
 70
8
 71
3
 72
8
 73
4
 74
0
 40
0
 40
0
 40
0
 40
0
 40
1
 40
1
 40
1
 40
1
 10
621.800565
 20
1137.551126
 30
0.0
 10
621.905362
 20
1137.042647
 30
0.0
 10
621.870354
 20
1136.168074
 30
0.0
 10
621.727119
 20
1135.714616
 30
0.0
  0
SPLINE
  5
2d8
100
AcDbEntity
  8
Vrstva_1
 62
7
100
AcDbSpline
 70
8
 71
3
 72
8
 73
4
 74
0
 40
0
 40
0
 40
0
 40
0
 40
1
 40
1
 40
1
 40
1
 10
621.727119
 20
1135.714616
 30
0.0
 10
621.550549
 20
1135.155851
 30
0.0
 10
621.235649
 20
1134.630194
 30
0.0
 10
620.812840
 20
1134.188613
 30
0.0
  0
SPLINE
  5
2d9
100
AcDbEntity
  8
Vrstva_1
 62
7
100
AcDbSpline
 70
8
 71
3
 72
8
 73
4
 74
0
 40
0
 40
0
 40
0
 40
0
 40
1
 40
1
 40
1
 40
1
 10
620.812840
 20
1134.188613
 30
0.0
 10
620.003279
 20
1133.343095
 30
0.0
 10
619.098737
 20
1132.958518
 30
0.0
 10
617.952977
 20
1132.972748
 30
0.0
  0
SPLINE
  5
2da
100
AcDbEntity
  8
Vrstva_1
 62
7
100
AcDbSpline
 70
8
 71
3
 72
8
 73
4
 74
0
 40
0
 40
0
 40
0
 40
0
 40
1
 40
1
 40
1
 40
1
 10
617.952977
 20
1132.972748
 30
0.0
 10
617.678751
 20
1132.975498
 30
0.0
 10
617.402406
 20
1132.986921
 30
0.0
 10
617.338883
 20
1132.998260
 30
0.0
  0
LWPOLYLINE
  5
2db
100
AcDbEntity
  8
Vrstva_1
 62
7
100
AcDbPolyline
 90
1
 70
1
 10
622.905938
 20
1131.284376
 30
0.0
  0
SPLINE
  5
2dc
100
AcDbEntity
  8
Vrstva_1
 62
7
100
AcDbSpline
 70
8
 71
3
 72
8
 73
4
 74
0
 40
0
 40
0
 40
0
 40
0
 40
1
 40
1
 40
1
 40
1
 10
618.643772
 20
1134.077778
 30
0.0
 10
619.096597
 20
1134.171888
 30
0.0
 10
619.625534
 20
1134.459605
 30
0.0
 10
619.982347
 20
1134.805233
 30
0.0
  0
SPLINE
  5
2dd
100
AcDbEntity
  8
Vrstva_1
 62
7
100
AcDbSpline
 70
8
 71
3
 72
8
 73
4
 74
0
 40
0
 40
0
 40
0
 40
0
 40
1
 40
1
 40
1
 40
1
 10
619.982347
 20
1134.805233
 30
0.0
 10
621.078632
 20
1135.867318
 30
0.0
 10
621.078632
 20
1137.696770
 30
0.0
 10
619.982347
 20
1138.758855
 30
0.0
  0
SPLINE
  5
2de
100
AcDbEntity
  8
Vrstva_1
 62
7
100
AcDbSpline
 70
8
 71
3
 72
8
 73
4
 74
0
 40
0
 40
0
 40
0
 40
0
 40
1
 40
1
 40
1
 40
1
 10
619.982347
 20
1138.758855
 30
0.0
 10
618.641606
 20
1140.057718
 30
0.0
 10
616.350207
 20
1139.717929
 30
0.0
 10
615.490210
 20
1138.092742
 30
0.0
  0
SPLINE
  5
2df
100
AcDbEntity
  8
Vrstva_1
 62
7
100
AcDbSpline
 70
8
 71
3
 72
8
 73
4
 74
0
 40
0
 40
0
 40
0
 40
0
 40
1
 40
1
 40
1
 40
1
 10
615.490210
 20
1138.092742
 30
0.0
 10
614.768025
 20
1136.727945
 30
0.0
 10
615.290963
 20
1135.025032
 30
0.0
 10
616.644927
 20
1134.332471
 30
0.0
  0
SPLINE
  5
2e0
100
AcDbEntity
  8
Vrstva_1
 62
7
100
AcDbSpline
 70
8
 71
3
 72
8
 73
4
 74
0
 40
0
 40
0
 40
0
 40
0
 40
1
 40
1
 40
1
 40
1
 10
616.644927
 20
1134.332471
 30
0.0
 10
616.850683
 20
1134.227022
 30
0.0
 10
617.148163
 20
1134.113636
 30
0.0
 10
617.305996
 20
1134.079621
 30
0.0
  0
SPLINE
  5
2e1
100
AcDbEntity
  8
Vrstva_1
 62
7
100
AcDbSpline
 70
8
 71
3
 72
8
 73
4
 74
0
 40
0
 40
0
 40
0
 40
0
 40
1
 40
1
 40
1
 40
1
 10
617.305996
 20
1134.079621
 30
0.0
 10
617.686539
 20
1133.998266
 30
0.0
 10
618.259117
 20
1133.997416
 30
0.0
 10
618.643772
 20
1134.077551
 30
0.0
  0
LWPOLYLINE
  5
2e2
100
AcDbEntity
  8
Vrstva_1
 62
7
100
AcDbPolyline
 90
2
 70
0
 10
617.338883
 20
1132.998260
 30
0.0
 10
617.338867
 20
1132.998543
 30
0.0
  0
SPLINE
  5
2e3
100
AcDbEntity
  8
Vrstva_1
 62
7
100
AcDbSpline
 70
8
 71
3
 72
8
 73
4
 74
0
 40
0
 40
0
 40
0
 40
0
 40
1
 40
1
 40
1
 40
1
 10
610.614253
 20
1136.285485
 30
0.0
 10
610.376900
 20
1136.353233
 30
0.0
 10
610.247201
 20
1136.528698
 30
0.0
 10
610.247201
 20
1136.782058
 30
0.0
  0
SPLINE
  5
2e4
100
AcDbEntity
  8
Vrstva_1
 62
7
100
AcDbSpline
 70
8
 71
3
 72
8
 73
4
 74
0
 40
0
 40
0
 40
0
 40
0
 40
1
 40
1
 40
1
 40
1
 10
610.247201
 20
1136.782058
 30
0.0
 10
610.247201
 20
1137.043696
 30
0.0
 10
610.377547
 20
1137.210799
 30
0.0
 10
610.636469
 20
1137.281495
 30
0.0
  0
SPLINE
  5
2e5
100
AcDbEntity
  8
Vrstva_1
 62
7
100
AcDbSpline
 70
8
 71
3
 72
8
 73
4
 74
0
 40
0
 40
0
 40
0
 40
0
 40
1
 40
1
 40
1
 40
1
 10
610.636469
 20
1137.281495
 30
0.0
 10
610.853486
 20
1137.341022
 30
0.0
 10
612.231985
 20
1137.339888
 30
0.0
 10
612.450271
 20
1137.280049
 30
0.0
  0
SPLINE
  5
2e6
100
AcDbEntity
  8
Vrstva_1
 62
7
100
AcDbSpline
 70
8
 71
3
 72
8
 73
4
 74
0
 40
0
 40
0
 40
0
 40
0
 40
1
 40
1
 40
1
 40
1
 10
612.450271
 20
1137.280049
 30
0.0
 10
612.984395
 20
1137.134348
 30
0.0
 10
612.984395
 20
1136.429797
 30
0.0
 10
612.450271
 20
1136.283926
 30
0.0
  0
SPLINE
  5
2e7
100
AcDbEntity
  8
Vrstva_1
 62
7
100
AcDbSpline
 70
8
 71
3
 72
8
 73
4
 74
0
 40
0
 40
0
 40
0
 40
0
 40
1
 40
1
 40
1
 40
1
 10
612.450271
 20
1136.283926
 30
0.0
 10
612.244266
 20
1136.227800
 30
0.0
 10
610.812291
 20
1136.228934
 30
0.0
 10
610.614253
 20
1136.285400
 30
0.0
  0
LWPOLYLINE
  5
2e8
100
AcDbEntity
  8
Vrstva_1
 62
7
100
AcDbPolyline
 90
2
 70
0
 10
618.643772
 20
1134.077551
 30
0.0
 10
618.643772
 20
1134.077778
 30
0.0
  0
SPLINE
  5
2e9
100
AcDbEntity
  8
Vrstva_1
 62
7
100
AcDbSpline
 70
8
 71
3
 72
8
 73
4
 74
0
 40
0
 40
0
 40
0
 40
0
 40
1
 40
1
 40
1
 40
1
 10
623.498818
 20
1136.286959
 30
0.0
 10
622.985152
 20
1136.432943
 30
0.0
 10
623.000935
 20
1137.138203
 30
0.0
 10
623.520929
 20
1137.280247
 30
0.0
  0
SPLINE
  5
2ea
100
AcDbEntity
  8
Vrstva_1
 62
7
100
AcDbSpline
 70
8
 71
3
 72
8
 73
4
 74
0
 40
0
 40
0
 40
0
 40
0
 40
1
 40
1
 40
1
 40
1
 10
623.520929
 20
1137.280247
 30
0.0
 10
623.739196
 20
1137.340058
 30
0.0
 10
625.117710
 20
1137.340909
 30
0.0
 10
625.334728
 20
1137.281693
 30
0.0
  0
SPLINE
  5
2eb
100
AcDbEntity
  8
Vrstva_1
 62
7
100
AcDbSpline
 70
8
 71
3
 72
8
 73
4
 74
0
 40
0
 40
0
 40
0
 40
0
 40
1
 40
1
 40
1
 40
1
 10
625.334728
 20
1137.281693
 30
0.0
 10
625.593644
 20
1137.211110
 30
0.0
 10
625.723996
 20
1137.043866
 30
0.0
 10
625.723996
 20
1136.782228
 30
0.0
  0
SPLINE
  5
2ec
100
AcDbEntity
  8
Vrstva_1
 62
7
100
AcDbSpline
 70
8
 71
3
 72
8
 73
4
 74
0
 40
0
 40
0
 40
0
 40
0
 40
1
 40
1
 40
1
 40
1
 10
625.723996
 20
1136.782228
 30
0.0
 10
625.723996
 20
1136.520591
 30
0.0
 10
625.593659
 20
1136.353488
 30
0.0
 10
625.334728
 20
1136.282764
 30
0.0
  0
SPLINE
  5
2ed
100
AcDbEntity
  8
Vrstva_1
 62
7
100
AcDbSpline
 70
8
 71
3
 72
8
 73
4
 74
0
 40
0
 40
0
 40
0
 40
0
 40
1
 40
1
 40
1
 40
1
 10
625.334728
 20
1136.282764
 30
0.0
 10
625.130066
 20
1136.226921
 30
0.0
 10
623.698349
 20
1136.230323
 30
0.0
 10
623.498685
 20
1136.285514
 30
0.0
  0
LWPOLYLINE
  5
2ee
100
AcDbEntity
  8
Vrstva_1
 62
7
100
AcDbPolyline
 90
1
 70
1
 10
610.614253
 20
1136.285400
 30
0.0
  0
SPLINE
  5
2ef
100
AcDbEntity
  8
Vrstva_1
 62
7
100
AcDbSpline
 70
8
 71
3
 72
8
 73
4
 74
0
 40
0
 40
0
 40
0
 40
0
 40
1
 40
1
 40
1
 40
1
 10
613.712184
 20
1140.274484
 30
0.0
 10
613.635955
 20
1140.321539
 30
0.0
 10
613.298119
 20
1140.634710
 30
0.0
 10
612.961438
 20
1140.970786
 30
0.0
  0
SPLINE
  5
2f0
100
AcDbEntity
  8
Vrstva_1
 62
7
100
AcDbSpline
 70
8
 71
3
 72
8
 73
4
 74
0
 40
0
 40
0
 40
0
 40
0
 40
1
 40
1
 40
1
 40
1
 10
612.961438
 20
1140.970786
 30
0.0
 10
612.355202
 20
1141.575869
 30
0.0
 10
612.349291
 20
1141.583807
 30
0.0
 10
612.349291
 20
1141.790282
 30
0.0
  0
SPLINE
  5
2f1
100
AcDbEntity
  8
Vrstva_1
 62
7
100
AcDbSpline
 70
8
 71
3
 72
8
 73
4
 74
0
 40
0
 40
0
 40
0
 40
0
 40
1
 40
1
 40
1
 40
1
 10
612.349291
 20
1141.790282
 30
0.0
 10
612.349291
 20
1142.166610
 30
0.0
 10
612.700688
 20
1142.417419
 30
0.0
 10
613.036387
 20
1142.280704
 30
0.0
  0
SPLINE
  5
2f2
100
AcDbEntity
  8
Vrstva_1
 62
7
100
AcDbSpline
 70
8
 71
3
 72
8
 73
4
 74
0
 40
0
 40
0
 40
0
 40
0
 40
1
 40
1
 40
1
 40
1
 10
613.036387
 20
1142.280704
 30
0.0
 10
613.108523
 20
1142.251507
 30
0.0
 10
613.459227
 20
1141.937258
 30
0.0
 10
613.815725
 20
1141.582814
 30
0.0
  0
SPLINE
  5
2f3
100
AcDbEntity
  8
Vrstva_1
 62
7
100
AcDbSpline
 70
8
 71
3
 72
8
 73
4
 74
0
 40
0
 40
0
 40
0
 40
0
 40
1
 40
1
 40
1
 40
1
 10
613.815725
 20
1141.582814
 30
0.0
 10
614.523349
 20
1140.879199
 30
0.0
 10
614.586806
 20
1140.771085
 30
0.0
 10
614.453830
 20
1140.495558
 30
0.0
  0
SPLINE
  5
2f4
100
AcDbEntity
  8
Vrstva_1
 62
7
100
AcDbSpline
 70
8
 71
3
 72
8
 73
4
 74
0
 40
0
 40
0
 40
0
 40
0
 40
1
 40
1
 40
1
 40
1
 10
614.453830
 20
1140.495558
 30
0.0
 10
614.315587
 20
1140.209173
 30
0.0
 10
613.980632
 20
1140.109309
 30
0.0
 10
613.712184
 20
1140.274455
 30
0.0
  0
LWPOLYLINE
  5
2f5
100
AcDbEntity
  8
Vrstva_1
 62
7
100
AcDbPolyline
 90
2
 70
0
 10
623.498685
 20
1136.285514
 30
0.0
 10
623.498818
 20
1136.286959
 30
0.0
  0
SPLINE
  5
2f6
100
AcDbEntity
  8
Vrstva_1
 62
7
100
AcDbSpline
 70
8
 71
3
 72
8
 73
4
 74
0
 40
0
 40
0
 40
0
 40
0
 40
1
 40
1
 40
1
 40
1
 10
621.738997
 20
1140.248972
 30
0.0
 10
621.543236
 20
1140.355838
 30
0.0
 10
621.470215
 20
1140.523366
 30
0.0
 10
621.489661
 20
1140.821145
 30
0.0
  0
SPLINE
  5
2f7
100
AcDbEntity
  8
Vrstva_1
 62
7
100
AcDbSpline
 70
8
 71
3
 72
8
 73
4
 74
0
 40
0
 40
0
 40
0
 40
0
 40
1
 40
1
 40
1
 40
1
 10
621.489661
 20
1140.821145
 30
0.0
 10
621.498165
 20
1140.953523
 30
0.0
 10
622.730366
 20
1142.197309
 30
0.0
 10
622.934939
 20
1142.280619
 30
0.0
  0
SPLINE
  5
2f8
100
AcDbEntity
  8
Vrstva_1
 62
7
100
AcDbSpline
 70
8
 71
3
 72
8
 73
4
 74
0
 40
0
 40
0
 40
0
 40
0
 40
1
 40
1
 40
1
 40
1
 10
622.934939
 20
1142.280619
 30
0.0
 10
623.270700
 20
1142.416966
 30
0.0
 10
623.622035
 20
1142.166383
 30
0.0
 10
623.622035
 20
1141.790084
 30
0.0
  0
SPLINE
  5
2f9
100
AcDbEntity
  8
Vrstva_1
 62
7
100
AcDbSpline
 70
8
 71
3
 72
8
 73
4
 74
0
 40
0
 40
0
 40
0
 40
0
 40
1
 40
1
 40
1
 40
1
 10
623.622035
 20
1141.790084
 30
0.0
 10
623.622035
 20
1141.582588
 30
0.0
 10
623.617499
 20
1141.576918
 30
0.0
 10
622.986791
 20
1140.949526
 30
0.0
  0
SPLINE
  5
2fa
100
AcDbEntity
  8
Vrstva_1
 62
7
100
AcDbSpline
 70
8
 71
3
 72
8
 73
4
 74
0
 40
0
 40
0
 40
0
 40
0
 40
1
 40
1
 40
1
 40
1
 10
622.986791
 20
1140.949526
 30
0.0
 10
622.637403
 20
1140.601970
 30
0.0
 10
622.295403
 20
1140.288629
 30
0.0
 10
622.226791
 20
1140.253195
 30
0.0
  0
SPLINE
  5
2fb
100
AcDbEntity
  8
Vrstva_1
 62
7
100
AcDbSpline
 70
8
 71
3
 72
8
 73
4
 74
0
 40
0
 40
0
 40
0
 40
0
 40
1
 40
1
 40
1
 40
1
 10
622.226791
 20
1140.253195
 30
0.0
 10
622.074372
 20
1140.174109
 30
0.0
 10
621.878523
 20
1140.172975
 30
0.0
 10
621.738997
 20
1140.250446
 30
0.0
  0
LWPOLYLINE
  5
2fc
100
AcDbEntity
  8
Vrstva_1
 62
7
100
AcDbPolyline
 90
1
 70
1
 10
613.712184
 20
1140.274455
 30
0.0
  0
SPLINE
  5
2fd
100
AcDbEntity
  8
Vrstva_1
 62
7
100
AcDbSpline
 70
8
 71
3
 72
8
 73
4
 74
0
 40
0
 40
0
 40
0
 40
0
 40
1
 40
1
 40
1
 40
1
 10
617.667161
 20
1141.940462
 30
0.0
 10
617.589724
 20
1142.004525
 30
0.0
 10
617.505087
 20
1142.132367
 30
0.0
 10
617.479077
 20
1142.224266
 30
0.0
  0
SPLINE
  5
2fe
100
AcDbEntity
  8
Vrstva_1
 62
7
100
AcDbSpline
 70
8
 71
3
 72
8
 73
4
 74
0
 40
0
 40
0
 40
0
 40
0
 40
1
 40
1
 40
1
 40
1
 10
617.479077
 20
1142.224266
 30
0.0
 10
617.418446
 20
1142.438849
 30
0.0
 10
617.417369
 20
1143.794178
 30
0.0
 10
617.477671
 20
1144.007542
 30
0.0
  0
SPLINE
  5
2ff
100
AcDbEntity
  8
Vrstva_1
 62
7
100
AcDbSpline
 70
8
 71
3
 72
8
 73
4
 74
0
 40
0
 40
0
 40
0
 40
0
 40
1
 40
1
 40
1
 40
1
 10
617.477671
 20
1144.007542
 30
0.0
 10
617.549600
 20
1144.262093
 30
0.0
 10
617.719707
 20
1144.390276
 30
0.0
 10
617.985681
 20
1144.390276
 30
0.0
  0
SPLINE
  5
300
100
AcDbEntity
  8
Vrstva_1
 62
7
100
AcDbSpline
 70
8
 71
3
 72
8
 73
4
 74
0
 40
0
 40
0
 40
0
 40
0
 40
1
 40
1
 40
1
 40
1
 10
617.985681
 20
1144.390276
 30
0.0
 10
618.251656
 20
1144.390276
 30
0.0
 10
618.421765
 20
1144.262150
 30
0.0
 10
618.493690
 20
1144.007542
 30
0.0
  0
SPLINE
  5
301
100
AcDbEntity
  8
Vrstva_1
 62
7
100
AcDbSpline
 70
8
 71
3
 72
8
 73
4
 74
0
 40
0
 40
0
 40
0
 40
0
 40
1
 40
1
 40
1
 40
1
 10
618.493690
 20
1144.007542
 30
0.0
 10
618.553969
 20
1143.794093
 30
0.0
 10
618.552892
 20
1142.438906
 30
0.0
 10
618.492285
 20
1142.224266
 30
0.0
  0
SPLINE
  5
302
100
AcDbEntity
  8
Vrstva_1
 62
7
100
AcDbSpline
 70
8
 71
3
 72
8
 73
4
 74
0
 40
0
 40
0
 40
0
 40
0
 40
1
 40
1
 40
1
 40
1
 10
618.492285
 20
1142.224266
 30
0.0
 10
618.427286
 20
1141.994093
 30
0.0
 10
618.211853
 20
1141.823873
 30
0.0
 10
617.985697
 20
1141.823873
 30
0.0
  0
SPLINE
  5
303
100
AcDbEntity
  8
Vrstva_1
 62
7
100
AcDbSpline
 70
8
 71
3
 72
8
 73
4
 74
0
 40
0
 40
0
 40
0
 40
0
 40
1
 40
1
 40
1
 40
1
 10
617.985697
 20
1141.823873
 30
0.0
 10
617.862356
 20
1141.823873
 30
0.0
 10
617.764912
 20
1141.859589
 30
0.0
 10
617.667196
 20
1141.940377
 30
0.0
  0
LWPOLYLINE
  5
304
100
AcDbEntity
  8
Vrstva_1
 62
7
100
AcDbPolyline
 90
2
 70
0
 10
621.738997
 20
1140.250446
 30
0.0
 10
621.738997
 20
1140.248972
 30
0.0
  0
LWPOLYLINE
  5
305
100
AcDbEntity
  8
Vrstva_1
 62
7
100
AcDbPolyline
 90
1
 70
1
 10
617.667196
 20
1141.940377
 30
0.0
  0
LWPOLYLINE
  5
306
100
AcDbEntity
  8
Vrstva_1
 62
7
100
AcDbPolyline
 90
2
 70
0
 10
612.341999
 20
1121.293239
 30
0.0
 10
623.035247
 20
1112.154206
 30
0.0
  0
SPLINE
  5
307
100
AcDbEntity
  8
Vrstva_1
 62
7
100
AcDbSpline
 70
8
 71
3
 72
8
 73
4
 74
0
 40
0
 40
0
 40
0
 40
0
 40
1
 40
1
 40
1
 40
1
 10
619.167963
 20
1122.636286
 30
0.0
 10
619.351981
 20
1122.411171
 30
0.0
 10
620.328494
 20
1120.060132
 30
0.0
 10
620.328494
 20
1120.060132
 30
0.0
  0
SPLINE
  5
308
100
AcDbEntity
  8
Vrstva_1
 62
7
100
AcDbSpline
 70
8
 71
3
 72
8
 73
4
 74
0
 40
0
 40
0
 40
0
 40
0
 40
1
 40
1
 40
1
 40
1
 10
623.211314
 20
1119.201505
 30
0.0
 10
622.983767
 20
1119.376023
 30
0.0
 10
620.328494
 20
1120.060132
 30
0.0
 10
620.328494
 20
1120.060132
 30
0.0
  0
LWPOLYLINE
  5
309
100
AcDbEntity
  8
Vrstva_1
 62
7
100
AcDbPolyline
 90
2
 70
0
 10
613.013907
 20
1111.378754
 30
0.0
 10
622.429991
 20
1122.295663
 30
0.0
  0
SPLINE
  5
30a
100
AcDbEntity
  8
Vrstva_1
 62
7
100
AcDbSpline
 70
8
 71
3
 72
8
 73
4
 74
0
 40
0
 40
0
 40
0
 40
0
 40
1
 40
1
 40
1
 40
1
 10
620.030363
 20
1111.295872
 30
0.0
 10
620.023225
 20
1111.390867
 30
0.0
 10
620.527670
 20
1114.378501
 30
0.0
 10
620.527670
 20
1114.378501
 30
0.0
  0
LWPOLYLINE
  5
30b
100
AcDbEntity
  8
Vrstva_1
 62
7
100
AcDbPolyline
 90
2
 70
0
 10
623.461270
 20
1115.231453
 30
0.0
 10
620.527670
 20
1114.378501
 30
0.0
  0
LWPOLYLINE
  5
30c
100
AcDbEntity
  8
Vrstva_1
 62
7
100
AcDbPolyline
 90
2
 70
0
 10
612.047835
 20
1114.387462
 30
0.0
 10
615.137891
 20
1113.950423
 30
0.0
  0
SPLINE
  5
30d
100
AcDbEntity
  8
Vrstva_1
 62
7
100
AcDbSpline
 70
8
 71
3
 72
8
 73
4
 74
0
 40
0
 40
0
 40
0
 40
0
 40
1
 40
1
 40
1
 40
1
 10
615.282232
 20
1122.535954
 30
0.0
 10
615.251143
 20
1122.473854
 30
0.0
 10
614.892088
 20
1119.138905
 30
0.0
 10
614.892088
 20
1119.138905
 30
0.0
  0
SPLINE
  5
30e
100
AcDbEntity
  8
Vrstva_1
 62
7
100
AcDbSpline
 70
8
 71
3
 72
8
 73
4
 74
0
 40
0
 40
0
 40
0
 40
0
 40
1
 40
1
 40
1
 40
1
 10
611.834394
 20
1118.348307
 30
0.0
 10
611.970077
 20
1118.609281
 30
0.0
 10
614.892088
 20
1119.138905
 30
0.0
 10
614.892088
 20
1119.138905
 30
0.0
  0
SPLINE
  5
30f
100
AcDbEntity
  8
Vrstva_1
 62
7
100
AcDbSpline
 70
8
 71
3
 72
8
 73
4
 74
0
 40
0
 40
0
 40
0
 40
0
 40
1
 40
1
 40
1
 40
1
 10
1133.088467
 20
1197.754436
 30
0.0
 10
1132.819118
 20
1197.399219
 30
0.0
 10
1130.876783
 20
1195.847546
 30
0.0
 10
1130.214916
 20
1194.584158
 30
0.0
  0
SPLINE
  5
310
100
AcDbEntity
  8
Vrstva_1
 62
7
100
AcDbSpline
 70
8
 71
3
 72
8
 73
4
 74
0
 40
0
 40
0
 40
0
 40
0
 40
1
 40
1
 40
1
 40
1
 10
1130.214916
 20
1194.584158
 30
0.0
 10
1129.490643
 20
1193.201646
 30
0.0
 10
1129.195541
 20
1191.584119
 30
0.0
 10
1129.152952
 20
1190.023961
 30
0.0
  0
SPLINE
  5
311
100
AcDbEntity
  8
Vrstva_1
 62
7
100
AcDbSpline
 70
8
 71
3
 72
8
 73
4
 74
0
 40
0
 40
0
 40
0
 40
0
 40
1
 40
1
 40
1
 40
1
 10
1129.152952
 20
1190.023961
 30
0.0
 10
1129.116889
 20
1188.703023
 30
0.0
 10
1129.354243
 20
1187.348548
 30
0.0
 10
1129.840105
 20
1186.119679
 30
0.0
  0
SPLINE
  5
312
100
AcDbEntity
  8
Vrstva_1
 62
7
100
AcDbSpline
 70
8
 71
3
 72
8
 73
4
 74
0
 40
0
 40
0
 40
0
 40
0
 40
1
 40
1
 40
1
 40
1
 10
1129.840105
 20
1186.119679
 30
0.0
 10
1130.301968
 20
1184.951504
 30
0.0
 10
1131.025508
 20
1183.865283
 30
0.0
 10
1131.901564
 20
1182.965019
 30
0.0
  0
SPLINE
  5
313
100
AcDbEntity
  8
Vrstva_1
 62
7
100
AcDbSpline
 70
8
 71
3
 72
8
 73
4
 74
0
 40
0
 40
0
 40
0
 40
0
 40
1
 40
1
 40
1
 40
1
 10
1131.901564
 20
1182.965019
 30
0.0
 10
1132.793839
 20
1182.048089
 30
0.0
 10
1133.876124
 20
1181.272862
 30
0.0
 10
1135.056225
 20
1180.778623
 30
0.0
  0
SPLINE
  5
314
100
AcDbEntity
  8
Vrstva_1
 62
7
100
AcDbSpline
 70
8
 71
3
 72
8
 73
4
 74
0
 40
0
 40
0
 40
0
 40
0
 40
1
 40
1
 40
1
 40
1
 10
1135.056225
 20
1180.778623
 30
0.0
 10
1136.346383
 20
1180.238286
 30
0.0
 10
1137.781160
 20
1179.951911
 30
0.0
 10
1139.179146
 20
1179.997763
 30
0.0
  0
SPLINE
  5
315
100
AcDbEntity
  8
Vrstva_1
 62
7
100
AcDbSpline
 70
8
 71
3
 72
8
 73
4
 74
0
 40
0
 40
0
 40
0
 40
0
 40
1
 40
1
 40
1
 40
1
 10
1139.179146
 20
1179.997763
 30
0.0
 10
1140.801986
 20
1180.050981
 30
0.0
 10
1142.480149
 20
1180.420170
 30
0.0
 10
1143.895517
 20
1181.215897
 30
0.0
  0
SPLINE
  5
316
100
AcDbEntity
  8
Vrstva_1
 62
7
100
AcDbSpline
 70
8
 71
3
 72
8
 73
4
 74
0
 40
0
 40
0
 40
0
 40
0
 40
1
 40
1
 40
1
 40
1
 10
1143.895517
 20
1181.215897
 30
0.0
 10
1145.288213
 20
1181.998878
 30
0.0
 10
1146.467932
 20
1183.213613
 30
0.0
 10
1147.331285
 20
1184.557967
 30
0.0
  0
SPLINE
  5
317
100
AcDbEntity
  8
Vrstva_1
 62
7
100
AcDbSpline
 70
8
 71
3
 72
8
 73
4
 74
0
 40
0
 40
0
 40
0
 40
0
 40
1
 40
1
 40
1
 40
1
 10
1147.331285
 20
1184.557967
 30
0.0
 10
1148.101802
 20
1185.757762
 30
0.0
 10
1148.525042
 20
1187.182133
 30
0.0
 10
1148.768061
 20
1188.587181
 30
0.0
  0
SPLINE
  5
318
100
AcDbEntity
  8
Vrstva_1
 62
7
100
AcDbSpline
 70
8
 71
3
 72
8
 73
4
 74
0
 40
0
 40
0
 40
0
 40
0
 40
1
 40
1
 40
1
 40
1
 10
1148.768061
 20
1188.587181
 30
0.0
 10
1148.972119
 20
1189.766978
 30
0.0
 10
1149.047445
 20
1191.014860
 30
0.0
 10
1148.768061
 20
1192.179121
 30
0.0
  0
SPLINE
  5
319
100
AcDbEntity
  8
Vrstva_1
 62
7
100
AcDbSpline
 70
8
 71
3
 72
8
 73
4
 74
0
 40
0
 40
0
 40
0
 40
0
 40
1
 40
1
 40
1
 40
1
 10
1148.768061
 20
1192.179121
 30
0.0
 10
1148.473618
 20
1193.406133
 30
0.0
 10
1147.765465
 20
1194.512893
 30
0.0
 10
1147.050177
 20
1195.552421
 30
0.0
  0
SPLINE
  5
31a
100
AcDbEntity
  8
Vrstva_1
 62
7
100
AcDbSpline
 70
8
 71
3
 72
8
 73
4
 74
0
 40
0
 40
0
 40
0
 40
0
 40
1
 40
1
 40
1
 40
1
 10
1147.050177
 20
1195.552421
 30
0.0
 10
1146.477702
 20
1196.384397
 30
0.0
 10
1145.051630
 20
1197.474399
 30
0.0
 10
1145.019949
 20
1197.801286
 30
0.0
  0
SPLINE
  5
31b
100
AcDbEntity
  8
Vrstva_1
 62
7
100
AcDbSpline
 70
8
 71
3
 72
8
 73
4
 74
0
 40
0
 40
0
 40
0
 40
0
 40
1
 40
1
 40
1
 40
1
 10
1145.019949
 20
1197.801286
 30
0.0
 10
1144.925825
 20
1198.772485
 30
0.0
 10
1144.891939
 20
1229.533602
 30
0.0
 10
1144.767161
 20
1232.735720
 30
0.0
  0
SPLINE
  5
31c
100
AcDbEntity
  8
Vrstva_1
 62
7
100
AcDbSpline
 70
8
 71
3
 72
8
 73
4
 74
0
 40
0
 40
0
 40
0
 40
0
 40
1
 40
1
 40
1
 40
1
 10
1144.767161
 20
1232.735720
 30
0.0
 10
1144.723232
 20
1233.863063
 30
0.0
 10
1143.789385
 20
1234.851144
 30
0.0
 10
1142.922984
 20
1235.573765
 30
0.0
  0
SPLINE
  5
31d
100
AcDbEntity
  8
Vrstva_1
 62
7
100
AcDbSpline
 70
8
 71
3
 72
8
 73
4
 74
0
 40
0
 40
0
 40
0
 40
0
 40
1
 40
1
 40
1
 40
1
 10
1142.922984
 20
1235.573765
 30
0.0
 10
1142.028404
 20
1236.319889
 30
0.0
 10
1140.857302
 20
1236.802664
 30
0.0
 10
1139.698436
 20
1236.921008
 30
0.0
  0
SPLINE
  5
31e
100
AcDbEntity
  8
Vrstva_1
 62
7
100
AcDbSpline
 70
8
 71
3
 72
8
 73
4
 74
0
 40
0
 40
0
 40
0
 40
0
 40
1
 40
1
 40
1
 40
1
 10
1139.698436
 20
1236.921008
 30
0.0
 10
1138.586699
 20
1237.034539
 30
0.0
 10
1137.419570
 20
1236.754674
 30
0.0
 10
1136.407630
 20
1236.280515
 30
0.0
  0
SPLINE
  5
31f
100
AcDbEntity
  8
Vrstva_1
 62
7
100
AcDbSpline
 70
8
 71
3
 72
8
 73
4
 74
0
 40
0
 40
0
 40
0
 40
0
 40
1
 40
1
 40
1
 40
1
 10
1136.407630
 20
1236.280515
 30
0.0
 10
1135.521594
 20
1235.865351
 30
0.0
 10
1134.693411
 20
1235.227238
 30
0.0
 10
1134.132776
 20
1234.425296
 30
0.0
  0
SPLINE
  5
320
100
AcDbEntity
  8
Vrstva_1
 62
7
100
AcDbSpline
 70
8
 71
3
 72
8
 73
4
 74
0
 40
0
 40
0
 40
0
 40
0
 40
1
 40
1
 40
1
 40
1
 10
1134.132776
 20
1234.425296
 30
0.0
 10
1133.681886
 20
1233.780335
 30
0.0
 10
1133.359769
 20
1232.194615
 30
0.0
 10
1133.359769
 20
1232.194615
 30
0.0
  0
SPLINE
  5
321
100
AcDbEntity
  8
Vrstva_1
 62
7
100
AcDbSpline
 70
8
 71
3
 72
8
 73
4
 74
0
 40
0
 40
0
 40
0
 40
0
 40
1
 40
1
 40
1
 40
1
 10
1133.359769
 20
1232.194615
 30
0.0
 10
1133.359769
 20
1232.194615
 30
0.0
 10
1133.544864
 20
1198.356330
 30
0.0
 10
1133.088467
 20
1197.754436
 30
0.0
  0
LWPOLYLINE
  5
322
100
AcDbEntity
  8
Vrstva_1
 62
7
100
AcDbPolyline
 90
2
 70
0
 10
616.125927
 20
1110.967240
 30
0.0
 10
615.137891
 20
1113.950423
 30
0.0
  0
SPLINE
  5
323
100
AcDbEntity
  8
Vrstva_1
 62
1
100
AcDbSpline
 70
8
 71
3
 72
8
 73
4
 74
0
 40
0
 40
0
 40
0
 40
0
 40
1
 40
1
 40
1
 40
1
 10
1142.863320
 20
1189.966288
 30
0.0
 10
1142.863320
 20
1188.583088
 30
0.0
 10
1142.125391
 20
1187.304958
 30
0.0
 10
1140.927504
 20
1186.613357
 30
0.0
  0
SPLINE
  5
324
100
AcDbEntity
  8
Vrstva_1
 62
1
100
AcDbSpline
 70
8
 71
3
 72
8
 73
4
 74
0
 40
0
 40
0
 40
0
 40
0
 40
1
 40
1
 40
1
 40
1
 10
1140.927504
 20
1186.613357
 30
0.0
 10
1139.729617
 20
1185.921757
 30
0.0
 10
1138.253760
 20
1185.921757
 30
0.0
 10
1137.055873
 20
1186.613357
 30
0.0
  0
SPLINE
  5
325
100
AcDbEntity
  8
Vrstva_1
 62
1
100
AcDbSpline
 70
8
 71
3
 72
8
 73
4
 74
0
 40
0
 40
0
 40
0
 40
0
 40
1
 40
1
 40
1
 40
1
 10
1137.055873
 20
1186.613357
 30
0.0
 10
1135.857986
 20
1187.304958
 30
0.0
 10
1135.120057
 20
1188.583088
 30
0.0
 10
1135.120057
 20
1189.966288
 30
0.0
  0
SPLINE
  5
326
100
AcDbEntity
  8
Vrstva_1
 62
1
100
AcDbSpline
 70
8
 71
3
 72
8
 73
4
 74
0
 40
0
 40
0
 40
0
 40
0
 40
1
 40
1
 40
1
 40
1
 10
1135.120057
 20
1189.966288
 30
0.0
 10
1135.120057
 20
1191.349489
 30
0.0
 10
1135.857986
 20
1192.627619
 30
0.0
 10
1137.055873
 20
1193.319219
 30
0.0
  0
SPLINE
  5
327
100
AcDbEntity
  8
Vrstva_1
 62
1
100
AcDbSpline
 70
8
 71
3
 72
8
 73
4
 74
0
 40
0
 40
0
 40
0
 40
0
 40
1
 40
1
 40
1
 40
1
 10
1137.055873
 20
1193.319219
 30
0.0
 10
1138.253760
 20
1194.010819
 30
0.0
 10
1139.729617
 20
1194.010819
 30
0.0
 10
1140.927504
 20
1193.319219
 30
0.0
  0
SPLINE
  5
328
100
AcDbEntity
  8
Vrstva_1
 62
1
100
AcDbSpline
 70
8
 71
3
 72
8
 73
4
 74
0
 40
0
 40
0
 40
0
 40
0
 40
1
 40
1
 40
1
 40
1
 10
1140.927504
 20
1193.319219
 30
0.0
 10
1142.125391
 20
1192.627619
 30
0.0
 10
1142.863320
 20
1191.349489
 30
0.0
 10
1142.863320
 20
1189.966288
 30
0.0
  0
LWPOLYLINE
  5
329
100
AcDbEntity
  8
Vrstva_1
 62
7
100
AcDbPolyline
 90
1
 70
1
 10
1133.088467
 20
1197.754436
 30
0.0
  0
LWPOLYLINE
  5
32a
100
AcDbEntity
  8
Vrstva_1
 62
1
100
AcDbPolyline
 90
1
 70
1
 10
1142.863320
 20
1189.966288
 30
0.0
  0
LWPOLYLINE
  5
32b
100
AcDbEntity
  8
Vrstva_1
 62
7
100
AcDbPolyline
 90
2
 70
0
 10
1139.080030
 20
1193.853409
 30
0.0
 10
1139.035858
 20
1228.440003
 30
0.0
  0
LWPOLYLINE
  5
32c
100
AcDbEntity
  8
Vrstva_1
 62
7
100
AcDbPolyline
 90
2
 70
0
 10
1133.602714
 20
1201.627660
 30
0.0
 10
1135.480019
 20
1201.605573
 30
0.0
  0
LWPOLYLINE
  5
32d
100
AcDbEntity
  8
Vrstva_1
 62
7
100
AcDbPolyline
 90
2
 70
0
 10
1133.514370
 20
1206.508655
 30
0.0
 10
1135.391675
 20
1206.486568
 30
0.0
  0
LWPOLYLINE
  5
32e
100
AcDbEntity
  8
Vrstva_1
 62
7
100
AcDbPolyline
 90
2
 70
0
 10
1133.536456
 20
1211.433822
 30
0.0
 10
1135.413761
 20
1211.411735
 30
0.0
  0
LWPOLYLINE
  5
32f
100
AcDbEntity
  8
Vrstva_1
 62
7
100
AcDbPolyline
 90
2
 70
0
 10
1133.558542
 20
1216.381075
 30
0.0
 10
1135.435847
 20
1216.358988
 30
0.0
  0
LWPOLYLINE
  5
330
100
AcDbEntity
  8
Vrstva_1
 62
7
100
AcDbPolyline
 90
2
 70
0
 10
1133.602714
 20
1221.239984
 30
0.0
 10
1135.480019
 20
1221.217897
 30
0.0
  0
SPLINE
  5
331
100
AcDbEntity
  8
Vrstva_1
 62
7
100
AcDbSpline
 70
8
 71
3
 72
8
 73
4
 74
0
 40
0
 40
0
 40
0
 40
0
 40
1
 40
1
 40
1
 40
1
 10
1107.742347
 20
1236.383798
 30
0.0
 10
1111.095619
 20
1239.737071
 30
0.0
 10
1169.169594
 20
1240.606286
 30
0.0
 10
1172.441966
 20
1235.736790
 30
0.0
  0
SPLINE
  5
332
100
AcDbEntity
  8
Vrstva_1
 62
7
100
AcDbSpline
 70
8
 71
3
 72
8
 73
4
 74
0
 40
0
 40
0
 40
0
 40
0
 40
1
 40
1
 40
1
 40
1
 10
1172.441966
 20
1235.736790
 30
0.0
 10
1175.600300
 20
1231.037033
 30
0.0
 10
1177.631295
 20
1185.992783
 30
0.0
 10
1172.441966
 20
1181.738490
 30
0.0
  0
SPLINE
  5
333
100
AcDbEntity
  8
Vrstva_1
 62
7
100
AcDbSpline
 70
8
 71
3
 72
8
 73
4
 74
0
 40
0
 40
0
 40
0
 40
0
 40
1
 40
1
 40
1
 40
1
 10
1172.441966
 20
1181.738490
 30
0.0
 10
1166.633436
 20
1176.976569
 30
0.0
 10
1112.973442
 20
1176.532068
 30
0.0
 10
1107.742347
 20
1181.738490
 30
0.0
  0
SPLINE
  5
334
100
AcDbEntity
  8
Vrstva_1
 62
7
100
AcDbSpline
 70
8
 71
3
 72
8
 73
4
 74
0
 40
0
 40
0
 40
0
 40
0
 40
1
 40
1
 40
1
 40
1
 10
1107.742347
 20
1181.738490
 30
0.0
 10
1102.456399
 20
1186.999480
 30
0.0
 10
1104.148158
 20
1232.300519
 30
0.0
 10
1107.742347
 20
1236.383798
 30
0.0
  0
LWPOLYLINE
  5
335
100
AcDbEntity
  8
Vrstva_1
 62
7
100
AcDbPolyline
 90
2
 70
0
 10
1133.558542
 20
1226.231408
 30
0.0
 10
1135.435847
 20
1226.209322
 30
0.0
  0
SPLINE
  5
336
100
AcDbEntity
  8
Vrstva_1
 62
7
100
AcDbSpline
 70
8
 71
3
 72
8
 73
4
 74
0
 40
0
 40
0
 40
0
 40
0
 40
1
 40
1
 40
1
 40
1
 10
1159.651676
 20
1208.435496
 30
0.0
 10
1159.582936
 20
1208.472062
 30
0.0
 10
1159.477600
 20
1208.566173
 30
0.0
 10
1159.417619
 20
1208.645826
 30
0.0
  0
SPLINE
  5
337
100
AcDbEntity
  8
Vrstva_1
 62
7
100
AcDbSpline
 70
8
 71
3
 72
8
 73
4
 74
0
 40
0
 40
0
 40
0
 40
0
 40
1
 40
1
 40
1
 40
1
 10
1159.417619
 20
1208.645826
 30
0.0
 10
1159.319200
 20
1208.776220
 30
0.0
 10
1159.306898
 20
1208.872314
 30
0.0
 10
1159.290967
 20
1209.638661
 30
0.0
  0
SPLINE
  5
338
100
AcDbEntity
  8
Vrstva_1
 62
7
100
AcDbSpline
 70
8
 71
3
 72
8
 73
4
 74
0
 40
0
 40
0
 40
0
 40
0
 40
1
 40
1
 40
1
 40
1
 10
1159.290967
 20
1209.638661
 30
0.0
 10
1159.281329
 20
1210.105414
 30
0.0
 10
1159.289227
 20
1210.591442
 30
0.0
 10
1159.308542
 20
1210.718689
 30
0.0
  0
SPLINE
  5
339
100
AcDbEntity
  8
Vrstva_1
 62
7
100
AcDbSpline
 70
8
 71
3
 72
8
 73
4
 74
0
 40
0
 40
0
 40
0
 40
0
 40
1
 40
1
 40
1
 40
1
 10
1159.308542
 20
1210.718689
 30
0.0
 10
1159.385191
 20
1211.221244
 30
0.0
 10
1159.901777
 20
1211.458220
 30
0.0
 10
1160.265223
 20
1211.157521
 30
0.0
  0
SPLINE
  5
33a
100
AcDbEntity
  8
Vrstva_1
 62
7
100
AcDbSpline
 70
8
 71
3
 72
8
 73
4
 74
0
 40
0
 40
0
 40
0
 40
0
 40
1
 40
1
 40
1
 40
1
 10
1160.265223
 20
1211.157521
 30
0.0
 10
1160.488310
 20
1210.972702
 30
0.0
 10
1160.530234
 20
1210.763108
 30
0.0
 10
1160.530234
 20
1209.831218
 30
0.0
  0
SPLINE
  5
33b
100
AcDbEntity
  8
Vrstva_1
 62
7
100
AcDbSpline
 70
8
 71
3
 72
8
 73
4
 74
0
 40
0
 40
0
 40
0
 40
0
 40
1
 40
1
 40
1
 40
1
 10
1160.530234
 20
1209.831218
 30
0.0
 10
1160.530234
 20
1208.934280
 30
0.0
 10
1160.490124
 20
1208.705722
 30
0.0
 10
1160.301960
 20
1208.531959
 30
0.0
  0
SPLINE
  5
33c
100
AcDbEntity
  8
Vrstva_1
 62
7
100
AcDbSpline
 70
8
 71
3
 72
8
 73
4
 74
0
 40
0
 40
0
 40
0
 40
0
 40
1
 40
1
 40
1
 40
1
 10
1160.301960
 20
1208.531959
 30
0.0
 10
1160.151611
 20
1208.392777
 30
0.0
 10
1159.824274
 20
1208.344588
 30
0.0
 10
1159.651616
 20
1208.435581
 30
0.0
  0
LWPOLYLINE
  5
33d
100
AcDbEntity
  8
Vrstva_1
 62
7
100
AcDbPolyline
 90
1
 70
1
 10
1107.742347
 20
1236.383798
 30
0.0
  0
SPLINE
  5
33e
100
AcDbEntity
  8
Vrstva_1
 62
7
100
AcDbSpline
 70
8
 71
3
 72
8
 73
4
 74
0
 40
0
 40
0
 40
0
 40
0
 40
1
 40
1
 40
1
 40
1
 10
1153.893371
 20
1210.776062
 30
0.0
 10
1153.695399
 20
1210.854582
 30
0.0
 10
1153.561105
 20
1211.078292
 30
0.0
 10
1153.561105
 20
1211.329584
 30
0.0
  0
SPLINE
  5
33f
100
AcDbEntity
  8
Vrstva_1
 62
7
100
AcDbSpline
 70
8
 71
3
 72
8
 73
4
 74
0
 40
0
 40
0
 40
0
 40
0
 40
1
 40
1
 40
1
 40
1
 10
1153.561105
 20
1211.329584
 30
0.0
 10
1153.561105
 20
1211.559190
 30
0.0
 10
1153.569042
 20
1211.569395
 30
0.0
 10
1154.276286
 20
1212.272926
 30
0.0
  0
SPLINE
  5
340
100
AcDbEntity
  8
Vrstva_1
 62
7
100
AcDbSpline
 70
8
 71
3
 72
8
 73
4
 74
0
 40
0
 40
0
 40
0
 40
0
 40
1
 40
1
 40
1
 40
1
 10
1154.276286
 20
1212.272926
 30
0.0
 10
1154.669638
 20
1212.664192
 30
0.0
 10
1155.054677
 20
1213.016963
 30
0.0
 10
1155.131924
 20
1213.056847
 30
0.0
  0
SPLINE
  5
341
100
AcDbEntity
  8
Vrstva_1
 62
7
100
AcDbSpline
 70
8
 71
3
 72
8
 73
4
 74
0
 40
0
 40
0
 40
0
 40
0
 40
1
 40
1
 40
1
 40
1
 10
1155.131924
 20
1213.056847
 30
0.0
 10
1155.487697
 20
1213.240532
 30
0.0
 10
1155.931061
 20
1213.019996
 30
0.0
 10
1155.961832
 20
1212.643555
 30
0.0
  0
SPLINE
  5
342
100
AcDbEntity
  8
Vrstva_1
 62
7
100
AcDbSpline
 70
8
 71
3
 72
8
 73
4
 74
0
 40
0
 40
0
 40
0
 40
0
 40
1
 40
1
 40
1
 40
1
 10
1155.961832
 20
1212.643555
 30
0.0
 10
1155.985926
 20
1212.346456
 30
0.0
 10
1155.942839
 20
1212.283102
 30
0.0
 10
1155.238535
 20
1211.582406
 30
0.0
  0
SPLINE
  5
343
100
AcDbEntity
  8
Vrstva_1
 62
7
100
AcDbSpline
 70
8
 71
3
 72
8
 73
4
 74
0
 40
0
 40
0
 40
0
 40
0
 40
1
 40
1
 40
1
 40
1
 10
1155.238535
 20
1211.582406
 30
0.0
 10
1154.845182
 20
1211.191083
 30
0.0
 10
1154.460147
 20
1210.838340
 30
0.0
 10
1154.382900
 20
1210.798428
 30
0.0
  0
SPLINE
  5
344
100
AcDbEntity
  8
Vrstva_1
 62
7
100
AcDbSpline
 70
8
 71
3
 72
8
 73
4
 74
0
 40
0
 40
0
 40
0
 40
0
 40
1
 40
1
 40
1
 40
1
 10
1154.382900
 20
1210.798428
 30
0.0
 10
1154.226824
 20
1210.717924
 30
0.0
 10
1154.059172
 20
1210.709703
 30
0.0
 10
1153.893371
 20
1210.778585
 30
0.0
  0
LWPOLYLINE
  5
345
100
AcDbEntity
  8
Vrstva_1
 62
7
100
AcDbPolyline
 90
1
 70
1
 10
1159.651616
 20
1208.435581
 30
0.0
  0
SPLINE
  5
346
100
AcDbEntity
  8
Vrstva_1
 62
7
100
AcDbSpline
 70
8
 71
3
 72
8
 73
4
 74
0
 40
0
 40
0
 40
0
 40
0
 40
1
 40
1
 40
1
 40
1
 10
1165.446137
 20
1210.775297
 30
0.0
 10
1165.388962
 20
1210.795140
 30
0.0
 10
1164.996871
 20
1211.161688
 30
0.0
 10
1164.574920
 20
1211.581357
 30
0.0
  0
SPLINE
  5
347
100
AcDbEntity
  8
Vrstva_1
 62
7
100
AcDbSpline
 70
8
 71
3
 72
8
 73
4
 74
0
 40
0
 40
0
 40
0
 40
0
 40
1
 40
1
 40
1
 40
1
 10
1164.574920
 20
1211.581357
 30
0.0
 10
1163.905722
 20
1212.246932
 30
0.0
 10
1163.807723
 20
1212.365448
 30
0.0
 10
1163.807723
 20
1212.509278
 30
0.0
  0
SPLINE
  5
348
100
AcDbEntity
  8
Vrstva_1
 62
7
100
AcDbSpline
 70
8
 71
3
 72
8
 73
4
 74
0
 40
0
 40
0
 40
0
 40
0
 40
1
 40
1
 40
1
 40
1
 10
1163.807723
 20
1212.509278
 30
0.0
 10
1163.807723
 20
1212.854850
 30
0.0
 10
1164.079395
 20
1213.129357
 30
0.0
 10
1164.421492
 20
1213.129357
 30
0.0
  0
SPLINE
  5
349
100
AcDbEntity
  8
Vrstva_1
 62
7
100
AcDbSpline
 70
8
 71
3
 72
8
 73
4
 74
0
 40
0
 40
0
 40
0
 40
0
 40
1
 40
1
 40
1
 40
1
 10
1164.421492
 20
1213.129357
 30
0.0
 10
1164.630717
 20
1213.129357
 30
0.0
 10
1164.879953
 20
1212.935751
 30
0.0
 10
1165.585247
 20
1212.224085
 30
0.0
  0
SPLINE
  5
34a
100
AcDbEntity
  8
Vrstva_1
 62
7
100
AcDbSpline
 70
8
 71
3
 72
8
 73
4
 74
0
 40
0
 40
0
 40
0
 40
0
 40
1
 40
1
 40
1
 40
1
 10
1165.585247
 20
1212.224085
 30
0.0
 10
1166.067766
 20
1211.737433
 30
0.0
 10
1166.199843
 20
1211.573051
 30
0.0
 10
1166.228357
 20
1211.423609
 30
0.0
  0
SPLINE
  5
34b
100
AcDbEntity
  8
Vrstva_1
 62
7
100
AcDbSpline
 70
8
 71
3
 72
8
 73
4
 74
0
 40
0
 40
0
 40
0
 40
0
 40
1
 40
1
 40
1
 40
1
 10
1166.228357
 20
1211.423609
 30
0.0
 10
1166.315267
 20
1210.968053
 30
0.0
 10
1165.870840
 20
1210.599719
 30
0.0
 10
1165.446137
 20
1210.775297
 30
0.0
  0
LWPOLYLINE
  5
34c
100
AcDbEntity
  8
Vrstva_1
 62
7
100
AcDbPolyline
 90
2
 70
0
 10
1153.893371
 20
1210.778585
 30
0.0
 10
1153.893371
 20
1210.776062
 30
0.0
  0
SPLINE
  5
34d
100
AcDbEntity
  8
Vrstva_1
 62
7
100
AcDbSpline
 70
8
 71
3
 72
8
 73
4
 74
0
 40
0
 40
0
 40
0
 40
0
 40
1
 40
1
 40
1
 40
1
 10
1159.178539
 20
1212.705209
 30
0.0
 10
1157.588090
 20
1212.975351
 30
0.0
 10
1156.184014
 20
1214.215083
 30
0.0
 10
1155.685865
 20
1215.788595
 30
0.0
  0
SPLINE
  5
34e
100
AcDbEntity
  8
Vrstva_1
 62
7
100
AcDbSpline
 70
8
 71
3
 72
8
 73
4
 74
0
 40
0
 40
0
 40
0
 40
0
 40
1
 40
1
 40
1
 40
1
 10
1155.685865
 20
1215.788595
 30
0.0
 10
1155.580643
 20
1216.120985
 30
0.0
 10
1155.564428
 20
1216.277940
 30
0.0
 10
1155.564428
 20
1216.964774
 30
0.0
  0
SPLINE
  5
34f
100
AcDbEntity
  8
Vrstva_1
 62
7
100
AcDbSpline
 70
8
 71
3
 72
8
 73
4
 74
0
 40
0
 40
0
 40
0
 40
0
 40
1
 40
1
 40
1
 40
1
 10
1155.564428
 20
1216.964774
 30
0.0
 10
1155.564428
 20
1217.654784
 30
0.0
 10
1155.580586
 20
1217.807089
 30
0.0
 10
1155.686998
 20
1218.140954
 30
0.0
  0
SPLINE
  5
350
100
AcDbEntity
  8
Vrstva_1
 62
7
100
AcDbSpline
 70
8
 71
3
 72
8
 73
4
 74
0
 40
0
 40
0
 40
0
 40
0
 40
1
 40
1
 40
1
 40
1
 10
1155.686998
 20
1218.140954
 30
0.0
 10
1155.934803
 20
1218.916343
 30
0.0
 10
1156.331396
 20
1219.536422
 30
0.0
 10
1156.941397
 20
1220.102189
 30
0.0
  0
SPLINE
  5
351
100
AcDbEntity
  8
Vrstva_1
 62
7
100
AcDbSpline
 70
8
 71
3
 72
8
 73
4
 74
0
 40
0
 40
0
 40
0
 40
0
 40
1
 40
1
 40
1
 40
1
 10
1156.941397
 20
1220.102189
 30
0.0
 10
1157.857991
 20
1220.952327
 30
0.0
 10
1158.823245
 20
1221.300422
 30
0.0
 10
1160.110945
 20
1221.245345
 30
0.0
  0
SPLINE
  5
352
100
AcDbEntity
  8
Vrstva_1
 62
7
100
AcDbSpline
 70
8
 71
3
 72
8
 73
4
 74
0
 40
0
 40
0
 40
0
 40
0
 40
1
 40
1
 40
1
 40
1
 10
1160.110945
 20
1221.245345
 30
0.0
 10
1160.880112
 20
1221.212463
 30
0.0
 10
1161.267492
 20
1221.110415
 30
0.0
 10
1161.959616
 20
1220.756907
 30
0.0
  0
SPLINE
  5
353
100
AcDbEntity
  8
Vrstva_1
 62
7
100
AcDbSpline
 70
8
 71
3
 72
8
 73
4
 74
0
 40
0
 40
0
 40
0
 40
0
 40
1
 40
1
 40
1
 40
1
 10
1161.959616
 20
1220.756907
 30
0.0
 10
1162.327848
 20
1220.568970
 30
0.0
 10
1162.532061
 20
1220.416551
 30
0.0
 10
1162.929102
 20
1220.033080
 30
0.0
  0
SPLINE
  5
354
100
AcDbEntity
  8
Vrstva_1
 62
7
100
AcDbSpline
 70
8
 71
3
 72
8
 73
4
 74
0
 40
0
 40
0
 40
0
 40
0
 40
1
 40
1
 40
1
 40
1
 10
1162.929102
 20
1220.033080
 30
0.0
 10
1163.650320
 20
1219.336494
 30
0.0
 10
1164.024927
 20
1218.688126
 30
0.0
 10
1164.201651
 20
1217.830645
 30
0.0
  0
SPLINE
  5
355
100
AcDbEntity
  8
Vrstva_1
 62
7
100
AcDbSpline
 70
8
 71
3
 72
8
 73
4
 74
0
 40
0
 40
0
 40
0
 40
0
 40
1
 40
1
 40
1
 40
1
 10
1164.201651
 20
1217.830645
 30
0.0
 10
1164.319629
 20
1217.258189
 30
0.0
 10
1164.280227
 20
1216.273546
 30
0.0
 10
1164.118964
 20
1215.763026
 30
0.0
  0
SPLINE
  5
356
100
AcDbEntity
  8
Vrstva_1
 62
7
100
AcDbSpline
 70
8
 71
3
 72
8
 73
4
 74
0
 40
0
 40
0
 40
0
 40
0
 40
1
 40
1
 40
1
 40
1
 10
1164.118964
 20
1215.763026
 30
0.0
 10
1163.920199
 20
1215.133962
 30
0.0
 10
1163.565650
 20
1214.542173
 30
0.0
 10
1163.089639
 20
1214.045004
 30
0.0
  0
SPLINE
  5
357
100
AcDbEntity
  8
Vrstva_1
 62
7
100
AcDbSpline
 70
8
 71
3
 72
8
 73
4
 74
0
 40
0
 40
0
 40
0
 40
0
 40
1
 40
1
 40
1
 40
1
 10
1163.089639
 20
1214.045004
 30
0.0
 10
1162.178207
 20
1213.093102
 30
0.0
 10
1161.159846
 20
1212.660138
 30
0.0
 10
1159.869907
 20
1212.676154
 30
0.0
  0
SPLINE
  5
358
100
AcDbEntity
  8
Vrstva_1
 62
7
100
AcDbSpline
 70
8
 71
3
 72
8
 73
4
 74
0
 40
0
 40
0
 40
0
 40
0
 40
1
 40
1
 40
1
 40
1
 10
1159.869907
 20
1212.676154
 30
0.0
 10
1159.561177
 20
1212.678507
 30
0.0
 10
1159.250057
 20
1212.693162
 30
0.0
 10
1159.178539
 20
1212.704784
 30
0.0
  0
LWPOLYLINE
  5
359
100
AcDbEntity
  8
Vrstva_1
 62
7
100
AcDbPolyline
 90
1
 70
1
 10
1165.446137
 20
1210.775297
 30
0.0
  0
SPLINE
  5
35a
100
AcDbEntity
  8
Vrstva_1
 62
7
100
AcDbSpline
 70
8
 71
3
 72
8
 73
4
 74
0
 40
0
 40
0
 40
0
 40
0
 40
1
 40
1
 40
1
 40
1
 10
1160.647645
 20
1213.920223
 30
0.0
 10
1161.157454
 20
1214.026239
 30
0.0
 10
1161.752950
 20
1214.350097
 30
0.0
 10
1162.154662
 20
1214.739209
 30
0.0
  0
SPLINE
  5
35b
100
AcDbEntity
  8
Vrstva_1
 62
7
100
AcDbSpline
 70
8
 71
3
 72
8
 73
4
 74
0
 40
0
 40
0
 40
0
 40
0
 40
1
 40
1
 40
1
 40
1
 10
1162.154662
 20
1214.739209
 30
0.0
 10
1163.388892
 20
1215.934976
 30
0.0
 10
1163.388892
 20
1217.994601
 30
0.0
 10
1162.154662
 20
1219.190340
 30
0.0
  0
SPLINE
  5
35c
100
AcDbEntity
  8
Vrstva_1
 62
7
100
AcDbSpline
 70
8
 71
3
 72
8
 73
4
 74
0
 40
0
 40
0
 40
0
 40
0
 40
1
 40
1
 40
1
 40
1
 10
1162.154662
 20
1219.190340
 30
0.0
 10
1160.645208
 20
1220.652620
 30
0.0
 10
1158.065470
 20
1220.270113
 30
0.0
 10
1157.097260
 20
1218.440406
 30
0.0
  0
SPLINE
  5
35d
100
AcDbEntity
  8
Vrstva_1
 62
7
100
AcDbSpline
 70
8
 71
3
 72
8
 73
4
 74
0
 40
0
 40
0
 40
0
 40
0
 40
1
 40
1
 40
1
 40
1
 10
1157.097260
 20
1218.440406
 30
0.0
 10
1156.284196
 20
1216.903886
 30
0.0
 10
1156.872955
 20
1214.986674
 30
0.0
 10
1158.397280
 20
1214.206948
 30
0.0
  0
SPLINE
  5
35e
100
AcDbEntity
  8
Vrstva_1
 62
7
100
AcDbSpline
 70
8
 71
3
 72
8
 73
4
 74
0
 40
0
 40
0
 40
0
 40
0
 40
1
 40
1
 40
1
 40
1
 10
1158.397280
 20
1214.206948
 30
0.0
 10
1158.628955
 20
1214.088176
 30
0.0
 10
1158.963838
 20
1213.960617
 30
0.0
 10
1159.141533
 20
1213.922292
 30
0.0
  0
SPLINE
  5
35f
100
AcDbEntity
  8
Vrstva_1
 62
7
100
AcDbSpline
 70
8
 71
3
 72
8
 73
4
 74
0
 40
0
 40
0
 40
0
 40
0
 40
1
 40
1
 40
1
 40
1
 10
1159.141533
 20
1213.922292
 30
0.0
 10
1159.569964
 20
1213.831017
 30
0.0
 10
1160.214588
 20
1213.829600
 30
0.0
 10
1160.647645
 20
1213.919968
 30
0.0
  0
LWPOLYLINE
  5
360
100
AcDbEntity
  8
Vrstva_1
 62
7
100
AcDbPolyline
 90
2
 70
0
 10
1159.178539
 20
1212.704784
 30
0.0
 10
1159.178539
 20
1212.705209
 30
0.0
  0
SPLINE
  5
361
100
AcDbEntity
  8
Vrstva_1
 62
7
100
AcDbSpline
 70
8
 71
3
 72
8
 73
4
 74
0
 40
0
 40
0
 40
0
 40
0
 40
1
 40
1
 40
1
 40
1
 10
1151.607739
 20
1216.405726
 30
0.0
 10
1151.340517
 20
1216.481978
 30
0.0
 10
1151.194499
 20
1216.679552
 30
0.0
 10
1151.194499
 20
1216.964774
 30
0.0
  0
SPLINE
  5
362
100
AcDbEntity
  8
Vrstva_1
 62
7
100
AcDbSpline
 70
8
 71
3
 72
8
 73
4
 74
0
 40
0
 40
0
 40
0
 40
0
 40
1
 40
1
 40
1
 40
1
 10
1151.194499
 20
1216.964774
 30
0.0
 10
1151.194499
 20
1217.259351
 30
0.0
 10
1151.341249
 20
1217.447486
 30
0.0
 10
1151.632749
 20
1217.527111
 30
0.0
  0
SPLINE
  5
363
100
AcDbEntity
  8
Vrstva_1
 62
7
100
AcDbSpline
 70
8
 71
3
 72
8
 73
4
 74
0
 40
0
 40
0
 40
0
 40
0
 40
1
 40
1
 40
1
 40
1
 10
1151.632749
 20
1217.527111
 30
0.0
 10
1151.877067
 20
1217.594293
 30
0.0
 10
1153.429036
 20
1217.592875
 30
0.0
 10
1153.674794
 20
1217.525439
 30
0.0
  0
SPLINE
  5
364
100
AcDbEntity
  8
Vrstva_1
 62
7
100
AcDbSpline
 70
8
 71
3
 72
8
 73
4
 74
0
 40
0
 40
0
 40
0
 40
0
 40
1
 40
1
 40
1
 40
1
 10
1153.674794
 20
1217.525439
 30
0.0
 10
1154.276127
 20
1217.361596
 30
0.0
 10
1154.276127
 20
1216.568207
 30
0.0
 10
1153.674794
 20
1216.403968
 30
0.0
  0
SPLINE
  5
365
100
AcDbEntity
  8
Vrstva_1
 62
7
100
AcDbSpline
 70
8
 71
3
 72
8
 73
4
 74
0
 40
0
 40
0
 40
0
 40
0
 40
1
 40
1
 40
1
 40
1
 10
1153.674794
 20
1216.403968
 30
0.0
 10
1153.442892
 20
1216.340755
 30
0.0
 10
1151.830698
 20
1216.342173
 30
0.0
 10
1151.607739
 20
1216.405641
 30
0.0
  0
LWPOLYLINE
  5
366
100
AcDbEntity
  8
Vrstva_1
 62
7
100
AcDbPolyline
 90
2
 70
0
 10
1160.647645
 20
1213.919968
 30
0.0
 10
1160.647645
 20
1213.920223
 30
0.0
  0
SPLINE
  5
367
100
AcDbEntity
  8
Vrstva_1
 62
7
100
AcDbSpline
 70
8
 71
3
 72
8
 73
4
 74
0
 40
0
 40
0
 40
0
 40
0
 40
1
 40
1
 40
1
 40
1
 10
1166.113625
 20
1216.407398
 30
0.0
 10
1165.535320
 20
1216.571524
 30
0.0
 10
1165.553088
 20
1217.365763
 30
0.0
 10
1166.138570
 20
1217.525666
 30
0.0
  0
SPLINE
  5
368
100
AcDbEntity
  8
Vrstva_1
 62
7
100
AcDbSpline
 70
8
 71
3
 72
8
 73
4
 74
0
 40
0
 40
0
 40
0
 40
0
 40
1
 40
1
 40
1
 40
1
 10
1166.138570
 20
1217.525666
 30
0.0
 10
1166.384305
 20
1217.593130
 30
0.0
 10
1167.936279
 20
1217.593981
 30
0.0
 10
1168.180609
 20
1217.527310
 30
0.0
  0
SPLINE
  5
369
100
AcDbEntity
  8
Vrstva_1
 62
7
100
AcDbSpline
 70
8
 71
3
 72
8
 73
4
 74
0
 40
0
 40
0
 40
0
 40
0
 40
1
 40
1
 40
1
 40
1
 10
1168.180609
 20
1217.527310
 30
0.0
 10
1168.472104
 20
1217.447940
 30
0.0
 10
1168.618862
 20
1217.259436
 30
0.0
 10
1168.618862
 20
1216.964973
 30
0.0
  0
SPLINE
  5
36a
100
AcDbEntity
  8
Vrstva_1
 62
7
100
AcDbSpline
 70
8
 71
3
 72
8
 73
4
 74
0
 40
0
 40
0
 40
0
 40
0
 40
1
 40
1
 40
1
 40
1
 10
1168.618862
 20
1216.964973
 30
0.0
 10
1168.618862
 20
1216.670453
 30
0.0
 10
1168.472112
 20
1216.482289
 30
0.0
 10
1168.180609
 20
1216.402692
 30
0.0
  0
SPLINE
  5
36b
100
AcDbEntity
  8
Vrstva_1
 62
7
100
AcDbSpline
 70
8
 71
3
 72
8
 73
4
 74
0
 40
0
 40
0
 40
0
 40
0
 40
1
 40
1
 40
1
 40
1
 10
1168.180609
 20
1216.402692
 30
0.0
 10
1167.950180
 20
1216.339763
 30
0.0
 10
1166.338316
 20
1216.343448
 30
0.0
 10
1166.113528
 20
1216.405045
 30
0.0
  0
LWPOLYLINE
  5
36c
100
AcDbEntity
  8
Vrstva_1
 62
7
100
AcDbPolyline
 90
1
 70
1
 10
1151.607739
 20
1216.405641
 30
0.0
  0
SPLINE
  5
36d
100
AcDbEntity
  8
Vrstva_1
 62
7
100
AcDbSpline
 70
8
 71
3
 72
8
 73
4
 74
0
 40
0
 40
0
 40
0
 40
0
 40
1
 40
1
 40
1
 40
1
 10
1155.095496
 20
1220.896683
 30
0.0
 10
1155.009663
 20
1220.949691
 30
0.0
 10
1154.629327
 20
1221.302236
 30
0.0
 10
1154.250281
 20
1221.680604
 30
0.0
  0
SPLINE
  5
36e
100
AcDbEntity
  8
Vrstva_1
 62
7
100
AcDbSpline
 70
8
 71
3
 72
8
 73
4
 74
0
 40
0
 40
0
 40
0
 40
0
 40
1
 40
1
 40
1
 40
1
 10
1154.250281
 20
1221.680604
 30
0.0
 10
1153.567761
 20
1222.361826
 30
0.0
 10
1153.561105
 20
1222.370756
 30
0.0
 10
1153.561105
 20
1222.603225
 30
0.0
  0
SPLINE
  5
36f
100
AcDbEntity
  8
Vrstva_1
 62
7
100
AcDbSpline
 70
8
 71
3
 72
8
 73
4
 74
0
 40
0
 40
0
 40
0
 40
0
 40
1
 40
1
 40
1
 40
1
 10
1153.561105
 20
1222.603225
 30
0.0
 10
1153.561105
 20
1223.026919
 30
0.0
 10
1153.956719
 20
1223.309278
 30
0.0
 10
1154.334660
 20
1223.155385
 30
0.0
  0
SPLINE
  5
370
100
AcDbEntity
  8
Vrstva_1
 62
7
100
AcDbSpline
 70
8
 71
3
 72
8
 73
4
 74
0
 40
0
 40
0
 40
0
 40
0
 40
1
 40
1
 40
1
 40
1
 10
1154.334660
 20
1223.155385
 30
0.0
 10
1154.415901
 20
1223.122504
 30
0.0
 10
1154.810710
 20
1222.768683
 30
0.0
 10
1155.212065
 20
1222.369650
 30
0.0
  0
SPLINE
  5
371
100
AcDbEntity
  8
Vrstva_1
 62
7
100
AcDbSpline
 70
8
 71
3
 72
8
 73
4
 74
0
 40
0
 40
0
 40
0
 40
0
 40
1
 40
1
 40
1
 40
1
 10
1155.212065
 20
1222.369650
 30
0.0
 10
1156.008731
 20
1221.577480
 30
0.0
 10
1156.080175
 20
1221.455789
 30
0.0
 10
1155.930463
 20
1221.145593
 30
0.0
  0
SPLINE
  5
372
100
AcDbEntity
  8
Vrstva_1
 62
7
100
AcDbSpline
 70
8
 71
3
 72
8
 73
4
 74
0
 40
0
 40
0
 40
0
 40
0
 40
1
 40
1
 40
1
 40
1
 10
1155.930463
 20
1221.145593
 30
0.0
 10
1155.774813
 20
1220.823124
 30
0.0
 10
1155.397726
 20
1220.710730
 30
0.0
 10
1155.095496
 20
1220.896711
 30
0.0
  0
LWPOLYLINE
  5
373
100
AcDbEntity
  8
Vrstva_1
 62
7
100
AcDbPolyline
 90
2
 70
0
 10
1166.113528
 20
1216.405045
 30
0.0
 10
1166.113625
 20
1216.407398
 30
0.0
  0
SPLINE
  5
374
100
AcDbEntity
  8
Vrstva_1
 62
7
100
AcDbSpline
 70
8
 71
3
 72
8
 73
4
 74
0
 40
0
 40
0
 40
0
 40
0
 40
1
 40
1
 40
1
 40
1
 10
1164.132355
 20
1220.868053
 30
0.0
 10
1163.911961
 20
1220.988526
 30
0.0
 10
1163.829754
 20
1221.177001
 30
0.0
 10
1163.851640
 20
1221.512283
 30
0.0
  0
SPLINE
  5
375
100
AcDbEntity
  8
Vrstva_1
 62
7
100
AcDbSpline
 70
8
 71
3
 72
8
 73
4
 74
0
 40
0
 40
0
 40
0
 40
0
 40
1
 40
1
 40
1
 40
1
 10
1163.851640
 20
1221.512283
 30
0.0
 10
1163.861278
 20
1221.661385
 30
0.0
 10
1165.248465
 20
1223.061587
 30
0.0
 10
1165.478783
 20
1223.155357
 30
0.0
  0
SPLINE
  5
376
100
AcDbEntity
  8
Vrstva_1
 62
7
100
AcDbSpline
 70
8
 71
3
 72
8
 73
4
 74
0
 40
0
 40
0
 40
0
 40
0
 40
1
 40
1
 40
1
 40
1
 10
1165.478783
 20
1223.155357
 30
0.0
 10
1165.856795
 20
1223.308995
 30
0.0
 10
1166.252335
 20
1223.026664
 30
0.0
 10
1166.252335
 20
1222.603140
 30
0.0
  0
SPLINE
  5
377
100
AcDbEntity
  8
Vrstva_1
 62
7
100
AcDbSpline
 70
8
 71
3
 72
8
 73
4
 74
0
 40
0
 40
0
 40
0
 40
0
 40
1
 40
1
 40
1
 40
1
 10
1166.252335
 20
1222.603140
 30
0.0
 10
1166.252335
 20
1222.369565
 30
0.0
 10
1166.247233
 20
1222.363045
 30
0.0
 10
1165.537157
 20
1221.656793
 30
0.0
  0
SPLINE
  5
378
100
AcDbEntity
  8
Vrstva_1
 62
7
100
AcDbSpline
 70
8
 71
3
 72
8
 73
4
 74
0
 40
0
 40
0
 40
0
 40
0
 40
1
 40
1
 40
1
 40
1
 10
1165.537157
 20
1221.656793
 30
0.0
 10
1165.143807
 20
1221.265499
 30
0.0
 10
1164.758772
 20
1220.912727
 30
0.0
 10
1164.681525
 20
1220.872815
 30
0.0
  0
SPLINE
  5
379
100
AcDbEntity
  8
Vrstva_1
 62
7
100
AcDbSpline
 70
8
 71
3
 72
8
 73
4
 74
0
 40
0
 40
0
 40
0
 40
0
 40
1
 40
1
 40
1
 40
1
 10
1164.681525
 20
1220.872815
 30
0.0
 10
1164.509915
 20
1220.783808
 30
0.0
 10
1164.289434
 20
1220.782390
 30
0.0
 10
1164.132349
 20
1220.870463
 30
0.0
  0
LWPOLYLINE
  5
37a
100
AcDbEntity
  8
Vrstva_1
 62
7
100
AcDbPolyline
 90
1
 70
1
 10
1155.095496
 20
1220.896711
 30
0.0
  0
SPLINE
  5
37b
100
AcDbEntity
  8
Vrstva_1
 62
7
100
AcDbSpline
 70
8
 71
3
 72
8
 73
4
 74
0
 40
0
 40
0
 40
0
 40
0
 40
1
 40
1
 40
1
 40
1
 10
1159.548143
 20
1222.772453
 30
0.0
 10
1159.460949
 20
1222.844737
 30
0.0
 10
1159.365649
 20
1222.988170
 30
0.0
 10
1159.336395
 20
1223.091946
 30
0.0
  0
SPLINE
  5
37c
100
AcDbEntity
  8
Vrstva_1
 62
7
100
AcDbSpline
 70
8
 71
3
 72
8
 73
4
 74
0
 40
0
 40
0
 40
0
 40
0
 40
1
 40
1
 40
1
 40
1
 10
1159.336395
 20
1223.091946
 30
0.0
 10
1159.268137
 20
1223.333458
 30
0.0
 10
1159.266918
 20
1224.859404
 30
0.0
 10
1159.334813
 20
1225.099584
 30
0.0
  0
SPLINE
  5
37d
100
AcDbEntity
  8
Vrstva_1
 62
7
100
AcDbSpline
 70
8
 71
3
 72
8
 73
4
 74
0
 40
0
 40
0
 40
0
 40
0
 40
1
 40
1
 40
1
 40
1
 10
1159.334813
 20
1225.099584
 30
0.0
 10
1159.415799
 20
1225.386195
 30
0.0
 10
1159.607308
 20
1225.530507
 30
0.0
 10
1159.906748
 20
1225.530507
 30
0.0
  0
SPLINE
  5
37e
100
AcDbEntity
  8
Vrstva_1
 62
7
100
AcDbSpline
 70
8
 71
3
 72
8
 73
4
 74
0
 40
0
 40
0
 40
0
 40
0
 40
1
 40
1
 40
1
 40
1
 10
1159.906748
 20
1225.530507
 30
0.0
 10
1160.206195
 20
1225.530507
 30
0.0
 10
1160.397709
 20
1225.386223
 30
0.0
 10
1160.478686
 20
1225.099584
 30
0.0
  0
SPLINE
  5
37f
100
AcDbEntity
  8
Vrstva_1
 62
7
100
AcDbSpline
 70
8
 71
3
 72
8
 73
4
 74
0
 40
0
 40
0
 40
0
 40
0
 40
1
 40
1
 40
1
 40
1
 10
1160.478686
 20
1225.099584
 30
0.0
 10
1160.546548
 20
1224.859206
 30
0.0
 10
1160.545329
 20
1223.333571
 30
0.0
 10
1160.477102
 20
1223.091946
 30
0.0
  0
SPLINE
  5
380
100
AcDbEntity
  8
Vrstva_1
 62
7
100
AcDbSpline
 70
8
 71
3
 72
8
 73
4
 74
0
 40
0
 40
0
 40
0
 40
0
 40
1
 40
1
 40
1
 40
1
 10
1160.477102
 20
1223.091946
 30
0.0
 10
1160.403940
 20
1222.832859
 30
0.0
 10
1160.161382
 20
1222.641152
 30
0.0
 10
1159.906765
 20
1222.641152
 30
0.0
  0
SPLINE
  5
381
100
AcDbEntity
  8
Vrstva_1
 62
7
100
AcDbSpline
 70
8
 71
3
 72
8
 73
4
 74
0
 40
0
 40
0
 40
0
 40
0
 40
1
 40
1
 40
1
 40
1
 10
1159.906765
 20
1222.641152
 30
0.0
 10
1159.767896
 20
1222.641152
 30
0.0
 10
1159.658195
 20
1222.681121
 30
0.0
 10
1159.548191
 20
1222.772397
 30
0.0
  0
LWPOLYLINE
  5
382
100
AcDbEntity
  8
Vrstva_1
 62
7
100
AcDbPolyline
 90
2
 70
0
 10
1164.132349
 20
1220.870463
 30
0.0
 10
1164.132355
 20
1220.868053
 30
0.0
  0
LWPOLYLINE
  5
383
100
AcDbEntity
  8
Vrstva_1
 62
7
100
AcDbPolyline
 90
1
 70
1
 10
1159.548191
 20
1222.772397
 30
0.0
  0
LWPOLYLINE
  5
384
100
AcDbEntity
  8
Vrstva_1
 62
7
100
AcDbPolyline
 90
2
 70
0
 10
1110.368118
 20
1221.487346
 30
0.0
 10
1122.958815
 20
1210.726649
 30
0.0
  0
SPLINE
  5
385
100
AcDbEntity
  8
Vrstva_1
 62
7
100
AcDbSpline
 70
8
 71
3
 72
8
 73
4
 74
0
 40
0
 40
0
 40
0
 40
0
 40
1
 40
1
 40
1
 40
1
 10
1118.405306
 20
1223.068708
 30
0.0
 10
1118.621977
 20
1222.803648
 30
0.0
 10
1119.771766
 20
1220.035432
 30
0.0
 10
1119.771766
 20
1220.035432
 30
0.0
  0
SPLINE
  5
386
100
AcDbEntity
  8
Vrstva_1
 62
7
100
AcDbSpline
 70
8
 71
3
 72
8
 73
4
 74
0
 40
0
 40
0
 40
0
 40
0
 40
1
 40
1
 40
1
 40
1
 10
1123.166125
 20
1219.024447
 30
0.0
 10
1122.898200
 20
1219.229932
 30
0.0
 10
1119.771766
 20
1220.035432
 30
0.0
 10
1119.771766
 20
1220.035432
 30
0.0
  0
LWPOLYLINE
  5
387
100
AcDbEntity
  8
Vrstva_1
 62
7
100
AcDbPolyline
 90
2
 70
0
 10
1111.159252
 20
1209.813598
 30
0.0
 10
1122.246161
 20
1222.667644
 30
0.0
  0
SPLINE
  5
388
100
AcDbEntity
  8
Vrstva_1
 62
7
100
AcDbSpline
 70
8
 71
3
 72
8
 73
4
 74
0
 40
0
 40
0
 40
0
 40
0
 40
1
 40
1
 40
1
 40
1
 10
1119.420734
 20
1209.716010
 30
0.0
 10
1119.412329
 20
1209.827860
 30
0.0
 10
1120.006284
 20
1213.345632
 30
0.0
 10
1120.006284
 20
1213.345632
 30
0.0
  0
LWPOLYLINE
  5
389
100
AcDbEntity
  8
Vrstva_1
 62
7
100
AcDbPolyline
 90
2
 70
0
 10
1123.460434
 20
1214.349935
 30
0.0
 10
1120.006284
 20
1213.345632
 30
0.0
  0
LWPOLYLINE
  5
38a
100
AcDbEntity
  8
Vrstva_1
 62
7
100
AcDbPolyline
 90
2
 70
0
 10
1110.021757
 20
1213.356183
 30
0.0
 10
1113.660123
 20
1212.841593
 30
0.0
  0
SPLINE
  5
38b
100
AcDbEntity
  8
Vrstva_1
 62
7
100
AcDbSpline
 70
8
 71
3
 72
8
 73
4
 74
0
 40
0
 40
0
 40
0
 40
0
 40
1
 40
1
 40
1
 40
1
 10
1113.830077
 20
1222.950573
 30
0.0
 10
1113.793471
 20
1222.877453
 30
0.0
 10
1113.370705
 20
1218.950739
 30
0.0
 10
1113.370705
 20
1218.950739
 30
0.0
  0
SPLINE
  5
38c
100
AcDbEntity
  8
Vrstva_1
 62
7
100
AcDbSpline
 70
8
 71
3
 72
8
 73
4
 74
0
 40
0
 40
0
 40
0
 40
0
 40
1
 40
1
 40
1
 40
1
 10
1109.770441
 20
1218.019855
 30
0.0
 10
1109.930201
 20
1218.327137
 30
0.0
 10
1113.370705
 20
1218.950739
 30
0.0
 10
1113.370705
 20
1218.950739
 30
0.0
  0
LWPOLYLINE
  5
38d
100
AcDbEntity
  8
Vrstva_1
 62
7
100
AcDbPolyline
 90
2
 70
0
 10
1114.823481
 20
1209.329064
 30
0.0
 10
1113.660123
 20
1212.841593
 30
0.0
  0
ENDSEC
  0
SECTION
  2
OBJECTS
  0
DICTIONARY
  5
C
330
0
100
AcDbDictionary
  3
ACAD_GROUP
350
D
  3
ACAD_MLINESTYLE
350
17
  0
DICTIONARY
  5
D
330
C
100
AcDbDictionary
  0
DICTIONARY
  5
1A
330
C
100
AcDbDictionary
  0
DICTIONARY
  5
17
330
C
100
AcDbDictionary
  3
STANDARD
350
18
  0
DICTIONARY
  5
19
330
C
100
AcDbDictionary
  0
ENDSEC
  0
EOF
