<?xml version="1.0" encoding="UTF-8" standalone="no"?>
<!-- Created with Inkscape (http://www.inkscape.org/) -->

<svg
   xmlns:dc="http://purl.org/dc/elements/1.1/"
   xmlns:cc="http://creativecommons.org/ns#"
   xmlns:rdf="http://www.w3.org/1999/02/22-rdf-syntax-ns#"
   xmlns:svg="http://www.w3.org/2000/svg"
   xmlns="http://www.w3.org/2000/svg"
   xmlns:sodipodi="http://sodipodi.sourceforge.net/DTD/sodipodi-0.dtd"
   xmlns:inkscape="http://www.inkscape.org/namespaces/inkscape"
   width="90"
   height="90"
   viewBox="0 0 23.812501 23.812501"
   version="1.1"
   id="svg8"
   inkscape:version="0.92.4 (5da689c313, 2019-01-14)"
   sodipodi:docname="drawing5.svg">
  <defs
     id="defs2" />
  <sodipodi:namedview
     id="base"
     pagecolor="#ffffff"
     bordercolor="#666666"
     borderopacity="1.0"
     inkscape:pageopacity="0.0"
     inkscape:pageshadow="2"
     inkscape:zoom="1.979899"
     inkscape:cx="211.0703"
     inkscape:cy="-36.432254"
     inkscape:document-units="mm"
     inkscape:current-layer="layer1"
     showgrid="false"
     units="px"
     inkscape:window-width="1920"
     inkscape:window-height="986"
     inkscape:window-x="-11"
     inkscape:window-y="-11"
     inkscape:window-maximized="1" />
  <metadata
     id="metadata5">
    <rdf:RDF>
      <cc:Work
         rdf:about="">
        <dc:format>image/svg+xml</dc:format>
        <dc:type
           rdf:resource="http://purl.org/dc/dcmitype/StillImage" />
        <dc:title></dc:title>
      </cc:Work>
    </rdf:RDF>
  </metadata>
  <g
     inkscape:label="Vrstva 1"
     inkscape:groupmode="layer"
     id="layer1"
     transform="translate(0,-273.18749)">
    <path
       style="fill:#000000;stroke-width:0.06505447"
       d="m 11.412182,296.05342 c -0.10734,-0.0153 -0.42936,-0.0586 -0.7156,-0.0962 -2.5460249,-0.33436 -5.1308578,-1.78061 -6.7944087,-3.80155 -2.4193079,-2.93905 -3.14950183,-6.76309 -1.9824993,-10.38238 0.1222345,-0.37908 0.2222447,-0.73526 0.2222447,-0.79149 0,-0.0562 0.025716,-0.112 0.057143,-0.12393 0.031427,-0.0119 0.1813019,-0.27051 0.3330525,-0.57464 2.5586794,-5.12796 8.7530418,-7.42372 13.9868448,-5.18382 3.426879,1.4666 5.86029,4.47911 6.503505,8.05123 1.095101,6.08167 -2.8888,11.75746 -8.975575,12.78731 -0.551245,0.0933 -2.264083,0.16833 -2.634706,0.11547 z m 1.883944,-0.74539 c 2.4952,-0.28583 4.688361,-1.35532 6.34875,-3.09593 0.234387,-0.24571 0.509981,-0.55827 0.61243,-0.69458 l 0.186271,-0.24782 -0.433529,-0.43689 -0.433529,-0.43687 v -0.76333 -0.76331 l -0.715599,-1.43008 -0.7156,-1.43006 v -0.68121 -0.68122 l -0.402222,-0.27314 -0.40222,-0.27314 -0.719969,0.17513 -0.719968,0.17514 -1.363037,-0.58764 c -0.749669,-0.32319 -1.391285,-0.61588 -1.425813,-0.65041 -0.06286,-0.0628 -0.425801,-2.40033 -0.429424,-2.76564 -0.0016,-0.15959 0.110361,-0.30671 0.631138,-0.82944 l 0.633061,-0.63545 h 1.242179 c 1.419921,0 1.271988,-0.058 1.775285,0.69473 0.14785,0.22109 0.320365,0.41655 0.383368,0.43436 0.063,0.0178 0.502091,0.0956 0.975751,0.17288 l 0.861202,0.14052 0.830215,-0.27396 c 0.456618,-0.15069 0.856312,-0.2979 0.888207,-0.32712 0.05465,-0.0502 -0.472065,-0.83272 -0.848563,-1.26089 -0.18945,-0.21544 -0.128641,-0.23106 -0.837761,0.21522 l -0.327244,0.20594 -0.973847,-0.19668 c -0.535614,-0.10817 -1.201569,-0.27224 -1.479897,-0.3646 l -0.506052,-0.16793 -0.732318,0.17862 -0.732318,0.17859 -0.633023,-0.21088 c -0.638378,-0.21268 -0.826034,-0.32576 -0.826034,-0.49777 0,-0.16786 0.835106,-1.76544 0.94487,-1.80755 0.05865,-0.0225 0.425486,-0.041 0.815182,-0.041 0.597299,0 0.754771,-0.0225 1.003023,-0.14306 0.161967,-0.0787 0.294485,-0.16514 0.294485,-0.19211 0,-0.0269 -0.270788,-0.13565 -0.601753,-0.24152 -1.938877,-0.6202 -3.825717,-0.67617 -5.7741328,-0.17128 -0.2316045,0.0601 -0.4465949,0.12487 -0.477758,0.14414 -0.1608912,0.0995 0.4101128,0.28102 1.3890688,0.44175 1.103568,0.18118 1.301089,0.25914 1.301089,0.51355 0,0.0749 -0.09044,0.40759 -0.200972,0.73937 -0.220635,0.66227 -0.237012,0.67844 -0.904954,0.89313 -0.19679,0.0633 -0.391955,0.14196 -0.4337,0.17491 -0.04174,0.033 -0.30143,0.43921 -0.5770769,0.90278 l -0.5011748,0.84286 -0.9748811,0.58674 -0.974882,0.58677 -1.1050531,0.16075 c -0.607779,0.0884 -1.1316091,0.16075 -1.1640672,0.16075 -0.032458,0 -0.059012,0.13641 -0.059012,0.30313 0,0.27859 0.028967,0.33349 0.3577994,0.67824 0.3491977,0.3661 0.3577995,0.38417 0.3577995,0.75129 v 0.37617 l 0.278944,-0.27376 c 0.2105473,-0.20664 0.3300488,-0.27376 0.4873654,-0.27376 0.2001431,0 0.2226758,0.0284 0.5673078,0.7156 l 0.3588863,0.7156 1.2192274,9.2e-4 c 0.6705756,4.9e-4 1.2577017,0.0254 1.3047245,0.0552 0.04702,0.0299 0.3120188,0.4319 0.5888808,0.8935 l 0.503384,0.83929 0.708348,0.0186 c 0.389589,0.0104 0.746677,0.0504 0.793527,0.0892 0.123364,0.10239 0.106464,0.36892 -0.08596,1.35585 l -0.171233,0.87822 -0.739577,0.74911 -0.739577,0.74911 v 0.56145 0.56145 l -0.715599,0.53403 -0.7155987,0.53404 v 0.88257 c 0,0.72996 -0.018615,0.90316 -0.1076652,1.00154 -0.059215,0.0655 -0.1542854,0.11898 -0.2112656,0.11898 -0.1809657,0 -1.2947062,-0.39419 -1.3699704,-0.48488 -0.039735,-0.0478 -0.2468452,-0.52025 -0.4602377,-1.04971 l -0.3879861,-0.96266 v -1.70223 -1.70223 l -0.7318628,-0.14299 c -0.402525,-0.0787 -0.7840196,-0.15821 -0.8477669,-0.1768 -0.069236,-0.0202 -0.2853214,-0.37188 -0.5367001,-0.87353 l -0.4207923,-0.83966 v -0.65398 -0.654 l 0.2543315,-0.27265 0.2543316,-0.27267 -0.9534858,-0.63526 -0.9534859,-0.63527 -0.1715478,-0.50449 c -0.1768025,-0.51995 -0.1909647,-0.52116 -0.3175539,-0.0272 -0.5188813,2.02492 -0.3664647,4.27057 0.425149,6.264 0.769092,1.93672 2.1552665,3.61949 3.9421941,4.78569 1.8784593,1.22593 4.362451,1.82668 6.527477,1.57866 z m -4.6487598,-2.66121 v -0.71237 l 0.2764811,-0.22723 c 0.1520656,-0.12499 0.4814035,-0.38369 0.7318637,-0.57488 l 0.455381,-0.34763 0.03252,-0.56604 0.03253,-0.56602 0.723541,-0.73265 0.723539,-0.73265 0.105955,-0.55296 c 0.05828,-0.30414 0.105933,-0.57491 0.105905,-0.60175 -2.7e-5,-0.0269 -0.258985,-0.0488 -0.575458,-0.0488 -0.467162,0 -0.593914,-0.0214 -0.673782,-0.11385 -0.0541,-0.0627 -0.311243,-0.47246 -0.571417,-0.91076 L 9.5413867,285.16229 H 8.3419731 c -0.7059305,0 -1.2514239,-0.0278 -1.325826,-0.0676 -0.069531,-0.0372 -0.2457445,-0.30499 -0.391593,-0.59507 l -0.2651788,-0.52741 -0.6775297,0.67522 -0.6775297,0.67522 v 0.44868 c 0,0.40888 0.027088,0.50006 0.305277,1.02768 0.2029909,0.385 0.3501224,0.58933 0.4391178,0.60987 0.073611,0.0169 0.4640627,0.10114 0.8676681,0.18692 0.4036045,0.0859 0.7768547,0.19176 0.8294443,0.2354 0.079902,0.0663 0.096149,0.38546 0.098855,1.94171 l 0.00323,1.86235 0.3140289,0.78065 c 0.2286802,0.56849 0.3559868,0.8025 0.4684074,0.86101 0.302641,0.15755 0.317015,0.12897 0.317015,-0.63008 z M 21.39044,289.69987 c 0.660669,-1.34874 0.915167,-2.24639 1.060297,-3.73976 0.128382,-1.32102 -0.08217,-2.89427 -0.568197,-4.24568 -0.246077,-0.68421 -0.54218,-1.25262 -0.634597,-1.21817 -0.04267,0.0159 -0.508762,0.17112 -1.035752,0.34492 l -0.958163,0.31601 -1.123581,-0.1808 c -0.617969,-0.0995 -1.171784,-0.19464 -1.230701,-0.21154 -0.05891,-0.0168 -0.260209,-0.26392 -0.44732,-0.54893 l -0.340199,-0.51818 h -0.920568 -0.92057 l -0.434587,0.43912 -0.434586,0.43912 0.154967,1.06309 c 0.08523,0.58471 0.164483,1.07186 0.176114,1.08257 0.01163,0.0107 0.51455,0.23288 1.117599,0.4937 l 1.096454,0.47421 0.736024,-0.17951 c 0.616244,-0.15029 0.76071,-0.16645 0.887709,-0.0992 0.291454,0.15416 1.128183,0.72792 1.208818,0.82888 0.05427,0.068 0.08132,0.34674 0.08132,0.83807 v 0.73627 l 0.7156,1.43006 0.715599,1.43007 v 0.69744 0.69744 l 0.273762,0.27895 c 0.150569,0.15341 0.295523,0.27894 0.322114,0.27894 0.02659,0 0.252693,-0.41717 0.502446,-0.92703 z M 4.6505028,282.75934 4.2887161,282.39373 v -0.68737 c 0,-0.57205 0.019103,-0.70463 0.1138454,-0.79031 0.076982,-0.0696 0.5219881,-0.16104 1.3743777,-0.28236 l 1.2605323,-0.17942 0.8499082,-0.50374 0.8499083,-0.50374 0.5600093,-0.93166 0.5600084,-0.93166 0.5305343,-0.18525 c 0.486726,-0.16995 0.536687,-0.20389 0.605023,-0.41095 0.04096,-0.12413 0.06049,-0.23969 0.04338,-0.25679 -0.0171,-0.0171 -0.429426,-0.0984 -0.916268,-0.18061 -0.8400104,-0.14188 -0.908876,-0.16529 -1.3499151,-0.45856 l -0.4647498,-0.30903 -0.2680921,0.11893 c -1.9942372,0.88463 -3.8134035,2.63956 -4.8389234,4.66808 l -0.2597234,0.51373 0.2721853,0.81988 0.2721862,0.81988 0.7444205,0.50647 0.7444197,0.50648 0.020254,-0.3054 c 0.019462,-0.29343 0.00608,-0.31972 -0.3415362,-0.67099 z m 14.4069742,-4.72912 c 0.142354,-0.0942 0.258824,-0.19109 0.258824,-0.21529 0,-0.12866 -1.301398,-1.12447 -1.926172,-1.47385 l -0.406354,-0.22726 -0.65408,0.32825 -0.654081,0.32822 h -0.670291 -0.670292 l -0.209126,0.42409 c -0.115019,0.23324 -0.209125,0.43542 -0.209125,0.44927 0,0.0138 0.129556,0.0694 0.287902,0.12327 0.269932,0.092 0.325767,0.0884 0.8945,-0.0577 0.764439,-0.19626 0.884488,-0.19564 1.495109,0.007 0.512368,0.17065 1.793446,0.46895 2.056596,0.4789 0.08127,0.003 0.264238,-0.0715 0.40659,-0.16568 z"
       id="path865"
       inkscape:connector-curvature="0" />
  </g>
</svg>
