<?xml version="1.0" encoding="UTF-8" standalone="no"?>
<!-- Created with Inkscape (http://www.inkscape.org/) -->

<svg
   xmlns:dc="http://purl.org/dc/elements/1.1/"
   xmlns:cc="http://creativecommons.org/ns#"
   xmlns:rdf="http://www.w3.org/1999/02/22-rdf-syntax-ns#"
   xmlns:svg="http://www.w3.org/2000/svg"
   xmlns="http://www.w3.org/2000/svg"
   xmlns:sodipodi="http://sodipodi.sourceforge.net/DTD/sodipodi-0.dtd"
   xmlns:inkscape="http://www.inkscape.org/namespaces/inkscape"
   width="90"
   height="90"
   viewBox="0 0 23.812501 23.812501"
   version="1.1"
   id="svg8"
   inkscape:version="0.92.4 (5da689c313, 2019-01-14)"
   sodipodi:docname="drawing3.svg">
  <defs
     id="defs2" />
  <sodipodi:namedview
     id="base"
     pagecolor="#ffffff"
     bordercolor="#666666"
     borderopacity="1.0"
     inkscape:pageopacity="0.0"
     inkscape:pageshadow="2"
     inkscape:zoom="1.979899"
     inkscape:cx="158.28983"
     inkscape:cy="-36.432254"
     inkscape:document-units="mm"
     inkscape:current-layer="layer1"
     showgrid="false"
     units="px"
     inkscape:window-width="1920"
     inkscape:window-height="986"
     inkscape:window-x="-11"
     inkscape:window-y="-11"
     inkscape:window-maximized="1" />
  <metadata
     id="metadata5">
    <rdf:RDF>
      <cc:Work
         rdf:about="">
        <dc:format>image/svg+xml</dc:format>
        <dc:type
           rdf:resource="http://purl.org/dc/dcmitype/StillImage" />
        <dc:title></dc:title>
      </cc:Work>
    </rdf:RDF>
  </metadata>
  <g
     inkscape:label="Vrstva 1"
     inkscape:groupmode="layer"
     id="layer1"
     transform="translate(0,-273.18749)">
    <path
       style="fill:#000000;stroke-width:0.06243917"
       d="m 11.759604,295.3258 c -0.08254,-0.0443 -0.208982,-0.15975 -0.280976,-0.25662 -0.118171,-0.15899 -0.132954,-0.27685 -0.152054,-1.21224 -0.01164,-0.56988 -0.0021,-1.16327 0.02121,-1.31866 0.09202,-0.61361 0.71215,-0.90293 1.148451,-0.5358 0.267789,0.22532 0.318117,0.48152 0.318117,1.6194 0,1.0951 -0.04821,1.37418 -0.274048,1.58634 -0.18049,0.16956 -0.573435,0.22873 -0.780703,0.11758 z m -6.912533,-2.85781 c -0.2376668,-0.096 -0.3988686,-0.36918 -0.3988686,-0.67587 0,-0.28008 0.00935,-0.29263 0.8585384,-1.15181 0.4721963,-0.47774 0.9344117,-0.90848 1.0271459,-0.9572 0.4270893,-0.22434 0.9593215,0.0453 0.9962618,0.50462 0.029176,0.36279 -0.022635,0.44011 -0.8682828,1.2957 -0.4721964,0.47774 -0.9344118,0.90849 -1.0271455,0.9572 -0.1873649,0.0984 -0.3886102,0.10779 -0.5876492,0.0274 z m 13.868481,8.4e-4 c -0.06869,-0.0288 -0.539318,-0.47175 -1.045856,-0.98414 -0.803332,-0.81262 -0.920977,-0.95735 -0.920977,-1.13297 0,-0.42194 0.326167,-0.7571 0.7368,-0.7571 0.251153,0 0.550359,0.23673 1.397023,1.10527 0.57924,0.59421 0.737791,0.79494 0.772024,0.97743 0.104346,0.55621 -0.429184,1.00594 -0.939014,0.79151 z m -7.523919,-2.35632 c -1.9092472,-0.33008 -3.5947675,-1.84355 -4.1927716,-3.7648 -0.126311,-0.4058 -0.1457614,-0.59744 -0.1457614,-1.4361 0,-0.84251 0.019049,-1.02843 0.147141,-1.4361 0.2974658,-0.94672 0.7735651,-1.70382 1.5058377,-2.39461 1.1003239,-1.03799 2.2590593,-1.46306 3.8048753,-1.39579 0.923343,0.0402 1.38837,0.16514 2.219226,0.59634 0.442047,0.22942 0.687191,0.41558 1.163819,0.88381 0.865787,0.85054 1.315481,1.64214 1.52763,2.68915 0.141629,0.69897 0.09435,1.9012 -0.09928,2.52453 -0.238616,0.76813 -0.664219,1.49066 -1.235648,2.09768 -1.094126,1.16228 -2.316616,1.69092 -3.865116,1.67138 -0.37062,-0.005 -0.744098,-0.0206 -0.829951,-0.0355 z m 1.763584,-1.48353 c 0.611996,-0.12968 1.326856,-0.52484 1.809091,-1.00001 1.481634,-1.45994 1.481634,-3.97477 0,-5.43471 -1.812018,-1.78548 -4.9088529,-1.31842 -6.0711411,0.91565 -0.9760374,1.87606 -0.2692814,4.21695 1.5606041,5.16896 0.278079,0.14467 0.680125,0.30097 0.893437,0.34732 0.514306,0.11177 1.288147,0.11297 1.808009,0.003 z M 2.1032926,285.59418 C 1.7825107,285.50098 1.60722,285.25976 1.60722,284.91161 c 0,-0.35947 0.1761667,-0.58937 0.5260964,-0.68657 0.2933,-0.0815 2.1563464,-0.08 2.4513607,0.002 0.721871,0.20048 0.721871,1.16881 0,1.3693 -0.2784124,0.0773 -2.2137358,0.0757 -2.4813845,-0.002 z m 17.4135364,-0.002 c -0.694219,-0.20099 -0.672886,-1.17018 0.03006,-1.36541 0.295014,-0.082 2.158061,-0.0834 2.451361,-0.002 0.34993,0.0972 0.526097,0.32711 0.526097,0.68658 0,0.35947 -0.176167,0.58937 -0.526097,0.68657 -0.276612,0.0768 -2.211578,0.0723 -2.481417,-0.005 z M 6.290158,280.11082 c -0.1030249,-0.0645 -0.5596112,-0.49518 -1.0146365,-0.95713 -0.81933,-0.83181 -0.8273191,-0.84269 -0.8273191,-1.12654 0,-0.51729 0.474915,-0.86206 0.9286129,-0.67413 0.097494,0.0403 0.5714695,0.47209 1.0532782,0.95934 0.9563562,0.96717 1.0421186,1.11578 0.8624005,1.49451 -0.1868363,0.39373 -0.6395275,0.53101 -1.002336,0.30395 z m 10.848267,0.035 c -0.264557,-0.14693 -0.363253,-0.37729 -0.336978,-0.78656 0.01164,-0.18141 1.676817,-1.89167 1.9533,-2.00619 0.453779,-0.18796 0.928613,0.15684 0.928613,0.67431 0,0.28475 -0.0061,0.293 -0.858539,1.15543 -0.472196,0.47775 -0.934411,0.90849 -1.027145,0.9572 -0.206004,0.1082 -0.470682,0.11054 -0.659251,0.005 z m -5.503101,-2.32517 c -0.104655,-0.0881 -0.219043,-0.26367 -0.254198,-0.39024 -0.08194,-0.29502 -0.0834,-2.15806 -0.0019,-2.45137 0.09721,-0.34992 0.327113,-0.52609 0.686578,-0.52609 0.359465,0 0.58937,0.17617 0.686577,0.52609 0.08147,0.29331 0.08001,2.15635 -0.0019,2.45137 -0.08785,0.31631 -0.379003,0.55035 -0.684655,0.55035 -0.166696,0 -0.29839,-0.049 -0.430456,-0.16011 z"
       id="path839"
       inkscape:connector-curvature="0" />
  </g>
</svg>
