<?xml version="1.0" encoding="UTF-8" standalone="no"?>
<!-- Created with Inkscape (http://www.inkscape.org/) -->

<svg
   xmlns:dc="http://purl.org/dc/elements/1.1/"
   xmlns:cc="http://creativecommons.org/ns#"
   xmlns:rdf="http://www.w3.org/1999/02/22-rdf-syntax-ns#"
   xmlns:svg="http://www.w3.org/2000/svg"
   xmlns="http://www.w3.org/2000/svg"
   xmlns:sodipodi="http://sodipodi.sourceforge.net/DTD/sodipodi-0.dtd"
   xmlns:inkscape="http://www.inkscape.org/namespaces/inkscape"
   width="90"
   height="90"
   viewBox="0 0 23.812501 23.812501"
   version="1.1"
   id="svg8"
   inkscape:version="0.92.4 (5da689c313, 2019-01-14)"
   sodipodi:docname="drawing4.svg">
  <defs
     id="defs2" />
  <sodipodi:namedview
     id="base"
     pagecolor="#ffffff"
     bordercolor="#666666"
     borderopacity="1.0"
     inkscape:pageopacity="0.0"
     inkscape:pageshadow="2"
     inkscape:zoom="1.979899"
     inkscape:cx="158.28983"
     inkscape:cy="-36.432254"
     inkscape:document-units="mm"
     inkscape:current-layer="layer1"
     showgrid="false"
     units="px"
     inkscape:window-width="1920"
     inkscape:window-height="986"
     inkscape:window-x="-11"
     inkscape:window-y="-11"
     inkscape:window-maximized="1" />
  <metadata
     id="metadata5">
    <rdf:RDF>
      <cc:Work
         rdf:about="">
        <dc:format>image/svg+xml</dc:format>
        <dc:type
           rdf:resource="http://purl.org/dc/dcmitype/StillImage" />
        <dc:title></dc:title>
      </cc:Work>
    </rdf:RDF>
  </metadata>
  <g
     inkscape:label="Vrstva 1"
     inkscape:groupmode="layer"
     id="layer1"
     transform="translate(0,-273.18749)">
    <path
       style="fill:#000000;stroke-width:0.06266234"
       d="m 10.627498,295.62923 c -0.103392,-0.0144 -0.399472,-0.0564 -0.6579545,-0.0934 -2.5387655,-0.36296 -4.9888861,-1.76259 -6.5742275,-3.75551 -1.2593276,-1.58309 -1.918421,-3.05652 -2.2704432,-5.07565 -0.1065839,-0.61134 -0.1065839,-2.52178 0,-3.13312 0.4736385,-2.7167 1.7764497,-4.98917 3.7690207,-6.57422 1.5830942,-1.25933 3.0565185,-1.91843 5.07565,-2.27045 0.6113455,-0.10658 2.5217725,-0.10658 3.1331175,0 1.604008,0.27965 2.965048,0.80149 4.167047,1.5977 2.552096,1.69052 4.136983,4.14596 4.677623,7.24697 0.04645,0.26642 0.08194,0.94492 0.08194,1.56656 0,1.51153 -0.215729,2.65203 -0.746995,3.94915 -1.393804,3.40308 -4.321094,5.75633 -7.992187,6.42492 -0.512882,0.0934 -2.276201,0.17093 -2.662587,0.11705 z m 2.13052,-1.97489 c 3.608814,-0.46547 6.68684,-3.47976 7.272996,-7.12238 0.113122,-0.70299 0.125472,-1.98113 0.02557,-2.6471 -0.549834,-3.66553 -3.49388,-6.65709 -7.126636,-7.24166 -0.76602,-0.12327 -2.021686,-0.12327 -2.787705,0 -3.6327565,0.58457 -6.5768026,3.57613 -7.1266363,7.24166 -0.099896,0.66597 -0.087546,1.94411 0.025575,2.6471 0.5188732,3.2245 2.9621199,5.96991 6.113743,6.86984 1.2246023,0.34968 2.2776793,0.42349 3.6030853,0.25254 z m -1.566559,-2.5268 c -0.103392,-0.0462 -0.272581,-0.17377 -0.375974,-0.2836 l -0.187987,-0.19969 -0.01636,-3.20737 c -0.01589,-3.11382 -0.01271,-3.21333 0.109086,-3.4116 0.371855,-0.60533 1.259918,-0.60533 1.631773,0 0.121797,0.19827 0.124978,0.29778 0.109086,3.41223 l -0.01637,3.208 -0.216538,0.22338 c -0.197882,0.20412 -0.517267,0.34998 -0.754728,0.34467 -0.0517,-10e-4 -0.178587,-0.0399 -0.28198,-0.086 z m -0.09212,-9.5644 c -0.983014,-0.41672 -1.11151,-1.73258 -0.222929,-2.28292 0.577144,-0.35744 1.31628,-0.2009 1.705879,0.36129 0.242507,0.34994 0.272487,0.90494 0.07008,1.29739 -0.20632,0.40003 -0.564038,0.63092 -1.028254,0.66372 -0.203498,0.0144 -0.439648,-0.003 -0.524779,-0.0395 z"
       id="path852"
       inkscape:connector-curvature="0" />
  </g>
</svg>
