<?xml version="1.0" encoding="UTF-8" standalone="no"?>
<!-- Created with Inkscape (http://www.inkscape.org/) -->

<svg
   xmlns:dc="http://purl.org/dc/elements/1.1/"
   xmlns:cc="http://creativecommons.org/ns#"
   xmlns:rdf="http://www.w3.org/1999/02/22-rdf-syntax-ns#"
   xmlns:svg="http://www.w3.org/2000/svg"
   xmlns="http://www.w3.org/2000/svg"
   xmlns:sodipodi="http://sodipodi.sourceforge.net/DTD/sodipodi-0.dtd"
   xmlns:inkscape="http://www.inkscape.org/namespaces/inkscape"
   width="300"
   height="300"
   viewBox="0 0 79.374998 79.375002"
   version="1.1"
   id="svg8"
   inkscape:version="0.92.4 (5da689c313, 2019-01-14)"
   sodipodi:docname="ortodroma.svg">
  <defs
     id="defs2" />
  <sodipodi:namedview
     id="base"
     pagecolor="#ffffff"
     bordercolor="#666666"
     borderopacity="1.0"
     inkscape:pageopacity="0.0"
     inkscape:pageshadow="2"
     inkscape:zoom="1.979899"
     inkscape:cx="132.604"
     inkscape:cy="115.83867"
     inkscape:document-units="mm"
     inkscape:current-layer="layer1"
     showgrid="false"
     units="px"
     inkscape:window-width="1920"
     inkscape:window-height="986"
     inkscape:window-x="-11"
     inkscape:window-y="-11"
     inkscape:window-maximized="1" />
  <metadata
     id="metadata5">
    <rdf:RDF>
      <cc:Work
         rdf:about="">
        <dc:format>image/svg+xml</dc:format>
        <dc:type
           rdf:resource="http://purl.org/dc/dcmitype/StillImage" />
        <dc:title></dc:title>
      </cc:Work>
    </rdf:RDF>
  </metadata>
  <g
     inkscape:label="Vrstva 1"
     inkscape:groupmode="layer"
     id="layer1"
     transform="translate(0,-217.62498)">
    <path
       style="fill:#000000;stroke-width:0.10012555"
       d="M 36.644144,295.75758 C 28.548933,295.06824 20.884202,291.8508 14.716651,286.55306 7.2648421,280.15217 2.6352915,271.38375 1.4506926,261.42717 c -0.1818896,-1.52884 -0.242179,-5.38635 -0.1103642,-7.06151 0.6991242,-8.88442 4.2552139,-17.0446 10.2006856,-23.40756 6.800569,-7.27811 15.586728,-11.51394 25.500978,-12.2941 1.675152,-0.13183 5.532674,-0.0715 7.061505,0.11034 7.799864,0.928 14.690949,3.86804 20.575618,8.77847 8.809096,7.3507 13.860026,18.14664 13.866541,29.63857 0.0056,9.80687 -3.644262,19.13693 -10.287371,26.29772 -3.558359,3.83566 -8.050545,7.0503 -12.740625,9.11728 -3.771403,1.6621 -8.344939,2.81356 -12.546027,3.15864 -1.476404,0.12128 -4.862481,0.11728 -6.327489,-0.007 z M 39.7981,282.92013 v -12.54974 l -2.778483,-0.0649 c -5.207089,-0.12172 -10.027481,-0.57275 -14.628044,-1.36873 -0.955283,-0.16527 -1.749344,-0.3005 -1.764584,-0.3005 -0.0486,0 0.345413,2.10556 0.655788,3.50439 1.385138,6.2427 3.920621,12.25291 6.811329,16.14584 3.357599,4.52171 7.323256,7.11234 10.978083,7.17164 l 0.725911,0.0118 z m -15.064619,-2.36206 c -0.06839,-0.11069 0.08955,-0.23016 0.182009,-0.1377 0.0952,0.0951 0.07746,0.2309 -0.0302,0.2309 -0.05181,0 -0.12014,-0.0419 -0.151821,-0.0932 z m 1.197231,-0.50755 c -0.03403,-0.0551 0.0083,-0.10006 0.09421,-0.10006 0.08585,0 0.156098,0.045 0.156098,0.10006 0,0.055 -0.0424,0.10006 -0.09421,0.10006 -0.05181,0 -0.122062,-0.045 -0.156098,-0.10006 z m 1.251569,-0.44466 c 0,-0.0859 0.04505,-0.1561 0.100118,-0.1561 0.05507,0 0.10013,0.0424 0.10013,0.0942 0,0.0517 -0.04506,0.12206 -0.10013,0.15609 -0.05507,0.034 -0.100118,-0.008 -0.100118,-0.0942 z m 1.201506,-0.50967 c 0,-0.16195 0.156458,-0.19879 0.243829,-0.0574 0.03046,0.0493 -0.01191,0.11547 -0.09421,0.14705 -0.09088,0.0349 -0.149616,-3.2e-4 -0.149616,-0.0897 z m 1.201507,-0.54165 c 0,-0.0517 0.04505,-0.12205 0.100129,-0.15609 0.05507,-0.034 0.10013,0.008 0.10013,0.0942 0,0.0859 -0.04506,0.15609 -0.10013,0.15609 -0.05507,0 -0.100129,-0.0424 -0.100129,-0.0942 z m 1.201507,-0.60665 c 0,-0.0551 0.04505,-0.10018 0.10013,-0.10018 0.05507,0 0.10013,0.0451 0.10013,0.10018 0,0.0551 -0.04506,0.10017 -0.10013,0.10017 -0.05507,0 -0.10013,-0.045 -0.10013,-0.10017 z m 1.156731,-0.49209 c -0.03224,-0.0522 -0.01593,-0.12121 0.03622,-0.15345 0.05217,-0.0322 0.121215,-0.0159 0.153453,0.0362 0.03224,0.0522 0.01593,0.12121 -0.03622,0.15345 -0.05217,0.0322 -0.121218,0.0159 -0.153453,-0.0362 z m 1.161175,-0.60429 c 0.04303,-0.12908 0.180358,-0.15226 0.192743,-0.0326 0.0041,0.0399 -0.04656,0.0906 -0.112637,0.11263 -0.06608,0.022 -0.102129,-0.014 -0.08011,-0.0801 z m 1.18649,-0.65583 c 0,-0.0826 0.04505,-0.15019 0.10013,-0.15019 0.05507,0 0.100118,0.0676 0.100118,0.15019 0,0.0826 -0.04505,0.15019 -0.100118,0.15019 -0.05507,0 -0.10013,-0.0676 -0.10013,-0.15019 z m 1.165408,-0.52003 c -0.112763,-0.11274 -0.06867,-0.23092 0.08616,-0.23092 0.08261,0 0.150187,0.0425 0.150187,0.0942 0,0.12625 -0.156355,0.21667 -0.236348,0.13669 z m 1.087415,-0.73154 c -0.03403,-0.0551 0.0083,-0.10006 0.09421,-0.10006 0.08585,0 0.156098,0.045 0.156098,0.10006 0,0.055 -0.0424,0.10017 -0.09421,0.10017 -0.05181,0 -0.122062,-0.045 -0.156098,-0.10017 z m 1.151444,-0.70088 c 0,-0.055 0.0424,-0.10017 0.09421,-0.10017 0.05181,0 0.122062,0.045 0.156097,0.10017 0.03403,0.0551 -0.0083,0.10007 -0.09421,0.10007 -0.08585,0 -0.156097,-0.045 -0.156097,-0.10007 z m 1.148337,-0.60578 c -0.09514,-0.15394 0.03519,-0.25326 0.163689,-0.12475 0.0719,0.0718 0.07363,0.12791 0.0053,0.17017 -0.05606,0.0347 -0.132086,0.0142 -0.168941,-0.0455 z m 4.108252,21.53015 c 4.37046,-1.38034 8.490622,-6.62462 11.218144,-14.27883 1.060638,-2.97644 2.025127,-6.69404 2.59379,-9.99763 0.290805,-1.68941 0.309838,-1.96706 0.13055,-1.90484 -0.203662,0.0707 -3.541712,0.5344 -4.991857,0.69348 -3.524361,0.38662 -7.880696,0.65773 -10.577664,0.65828 l -1.326664,2.8e-4 v 1.1956 c 0,0.75294 0.0403,1.2205 0.108845,1.26286 0.07838,0.0484 0.07838,0.0978 0,0.17613 -0.07709,0.0771 -0.108845,3.37948 -0.108845,11.31686 v 11.20799 l 1.126412,-0.0544 c 0.753207,-0.0363 1.358629,-0.12775 1.827289,-0.27577 z m -1.892716,-22.91123 c -0.03467,-0.0561 -0.01419,-0.13209 0.04542,-0.16894 0.153941,-0.0951 0.253266,0.0352 0.124756,0.16368 -0.0719,0.0719 -0.127912,0.0737 -0.170179,0.006 z m 1.105678,-0.68587 c -0.112763,-0.11274 -0.06867,-0.2309 0.08616,-0.2309 0.0826,0 0.150189,0.0424 0.150189,0.0942 0,0.12626 -0.156355,0.21669 -0.23635,0.1367 z m 1.037352,-0.83166 c 0,-0.055 0.07024,-0.10017 0.156098,-0.10017 0.08585,0 0.128253,0.0451 0.09421,0.10017 -0.03403,0.0551 -0.104276,0.10018 -0.156098,0.10018 -0.05181,0 -0.09421,-0.045 -0.09421,-0.10018 z m -7.459349,24.19505 c -1.139754,-0.47248 -1.695392,-0.76959 -2.716532,-1.45263 -5.651918,-3.7805 -10.261954,-12.44528 -12.30413,-23.12618 -0.1825,-0.9545 -0.346862,-1.74817 -0.365247,-1.7637 -0.01839,-0.0155 -0.799389,-0.19702 -1.735561,-0.40329 -1.621879,-0.35734 -4.606786,-1.16403 -5.545644,-1.49872 -0.525322,-0.18727 -0.408975,-0.29911 -1.452457,1.39615 -1.6891262,2.74417 -2.7210779,5.12697 -3.1150894,7.19281 -0.2086184,1.09381 -0.1944431,2.66266 0.031412,3.4772 0.2922061,1.05379 1.9105844,3.10643 4.4166284,5.60175 5.204851,5.18259 11.781619,8.75965 18.867678,10.262 1.630761,0.34576 3.457899,0.62499 4.169241,0.6372 l 0.55069,0.009 z M 14.466336,282.55366 c 0,-0.0551 0.0424,-0.10018 0.09421,-0.10018 0.05181,0 0.122062,0.045 0.156098,0.10018 0.03402,0.055 -0.0083,0.10017 -0.09421,0.10017 -0.08585,0 -0.156099,-0.045 -0.156098,-0.10017 z m 1.301632,0 c 0,-0.0551 0.06759,-0.10018 0.15019,-0.10018 0.08261,0 0.150186,0.045 0.150186,0.10018 0,0.055 -0.06759,0.10017 -0.150186,0.10017 -0.08261,0 -0.15019,-0.045 -0.15019,-0.10017 z m -2.603262,-0.10018 c 0,-0.055 0.0424,-0.10006 0.09421,-0.10006 0.05182,0 0.122065,0.045 0.156097,0.10006 0.03402,0.0551 -0.0083,0.10018 -0.09421,0.10018 -0.08585,0 -0.156097,-0.045 -0.156097,-0.10018 z m 3.904892,0 c 0,-0.055 0.06759,-0.10006 0.150191,-0.10006 0.08261,0 0.150187,0.045 0.150187,0.10006 0,0.0551 -0.06759,0.10018 -0.150187,0.10018 -0.08261,0 -0.150191,-0.045 -0.150191,-0.10018 z m -5.187337,-0.20775 c 0.01971,-0.0593 0.07868,-0.1076 0.131,-0.1076 0.05232,0 0.111267,0.0484 0.130997,0.1076 0.01971,0.0593 -0.03923,0.1076 -0.130997,0.1076 -0.09178,0 -0.150731,-0.0484 -0.131,-0.1076 z m 6.488972,0.007 c 0,-0.0551 0.06759,-0.10017 0.150188,-0.10017 0.08261,0 0.150188,0.045 0.150188,0.10017 0,0.0551 -0.06759,0.10006 -0.150188,0.10006 -0.08261,0 -0.150188,-0.045 -0.150188,-0.10006 z m 1.35698,-0.1917 c -0.03224,-0.0522 -0.01593,-0.12122 0.03622,-0.15345 0.05217,-0.0322 0.121218,-0.0159 0.153456,0.0362 0.03224,0.0522 0.01593,0.12123 -0.03622,0.15346 -0.05217,0.0322 -0.121218,0.0159 -0.153456,-0.0362 z m -9.051629,-0.30358 c 0.02202,-0.0661 0.07272,-0.11678 0.112637,-0.11262 0.11972,0.0123 0.09653,0.14971 -0.03254,0.19274 -0.06609,0.022 -0.102129,-0.014 -0.08011,-0.0801 z m 10.297911,-0.055 c 0,-0.0826 0.04506,-0.15019 0.100129,-0.15019 0.05507,0 0.100119,0.0676 0.100119,0.15019 0,0.0826 -0.04505,0.15019 -0.100119,0.15019 -0.05507,0 -0.100129,-0.0676 -0.100129,-0.15019 z m 1.201506,-0.35045 c 0,-0.0551 0.06759,-0.10017 0.150191,-0.10017 0.08261,0 0.150186,0.0451 0.150186,0.10017 0,0.0551 -0.06758,0.10018 -0.150186,0.10018 -0.08261,0 -0.150191,-0.045 -0.150191,-0.10018 z m 1.301636,-0.4005 c 0,-0.0551 0.04239,-0.10006 0.09421,-0.10006 0.05181,0 0.122062,0.045 0.156098,0.10006 0.03402,0.055 -0.0083,0.10017 -0.09421,0.10017 -0.08585,0 -0.156097,-0.045 -0.156097,-0.10017 z m 21.977557,14.11314 c 5.698181,-0.8282 10.874093,-2.823 15.72434,-6.06013 2.071276,-1.38239 3.892166,-2.88465 5.753884,-4.74701 2.831302,-2.83227 4.89968,-5.63183 6.881035,-9.31353 2.247703,-4.17662 3.952358,-10.14052 4.192656,-14.6684 l 0.05845,-1.10137 -0.222412,0.40049 c -0.879666,1.58404 -2.674213,3.1706 -5.077314,4.48883 -3.32918,1.82625 -8.385147,3.49671 -13.548576,4.47636 -0.90578,0.17185 -1.709957,0.34472 -1.787057,0.38414 -0.09194,0.0471 -0.236764,0.63869 -0.420796,1.71915 -0.914788,5.37081 -2.483066,10.51735 -4.437924,14.56367 -2.292209,4.74461 -5.134604,8.0596 -8.200058,9.56346 -1.207954,0.59261 -1.124455,0.61529 1.08377,0.29434 z M 8.0900551,277.4219 c -0.1382238,-2.48254 1.0981097,-5.97949 3.4183049,-9.66866 0.426528,-0.67819 0.749407,-1.25917 0.717501,-1.29108 -0.0319,-0.0319 -0.727443,-0.31642 -1.545648,-0.63228 -4.3192257,-1.66733 -7.4733757,-3.89187 -8.7274334,-6.15523 l -0.2219083,-0.40051 0.057645,1.05583 c 0.099136,1.81685 0.5609195,4.58715 1.1174602,6.7039 0.5821958,2.2143 1.7201324,5.2637 2.6663094,7.14506 0.6872509,1.3665 2.4073354,4.26926 2.5298395,4.26926 0.024821,0 0.019373,-0.46183 -0.012039,-1.02629 z M 39.7981,263.77388 c 0,-3.50013 -0.0338,-6.34427 -0.07509,-6.32031 -0.0413,0.0239 -1.584486,0.91174 -3.429299,1.97283 -1.84481,1.0611 -4.31252,2.48732 -5.483793,3.1694 -1.171275,0.68208 -3.469157,2.01012 -5.106404,2.95119 -3.914971,2.25029 -4.849327,2.8018 -4.810935,2.83963 0.01752,0.0172 0.68518,0.1456 1.483681,0.28519 4.438048,0.77584 9.081457,1.2215 14.167765,1.35977 1.486863,0.0404 2.827294,0.0809 2.978737,0.0899 l 0.275344,0.0163 z m 4.405526,6.1979 c 0.08261,-0.0343 0.488111,-0.0536 0.901129,-0.0427 0.910243,0.0239 4.130607,-0.21547 6.628351,-0.49251 1.877128,-0.20821 4.974102,-0.65499 5.047237,-0.72813 0.04124,-0.0412 -16.623702,-11.18641 -16.726566,-11.18641 -0.0305,0 -0.05548,2.8273 -0.05552,6.28288 l -9.8e-5,6.28287 2.027643,-0.0267 c 1.115203,-0.0147 2.09523,-0.0548 2.177834,-0.0892 z m 1.15144,-0.73515 c -0.03403,-0.055 0.0083,-0.10006 0.09421,-0.10006 0.08585,0 0.156096,0.045 0.156096,0.10006 0,0.0551 -0.04239,0.10018 -0.09421,0.10018 -0.05182,0 -0.122067,-0.045 -0.156103,-0.10018 z m 1.11535,-0.67021 c -0.112763,-0.11274 -0.06867,-0.23092 0.08616,-0.23092 0.08261,0 0.15019,0.0424 0.15019,0.0942 0,0.12625 -0.156355,0.21667 -0.236348,0.13669 z m 1.037352,-0.88173 c 0,-0.0917 0.04843,-0.15073 0.107634,-0.131 0.0592,0.0198 0.107635,0.0787 0.107635,0.131 0,0.0523 -0.04843,0.11126 -0.107635,0.131 -0.0592,0.0198 -0.107634,-0.0392 -0.107634,-0.131 z m 0.951192,-0.75095 c -0.03402,-0.055 0.0083,-0.10006 0.09421,-0.10006 0.08585,0 0.156098,0.045 0.156098,0.10006 0,0.0551 -0.0424,0.10018 -0.09421,0.10018 -0.05181,0 -0.122065,-0.045 -0.156098,-0.10018 z m 1.051318,-0.801 c 0,-0.0551 0.04506,-0.10006 0.100129,-0.10006 0.05507,0 0.100119,0.045 0.100119,0.10006 0,0.0551 -0.04505,0.10017 -0.100119,0.10017 -0.05507,0 -0.100129,-0.045 -0.100129,-0.10017 z m 1.016274,-0.796 c 0.02202,-0.0661 0.07272,-0.11676 0.112637,-0.11263 0.11972,0.0123 0.09653,0.14973 -0.03254,0.19275 -0.06608,0.022 -0.102129,-0.014 -0.08011,-0.0801 z m 8.959819,2.89334 c 7.453814,-1.52534 13.000487,-3.73268 16.179291,-6.43866 0.828802,-0.70553 1.672191,-1.76832 2.104465,-2.65192 0.320547,-0.65523 0.326268,-0.69147 0.342321,-2.16825 0.06515,-5.99396 -1.607998,-12.59846 -4.540405,-17.92248 -0.825285,-1.49836 -2.054462,-3.45118 -2.328277,-3.69898 -0.113574,-0.10281 -0.206493,-0.23221 -0.206493,-0.28761 0,-0.20008 -1.119096,-1.58195 -1.511079,-1.86589 -0.638327,-0.46241 -1.758185,-0.87381 -2.889594,-1.06156 -2.383438,-0.39552 -6.210777,0.11744 -9.917282,1.32916 l -0.851068,0.27823 -0.05564,0.40051 c -0.06642,0.47809 -0.252397,0.79453 -0.565417,0.96206 -0.126504,0.0677 -0.230008,0.15876 -0.230008,0.20235 0,0.0436 0.225491,0.88078 0.501087,1.86043 1.208545,4.29589 1.995523,8.92797 2.420489,14.24681 0.168397,2.10762 0.168601,9.49258 3.03e-4,11.61456 -0.136116,1.71641 -0.475323,4.85256 -0.576678,5.33169 -0.03277,0.1549 -0.01468,0.27535 0.04136,0.27535 0.05478,0 0.991957,-0.18261 2.082603,-0.4058 z m -1.105311,-9.79137 c -0.03467,-0.0561 -0.01423,-0.13208 0.04542,-0.16893 0.15394,-0.0952 0.253262,0.0353 0.124752,0.16369 -0.07191,0.0718 -0.127912,0.0737 -0.170175,0.006 z m 0.941523,-1.01689 c 0,-0.0551 0.04505,-0.10006 0.100118,-0.10006 0.05507,0 0.10013,0.045 0.10013,0.10006 0,0.0551 -0.04506,0.10017 -0.10013,0.10017 -0.05507,0 -0.100118,-0.045 -0.100118,-0.10017 z m 0.90113,-0.9512 c 0,-0.0826 0.04505,-0.15018 0.100118,-0.15018 0.05507,0 0.10013,0.0676 0.10013,0.15018 0,0.0826 -0.04506,0.1502 -0.10013,0.1502 -0.05507,0 -0.100118,-0.0676 -0.100118,-0.1502 z m 0.90113,-0.95119 c 0,-0.055 0.04505,-0.10017 0.100129,-0.10017 0.05507,0 0.10013,0.045 0.10013,0.10017 0,0.0551 -0.04506,0.10007 -0.10013,0.10007 -0.05507,0 -0.100129,-0.045 -0.100129,-0.10007 z m 16.520716,-0.70088 c 0,-0.0551 0.04505,-0.10018 0.10013,-0.10018 0.05507,0 0.100118,0.045 0.100118,0.10018 0,0.0551 -0.04505,0.10006 -0.100118,0.10006 -0.05507,0 -0.10013,-0.045 -0.10013,-0.10006 z m -15.659983,-0.18461 c -0.03467,-0.0561 -0.01419,-0.13208 0.04543,-0.16894 0.153941,-0.0951 0.253263,0.0352 0.124752,0.1637 -0.07191,0.0718 -0.127912,0.0737 -0.170178,0.006 z m 15.059231,-0.71652 c 0,-0.0551 0.04505,-0.10006 0.10013,-0.10006 0.05507,0 0.100118,0.045 0.100118,0.10006 0,0.055 -0.04505,0.10017 -0.100118,0.10017 -0.05507,0 -0.10013,-0.045 -0.10013,-0.10017 z m -14.162482,-0.29183 c -0.03225,-0.0522 -0.01593,-0.12121 0.03622,-0.15346 0.05217,-0.0322 0.121217,-0.0159 0.153455,0.0362 0.03225,0.0522 0.01593,0.12123 -0.03622,0.15346 -0.05217,0.0322 -0.121219,0.0159 -0.153455,-0.0362 z m 13.511665,-0.50918 c 0.03402,-0.055 0.08175,-0.10006 0.106035,-0.10006 0.0243,0 0.04415,0.045 0.04415,0.10006 0,0.0551 -0.04771,0.10018 -0.106035,0.10018 -0.05831,0 -0.07819,-0.0451 -0.04415,-0.10018 z m -12.665884,-0.55069 c 0,-0.0918 0.04843,-0.15073 0.107634,-0.13099 0.0592,0.0198 0.107634,0.0787 0.107634,0.13099 0,0.0523 -0.04843,0.11126 -0.107634,0.13101 -0.0592,0.0198 -0.107634,-0.0392 -0.107634,-0.13101 z m 11.914942,-0.15018 c 0,-0.0551 0.04505,-0.10018 0.100118,-0.10018 0.05507,0 0.10013,0.0451 0.10013,0.10018 0,0.0551 -0.04506,0.10017 -0.10013,0.10017 -0.05507,0 -0.100118,-0.045 -0.100118,-0.10017 z m -0.845782,-0.59221 c -0.03225,-0.0522 -0.01593,-0.12121 0.03622,-0.15345 0.05217,-0.0322 0.121213,-0.0159 0.153451,0.0362 0.03225,0.0522 0.01593,0.12121 -0.03622,0.15345 -0.05217,0.0322 -0.121218,0.0159 -0.153456,-0.0362 z m -10.2212,-0.21383 c -0.09514,-0.15393 0.03519,-0.25326 0.163689,-0.12475 0.07191,0.0719 0.07363,0.12791 0.0053,0.17018 -0.05606,0.0347 -0.132086,0.0143 -0.168941,-0.0455 z m 9.364846,-0.45144 c 0,-0.0859 0.04579,-0.1278 0.101763,-0.0932 0.05597,0.0346 0.07583,0.10486 0.04415,0.1561 -0.08583,0.13889 -0.145914,0.11297 -0.145914,-0.0628 z m -0.90113,-0.54479 c 0,-0.055 0.04506,-0.10006 0.10013,-0.10006 0.05507,0 0.100118,0.045 0.100118,0.10006 0,0.0551 -0.04505,0.10018 -0.100118,0.10018 -0.05507,0 -0.10013,-0.045 -0.10013,-0.10018 z m -7.709665,-0.10006 c 0,-0.055 0.07024,-0.10017 0.156098,-0.10017 0.08585,0 0.128247,0.045 0.09421,0.10017 -0.03402,0.0551 -0.104276,0.10006 -0.156098,0.10006 -0.05182,0 -0.09421,-0.045 -0.09421,-0.10006 z m 5.857343,-0.90113 c 0.03402,-0.0551 0.08175,-0.10006 0.106035,-0.10006 0.0243,0 0.04415,0.045 0.04415,0.10006 0,0.0551 -0.04771,0.10017 -0.106035,0.10017 -0.05832,0 -0.07819,-0.045 -0.04415,-0.10017 z m -5.056342,-0.1502 c 0,-0.0826 0.04506,-0.15018 0.10013,-0.15018 0.05507,0 0.10013,0.0676 0.10013,0.15018 0,0.0826 -0.04505,0.1502 -0.10013,0.1502 -0.05507,0 -0.10013,-0.0676 -0.10013,-0.1502 z m 4.105149,-0.25621 c 0,-0.0584 0.04505,-0.0781 0.10013,-0.0442 0.05507,0.034 0.10013,0.0818 0.10013,0.106 0,0.0243 -0.04505,0.0442 -0.10013,0.0442 -0.05507,0 -0.10013,-0.0477 -0.10013,-0.106 z m -1.001254,-0.39459 c 0,-0.0551 0.04505,-0.10018 0.100129,-0.10018 0.05507,0 0.10013,0.0451 0.10013,0.10018 0,0.055 -0.04505,0.10017 -0.10013,0.10017 -0.05507,0 -0.100129,-0.045 -0.100129,-0.10017 z m -2.35295,-0.40051 c -0.03403,-0.0551 0.0083,-0.10006 0.09421,-0.10006 0.08585,0 0.156097,0.045 0.156097,0.10006 0,0.055 -0.0424,0.10017 -0.09421,0.10017 -0.05181,0 -0.122061,-0.045 -0.156097,-0.10017 z m 1.401758,0 c 0.03402,-0.0551 0.08175,-0.10006 0.106036,-0.10006 0.02429,0 0.04415,0.045 0.04415,0.10006 0,0.055 -0.04771,0.10017 -0.106036,0.10017 -0.05832,0 -0.07819,-0.045 -0.04415,-0.10017 z m -1.05132,-0.30038 c 0,-0.0551 0.04505,-0.10006 0.100129,-0.10006 0.05507,0 0.10013,0.045 0.10013,0.10006 0,0.0551 -0.04505,0.10018 -0.10013,0.10018 -0.05507,0 -0.100129,-0.045 -0.100129,-0.10018 z m -0.951192,-0.30038 c -0.03402,-0.055 -0.01416,-0.10006 0.04415,-0.10006 0.05831,0 0.106036,0.045 0.106036,0.10006 0,0.0551 -0.01986,0.10018 -0.04415,0.10018 -0.0243,0 -0.072,-0.0451 -0.106036,-0.10018 z m 1.410062,-0.38705 c -0.04313,-0.0698 -0.05138,-0.15393 -0.01831,-0.18699 0.08961,-0.0896 0.187314,0.0423 0.138913,0.18739 -0.0339,0.10177 -0.05749,0.10166 -0.120582,-3.8e-4 z m -3.412575,-0.21369 c -0.03402,-0.0551 -0.01415,-0.10018 0.04415,-0.10018 0.05831,0 0.106035,0.045 0.106035,0.10018 0,0.055 -0.01986,0.10017 -0.04415,0.10017 -0.0243,0 -0.072,-0.045 -0.106035,-0.10017 z m -1.051316,-0.30038 c 0,-0.0551 0.04505,-0.10017 0.10013,-0.10017 0.05507,0 0.100129,0.045 0.100129,0.10017 0,0.0551 -0.04505,0.10006 -0.100129,0.10006 -0.05507,0 -0.10013,-0.045 -0.10013,-0.10006 z m -1.001257,-0.30038 c 0,-0.055 0.04505,-0.10017 0.100129,-0.10017 0.05507,0 0.100119,0.045 0.100119,0.10017 0,0.0551 -0.04505,0.10006 -0.100119,0.10006 -0.05507,0 -0.100129,-0.045 -0.100129,-0.10006 z m -1.001255,-0.20025 c 0,-0.055 0.04505,-0.10017 0.10013,-0.10017 0.05507,0 0.100118,0.045 0.100118,0.10017 0,0.0551 -0.04505,0.10007 -0.100118,0.10007 -0.05507,0 -0.10013,-0.045 -0.10013,-0.10007 z m -1.001255,-0.20025 c 0,-0.0551 0.04771,-0.10007 0.106035,-0.10007 0.05831,0 0.07819,0.045 0.04415,0.10007 -0.03402,0.055 -0.08175,0.10017 -0.106035,0.10017 -0.0243,0 -0.04415,-0.045 -0.04415,-0.10017 z m 8.11017,0 c 0,-0.0551 0.07025,-0.10007 0.156098,-0.10007 0.08585,0 0.128249,0.045 0.09421,0.10007 -0.03403,0.055 -0.104276,0.10017 -0.156097,0.10017 -0.05182,0 -0.09421,-0.045 -0.09421,-0.10017 z m -9.16149,-0.20025 c -0.03403,-0.0551 -0.01415,-0.10006 0.04415,-0.10006 0.05831,0 0.106035,0.045 0.106035,0.10006 0,0.055 -0.01986,0.10017 -0.04415,0.10017 -0.02429,0 -0.072,-0.045 -0.106035,-0.10017 z m -1.051316,-0.20025 c 0,-0.0551 0.04505,-0.10018 0.100118,-0.10018 0.05507,0 0.10013,0.045 0.10013,0.10018 0,0.0551 -0.04506,0.10017 -0.10013,0.10017 -0.05507,0 -0.100118,-0.0451 -0.100118,-0.10017 z m 10.867898,-0.69396 c -0.06839,-0.11069 0.08955,-0.23016 0.182008,-0.1377 0.09519,0.0951 0.07746,0.2309 -0.0302,0.2309 -0.05181,0 -0.120138,-0.0419 -0.151821,-0.0932 z m 0.646539,-1.20843 c 0,-0.055 0.04505,-0.10017 0.100119,-0.10017 0.05507,0 0.100129,0.045 0.100129,0.10017 0,0.0551 -0.04505,0.10018 -0.100129,0.10018 -0.05507,0 -0.100119,-0.0451 -0.100119,-0.10018 z m 0.547584,-1.10641 c -0.09514,-0.15394 0.03519,-0.25326 0.163689,-0.12475 0.0719,0.0719 0.07363,0.12791 0.0053,0.17017 -0.05606,0.0347 -0.132081,0.0142 -0.168936,-0.0455 z m 0.45367,-1.29661 c 0,-0.055 0.04506,-0.10006 0.10013,-0.10006 0.05507,0 0.100129,0.045 0.100129,0.10006 0,0.0551 -0.04505,0.10018 -0.100129,0.10018 -0.05507,0 -0.10013,-0.045 -0.10013,-0.10018 z m 0.400505,-1.25156 c 0,-0.0917 0.04843,-0.15073 0.107635,-0.13099 0.05919,0.0198 0.107634,0.0787 0.107634,0.13099 0,0.0523 -0.04843,0.11125 -0.107634,0.13099 -0.0592,0.0198 -0.107635,-0.0392 -0.107635,-0.13099 z m 0.300377,-1.24566 c 0,-0.0517 0.04505,-0.12207 0.100118,-0.1561 0.05507,-0.034 0.10013,0.008 0.10013,0.0942 0,0.0859 -0.04505,0.15608 -0.10013,0.15608 -0.05507,0 -0.100118,-0.0424 -0.100118,-0.0942 z m -14.418081,-3.11461 v -2.22861 l 1.09011,0.0624 c 0.599557,0.0344 1.211202,0.11754 1.359205,0.18497 0.556617,0.25362 0.725124,1.07556 0.317617,1.5493 l -0.236831,0.27534 0.336959,0.31779 c 0.278141,0.26233 0.33696,0.39088 0.33696,0.73648 0,0.52992 -0.206012,0.9318 -0.568216,1.10847 -0.171253,0.0835 -0.747031,0.15463 -1.45933,0.18022 l -1.176474,0.0423 z m 2.243129,1.59296 c 0.312694,-0.14247 0.487414,-0.60263 0.35803,-0.94293 -0.129203,-0.33983 -0.504326,-0.45838 -1.341704,-0.42404 l -0.708763,0.029 -0.03042,0.58955 c -0.01672,0.32425 -0.0069,0.65091 0.02187,0.72591 0.06606,0.17213 1.335705,0.18887 1.70099,0.0224 z m 0.01427,-2.13435 c 0.299325,-0.29933 0.313214,-0.58791 0.04137,-0.85975 -0.176563,-0.17656 -0.309459,-0.20042 -0.976222,-0.17522 l -0.771836,0.0292 -0.03103,0.4879 c -0.04705,0.73997 -0.02274,0.76366 0.783368,0.76366 0.618812,0 0.739708,-0.0311 0.954336,-0.24576 z m 12.310892,2.34841 c -0.03403,-0.0551 0.0083,-0.10018 0.09421,-0.10018 0.08585,0 0.156097,0.045 0.156097,0.10018 0,0.055 -0.0424,0.10006 -0.09421,0.10006 -0.05181,0 -0.122063,-0.045 -0.156097,-0.10006 z m -0.05005,-1.30164 c 0,-0.0551 0.04505,-0.10006 0.100119,-0.10006 0.05507,0 0.100129,0.045 0.100129,0.10006 0,0.055 -0.04506,0.10017 -0.100129,0.10017 -0.05507,0 -0.100119,-0.0451 -0.100119,-0.10017 z m -14.274649,31.91502 c 0.116799,-0.55844 0.402091,-3.19309 0.577337,-5.33168 0.16398,-2.00109 0.163772,-9.55234 -2.99e-4,-11.51445 -0.487671,-5.83146 -1.206812,-9.99588 -2.537355,-14.69342 -0.35736,-1.26168 -0.447075,-1.47685 -0.615748,-1.47685 -0.108593,0 -0.370457,-0.0519 -0.581918,-0.11519 -0.35532,-0.10646 -0.466298,-0.0825 -1.463439,0.317 -2.835101,1.13564 -6.096929,2.78703 -9.920797,5.02272 -2.249172,1.31501 -5.405348,3.31098 -5.789985,3.66162 -0.135928,0.1239 -0.272071,0.22527 -0.302546,0.22527 -0.07862,0 -3.333028,2.34821 -4.940554,3.56482 -2.805239,2.1231 -6.604941,5.39391 -9.188824,7.90981 -1.336423,1.30128 -1.428945,1.41563 -1.426791,1.7635 0.0026,0.45526 -0.458128,1.0331 -0.901872,1.13057 -0.162266,0.0356 -0.312222,0.0952 -0.333232,0.13218 -0.05409,0.0955 0.105521,3.24935 0.233959,4.62311 0.181437,1.9405 0.516375,4.55137 0.59441,4.63345 0.04065,0.0427 0.76884,-0.324 1.618202,-0.81501 0.849361,-0.49101 3.549307,-2.05315 5.999882,-3.47141 2.45057,-1.41829 5.199019,-3.00571 6.107657,-3.5276 0.908638,-0.5219 2.550082,-1.47095 3.647648,-2.109 1.23894,-0.72022 2.010857,-1.11423 2.035886,-1.03915 0.02218,0.0665 0.07499,0.12094 0.117377,0.12094 0.04239,0 3.85717,2.52058 8.477294,5.6013 4.620127,3.08072 8.433165,5.60389 8.473418,5.60703 0.04025,0.003 0.0944,-0.0956 0.120305,-0.21956 z m -5.594987,-3.77119 c -0.03225,-0.0522 -0.01593,-0.12121 0.03622,-0.15345 0.05217,-0.0322 0.121218,-0.0159 0.153456,0.0362 0.03224,0.0522 0.01593,0.12121 -0.03622,0.15345 -0.05217,0.0322 -0.121215,0.0159 -0.153452,-0.0362 z m 1.009936,-0.77889 c -0.112763,-0.11274 -0.06867,-0.23091 0.08616,-0.23091 0.08261,0 0.150187,0.0424 0.150187,0.0942 0,0.12626 -0.156355,0.21668 -0.236347,0.13669 z m 0.992573,-0.92324 c -0.03225,-0.0522 -0.01593,-0.12121 0.03622,-0.15345 0.05217,-0.0322 0.121216,-0.0159 0.153455,0.0362 0.03225,0.0522 0.01593,0.12122 -0.03622,0.15345 -0.05217,0.0322 -0.121216,0.0159 -0.153455,-0.0362 z m 0.945909,-0.90968 c 0,-0.0551 0.07025,-0.10017 0.156098,-0.10017 0.08585,0 0.128248,0.045 0.09421,0.10017 -0.03402,0.0551 -0.104276,0.10007 -0.156098,0.10007 -0.05182,0 -0.09421,-0.045 -0.09421,-0.10007 z m 1.001255,-0.90113 c 0,-0.0551 0.04505,-0.10017 0.10013,-0.10017 0.05507,0 0.100118,0.045 0.100118,0.10017 0,0.0551 -0.04505,0.10018 -0.100118,0.10018 -0.05507,0 -0.10013,-0.045 -0.10013,-0.10018 z m 0.96086,-0.78537 c -0.03467,-0.0561 -0.01419,-0.13209 0.04542,-0.16893 0.15394,-0.0951 0.253266,0.0352 0.124756,0.16368 -0.07191,0.072 -0.127913,0.0737 -0.17018,0.006 z m 0.988479,-0.92179 c -0.09514,-0.15394 0.03519,-0.25327 0.163693,-0.12476 0.0719,0.0719 0.07363,0.12791 0.0053,0.17019 -0.05606,0.0347 -0.132086,0.0142 -0.168937,-0.0455 z m -1.44871,-13.91244 c 0,-0.0551 0.04505,-0.10017 0.100118,-0.10017 0.05507,0 0.10013,0.045 0.10013,0.10017 0,0.0551 -0.04506,0.10018 -0.10013,0.10018 -0.05507,0 -0.100118,-0.045 -0.100118,-0.10018 z m -2.002512,-0.30628 c 0,-0.0582 0.04505,-0.0781 0.10013,-0.0442 0.05507,0.034 0.10013,0.0818 0.10013,0.106 0,0.0243 -0.04505,0.0442 -0.10013,0.0442 -0.05507,0 -0.10013,-0.0477 -0.10013,-0.106 z m -1.051317,-0.0942 c -0.03403,-0.0551 -0.01415,-0.10018 0.04415,-0.10018 0.05832,0 0.106035,0.045 0.106035,0.10018 0,0.0551 -0.01986,0.10006 -0.04415,0.10006 -0.0243,0 -0.072,-0.045 -0.106035,-0.10006 z m -1.05132,-0.10018 c 0,-0.0551 0.04505,-0.10017 0.10013,-0.10017 0.05507,0 0.100129,0.0451 0.100129,0.10017 0,0.0551 -0.04505,0.10018 -0.100129,0.10018 -0.05507,0 -0.10013,-0.045 -0.10013,-0.10018 z m -1.051318,-0.10017 c -0.03402,-0.0551 -0.01415,-0.10007 0.04415,-0.10007 0.05831,0 0.106036,0.045 0.106036,0.10007 0,0.055 -0.01986,0.10017 -0.04415,0.10017 -0.0243,0 -0.072,-0.045 -0.106036,-0.10017 z m -3.153959,-0.30027 c 0,-0.055 0.04506,-0.10006 0.10013,-0.10006 0.05507,0 0.100118,0.045 0.100118,0.10006 0,0.0551 -0.04505,0.10018 -0.100118,0.10018 -0.05507,0 -0.10013,-0.045 -0.10013,-0.10018 z m -2.052574,-0.10006 c -0.03403,-0.0551 -0.01415,-0.10006 0.04415,-0.10006 0.05831,0 0.106035,0.045 0.106035,0.10006 0,0.0551 -0.01986,0.10006 -0.04415,0.10006 -0.0243,0 -0.072,-0.045 -0.106035,-0.10006 z m 1.051319,-0.006 c 0,-0.0584 0.04505,-0.0781 0.100119,-0.0442 0.05507,0.034 0.100129,0.0818 0.100129,0.10601 0,0.0243 -0.04506,0.0442 -0.100129,0.0442 -0.05507,0 -0.100119,-0.0478 -0.100119,-0.106 z m -3.153957,-0.0942 c -0.03403,-0.055 -0.01415,-0.10006 0.04415,-0.10006 0.05832,0 0.106036,0.045 0.106036,0.10006 0,0.0552 -0.01986,0.10018 -0.04415,0.10018 -0.0243,0 -0.072,-0.045 -0.106036,-0.10018 z m 1.051321,-0.006 c 0,-0.0584 0.04505,-0.0782 0.10013,-0.0442 0.05507,0.034 0.10013,0.0818 0.10013,0.106 0,0.0243 -0.04506,0.0441 -0.10013,0.0441 -0.05507,0 -0.10013,-0.0477 -0.10013,-0.106 z m -6.007553,-0.0942 c 0,-0.0551 0.04505,-0.10006 0.10013,-0.10006 0.05507,0 0.100129,0.045 0.100129,0.10006 0,0.055 -0.04506,0.10017 -0.100129,0.10017 -0.05507,0 -0.10013,-0.0451 -0.10013,-0.10017 z m 1.101383,0 c 0,-0.0551 0.04505,-0.10006 0.100119,-0.10006 0.05507,0 0.100129,0.045 0.100129,0.10006 0,0.055 -0.04505,0.10017 -0.100129,0.10017 -0.05507,0 -0.100119,-0.0451 -0.100119,-0.10017 z m 0.700878,0 c 0,-0.0551 0.04505,-0.10006 0.100129,-0.10006 0.05507,0 0.10013,0.045 0.10013,0.10006 0,0.055 -0.04506,0.10017 -0.10013,0.10017 -0.05507,0 -0.100129,-0.0451 -0.100129,-0.10017 z m 1.051316,0 c 0.03403,-0.0551 0.08175,-0.10006 0.106035,-0.10006 0.0243,0 0.04415,0.045 0.04415,0.10006 0,0.055 -0.04771,0.10017 -0.106035,0.10017 -0.05832,0 -0.07819,-0.0451 -0.04415,-0.10017 z M 20.16109,266.9595 c -0.283869,-2.07336 -0.476376,-4.17257 -0.539433,-5.88237 -0.07477,-2.02728 -0.105624,-2.22255 -0.373913,-2.36614 -0.195026,-0.10441 -0.268649,-0.0578 -0.749849,0.47438 -2.106505,2.32967 -4.291407,5.0135 -5.347386,6.56851 l -0.388172,0.57159 1.127346,0.35618 c 0.945531,0.29873 2.157305,0.61325 5.532872,1.43613 0.220278,0.0537 0.515887,0.10223 0.656908,0.10794 l 0.256412,0.0103 z m -7.396884,-1.10122 c 1.041579,-1.55601 3.292791,-4.36527 4.91635,-6.13506 l 1.10553,-1.2051 -0.169316,-0.44334 c -0.110044,-0.28816 -0.146614,-0.56434 -0.10447,-0.78899 0.06637,-0.3538 0.591406,-0.96463 0.829137,-0.96463 0.07216,0 0.131247,-0.0563 0.131329,-0.12516 8.3e-5,-0.0688 0.04634,-1.07134 0.102803,-2.22779 0.334559,-6.85308 1.472851,-12.92872 3.422966,-18.27015 3.146491,-8.61832 7.522733,-14.12571 12.944738,-16.29059 l 0.600753,-0.23986 -0.889638,0.0599 c -1.174869,0.0792 -3.378257,0.46541 -5.128401,0.89922 -5.382319,1.33409 -10.532778,3.94182 -15.027589,7.60862 -0.540035,0.44056 -1.725338,1.54447 -2.63401,2.45313 -1.784274,1.78428 -2.771253,2.94018 -4.1096491,4.81304 -3.7866651,5.29879 -6.1509297,11.46062 -6.8490008,17.85014 -0.2281876,2.08862 -0.241799,2.46829 -0.088479,2.46829 0.073402,0 0.1333905,0.045 0.1333905,0.10017 0,0.0551 -0.07166,0.10018 -0.1591723,0.10018 -0.140018,0 -0.1550785,0.18381 -0.1251318,1.5269 0.031672,1.41995 0.053369,1.56822 0.3101809,2.11653 0.9835391,2.10008 3.341093,4.00295 7.0830356,5.71702 0.8845397,0.40517 3.239432,1.33794 3.404267,1.34842 0.02755,10e-4 0.162705,-0.16509 0.300377,-0.37076 z m 1.401759,-7.20356 c 0,-0.0456 0.241002,-0.7131 0.535563,-1.4835 0.294556,-0.77041 0.659901,-1.7299 0.81187,-2.13219 0.268217,-0.71003 0.285486,-0.73056 0.589503,-0.70089 0.307933,0.03 0.32777,0.0659 1.181677,2.1332 0.47767,1.15646 0.832661,2.14025 0.788874,2.18621 -0.04379,0.0459 -0.178377,0.0685 -0.299079,0.05 -0.163961,-0.025 -0.287946,-0.19809 -0.490295,-0.68433 l -0.270841,-0.65079 h -0.896812 -0.896807 l -0.259371,0.65081 c -0.219587,0.55099 -0.3004,0.65569 -0.526828,0.6825 -0.147098,0.0175 -0.267454,-0.006 -0.267454,-0.0511 z m 2.602536,-1.85796 c -0.0015,-0.2732 -0.686676,-1.9198 -0.739435,-1.77723 -0.357031,0.96466 -0.621571,1.8089 -0.57988,1.85059 0.0285,0.0286 0.337145,0.0518 0.685915,0.0518 0.44094,0 0.633907,-0.0382 0.6334,-0.12516 z M 3.552658,252.91688 c 0,-0.055 0.045055,-0.10017 0.1001263,-0.10017 0.055031,0 0.1001262,0.045 0.1001262,0.10017 0,0.0551 -0.045055,0.10018 -0.1001262,0.10018 -0.055111,0 -0.1001263,-0.045 -0.1001263,-0.10018 z m 0.8010002,-0.70087 c 0,-0.0551 0.045055,-0.10017 0.1001343,-0.10017 0.055031,0 0.1001183,0.045 0.1001183,0.10017 0,0.0551 -0.045055,0.10006 -0.1001183,0.10006 -0.055111,0 -0.1001343,-0.045 -0.1001343,-0.10006 z m 0.8510688,-0.60075 c -0.034016,-0.0551 -0.01415,-0.10007 0.044153,-0.10007 0.058318,0 0.1060351,0.045 0.1060351,0.10007 0,0.055 -0.019867,0.10006 -0.044151,0.10006 -0.024293,0 -0.072001,-0.045 -0.1060371,-0.10006 z m 0.851068,-0.60076 c 0,-0.0551 0.045055,-0.10006 0.100124,-0.10006 0.055071,0 0.1001285,0.045 0.1001285,0.10006 0,0.0551 -0.045063,0.10018 -0.1001285,0.10018 -0.055071,0 -0.100124,-0.045 -0.100124,-0.10018 z m 0.9511924,-0.50063 c -0.034017,-0.055 -0.01415,-0.10017 0.044151,-0.10017 0.058318,0 0.1060352,0.0451 0.1060352,0.10017 0,0.0551 -0.019867,0.10007 -0.044153,0.10007 -0.024293,0 -0.072001,-0.045 -0.1060332,-0.10007 z m 0.9511925,-0.50063 c 0,-0.0551 0.047712,-0.10006 0.1060352,-0.10006 0.058323,0 0.078187,0.045 0.044148,0.10006 -0.034016,0.055 -0.081751,0.10017 -0.1060352,0.10017 -0.024296,0 -0.044148,-0.045 -0.044148,-0.10017 z m 0.9011298,-0.50653 c 0,-0.0583 0.04505,-0.0781 0.1001297,-0.0442 0.055068,0.034 0.1001297,0.0818 0.1001297,0.106 0,0.0243 -0.04505,0.0442 -0.1001297,0.0442 -0.055068,0 -0.1001297,-0.0477 -0.1001297,-0.106 z m 1.9524493,-0.7951 c 0.03402,-0.0551 0.08175,-0.10006 0.106035,-0.10006 0.0243,0 0.04415,0.045 0.04415,0.10006 0,0.055 -0.04771,0.10017 -0.106035,0.10017 -0.05831,0 -0.07819,-0.045 -0.04415,-0.10017 z m 0.951193,-0.30038 c 0,-0.0551 0.04505,-0.10006 0.100118,-0.10006 0.05507,0 0.10013,0.045 0.10013,0.10006 0,0.0551 -0.04506,0.10018 -0.10013,0.10018 -0.05507,0 -0.100118,-0.045 -0.100118,-0.10018 z m 1.001254,-0.4005 c 0,-0.055 0.04505,-0.10006 0.10013,-0.10006 0.05507,0 0.100118,0.045 0.100118,0.10006 0,0.0551 -0.04505,0.10007 -0.100118,0.10007 -0.05507,0 -0.10013,-0.045 -0.10013,-0.10007 z m 1.001258,-0.30037 c 0,-0.0551 0.04505,-0.10006 0.100118,-0.10006 0.05507,0 0.100118,0.045 0.100118,0.10006 0,0.055 -0.04505,0.10006 -0.100118,0.10006 -0.05507,0 -0.100118,-0.045 -0.100118,-0.10006 z m 1.001256,-0.30038 c 0,-0.0552 0.04505,-0.10018 0.100118,-0.10018 0.05507,0 0.10013,0.045 0.10013,0.10018 0,0.0551 -0.04506,0.10017 -0.10013,0.10017 -0.05507,0 -0.100118,-0.045 -0.100118,-0.10017 z m 1.001253,-0.30038 c 0,-0.0551 0.04505,-0.10006 0.10013,-0.10006 0.05507,0 0.10013,0.045 0.10013,0.10006 0,0.0551 -0.04505,0.10018 -0.10013,0.10018 -0.05507,0 -0.10013,-0.045 -0.10013,-0.10018 z m 1.05132,-0.30038 c 0.03402,-0.0551 0.08175,-0.10017 0.106035,-0.10017 0.0243,0 0.04415,0.0451 0.04415,0.10017 0,0.0551 -0.04771,0.10018 -0.106035,0.10018 -0.05831,0 -0.07819,-0.045 -0.04415,-0.10018 z m 1.001255,-0.20024 c -0.03402,-0.0551 -0.01415,-0.10018 0.04415,-0.10018 0.05832,0 0.106035,0.0451 0.106035,0.10018 0,0.055 -0.01986,0.10006 -0.04415,0.10006 -0.0243,0 -0.072,-0.045 -0.106035,-0.10006 z m 1.051316,-0.20025 c 0,-0.0551 0.04771,-0.10018 0.106035,-0.10018 0.05832,0 0.0782,0.045 0.04415,0.10018 -0.03403,0.0551 -0.08175,0.10006 -0.106035,0.10006 -0.02429,0 -0.04415,-0.045 -0.04415,-0.10006 z m 1.001259,-0.3063 c 0,-0.0582 0.04505,-0.0781 0.100118,-0.0442 0.05507,0.034 0.10013,0.0818 0.10013,0.106 0,0.0243 -0.04505,0.0442 -0.10013,0.0442 -0.05507,0 -0.100118,-0.0477 -0.100118,-0.106 z m 0.463875,12.24404 c 0.543142,-0.43996 0.548901,-1.12844 0.0132,-1.57919 -0.647166,-0.54456 -1.578461,-0.091 -1.578461,0.76867 0,0.79602 0.965777,1.29613 1.565259,0.81052 z m 1.695203,-3.75405 c 3.679017,-3.51009 6.414033,-5.76615 12.266914,-10.11869 0.08696,-0.0647 0.231599,-0.16263 0.321429,-0.21771 0.08983,-0.0551 1.100039,-0.73477 2.24491,-1.51046 1.14487,-0.77568 2.554678,-1.70476 3.132904,-2.06463 3.206574,-1.99561 9.20043,-5.12758 11.914617,-6.22574 1.089557,-0.44083 1.37142,-0.59581 1.454855,-0.79995 0.05692,-0.13924 0.21192,-0.36859 0.344453,-0.50967 l 0.24096,-0.25648 -0.490022,-1.2252 c -1.422872,-3.5576 -3.64136,-7.14192 -5.735539,-9.2667 -1.446644,-1.4678 -2.820766,-2.39062 -4.538459,-3.04795 l -0.837918,-0.32067 -2.302886,0.002 c -2.211702,0.002 -2.337284,0.0129 -3.171567,0.27067 -4.480795,1.38443 -8.410796,5.25949 -11.4982,11.33744 -2.818609,5.54878 -4.634666,12.22452 -5.352267,19.67467 -0.111472,1.1573 -0.351794,5.1188 -0.353364,5.82497 -9.8e-5,0.0633 0.220827,0.14635 0.450416,0.16938 0.05507,0.006 0.914011,-0.76648 1.908764,-1.71556 z m 1.482069,-4.86545 c -0.56366,-0.35439 -0.871382,-0.86636 -0.919355,-1.52957 -0.0425,-0.58754 -0.03801,-0.59952 0.369099,-0.9868 0.467596,-0.44482 0.933095,-0.57686 1.441777,-0.40897 0.780779,0.25767 1.379989,1.34705 1.169962,2.12704 -0.213202,0.79177 -1.363413,1.23718 -2.061483,0.7983 z m 1.308466,-0.36942 c 0.566724,-0.37133 0.541234,-1.11615 -0.0617,-1.80287 -0.366322,-0.41722 -0.831923,-0.52835 -1.268255,-0.30272 -0.734924,0.38005 -0.692086,1.34111 0.08909,1.99841 0.359718,0.30269 0.874621,0.34716 1.240883,0.10715 z m 1.059773,-2.14504 c -0.439418,-0.6559 -0.81109,-1.23647 -0.825933,-1.29015 -0.01483,-0.0537 0.239311,-0.28528 0.564788,-0.51463 0.499608,-0.35208 0.643179,-0.40739 0.921823,-0.35511 0.575736,0.10806 0.90515,0.75886 0.637348,1.25926 -0.09083,0.1697 -0.04467,0.20655 0.425534,0.33963 0.290076,0.0821 0.651315,0.17858 0.802758,0.21441 0.311975,0.0738 0.35202,0.19082 0.111392,0.32549 -0.108708,0.0608 -0.370182,0.029 -0.775973,-0.0943 -0.730324,-0.22212 -0.96331,-0.23228 -1.20891,-0.0527 -0.175971,0.12868 -0.169845,0.15642 0.13105,0.59377 0.35511,0.51612 0.380857,0.62656 0.165362,0.70925 -0.107588,0.0412 -0.377289,-0.28115 -0.949236,-1.13486 z m 0.725078,-0.65765 c 0.327249,-0.30344 0.353615,-0.66759 0.06895,-0.95226 -0.229289,-0.22929 -0.462831,-0.19753 -0.92112,0.12525 l -0.275426,0.19399 0.305265,0.4437 c 0.167899,0.24403 0.359885,0.44368 0.42664,0.44368 0.06675,0 0.244817,-0.11446 0.395691,-0.25436 z m 2.488108,-1.17242 c -0.969099,-1.45661 -0.839291,-1.35432 -1.307277,-1.03002 -0.231806,0.16065 -0.467551,0.2518 -0.559717,0.21644 -0.235541,-0.0904 -0.146916,-0.17494 1.005704,-0.95953 0.896817,-0.61044 1.062291,-0.69069 1.119083,-0.54271 0.04569,0.11908 -0.008,0.22316 -0.170744,0.3311 -0.657673,0.43615 -0.65441,0.42797 -0.352902,0.88358 0.189834,0.28687 0.320948,0.39364 0.431354,0.35127 0.119288,-0.0458 0.142058,-0.0177 0.09184,0.1132 -0.04431,0.11548 0.07171,0.37797 0.344834,0.78017 0.324865,0.4784 0.382757,0.62441 0.274682,0.69288 -0.07531,0.0477 -0.164771,0.0874 -0.198795,0.0883 -0.03403,7.6e-4 -0.339151,-0.41524 -0.678054,-0.92463 z m -8.221319,0.52566 c 0,-0.055 0.04505,-0.10017 0.10013,-0.10017 0.05507,0 0.10013,0.045 0.10013,0.10017 0,0.0551 -0.04505,0.10006 -0.10013,0.10006 -0.05507,0 -0.10013,-0.0451 -0.10013,-0.10006 z m 1.051321,-0.20026 c 0.03402,-0.055 0.08175,-0.10006 0.106035,-0.10006 0.0243,0 0.04415,0.045 0.04415,0.10006 0,0.0551 -0.04771,0.10018 -0.106035,0.10018 -0.05831,0 -0.07819,-0.045 -0.04415,-0.10018 z m 1.051315,-0.10006 c 0,-0.0551 0.04771,-0.10017 0.106036,-0.10017 0.05832,0 0.07819,0.045 0.04415,0.10017 -0.03403,0.0551 -0.08175,0.10006 -0.106036,0.10006 -0.02429,0 -0.04415,-0.045 -0.04415,-0.10006 z m 1.001255,-0.20026 c 0,-0.055 0.04506,-0.10017 0.10013,-0.10017 0.05507,0 0.10013,0.045 0.10013,0.10017 0,0.0551 -0.04505,0.10018 -0.10013,0.10018 -0.05507,0 -0.10013,-0.045 -0.10013,-0.10018 z m 1.101383,-0.20615 c 0,-0.0583 0.04505,-0.0781 0.100118,-0.0442 0.05507,0.034 0.10013,0.0818 0.10013,0.106 0,0.0243 -0.04505,0.0442 -0.10013,0.0442 -0.05507,0 -0.100118,-0.0477 -0.100118,-0.106 z m 2.052574,-0.19434 c -0.03402,-0.0551 -0.01415,-0.10018 0.04415,-0.10018 0.05832,0 0.106035,0.045 0.106035,0.10018 0,0.0551 -0.01986,0.10006 -0.04415,0.10006 -0.02429,0 -0.072,-0.045 -0.106035,-0.10006 z m 1.051317,-0.20617 c 0,-0.0584 0.04506,-0.0781 0.100129,-0.0442 0.05507,0.034 0.100119,0.0818 0.100119,0.106 0,0.0243 -0.04505,0.0442 -0.100119,0.0442 -0.05507,0 -0.100129,-0.0477 -0.100129,-0.106 z m 2.693165,-0.22256 c -0.507945,-0.34109 -0.908018,-1.11618 -0.855537,-1.65746 0.08031,-0.82819 1.042831,-1.47345 1.816867,-1.21799 0.720083,0.23764 1.35108,1.29099 1.213303,2.02541 -0.167708,0.89396 -1.394903,1.37366 -2.174633,0.85004 z m 1.391511,-0.33794 c 0.555766,-0.35075 0.531769,-1.07553 -0.05731,-1.7312 -0.269039,-0.29944 -0.476532,-0.43109 -0.745593,-0.47307 -0.330149,-0.0515 -0.413224,-0.0177 -0.725911,0.29492 -0.406829,0.40683 -0.445235,0.7012 -0.1635,1.25322 0.426155,0.83497 1.034949,1.07101 1.692316,0.65613 z m -1.982039,0.36025 c 0,-0.0582 0.04506,-0.0781 0.10013,-0.0442 0.05507,0.034 0.100129,0.0818 0.100129,0.106 0,0.0243 -0.04505,0.0442 -0.100129,0.0442 -0.05507,0 -0.10013,-0.0477 -0.10013,-0.106 z m 3.103894,-0.19434 c 0,-0.0551 0.04505,-0.10006 0.10013,-0.10006 0.05507,0 0.10013,0.045 0.10013,0.10006 0,0.0551 -0.04505,0.10006 -0.10013,0.10006 -0.05507,0 -0.10013,-0.045 -0.10013,-0.10006 z m -0.07968,-2.30903 c -0.451796,-0.6642 -0.821448,-1.24947 -0.821448,-1.3006 0,-0.0512 0.249838,-0.25885 0.555195,-0.4616 0.987139,-0.65543 1.941215,-0.54223 2.449196,0.29057 0.508444,0.83357 0.278444,1.58328 -0.695277,2.2663 -0.323812,0.22713 -0.606176,0.41298 -0.627482,0.41298 -0.0213,0 -0.408387,-0.54345 -0.860184,-1.20765 z m 1.664672,0.20801 c 0.377652,-0.37766 0.472277,-0.77941 0.286829,-1.21778 -0.371661,-0.87856 -1.241347,-1.0743 -2.013316,-0.45314 l -0.291689,0.23471 0.674384,0.96726 c 0.745147,1.06877 0.74428,1.06846 1.343792,0.46895 z m 1.025564,-2.16643 c -0.464076,-0.69067 -0.802001,-1.28627 -0.75094,-1.32354 1.113306,-0.81261 1.569846,-0.9038 1.994991,-0.39855 0.23006,0.27341 0.25898,0.37774 0.204807,0.73899 -0.05974,0.39839 -0.04829,0.42425 0.216611,0.489 0.153827,0.0376 0.520092,0.1374 0.813921,0.22179 0.509515,0.14633 0.52459,0.16019 0.325864,0.29938 -0.18515,0.12968 -0.293713,0.12201 -0.974094,-0.0689 -0.642932,-0.1804 -0.803567,-0.1946 -1.001711,-0.0885 -0.300668,0.16092 -0.297762,0.19114 0.07086,0.73733 0.294673,0.43664 0.316247,0.66121 0.06271,0.65281 -0.06559,-0.002 -0.498949,-0.56904 -0.963026,-1.25973 z m 0.759231,-0.49361 c 0.376944,-0.28751 0.442556,-0.66114 0.169154,-0.96325 -0.216892,-0.23966 -0.483467,-0.23139 -0.903216,0.028 -0.377279,0.23318 -0.390713,0.13544 0.129245,0.94032 0.08894,0.13767 0.186061,0.25032 0.215833,0.25032 0.02978,0 0.204811,-0.11494 0.388984,-0.25541 z m 2.181136,-0.49084 c -0.573885,-0.34403 -0.98671,-1.11858 -0.918541,-1.72337 0.111872,-0.99251 1.288795,-1.56165 2.147118,-1.03831 0.763965,0.46581 1.146479,1.62973 0.745274,2.26772 -0.212756,0.33832 -0.932809,0.74015 -1.323572,0.73863 -0.134054,-3.8e-4 -0.426677,-0.11057 -0.650279,-0.24467 z m 1.258665,-0.32161 c 0.307775,-0.18181 0.499577,-0.5157 0.499577,-0.8697 0,-0.28391 -0.520768,-1.11648 -0.7877,-1.25934 -0.38874,-0.20804 -0.907765,-0.12932 -1.222513,0.18544 -0.492527,0.49252 -0.358515,1.16729 0.356509,1.7951 0.403184,0.35399 0.73416,0.39657 1.154127,0.1485 z m 1.062208,-2.28889 -0.848191,-1.25411 0.235592,-0.15438 c 0.223209,-0.14624 0.27648,-0.13043 1.012846,0.30062 0.427487,0.25025 0.793304,0.43892 0.812927,0.41931 0.01964,-0.0197 -0.01994,-0.4205 -0.08795,-0.89083 -0.10093,-0.6981 -0.09954,-0.88419 0.0077,-1.01332 0.0722,-0.087 0.182091,-0.15739 0.244183,-0.15642 0.06209,7.8e-4 0.493099,0.56471 0.957789,1.25274 0.615007,0.9106 0.81489,1.28096 0.734632,1.36123 -0.162106,0.1621 -0.242113,0.0818 -0.933337,-0.93716 -0.346114,-0.5102 -0.644364,-0.94642 -0.662774,-0.96936 -0.105281,-0.1312 -0.09835,0.12776 0.02122,0.79265 0.23638,1.3146 0.225255,1.32268 -0.902871,0.65571 -0.414605,-0.24511 -0.753828,-0.41981 -0.753828,-0.3882 0,0.0316 0.298168,0.49822 0.662589,1.03693 0.593779,0.87776 0.71089,1.1987 0.437416,1.1987 -0.04932,0 -0.471369,-0.56435 -0.937875,-1.25411 z m 3.209979,-1.98973 c -0.42446,-1.66122 -0.434771,-1.7729 -0.178497,-1.93295 0.164964,-0.10303 0.367653,0.008 1.54669,0.84482 1.193559,0.84745 1.336393,0.97856 1.186883,1.08955 -0.138223,0.10257 -0.207358,0.099 -0.370215,-0.0194 -0.520758,-0.37846 -0.596106,-0.38027 -1.135952,-0.0272 -0.528859,0.34593 -0.588632,0.48193 -0.413843,0.94166 0.09822,0.25834 -0.0053,0.54504 -0.19676,0.54504 -0.03847,0 -0.235718,-0.64872 -0.438306,-1.4416 z m 0.852816,-0.32423 c 0.209467,-0.14516 0.379389,-0.29159 0.377595,-0.32541 -0.0046,-0.085 -1.138915,-0.90512 -1.186344,-0.8577 -0.05114,0.0512 0.313006,1.44705 0.377482,1.44705 0.02773,0 0.221797,-0.11878 0.431267,-0.26394 z m 9.941773,0.5652 c 0.20873,-0.17324 0.379094,-0.67836 0.314965,-0.93387 -0.298004,-1.18734 -1.956411,-1.06122 -1.963741,0.14932 -0.0026,0.42632 0.375884,0.95016 0.727102,1.00641 0.265194,0.0425 0.741241,-0.0722 0.921674,-0.22186 z m 2.504209,-1.90838 c 3.056834,-0.87682 5.719864,-1.23763 8.003461,-1.08439 1.124293,0.0755 2.411199,0.35809 2.99462,0.6577 0.156559,0.0804 0.305338,0.12551 0.330618,0.10017 0.02528,-0.0252 -0.422909,-0.55945 -0.995976,-1.18703 -4.881466,-5.34591 -11.405655,-9.29821 -18.392831,-11.14223 -1.814131,-0.47876 -5.079482,-1.05636 -5.972025,-1.05636 -0.319995,0 -0.259337,0.0475 0.631273,0.49416 0.541912,0.27178 1.345741,0.75882 1.786294,1.08227 2.705922,1.98675 5.350043,5.77041 7.313112,10.46487 l 0.638009,1.52571 0.480027,0.0538 c 0.561318,0.0631 0.882671,0.22022 1.036101,0.5069 0.07353,0.13737 0.16577,0.18361 0.27764,0.13914 0.09215,-0.0367 0.933501,-0.28628 1.869677,-0.5548 z"
       id="path861"
       inkscape:connector-curvature="0" />
  </g>
</svg>
